<?xml version="1.0" encoding="UTF-8"?>
<svg width="213px" height="40px" viewBox="0 0 213 40" version="1.1" xmlns="http://www.w3.org/2000/svg" xmlns:xlink="http://www.w3.org/1999/xlink">
    <!-- Generator: Sketch 57.1 (83088) - https://sketch.com -->
    <title>biz_2014</title>
    <desc>Created with Sketch.</desc>
    <defs>
        <path d="M2.079,9 L2.079,3.627 L0.243,3.627 L0.243,2.7 L5.076,2.7 L5.076,3.627 L3.231,3.627 L3.231,9 L2.079,9 Z M7.236,9.108 C6.80399784,9.108 6.41550173,9.00900099 6.0705,8.811 C5.72549828,8.61299901 5.45250101,8.33850175 5.2515,7.9875 C5.050499,7.63649825 4.95,7.23000231 4.95,6.768 C4.95,6.30599769 5.05199898,5.89950175 5.256,5.5485 C5.46000102,5.19749825 5.73449828,4.92300099 6.0795,4.725 C6.42450173,4.52699901 6.81299784,4.428 7.245,4.428 C7.67100213,4.428 8.05649828,4.52699901 8.4015,4.725 C8.74650173,4.92300099 9.019499,5.19749825 9.2205,5.5485 C9.42150101,5.89950175 9.522,6.30599769 9.522,6.768 C9.522,7.23000231 9.42150101,7.63649825 9.2205,7.9875 C9.019499,8.33850175 8.74500174,8.61299901 8.397,8.811 C8.04899826,9.00900099 7.66200213,9.108 7.236,9.108 Z M7.236,8.109 C7.5360015,8.109 7.79699889,7.99650112 8.019,7.7715 C8.24100111,7.54649887 8.352,7.21200222 8.352,6.768 C8.352,6.32399778 8.24100111,5.98950113 8.019,5.7645 C7.79699889,5.53949887 7.53900147,5.427 7.245,5.427 C6.93899847,5.427 6.6765011,5.53949887 6.4575,5.7645 C6.23849891,5.98950113 6.129,6.32399778 6.129,6.768 C6.129,7.21200222 6.23849891,7.54649887 6.4575,7.7715 C6.6765011,7.99650112 6.9359985,8.109 7.236,8.109 Z M12.357,9 C11.8889977,9 11.5140014,8.88600114 11.232,8.658 C10.9499986,8.42999886 10.809,8.02500291 10.809,7.443 L10.809,5.499 L10.044,5.499 L10.044,4.536 L10.809,4.536 L10.944,3.339 L11.961,3.339 L11.961,4.536 L13.167,4.536 L13.167,5.499 L11.961,5.499 L11.961,7.452 C11.961,7.66800108 12.0074995,7.81649959 12.1005,7.8975 C12.1935005,7.97850041 12.3539989,8.019 12.582,8.019 L13.14,8.019 L13.14,9 L12.357,9 Z M15.696,9.108 C15.3119981,9.108 14.9970012,9.04650061 14.751,8.9235 C14.5049988,8.80049939 14.3220006,8.63700102 14.202,8.433 C14.0819994,8.22899898 14.022,8.00400123 14.022,7.758 C14.022,7.34399793 14.1839984,7.00800129 14.508,6.75 C14.8320016,6.49199871 15.3179968,6.363 15.966,6.363 L17.1,6.363 L17.1,6.255 C17.1,5.94899847 17.0130009,5.72400072 16.839,5.58 C16.6649991,5.43599928 16.4490013,5.364 16.191,5.364 C15.9569988,5.364 15.7530009,5.41949944 15.579,5.5305 C15.4049991,5.64150056 15.2970002,5.80499892 15.255,6.021 L14.13,6.021 C14.1600002,5.69699838 14.2694991,5.4150012 14.4585,5.175 C14.6475009,4.9349988 14.8919985,4.75050064 15.192,4.6215 C15.4920015,4.49249935 15.8279981,4.428 16.2,4.428 C16.8360032,4.428 17.3369982,4.58699841 17.703,4.905 C18.0690018,5.22300159 18.252,5.67299709 18.252,6.255 L18.252,9 L17.271,9 L17.163,8.28 C17.0309993,8.5200012 16.8465012,8.71799922 16.6095,8.874 C16.3724988,9.03000078 16.0680019,9.108 15.696,9.108 Z M15.957,8.208 C16.2870017,8.208 16.5434991,8.10000108 16.7265,7.884 C16.9095009,7.66799892 17.0249998,7.40100159 17.073,7.083 L16.092,7.083 C15.7859985,7.083 15.5670007,7.13849944 15.435,7.2495 C15.3029993,7.36050055 15.237,7.49699919 15.237,7.659 C15.237,7.83300087 15.3029993,7.96799952 15.435,8.064 C15.5670007,8.16000048 15.7409989,8.208 15.957,8.208 Z M19.35,9 L19.35,2.52 L20.502,2.52 L20.502,9 L19.35,9 Z" id="path-1"></path>
        <path d="M1.573,23 L1.573,16.334 L0.33,16.609 L0.33,15.971 L1.881,15.3 L2.508,15.3 L2.508,23 L1.573,23 Z M3.344,24.309 L3.982,21.878 L4.939,21.878 L3.982,24.309 L3.344,24.309 Z M8.866,23.132 C8.30866388,23.132 7.83933524,23.027501 7.458,22.8185 C7.07666476,22.609499 6.77050115,22.3290018 6.5395,21.977 C6.30849884,21.6249982 6.13983386,21.2308355 6.0335,20.7945 C5.92716613,20.3581645 5.874,19.9126689 5.874,19.458 C5.874,18.6073291 5.99133216,17.8611699 6.226,17.2195 C6.46066784,16.5778301 6.79983111,16.0755018 7.2435,15.7125 C7.68716888,15.3494982 8.22433018,15.168 8.855,15.168 C9.33900242,15.168 9.75333161,15.2633324 10.098,15.454 C10.4426684,15.6446676 10.7158323,15.8994984 10.9175,16.2185 C11.1191677,16.5375016 11.2456664,16.8913314 11.297,17.28 L10.439,17.28 C10.3583329,16.8619979 10.1786681,16.5393345 9.9,16.312 C9.62133194,16.0846655 9.26933546,15.971 8.844,15.971 C8.26466377,15.971 7.77883529,16.2441639 7.3865,16.7905 C6.9941647,17.3368361 6.78333348,18.1893275 6.754,19.348 C6.93000088,19.0033316 7.21049807,18.7045013 7.5955,18.4515 C7.98050192,18.1984987 8.44433062,18.072 8.987,18.072 C9.4270022,18.072 9.83949807,18.1746656 10.2245,18.38 C10.6095019,18.5853344 10.9229988,18.8731648 11.165,19.2435 C11.4070012,19.6138352 11.528,20.0483308 11.528,20.547 C11.528,20.9796688 11.4216677,21.393998 11.209,21.79 C10.9963323,22.186002 10.6901687,22.5086654 10.2905,22.758 C9.89083133,23.0073346 9.41600275,23.132 8.866,23.132 Z M8.8,22.318 C9.14466839,22.318 9.45266531,22.2446674 9.724,22.098 C9.99533469,21.9513326 10.2079992,21.7478346 10.362,21.4875 C10.5160008,21.2271654 10.593,20.928335 10.593,20.591 C10.593,20.0703307 10.4225017,19.6541682 10.0815,19.3425 C9.74049829,19.0308318 9.3133359,18.875 8.8,18.875 C8.45533161,18.875 8.14733469,18.9538325 7.876,19.1115 C7.60466531,19.2691675 7.39016745,19.4799987 7.2325,19.744 C7.07483254,20.0080013 6.996,20.2939985 6.996,20.602 C6.996,20.9320017 7.07483254,21.2271654 7.2325,21.4875 C7.39016745,21.7478346 7.60466531,21.9513326 7.876,22.098 C8.14733469,22.2446674 8.45533161,22.318 8.8,22.318 Z M12.617,23 L12.617,22.351 C13.1376693,21.9403313 13.630831,21.5241688 14.0965,21.1025 C14.562169,20.6808312 14.9764982,20.2646687 15.3395,19.854 C15.7025018,19.4433313 15.988499,19.040002 16.1975,18.644 C16.406501,18.247998 16.511,17.8666685 16.511,17.5 C16.511,17.2286653 16.4651671,16.9756678 16.3735,16.741 C16.2818329,16.5063322 16.1333344,16.3175007 15.928,16.1745 C15.7226656,16.0314993 15.4440018,15.96 15.092,15.96 C14.754665,15.96 14.4723345,16.0351659 14.245,16.1855 C14.0176655,16.3358341 13.8471672,16.5356654 13.7335,16.785 C13.6198328,17.0343346 13.563,17.3019986 13.563,17.588 L12.672,17.588 C12.672,17.0819975 12.7783323,16.6475018 12.991,16.2845 C13.2036677,15.9214982 13.4933315,15.6446676 13.86,15.454 C14.2266685,15.2633324 14.6409977,15.168 15.103,15.168 C15.7850034,15.168 16.3441645,15.3604981 16.7805,15.7455 C17.2168355,16.1305019 17.435,16.7043295 17.435,17.467 C17.435,17.9216689 17.3213345,18.3708311 17.094,18.8145 C16.8666655,19.2581689 16.5770018,19.6871646 16.225,20.1015 C15.8729982,20.5158354 15.4971687,20.9026649 15.0975,21.262 C14.6978313,21.6213351 14.3256684,21.9439986 13.981,22.23 L17.699,22.23 L17.699,23 L12.617,23 Z M18.909,23 L18.909,22.351 C19.4296693,21.9403313 19.922831,21.5241688 20.3885,21.1025 C20.854169,20.6808312 21.2684982,20.2646687 21.6315,19.854 C21.9945018,19.4433313 22.280499,19.040002 22.4895,18.644 C22.698501,18.247998 22.803,17.8666685 22.803,17.5 C22.803,17.2286653 22.7571671,16.9756678 22.6655,16.741 C22.5738329,16.5063322 22.4253344,16.3175007 22.22,16.1745 C22.0146656,16.0314993 21.7360018,15.96 21.384,15.96 C21.046665,15.96 20.7643345,16.0351659 20.537,16.1855 C20.3096655,16.3358341 20.1391672,16.5356654 20.0255,16.785 C19.9118328,17.0343346 19.855,17.3019986 19.855,17.588 L18.964,17.588 C18.964,17.0819975 19.0703323,16.6475018 19.283,16.2845 C19.4956677,15.9214982 19.7853315,15.6446676 20.152,15.454 C20.5186685,15.2633324 20.9329977,15.168 21.395,15.168 C22.0770034,15.168 22.6361645,15.3604981 23.0725,15.7455 C23.5088355,16.1305019 23.727,16.7043295 23.727,17.467 C23.727,17.9216689 23.6133345,18.3708311 23.386,18.8145 C23.1586655,19.2581689 22.8690018,19.6871646 22.517,20.1015 C22.1649982,20.5158354 21.7891687,20.9026649 21.3895,21.262 C20.9898313,21.6213351 20.6176684,21.9439986 20.273,22.23 L23.991,22.23 L23.991,23 L18.909,23 Z" id="path-2"></path>
        <path d="M0.693,39 L0.693,38.351 C1.21366927,37.9403313 1.70683101,37.5241688 2.1725,37.1025 C2.638169,36.6808312 3.05249819,36.2646687 3.4155,35.854 C3.77850181,35.4433313 4.06449895,35.040002 4.2735,34.644 C4.48250104,34.247998 4.587,33.8666685 4.587,33.5 C4.587,33.2286653 4.54116712,32.9756678 4.4495,32.741 C4.35783287,32.5063322 4.20933436,32.3175007 4.004,32.1745 C3.79866564,32.0314993 3.52000176,31.96 3.168,31.96 C2.83066498,31.96 2.54833447,32.0351659 2.321,32.1855 C2.09366553,32.3358341 1.92316723,32.5356654 1.8095,32.785 C1.69583277,33.0343346 1.639,33.3019986 1.639,33.588 L0.748,33.588 C0.748,33.0819975 0.85433227,32.6475018 1.067,32.2845 C1.27966773,31.9214982 1.5693315,31.6446676 1.936,31.454 C2.3026685,31.2633324 2.71699769,31.168 3.179,31.168 C3.86100341,31.168 4.42016448,31.3604981 4.8565,31.7455 C5.29283552,32.1305019 5.511,32.7043295 5.511,33.467 C5.511,33.9216689 5.39733447,34.3708311 5.17,34.8145 C4.94266553,35.2581689 4.65300176,35.6871646 4.301,36.1015 C3.94899824,36.5158354 3.57316866,36.9026649 3.1735,37.262 C2.77383133,37.6213351 2.40166839,37.9439986 2.057,38.23 L5.775,38.23 L5.775,39 L0.693,39 Z M9.999,39.132 C9.31699659,39.132 8.72850247,38.9651683 8.2335,38.6315 C7.73849752,38.2978317 7.35900132,37.8321697 7.095,37.2345 C6.83099868,36.6368303 6.699,35.942004 6.699,35.15 C6.699,34.357996 6.83099868,33.6631697 7.095,33.0655 C7.35900132,32.4678303 7.73849752,32.0021683 8.2335,31.6685 C8.72850247,31.3348317 9.31699659,31.168 9.999,31.168 C10.6810034,31.168 11.2676642,31.3348317 11.759,31.6685 C12.2503358,32.0021683 12.6279987,32.4678303 12.892,33.0655 C13.1560013,33.6631697 13.288,34.357996 13.288,35.15 C13.288,35.942004 13.1560013,36.6368303 12.892,37.2345 C12.6279987,37.8321697 12.2503358,38.2978317 11.759,38.6315 C11.2676642,38.9651683 10.6810034,39.132 9.999,39.132 Z M9.999,38.318 C10.4463356,38.318 10.8478316,38.1915013 11.2035,37.9385 C11.5591684,37.6854987 11.8378323,37.3225024 12.0395,36.8495 C12.2411677,36.3764976 12.342,35.8100033 12.342,35.15 C12.342,34.4899967 12.2411677,33.9253357 12.0395,33.456 C11.8378323,32.9866643 11.5591684,32.6255013 11.2035,32.3725 C10.8478316,32.1194987 10.4463356,31.993 9.999,31.993 C9.54433106,31.993 9.14100176,32.1194987 8.789,32.3725 C8.43699824,32.6255013 8.15833436,32.9866643 7.953,33.456 C7.74766564,33.9253357 7.645,34.4899967 7.645,35.15 C7.645,35.8100033 7.74766564,36.3764976 7.953,36.8495 C8.15833436,37.3225024 8.43699824,37.6854987 8.789,37.9385 C9.14100176,38.1915013 9.54433106,38.318 9.999,38.318 Z M13.497,40.309 L14.135,37.878 L15.092,37.878 L14.135,40.309 L13.497,40.309 Z M19.019,39.132 C18.4616639,39.132 17.9923352,39.027501 17.611,38.8185 C17.2296648,38.609499 16.9235012,38.3290018 16.6925,37.977 C16.4614988,37.6249982 16.2928339,37.2308355 16.1865,36.7945 C16.0801661,36.3581645 16.027,35.9126689 16.027,35.458 C16.027,34.6073291 16.1443322,33.8611699 16.379,33.2195 C16.6136678,32.5778301 16.9528311,32.0755018 17.3965,31.7125 C17.8401689,31.3494982 18.3773302,31.168 19.008,31.168 C19.4920024,31.168 19.9063316,31.2633324 20.251,31.454 C20.5956684,31.6446676 20.8688323,31.8994984 21.0705,32.2185 C21.2721677,32.5375016 21.3986664,32.8913314 21.45,33.28 L20.592,33.28 C20.5113329,32.8619979 20.3316681,32.5393345 20.053,32.312 C19.7743319,32.0846655 19.4223355,31.971 18.997,31.971 C18.4176638,31.971 17.9318353,32.2441639 17.5395,32.7905 C17.1471647,33.3368361 16.9363335,34.1893275 16.907,35.348 C17.0830009,35.0033316 17.3634981,34.7045013 17.7485,34.4515 C18.1335019,34.1984987 18.5973306,34.072 19.14,34.072 C19.5800022,34.072 19.9924981,34.1746656 20.3775,34.38 C20.7625019,34.5853344 21.0759988,34.8731648 21.318,35.2435 C21.5600012,35.6138352 21.681,36.0483308 21.681,36.547 C21.681,36.9796688 21.5746677,37.393998 21.362,37.79 C21.1493323,38.186002 20.8431687,38.5086654 20.4435,38.758 C20.0438313,39.0073346 19.5690027,39.132 19.019,39.132 Z M18.953,38.318 C19.2976684,38.318 19.6056653,38.2446674 19.877,38.098 C20.1483347,37.9513326 20.3609992,37.7478346 20.515,37.4875 C20.6690008,37.2271654 20.746,36.928335 20.746,36.591 C20.746,36.0703307 20.5755017,35.6541682 20.2345,35.3425 C19.8934983,35.0308318 19.4663359,34.875 18.953,34.875 C18.6083316,34.875 18.3003347,34.9538325 18.029,35.1115 C17.7576653,35.2691675 17.5431675,35.4799987 17.3855,35.744 C17.2278325,36.0080013 17.149,36.2939985 17.149,36.602 C17.149,36.9320017 17.2278325,37.2271654 17.3855,37.4875 C17.5431675,37.7478346 17.7576653,37.9513326 18.029,38.098 C18.3003347,38.2446674 18.6083316,38.318 18.953,38.318 Z M22.77,39 L22.77,38.351 C23.2906693,37.9403313 23.783831,37.5241688 24.2495,37.1025 C24.715169,36.6808312 25.1294982,36.2646687 25.4925,35.854 C25.8555018,35.4433313 26.141499,35.040002 26.3505,34.644 C26.559501,34.247998 26.664,33.8666685 26.664,33.5 C26.664,33.2286653 26.6181671,32.9756678 26.5265,32.741 C26.4348329,32.5063322 26.2863344,32.3175007 26.081,32.1745 C25.8756656,32.0314993 25.5970018,31.96 25.245,31.96 C24.907665,31.96 24.6253345,32.0351659 24.398,32.1855 C24.1706655,32.3358341 24.0001672,32.5356654 23.8865,32.785 C23.7728328,33.0343346 23.716,33.3019986 23.716,33.588 L22.825,33.588 C22.825,33.0819975 22.9313323,32.6475018 23.144,32.2845 C23.3566677,31.9214982 23.6463315,31.6446676 24.013,31.454 C24.3796685,31.2633324 24.7939977,31.168 25.256,31.168 C25.9380034,31.168 26.4971645,31.3604981 26.9335,31.7455 C27.3698355,32.1305019 27.588,32.7043295 27.588,33.467 C27.588,33.9216689 27.4743345,34.3708311 27.247,34.8145 C27.0196655,35.2581689 26.7300018,35.6871646 26.378,36.1015 C26.0259982,36.5158354 25.6501687,36.9026649 25.2505,37.262 C24.8508313,37.6213351 24.4786684,37.9439986 24.134,38.23 L27.852,38.23 L27.852,39 L22.77,39 Z M31.603,31.168 C32.1603361,31.168 32.6296648,31.272499 33.011,31.4815 C33.3923352,31.690501 33.6984988,31.9709982 33.9295,32.323 C34.1605012,32.6750018 34.3291661,33.0691645 34.4355,33.5055 C34.5418339,33.9418355 34.595,34.3873311 34.595,34.842 C34.595,35.6926709 34.4776678,36.4388301 34.243,37.0805 C34.0083322,37.7221699 33.6691689,38.2244982 33.2255,38.5875 C32.7818311,38.9505018 32.2446698,39.132 31.614,39.132 C31.1299976,39.132 30.7156684,39.0366676 30.371,38.846 C30.0263316,38.6553324 29.7531677,38.4005016 29.5515,38.0815 C29.3498323,37.7624984 29.2233336,37.4086686 29.172,37.02 L30.03,37.02 C30.1106671,37.4380021 30.2903319,37.7606655 30.569,37.988 C30.8476681,38.2153345 31.1996645,38.329 31.625,38.329 C32.2043362,38.329 32.6901647,38.0558361 33.0825,37.5095 C33.4748353,36.9631639 33.6856665,36.1106725 33.715,34.952 C33.5389991,35.2966684 33.2585019,35.5954987 32.8735,35.8485 C32.4884981,36.1015013 32.0246694,36.228 31.482,36.228 C31.0419978,36.228 30.6295019,36.1253344 30.2445,35.92 C29.8594981,35.7146656 29.5460012,35.4268352 29.304,35.0565 C29.0619988,34.6861648 28.941,34.2516692 28.941,33.753 C28.941,33.3203312 29.0473323,32.906002 29.26,32.51 C29.4726677,32.113998 29.7788313,31.7913346 30.1785,31.542 C30.5781687,31.2926654 31.0529972,31.168 31.603,31.168 Z M31.669,31.982 C31.3243316,31.982 31.0163347,32.0553326 30.745,32.202 C30.4736653,32.3486674 30.2610008,32.5521654 30.107,32.8125 C29.9529992,33.0728346 29.876,33.371665 29.876,33.709 C29.876,34.2296693 30.0464983,34.6458318 30.3875,34.9575 C30.7285017,35.2691682 31.1556641,35.425 31.669,35.425 C32.0136684,35.425 32.3216653,35.3461675 32.593,35.1885 C32.8643347,35.0308325 33.0788325,34.8200013 33.2365,34.556 C33.3941675,34.2919987 33.473,34.0060015 33.473,33.698 C33.473,33.3679984 33.3941675,33.0728346 33.2365,32.8125 C33.0788325,32.5521654 32.8643347,32.3486674 32.593,32.202 C32.3216653,32.0553326 32.0136684,31.982 31.669,31.982 Z" id="path-3"></path>
        <path d="M0.781,9 L0.781,2.7 L3.31,2.7 C3.96400327,2.7 4.46349828,2.85149849 4.8085,3.1545 C5.15350173,3.45750151 5.326,3.84599763 5.326,4.32 C5.326,4.71600198 5.21950107,5.03249881 5.0065,5.2695 C4.79349894,5.50650118 4.53400153,5.66699958 4.228,5.751 C4.5880018,5.82300036 4.88499883,6.00149857 5.119,6.2865 C5.35300117,6.57150142 5.47,6.90299811 5.47,7.281 C5.47,7.77900249 5.2900018,8.18999838 4.93,8.514 C4.5699982,8.83800162 4.0600033,9 3.4,9 L0.781,9 Z M1.933,5.346 L3.139,5.346 C3.46300162,5.346 3.71199913,5.27100075 3.886,5.121 C4.06000087,4.97099925 4.147,4.75800138 4.147,4.482 C4.147,4.21799868 4.06150086,4.00950077 3.8905,3.8565 C3.71949914,3.70349923 3.46300171,3.627 3.121,3.627 L1.933,3.627 L1.933,5.346 Z M1.933,8.064 L3.22,8.064 C3.56200171,8.064 3.82749906,7.98450079 4.0165,7.8255 C4.20550094,7.66649921 4.3,7.44300144 4.3,7.155 C4.3,6.86099853 4.20100099,6.63000084 4.003,6.462 C3.80499901,6.29399916 3.53800168,6.21 3.202,6.21 L1.933,6.21 L1.933,8.064 Z M6.433,9 L6.433,2.52 L7.585,2.52 L7.585,9 L6.433,9 Z M10.906,9.108 C10.4739978,9.108 10.0855017,9.00900099 9.7405,8.811 C9.39549828,8.61299901 9.12250101,8.33850175 8.9215,7.9875 C8.720499,7.63649825 8.62,7.23000231 8.62,6.768 C8.62,6.30599769 8.72199898,5.89950175 8.926,5.5485 C9.13000102,5.19749825 9.40449828,4.92300099 9.7495,4.725 C10.0945017,4.52699901 10.4829978,4.428 10.915,4.428 C11.3410021,4.428 11.7264983,4.52699901 12.0715,4.725 C12.4165017,4.92300099 12.689499,5.19749825 12.8905,5.5485 C13.091501,5.89950175 13.192,6.30599769 13.192,6.768 C13.192,7.23000231 13.091501,7.63649825 12.8905,7.9875 C12.689499,8.33850175 12.4150017,8.61299901 12.067,8.811 C11.7189983,9.00900099 11.3320021,9.108 10.906,9.108 Z M10.906,8.109 C11.2060015,8.109 11.4669989,7.99650112 11.689,7.7715 C11.9110011,7.54649887 12.022,7.21200222 12.022,6.768 C12.022,6.32399778 11.9110011,5.98950113 11.689,5.7645 C11.4669989,5.53949887 11.2090015,5.427 10.915,5.427 C10.6089985,5.427 10.3465011,5.53949887 10.1275,5.7645 C9.90849891,5.98950113 9.799,6.32399778 9.799,6.768 C9.799,7.21200222 9.90849891,7.54649887 10.1275,7.7715 C10.3465011,7.99650112 10.6059985,8.109 10.906,8.109 Z M16.405,9.108 C15.9489977,9.108 15.5470017,9.00900099 15.199,8.811 C14.8509983,8.61299901 14.576501,8.33700177 14.3755,7.983 C14.174499,7.62899823 14.074,7.22400228 14.074,6.768 C14.074,6.31199772 14.174499,5.90700177 14.3755,5.553 C14.576501,5.19899823 14.8509983,4.92300099 15.199,4.725 C15.5470017,4.52699901 15.9489977,4.428 16.405,4.428 C16.9750029,4.428 17.4549981,4.57649851 17.845,4.8735 C18.235002,5.17050148 18.4839995,5.57999739 18.592,6.102 L17.377,6.102 C17.3169997,5.88599892 17.1985009,5.71650062 17.0215,5.5935 C16.8444991,5.47049938 16.6360012,5.409 16.396,5.409 C16.0779984,5.409 15.8080011,5.5289988 15.586,5.769 C15.3639989,6.0090012 15.253,6.34199787 15.253,6.768 C15.253,7.19400213 15.3639989,7.5269988 15.586,7.767 C15.8080011,8.0070012 16.0779984,8.127 16.396,8.127 C16.6360012,8.127 16.8444991,8.0670006 17.0215,7.947 C17.1985009,7.8269994 17.3169997,7.65600111 17.377,7.434 L18.592,7.434 C18.4839995,7.93800252 18.235002,8.34299847 17.845,8.649 C17.4549981,8.95500153 16.9750029,9.108 16.405,9.108 Z M19.618,9 L19.618,2.52 L20.77,2.52 L20.77,6.345 L22.354,4.536 L23.722,4.536 L21.895,6.57 L24.019,9 L22.579,9 L20.77,6.759 L20.77,9 L19.618,9 Z M26.359,9.108 C25.962998,9.108 25.6150015,9.04350064 25.315,8.9145 C25.0149985,8.78549936 24.7750009,8.60700114 24.595,8.379 C24.4149991,8.15099886 24.3070002,7.8870015 24.271,7.587 L25.432,7.587 C25.4680002,7.76100087 25.5654992,7.90949939 25.7245,8.0325 C25.8835008,8.15550061 26.0889987,8.217 26.341,8.217 C26.5930013,8.217 26.7774994,8.16600051 26.8945,8.064 C27.0115006,7.96199949 27.07,7.84500066 27.07,7.713 C27.07,7.52099904 26.9860008,7.39050035 26.818,7.3215 C26.6499992,7.25249966 26.4160015,7.18500033 26.116,7.119 C25.923999,7.07699979 25.729001,7.0260003 25.531,6.966 C25.332999,6.9059997 25.1515008,6.82950046 24.9865,6.7365 C24.8214992,6.64349954 24.6880005,6.52350073 24.586,6.3765 C24.4839995,6.22949926 24.433,6.04800108 24.433,5.832 C24.433,5.43599802 24.5904984,5.10300135 24.9055,4.833 C25.2205016,4.56299865 25.6629972,4.428 26.233,4.428 C26.7610026,4.428 27.1824984,4.55099877 27.4975,4.797 C27.8125016,5.04300123 27.9999997,5.38199784 28.06,5.814 L26.971,5.814 C26.9049997,5.48399835 26.6560022,5.319 26.224,5.319 C26.0079989,5.319 25.8415006,5.36099958 25.7245,5.445 C25.6074994,5.52900042 25.549,5.63399937 25.549,5.76 C25.549,5.89200066 25.6359991,5.99699961 25.81,6.075 C25.9840009,6.15300039 26.2149986,6.22499967 26.503,6.291 C26.8150016,6.36300036 27.1014987,6.44249956 27.3625,6.5295 C27.6235013,6.61650043 27.8319992,6.74549915 27.988,6.9165 C28.1440008,7.08750086 28.222,7.33199841 28.222,7.65 C28.228,7.92600138 28.1560008,8.17499889 28.006,8.397 C27.8559993,8.61900111 27.6400014,8.79299937 27.358,8.919 C27.0759986,9.04500063 26.7430019,9.108 26.359,9.108 Z M32.254,9 L30.949,4.536 L32.092,4.536 L32.866,7.749 L33.766,4.536 L35.044,4.536 L35.944,7.749 L36.727,4.536 L37.87,4.536 L36.556,9 L35.359,9 L34.405,5.661 L33.451,9 L32.254,9 Z M39.22,3.843 C39.009999,3.843 38.8375007,3.78000063 38.7025,3.654 C38.5674993,3.52799937 38.5,3.36900096 38.5,3.177 C38.5,2.98499904 38.5674993,2.82750061 38.7025,2.7045 C38.8375007,2.58149938 39.009999,2.52 39.22,2.52 C39.4300011,2.52 39.6024993,2.58149938 39.7375,2.7045 C39.8725007,2.82750061 39.94,2.98499904 39.94,3.177 C39.94,3.36900096 39.8725007,3.52799937 39.7375,3.654 C39.6024993,3.78000063 39.4300011,3.843 39.22,3.843 Z M38.644,9 L38.644,4.536 L39.796,4.536 L39.796,9 L38.644,9 Z M42.991,9 C42.5229977,9 42.1480014,8.88600114 41.866,8.658 C41.5839986,8.42999886 41.443,8.02500291 41.443,7.443 L41.443,5.499 L40.678,5.499 L40.678,4.536 L41.443,4.536 L41.578,3.339 L42.595,3.339 L42.595,4.536 L43.801,4.536 L43.801,5.499 L42.595,5.499 L42.595,7.452 C42.595,7.66800108 42.6414995,7.81649959 42.7345,7.8975 C42.8275005,7.97850041 42.9879989,8.019 43.216,8.019 L43.774,8.019 L43.774,9 L42.991,9 Z M44.791,9 L44.791,2.52 L45.943,2.52 L45.943,5.22 C46.0930008,4.97399877 46.2954987,4.7805007 46.5505,4.6395 C46.8055013,4.49849929 47.0979984,4.428 47.428,4.428 C47.9800028,4.428 48.4074985,4.60199826 48.7105,4.95 C49.0135015,5.29800174 49.165,5.80799664 49.165,6.48 L49.165,9 L48.022,9 L48.022,6.588 C48.022,6.20399808 47.9455008,5.91000102 47.7925,5.706 C47.6394992,5.50199898 47.3980017,5.4 47.068,5.4 C46.7439984,5.4 46.4755011,5.51399886 46.2625,5.742 C46.0494989,5.97000114 45.943,6.28799796 45.943,6.696 L45.943,9 L44.791,9 Z M52.405,10.98 L52.405,4.536 L53.431,4.536 L53.557,5.175 C53.7010007,4.97699901 53.8914988,4.80300075 54.1285,4.653 C54.3655012,4.50299925 54.6729981,4.428 55.051,4.428 C55.4710021,4.428 55.8459984,4.52999898 56.176,4.734 C56.5060017,4.93800102 56.766999,5.21699823 56.959,5.571 C57.151001,5.92500177 57.247,6.32699775 57.247,6.777 C57.247,7.22700225 57.151001,7.62749824 56.959,7.9785 C56.766999,8.32950175 56.5060017,8.60549899 56.176,8.8065 C55.8459984,9.007501 55.4710021,9.108 55.051,9.108 C54.7149983,9.108 54.4210013,9.04500063 54.169,8.919 C53.9169987,8.79299937 53.7130008,8.61600114 53.557,8.388 L53.557,10.98 L52.405,10.98 Z M54.808,8.1 C55.1740018,8.1 55.4769988,7.97700123 55.717,7.731 C55.9570012,7.48499877 56.077,7.16700195 56.077,6.777 C56.077,6.38699805 55.9570012,6.06600126 55.717,5.814 C55.4769988,5.56199874 55.1740018,5.436 54.808,5.436 C54.4359981,5.436 54.1315012,5.56049876 53.8945,5.8095 C53.6574988,6.05850125 53.539,6.37799805 53.539,6.768 C53.539,7.15800195 53.6574988,7.47749876 53.8945,7.7265 C54.1315012,7.97550125 54.4359981,8.1 54.808,8.1 Z M59.812,9.108 C59.4279981,9.108 59.1130012,9.04650061 58.867,8.9235 C58.6209988,8.80049939 58.4380006,8.63700102 58.318,8.433 C58.1979994,8.22899898 58.138,8.00400123 58.138,7.758 C58.138,7.34399793 58.2999984,7.00800129 58.624,6.75 C58.9480016,6.49199871 59.4339968,6.363 60.082,6.363 L61.216,6.363 L61.216,6.255 C61.216,5.94899847 61.1290009,5.72400072 60.955,5.58 C60.7809991,5.43599928 60.5650013,5.364 60.307,5.364 C60.0729988,5.364 59.8690009,5.41949944 59.695,5.5305 C59.5209991,5.64150056 59.4130002,5.80499892 59.371,6.021 L58.246,6.021 C58.2760002,5.69699838 58.3854991,5.4150012 58.5745,5.175 C58.7635009,4.9349988 59.0079985,4.75050064 59.308,4.6215 C59.6080015,4.49249935 59.9439981,4.428 60.316,4.428 C60.9520032,4.428 61.4529982,4.58699841 61.819,4.905 C62.1850018,5.22300159 62.368,5.67299709 62.368,6.255 L62.368,9 L61.387,9 L61.279,8.28 C61.1469993,8.5200012 60.9625012,8.71799922 60.7255,8.874 C60.4884988,9.03000078 60.1840019,9.108 59.812,9.108 Z M60.073,8.208 C60.4030017,8.208 60.6594991,8.10000108 60.8425,7.884 C61.0255009,7.66799892 61.1409998,7.40100159 61.189,7.083 L60.208,7.083 C59.9019985,7.083 59.6830007,7.13849944 59.551,7.2495 C59.4189993,7.36050055 59.353,7.49699919 59.353,7.659 C59.353,7.83300087 59.4189993,7.96799952 59.551,8.064 C59.6830007,8.16000048 59.8569989,8.208 60.073,8.208 Z M63.466,9 L63.466,4.536 L64.492,4.536 L64.6,5.373 C64.7620008,5.08499856 64.9824986,4.85550085 65.2615,4.6845 C65.5405014,4.51349914 65.8689981,4.428 66.247,4.428 L66.247,5.643 L65.923,5.643 C65.6709987,5.643 65.446001,5.68199961 65.248,5.76 C65.049999,5.83800039 64.8955006,5.97299904 64.7845,6.165 C64.6734994,6.35700096 64.618,6.62399829 64.618,6.966 L64.618,9 L63.466,9 Z M67.03,9 L67.03,2.52 L68.182,2.52 L68.182,6.345 L69.766,4.536 L71.134,4.536 L69.307,6.57 L71.431,9 L69.991,9 L68.182,6.759 L68.182,9 L67.03,9 Z M72.142,9 L72.142,2.52 L73.294,2.52 L73.294,9 L72.142,9 Z M76.642,9.108 C76.1919977,9.108 75.7930017,9.01200096 75.445,8.82 C75.0969983,8.62799904 74.824001,8.35800174 74.626,8.01 C74.427999,7.66199826 74.329,7.26000228 74.329,6.804 C74.329,6.34199769 74.426499,5.9310018 74.6215,5.571 C74.816501,5.2109982 75.0864983,4.930501 75.4315,4.7295 C75.7765017,4.52849899 76.1829977,4.428 76.651,4.428 C77.0890022,4.428 77.4759983,4.52399904 77.812,4.716 C78.1480017,4.90800096 78.4104991,5.17049833 78.5995,5.5035 C78.7885009,5.83650167 78.883,6.20699796 78.883,6.615 C78.883,6.68100033 78.8815,6.74999964 78.8785,6.822 C78.8755,6.89400036 78.871,6.96899961 78.865,7.047 L75.472,7.047 C75.4960001,7.39500174 75.6174989,7.66799901 75.8365,7.866 C76.0555011,8.06400099 76.3209984,8.163 76.633,8.163 C76.8670012,8.163 77.0634992,8.11050052 77.2225,8.0055 C77.3815008,7.90049948 77.4999996,7.76400084 77.578,7.596 L78.748,7.596 C78.6639996,7.87800141 78.524501,8.13449884 78.3295,8.3655 C78.134499,8.59650115 77.8945014,8.77799934 77.6095,8.91 C77.3244986,9.04200066 77.0020018,9.108 76.642,9.108 Z M76.651,5.364 C76.3689986,5.364 76.1200011,5.4434992 75.904,5.6025 C75.6879989,5.76150079 75.5500003,6.00299838 75.49,6.327 L77.713,6.327 C77.6949999,6.03299853 77.587001,5.79900087 77.389,5.625 C77.190999,5.45099913 76.9450015,5.364 76.651,5.364 Z M81.763,9 C81.2949977,9 80.9200014,8.88600114 80.638,8.658 C80.3559986,8.42999886 80.215,8.02500291 80.215,7.443 L80.215,5.499 L79.45,5.499 L79.45,4.536 L80.215,4.536 L80.35,3.339 L81.367,3.339 L81.367,4.536 L82.573,4.536 L82.573,5.499 L81.367,5.499 L81.367,7.452 C81.367,7.66800108 81.4134995,7.81649959 81.5065,7.8975 C81.5995005,7.97850041 81.7599989,8.019 81.988,8.019 L82.546,8.019 L82.546,9 L81.763,9 Z M85.408,9.108 C85.011998,9.108 84.6640015,9.04350064 84.364,8.9145 C84.0639985,8.78549936 83.8240009,8.60700114 83.644,8.379 C83.4639991,8.15099886 83.3560002,7.8870015 83.32,7.587 L84.481,7.587 C84.5170002,7.76100087 84.6144992,7.90949939 84.7735,8.0325 C84.9325008,8.15550061 85.1379987,8.217 85.39,8.217 C85.6420013,8.217 85.8264994,8.16600051 85.9435,8.064 C86.0605006,7.96199949 86.119,7.84500066 86.119,7.713 C86.119,7.52099904 86.0350008,7.39050035 85.867,7.3215 C85.6989992,7.25249966 85.4650015,7.18500033 85.165,7.119 C84.972999,7.07699979 84.778001,7.0260003 84.58,6.966 C84.381999,6.9059997 84.2005008,6.82950046 84.0355,6.7365 C83.8704992,6.64349954 83.7370005,6.52350073 83.635,6.3765 C83.5329995,6.22949926 83.482,6.04800108 83.482,5.832 C83.482,5.43599802 83.6394984,5.10300135 83.9545,4.833 C84.2695016,4.56299865 84.7119972,4.428 85.282,4.428 C85.8100026,4.428 86.2314984,4.55099877 86.5465,4.797 C86.8615016,5.04300123 87.0489997,5.38199784 87.109,5.814 L86.02,5.814 C85.9539997,5.48399835 85.7050022,5.319 85.273,5.319 C85.0569989,5.319 84.8905006,5.36099958 84.7735,5.445 C84.6564994,5.52900042 84.598,5.63399937 84.598,5.76 C84.598,5.89200066 84.6849991,5.99699961 84.859,6.075 C85.0330009,6.15300039 85.2639986,6.22499967 85.552,6.291 C85.8640016,6.36300036 86.1504987,6.44249956 86.4115,6.5295 C86.6725013,6.61650043 86.8809992,6.74549915 87.037,6.9165 C87.1930008,7.08750086 87.271,7.33199841 87.271,7.65 C87.277,7.92600138 87.2050008,8.17499889 87.055,8.397 C86.9049993,8.61900111 86.6890014,8.79299937 86.407,8.919 C86.1249986,9.04500063 85.7920019,9.108 85.408,9.108 Z" id="path-4"></path>
        <path d="M52.396,25.108 C51.7599968,25.108 51.2140023,24.9715014 50.758,24.6985 C50.3019977,24.4254986 49.9510012,24.0445024 49.705,23.5555 C49.4589988,23.0664976 49.336,22.5010032 49.336,21.859 C49.336,21.2169968 49.4589988,20.6500025 49.705,20.158 C49.9510012,19.6659975 50.3019977,19.2820014 50.758,19.006 C51.2140023,18.7299986 51.7599968,18.592 52.396,18.592 C53.1520038,18.592 53.7714976,18.7794981 54.2545,19.1545 C54.7375024,19.5295019 55.0389994,20.0559966 55.159,20.734 L53.89,20.734 C53.8119996,20.3919983 53.6455013,20.123501 53.3905,19.9285 C53.1354987,19.733499 52.7980021,19.636 52.378,19.636 C51.7959971,19.636 51.3400016,19.833998 51.01,20.23 C50.6799983,20.626002 50.515,21.1689965 50.515,21.859 C50.515,22.5490035 50.6799983,23.090498 51.01,23.4835 C51.3400016,23.876502 51.7959971,24.073 52.378,24.073 C52.7980021,24.073 53.1354987,23.9815009 53.3905,23.7985 C53.6455013,23.6154991 53.8119996,23.3620016 53.89,23.038 L55.159,23.038 C55.0389994,23.6860032 54.7375024,24.1929982 54.2545,24.559 C53.7714976,24.9250018 53.1520038,25.108 52.396,25.108 Z M56.77,19.843 C56.5599989,19.843 56.3875007,19.7800006 56.2525,19.654 C56.1174993,19.5279994 56.05,19.369001 56.05,19.177 C56.05,18.984999 56.1174993,18.8275006 56.2525,18.7045 C56.3875007,18.5814994 56.5599989,18.52 56.77,18.52 C56.980001,18.52 57.1524993,18.5814994 57.2875,18.7045 C57.4225007,18.8275006 57.49,18.984999 57.49,19.177 C57.49,19.369001 57.4225007,19.5279994 57.2875,19.654 C57.1524993,19.7800006 56.980001,19.843 56.77,19.843 Z M56.194,25 L56.194,20.536 L57.346,20.536 L57.346,25 L56.194,25 Z M60.541,25 C60.0729977,25 59.6980014,24.8860011 59.416,24.658 C59.1339986,24.4299989 58.993,24.0250029 58.993,23.443 L58.993,21.499 L58.228,21.499 L58.228,20.536 L58.993,20.536 L59.128,19.339 L60.145,19.339 L60.145,20.536 L61.351,20.536 L61.351,21.499 L60.145,21.499 L60.145,23.452 C60.145,23.6680011 60.1914995,23.8164996 60.2845,23.8975 C60.3775005,23.9785004 60.5379989,24.019 60.766,24.019 L61.324,24.019 L61.324,25 L60.541,25 Z M62.899,26.98 L63.934,24.703 L63.664,24.703 L61.927,20.536 L63.178,20.536 L64.429,23.677 L65.734,20.536 L66.958,20.536 L64.123,26.98 L62.899,26.98 Z M68.587,25 L67.282,20.536 L68.425,20.536 L69.199,23.749 L70.099,20.536 L71.377,20.536 L72.277,23.749 L73.06,20.536 L74.203,20.536 L72.889,25 L71.692,25 L70.738,21.661 L69.784,25 L68.587,25 Z M75.553,19.843 C75.3429989,19.843 75.1705007,19.7800006 75.0355,19.654 C74.9004993,19.5279994 74.833,19.369001 74.833,19.177 C74.833,18.984999 74.9004993,18.8275006 75.0355,18.7045 C75.1705007,18.5814994 75.3429989,18.52 75.553,18.52 C75.763001,18.52 75.9354993,18.5814994 76.0705,18.7045 C76.2055007,18.8275006 76.273,18.984999 76.273,19.177 C76.273,19.369001 76.2055007,19.5279994 76.0705,19.654 C75.9354993,19.7800006 75.763001,19.843 75.553,19.843 Z M74.977,25 L74.977,20.536 L76.129,20.536 L76.129,25 L74.977,25 Z M79.387,25.108 C78.9669979,25.108 78.5920016,25.006001 78.262,24.802 C77.9319983,24.597999 77.671001,24.3190018 77.479,23.965 C77.286999,23.6109982 77.191,23.2090022 77.191,22.759 C77.191,22.3089977 77.286999,21.9085018 77.479,21.5575 C77.671001,21.2064982 77.9319983,20.930501 78.262,20.7295 C78.5920016,20.528499 78.9669979,20.428 79.387,20.428 C79.7230017,20.428 80.0169987,20.4909994 80.269,20.617 C80.5210013,20.7430006 80.7249992,20.9199989 80.881,21.148 L80.881,18.52 L82.033,18.52 L82.033,25 L81.007,25 L80.881,24.361 C80.7369993,24.559001 80.5465012,24.7329992 80.3095,24.883 C80.0724988,25.0330007 79.7650019,25.108 79.387,25.108 Z M79.63,24.1 C80.0020019,24.1 80.3064988,23.9755012 80.5435,23.7265 C80.7805012,23.4774988 80.899,23.1580019 80.899,22.768 C80.899,22.3779981 80.7805012,22.0585012 80.5435,21.8095 C80.3064988,21.5604988 80.0020019,21.436 79.63,21.436 C79.2639982,21.436 78.9610012,21.5589988 78.721,21.805 C78.4809988,22.0510012 78.361,22.3689981 78.361,22.759 C78.361,23.1490019 78.4809988,23.4699987 78.721,23.722 C78.9610012,23.9740013 79.2639982,24.1 79.63,24.1 Z M85.372,25.108 C84.9219978,25.108 84.5230017,25.012001 84.175,24.82 C83.8269983,24.627999 83.554001,24.3580017 83.356,24.01 C83.157999,23.6619983 83.059,23.2600023 83.059,22.804 C83.059,22.3419977 83.156499,21.9310018 83.3515,21.571 C83.546501,21.2109982 83.8164983,20.930501 84.1615,20.7295 C84.5065017,20.528499 84.9129977,20.428 85.381,20.428 C85.8190022,20.428 86.2059983,20.523999 86.542,20.716 C86.8780017,20.908001 87.1404991,21.1704983 87.3295,21.5035 C87.5185009,21.8365017 87.613,22.206998 87.613,22.615 C87.613,22.6810003 87.6115,22.7499996 87.6085,22.822 C87.6055,22.8940004 87.601,22.9689996 87.595,23.047 L84.202,23.047 C84.2260001,23.3950017 84.3474989,23.667999 84.5665,23.866 C84.7855011,24.064001 85.0509984,24.163 85.363,24.163 C85.5970012,24.163 85.7934992,24.1105005 85.9525,24.0055 C86.1115008,23.9004995 86.2299996,23.7640008 86.308,23.596 L87.478,23.596 C87.3939996,23.8780014 87.254501,24.1344988 87.0595,24.3655 C86.864499,24.5965012 86.6245014,24.7779993 86.3395,24.91 C86.0544986,25.0420007 85.7320018,25.108 85.372,25.108 Z M85.381,21.364 C85.0989986,21.364 84.8500011,21.4434992 84.634,21.6025 C84.4179989,21.7615008 84.2800003,22.0029984 84.22,22.327 L86.443,22.327 C86.4249999,22.0329985 86.317001,21.7990009 86.119,21.625 C85.920999,21.4509991 85.6750015,21.364 85.381,21.364 Z" id="path-5"></path>
        <path d="M1.908,5.796 C1.61999856,5.796 1.35900117,5.73150064 1.125,5.6025 C0.89099883,5.47349935 0.70500069,5.2890012 0.567,5.049 C0.42899931,4.8089988 0.36,4.52400165 0.36,4.194 C0.36,3.86399835 0.42899931,3.5790012 0.567,3.339 C0.70500069,3.0989988 0.89099883,2.91450064 1.125,2.7855 C1.35900117,2.65649935 1.62299853,2.592 1.917,2.592 C2.20500144,2.592 2.46449885,2.65649935 2.6955,2.7855 C2.92650116,2.91450064 3.11099931,3.0989988 3.249,3.339 C3.38700069,3.5790012 3.456,3.86399835 3.456,4.194 C3.456,4.52400165 3.38700069,4.8089988 3.249,5.049 C3.11099931,5.2890012 2.92500117,5.47349935 2.691,5.6025 C2.45699883,5.73150064 2.19600144,5.796 1.908,5.796 Z M1.566,9 L5.121,2.7 L6.246,2.7 L2.691,9 L1.566,9 Z M1.908,4.995 C2.08200087,4.995 2.23199937,4.92750067 2.358,4.7925 C2.48400063,4.65749932 2.547,4.45800132 2.547,4.194 C2.547,3.92999868 2.48550062,3.72900069 2.3625,3.591 C2.23949939,3.45299931 2.0880009,3.384 1.908,3.384 C1.7279991,3.384 1.57650061,3.45299931 1.4535,3.591 C1.33049938,3.72900069 1.269,3.92999868 1.269,4.194 C1.269,4.45800132 1.33049938,4.65749932 1.4535,4.7925 C1.57650061,4.92750067 1.7279991,4.995 1.908,4.995 Z M5.94,9.108 C5.65199856,9.108 5.39100117,9.04350064 5.157,8.9145 C4.92299883,8.78549936 4.73700069,8.6010012 4.599,8.361 C4.46099931,8.1209988 4.392,7.83600165 4.392,7.506 C4.392,7.17599835 4.46099931,6.89250118 4.599,6.6555 C4.73700069,6.41849882 4.92299883,6.23550065 5.157,6.1065 C5.39100117,5.97749935 5.65499853,5.913 5.949,5.913 C6.23700144,5.913 6.49649885,5.97749935 6.7275,6.1065 C6.95850116,6.23550065 7.14299931,6.41849882 7.281,6.6555 C7.41900069,6.89250118 7.488,7.17599835 7.488,7.506 C7.488,7.83600165 7.41900069,8.1209988 7.281,8.361 C7.14299931,8.6010012 6.95850116,8.78549936 6.7275,8.9145 C6.49649885,9.04350064 6.23400147,9.108 5.94,9.108 Z M5.94,8.307 C6.1200009,8.307 6.27149939,8.23950068 6.3945,8.1045 C6.51750062,7.96949933 6.579,7.77000132 6.579,7.506 C6.579,7.24199868 6.51750062,7.04100069 6.3945,6.903 C6.27149939,6.76499931 6.1200009,6.696 5.94,6.696 C5.7599991,6.696 5.60850062,6.76499931 5.4855,6.903 C5.36249939,7.04100069 5.301,7.24199868 5.301,7.506 C5.301,7.77000132 5.36249939,7.96949933 5.4855,8.1045 C5.60850062,8.23950068 5.7599991,8.307 5.94,8.307 Z M13.455,9.108 C12.8189968,9.108 12.2730023,8.97150136 11.817,8.6985 C11.3609977,8.42549864 11.0100012,8.04450244 10.764,7.5555 C10.5179988,7.06649755 10.395,6.50100321 10.395,5.859 C10.395,5.21699679 10.5179988,4.65000246 10.764,4.158 C11.0100012,3.66599754 11.3609977,3.28200138 11.817,3.006 C12.2730023,2.72999862 12.8189968,2.592 13.455,2.592 C14.2110038,2.592 14.8304976,2.77949812 15.3135,3.1545 C15.7965024,3.52950187 16.0979994,4.05599661 16.218,4.734 L14.949,4.734 C14.8709996,4.39199829 14.7045013,4.12350097 14.4495,3.9285 C14.1944987,3.73349902 13.8570021,3.636 13.437,3.636 C12.8549971,3.636 12.3990017,3.83399802 12.069,4.23 C11.7389984,4.62600198 11.574,5.16899655 11.574,5.859 C11.574,6.54900345 11.7389984,7.09049803 12.069,7.4835 C12.3990017,7.87650197 12.8549971,8.073 13.437,8.073 C13.8570021,8.073 14.1944987,7.98150091 14.4495,7.7985 C14.7045013,7.61549908 14.8709996,7.36200162 14.949,7.038 L16.218,7.038 C16.0979994,7.68600324 15.7965024,8.19299817 15.3135,8.559 C14.8304976,8.92500183 14.2110038,9.108 13.455,9.108 Z M17.208,9 L17.208,2.52 L18.36,2.52 L18.36,5.22 C18.5100008,4.97399877 18.7124987,4.7805007 18.9675,4.6395 C19.2225013,4.49849929 19.5149984,4.428 19.845,4.428 C20.3970028,4.428 20.8244985,4.60199826 21.1275,4.95 C21.4305015,5.29800174 21.582,5.80799664 21.582,6.48 L21.582,9 L20.439,9 L20.439,6.588 C20.439,6.20399808 20.3625008,5.91000102 20.2095,5.706 C20.0564992,5.50199898 19.8150017,5.4 19.485,5.4 C19.1609984,5.4 18.8925011,5.51399886 18.6795,5.742 C18.4664989,5.97000114 18.36,6.28799796 18.36,6.696 L18.36,9 L17.208,9 Z M24.219,9.108 C23.8349981,9.108 23.5200012,9.04650061 23.274,8.9235 C23.0279988,8.80049939 22.8450006,8.63700102 22.725,8.433 C22.6049994,8.22899898 22.545,8.00400123 22.545,7.758 C22.545,7.34399793 22.7069984,7.00800129 23.031,6.75 C23.3550016,6.49199871 23.8409968,6.363 24.489,6.363 L25.623,6.363 L25.623,6.255 C25.623,5.94899847 25.5360009,5.72400072 25.362,5.58 C25.1879991,5.43599928 24.9720013,5.364 24.714,5.364 C24.4799988,5.364 24.2760009,5.41949944 24.102,5.5305 C23.9279991,5.64150056 23.8200002,5.80499892 23.778,6.021 L22.653,6.021 C22.6830002,5.69699838 22.7924991,5.4150012 22.9815,5.175 C23.1705009,4.9349988 23.4149985,4.75050064 23.715,4.6215 C24.0150015,4.49249935 24.3509981,4.428 24.723,4.428 C25.3590032,4.428 25.8599982,4.58699841 26.226,4.905 C26.5920018,5.22300159 26.775,5.67299709 26.775,6.255 L26.775,9 L25.794,9 L25.686,8.28 C25.5539993,8.5200012 25.3695012,8.71799922 25.1325,8.874 C24.8954988,9.03000078 24.5910019,9.108 24.219,9.108 Z M24.48,8.208 C24.8100017,8.208 25.0664991,8.10000108 25.2495,7.884 C25.4325009,7.66799892 25.5479998,7.40100159 25.596,7.083 L24.615,7.083 C24.3089985,7.083 24.0900007,7.13849944 23.958,7.2495 C23.8259993,7.36050055 23.76,7.49699919 23.76,7.659 C23.76,7.83300087 23.8259993,7.96799952 23.958,8.064 C24.0900007,8.16000048 24.2639989,8.208 24.48,8.208 Z M27.873,9 L27.873,4.536 L28.89,4.536 L28.98,5.292 C29.1180007,5.02799868 29.3174987,4.81800078 29.5785,4.662 C29.8395013,4.50599922 30.1469982,4.428 30.501,4.428 C31.0530028,4.428 31.4819985,4.60199826 31.788,4.95 C32.0940015,5.29800174 32.247,5.80799664 32.247,6.48 L32.247,9 L31.095,9 L31.095,6.588 C31.095,6.20399808 31.0170008,5.91000102 30.861,5.706 C30.7049992,5.50199898 30.4620017,5.4 30.132,5.4 C29.8079984,5.4 29.542501,5.51399886 29.3355,5.742 C29.128499,5.97000114 29.025,6.28799796 29.025,6.696 L29.025,9 L27.873,9 Z M35.235,7.668 C35.0189989,7.668 34.8180009,7.64400024 34.632,7.596 L34.299,7.929 C34.4010005,7.98300027 34.5389991,8.02799982 34.713,8.064 C34.8870009,8.10000018 35.1689981,8.13599982 35.559,8.172 C36.153003,8.22600027 36.5849987,8.36699886 36.855,8.595 C37.1250014,8.82300114 37.26,9.13799799 37.26,9.54 C37.26,9.80400132 37.1880007,10.0544988 37.044,10.2915 C36.8999993,10.5285012 36.6780015,10.7204993 36.378,10.8675 C36.0779985,11.0145007 35.6940023,11.088 35.226,11.088 C34.5899968,11.088 34.077002,10.9695012 33.687,10.7325 C33.296998,10.4954988 33.102,10.1400024 33.102,9.666 C33.102,9.26399799 33.296998,8.91600147 33.687,8.622 C33.5669994,8.56799973 33.4635004,8.5110003 33.3765,8.451 C33.2894996,8.3909997 33.2130003,8.32800033 33.147,8.262 L33.147,8.055 L33.93,7.227 C33.5819983,6.92099847 33.408,6.5280024 33.408,6.048 C33.408,5.7479985 33.4814993,5.47500123 33.6285,5.229 C33.7755007,4.98299877 33.9839987,4.78800072 34.254,4.644 C34.5240014,4.49999928 34.8509981,4.428 35.235,4.428 C35.4870013,4.428 35.7209989,4.46399964 35.937,4.536 L37.629,4.536 L37.629,5.238 L36.864,5.292 C36.9840006,5.52000114 37.044,5.77199862 37.044,6.048 C37.044,6.3480015 36.9720007,6.62099877 36.828,6.867 C36.6839993,7.11300123 36.4755014,7.30799928 36.2025,7.452 C35.9294986,7.59600072 35.6070019,7.668 35.235,7.668 Z M35.235,6.786 C35.4690012,6.786 35.6624992,6.72300063 35.8155,6.597 C35.9685008,6.47099937 36.045,6.29100117 36.045,6.057 C36.045,5.82299883 35.9685008,5.64300063 35.8155,5.517 C35.6624992,5.39099937 35.4690012,5.328 35.235,5.328 C34.9889988,5.328 34.7910008,5.39099937 34.641,5.517 C34.4909993,5.64300063 34.416,5.82299883 34.416,6.057 C34.416,6.29100117 34.4909993,6.47099937 34.641,6.597 C34.7910008,6.72300063 34.9889988,6.786 35.235,6.786 Z M34.155,9.549 C34.155,9.77100111 34.258499,9.93749945 34.4655,10.0485 C34.672501,10.1595006 34.9259985,10.215 35.226,10.215 C35.5140014,10.215 35.7479991,10.1565006 35.928,10.0395 C36.1080009,9.92249942 36.198,9.76500099 36.198,9.567 C36.198,9.40499919 36.1395006,9.27000054 36.0225,9.162 C35.9054994,9.05399946 35.6730017,8.98800012 35.325,8.964 C35.0789988,8.94599991 34.851001,8.91900018 34.641,8.883 C34.4669991,8.97900048 34.3425004,9.08399943 34.2675,9.198 C34.1924996,9.31200057 34.155,9.4289994 34.155,9.549 Z M40.455,9.108 C40.0049978,9.108 39.6060017,9.01200096 39.258,8.82 C38.9099983,8.62799904 38.637001,8.35800174 38.439,8.01 C38.240999,7.66199826 38.142,7.26000228 38.142,6.804 C38.142,6.34199769 38.239499,5.9310018 38.4345,5.571 C38.629501,5.2109982 38.8994983,4.930501 39.2445,4.7295 C39.5895017,4.52849899 39.9959977,4.428 40.464,4.428 C40.9020022,4.428 41.2889983,4.52399904 41.625,4.716 C41.9610017,4.90800096 42.2234991,5.17049833 42.4125,5.5035 C42.6015009,5.83650167 42.696,6.20699796 42.696,6.615 C42.696,6.68100033 42.6945,6.74999964 42.6915,6.822 C42.6885,6.89400036 42.684,6.96899961 42.678,7.047 L39.285,7.047 C39.3090001,7.39500174 39.4304989,7.66799901 39.6495,7.866 C39.8685011,8.06400099 40.1339984,8.163 40.446,8.163 C40.6800012,8.163 40.8764992,8.11050052 41.0355,8.0055 C41.1945008,7.90049948 41.3129996,7.76400084 41.391,7.596 L42.561,7.596 C42.4769996,7.87800141 42.337501,8.13449884 42.1425,8.3655 C41.947499,8.59650115 41.7075014,8.77799934 41.4225,8.91 C41.1374986,9.04200066 40.8150018,9.108 40.455,9.108 Z M40.464,5.364 C40.1819986,5.364 39.9330011,5.4434992 39.717,5.6025 C39.5009989,5.76150079 39.3630003,6.00299838 39.303,6.327 L41.526,6.327 C41.5079999,6.03299853 41.400001,5.79900087 41.202,5.625 C41.003999,5.45099913 40.7580015,5.364 40.464,5.364 Z" id="path-6"></path>
        <path d="M0.693,20.195 L0.693,19.414 L2.794,19.414 L2.794,17.412 L3.619,17.412 L3.619,19.414 L5.72,19.414 L5.72,20.195 L3.619,20.195 L3.619,22.208 L2.794,22.208 L2.794,20.195 L0.693,20.195 Z M7.986,23 L7.986,16.334 L6.743,16.609 L6.743,15.971 L8.294,15.3 L8.921,15.3 L8.921,23 L7.986,23 Z M13.552,23.132 C12.8699966,23.132 12.2815025,22.9651683 11.7865,22.6315 C11.2914975,22.2978317 10.9120013,21.8321697 10.648,21.2345 C10.3839987,20.6368303 10.252,19.942004 10.252,19.15 C10.252,18.357996 10.3839987,17.6631697 10.648,17.0655 C10.9120013,16.4678303 11.2914975,16.0021683 11.7865,15.6685 C12.2815025,15.3348317 12.8699966,15.168 13.552,15.168 C14.2340034,15.168 14.8206642,15.3348317 15.312,15.6685 C15.8033358,16.0021683 16.1809987,16.4678303 16.445,17.0655 C16.7090013,17.6631697 16.841,18.357996 16.841,19.15 C16.841,19.942004 16.7090013,20.6368303 16.445,21.2345 C16.1809987,21.8321697 15.8033358,22.2978317 15.312,22.6315 C14.8206642,22.9651683 14.2340034,23.132 13.552,23.132 Z M13.552,22.318 C13.9993356,22.318 14.4008316,22.1915013 14.7565,21.9385 C15.1121684,21.6854987 15.3908323,21.3225024 15.5925,20.8495 C15.7941677,20.3764976 15.895,19.8100033 15.895,19.15 C15.895,18.4899967 15.7941677,17.9253357 15.5925,17.456 C15.3908323,16.9866643 15.1121684,16.6255013 14.7565,16.3725 C14.4008316,16.1194987 13.9993356,15.993 13.552,15.993 C13.0973311,15.993 12.6940018,16.1194987 12.342,16.3725 C11.9899982,16.6255013 11.7113344,16.9866643 11.506,17.456 C11.3006656,17.9253357 11.198,18.4899967 11.198,19.15 C11.198,19.8100033 11.3006656,20.3764976 11.506,20.8495 C11.7113344,21.3225024 11.9899982,21.6854987 12.342,21.9385 C12.6940018,22.1915013 13.0973311,22.318 13.552,22.318 Z M19.558,18.875 C19.2279983,18.875 18.929168,18.7998341 18.6615,18.6495 C18.393832,18.4991659 18.1830008,18.2865014 18.029,18.0115 C17.8749992,17.7364986 17.798,17.4083352 17.798,17.027 C17.798,16.6456648 17.8768325,16.3175014 18.0345,16.0425 C18.1921675,15.7674986 18.404832,15.5548341 18.6725,15.4045 C18.940168,15.2541659 19.2389983,15.179 19.569,15.179 C19.8990016,15.179 20.1959987,15.2541659 20.46,15.4045 C20.7240013,15.5548341 20.9329992,15.7674986 21.087,16.0425 C21.2410008,16.3175014 21.318,16.6456648 21.318,17.027 C21.318,17.4083352 21.2391675,17.7364986 21.0815,18.0115 C20.9238325,18.2865014 20.7130013,18.4991659 20.449,18.6495 C20.1849987,18.7998341 19.8880016,18.875 19.558,18.875 Z M18.876,23 L23.353,15.3 L24.277,15.3 L19.8,23 L18.876,23 Z M19.558,18.16 C19.8146679,18.16 20.0401657,18.0646676 20.2345,17.874 C20.4288343,17.6833324 20.526,17.4010019 20.526,17.027 C20.526,16.6456648 20.4306676,16.3578343 20.24,16.1635 C20.0493324,15.9691657 19.8256679,15.872 19.569,15.872 C19.312332,15.872 19.0831677,15.9691657 18.8815,16.1635 C18.6798323,16.3578343 18.579,16.6456648 18.579,17.027 C18.579,17.4010019 18.677999,17.6833324 18.876,17.874 C19.074001,18.0646676 19.301332,18.16 19.558,18.16 Z M23.672,23.132 C23.3419983,23.132 23.043168,23.0568341 22.7755,22.9065 C22.507832,22.7561659 22.2970008,22.5435014 22.143,22.2685 C21.9889992,21.9934986 21.912,21.6653352 21.912,21.284 C21.912,20.9026648 21.9908325,20.5745014 22.1485,20.2995 C22.3061675,20.0244986 22.5169987,19.8118341 22.781,19.6615 C23.0450013,19.5111659 23.3419983,19.436 23.672,19.436 C24.0020016,19.436 24.2989987,19.5111659 24.563,19.6615 C24.8270013,19.8118341 25.0359992,20.0244986 25.19,20.2995 C25.3440008,20.5745014 25.421,20.9026648 25.421,21.284 C25.421,21.6653352 25.3440008,21.9934986 25.19,22.2685 C25.0359992,22.5435014 24.8270013,22.7561659 24.563,22.9065 C24.2989987,23.0568341 24.0020016,23.132 23.672,23.132 Z M23.661,22.417 C23.9250013,22.417 24.1541657,22.3216676 24.3485,22.131 C24.5428343,21.9403324 24.64,21.6580019 24.64,21.284 C24.64,20.9026648 24.5446676,20.6166676 24.354,20.426 C24.1633324,20.2353324 23.9360013,20.14 23.672,20.14 C23.415332,20.14 23.188001,20.2353324 22.99,20.426 C22.791999,20.6166676 22.693,20.9026648 22.693,21.284 C22.693,21.6580019 22.7901657,21.9403324 22.9845,22.131 C23.1788343,22.3216676 23.404332,22.417 23.661,22.417 Z" id="path-7"></path>
        <path d="M0.693,36.195 L0.693,35.414 L2.794,35.414 L2.794,33.412 L3.619,33.412 L3.619,35.414 L5.72,35.414 L5.72,36.195 L3.619,36.195 L3.619,38.208 L2.794,38.208 L2.794,36.195 L0.693,36.195 Z M7.986,39 L7.986,32.334 L6.743,32.609 L6.743,31.971 L8.294,31.3 L8.921,31.3 L8.921,39 L7.986,39 Z M13.079,31.168 C13.6363361,31.168 14.1056648,31.272499 14.487,31.4815 C14.8683352,31.690501 15.1744988,31.9709982 15.4055,32.323 C15.6365012,32.6750018 15.8051661,33.0691645 15.9115,33.5055 C16.0178339,33.9418355 16.071,34.3873311 16.071,34.842 C16.071,35.6926709 15.9536678,36.4388301 15.719,37.0805 C15.4843322,37.7221699 15.1451689,38.2244982 14.7015,38.5875 C14.2578311,38.9505018 13.7206698,39.132 13.09,39.132 C12.6059976,39.132 12.1916684,39.0366676 11.847,38.846 C11.5023316,38.6553324 11.2291677,38.4005016 11.0275,38.0815 C10.8258323,37.7624984 10.6993336,37.4086686 10.648,37.02 L11.506,37.02 C11.5866671,37.4380021 11.7663319,37.7606655 12.045,37.988 C12.3236681,38.2153345 12.6756645,38.329 13.101,38.329 C13.6803362,38.329 14.1661647,38.0558361 14.5585,37.5095 C14.9508353,36.9631639 15.1616665,36.1106725 15.191,34.952 C15.0149991,35.2966684 14.7345019,35.5954987 14.3495,35.8485 C13.9644981,36.1015013 13.5006694,36.228 12.958,36.228 C12.5179978,36.228 12.1055019,36.1253344 11.7205,35.92 C11.3354981,35.7146656 11.0220012,35.4268352 10.78,35.0565 C10.5379988,34.6861648 10.417,34.2516692 10.417,33.753 C10.417,33.3203312 10.5233323,32.906002 10.736,32.51 C10.9486677,32.113998 11.2548313,31.7913346 11.6545,31.542 C12.0541687,31.2926654 12.5289972,31.168 13.079,31.168 Z M13.145,31.982 C12.8003316,31.982 12.4923347,32.0553326 12.221,32.202 C11.9496653,32.3486674 11.7370008,32.5521654 11.583,32.8125 C11.4289992,33.0728346 11.352,33.371665 11.352,33.709 C11.352,34.2296693 11.5224983,34.6458318 11.8635,34.9575 C12.2045017,35.2691682 12.6316641,35.425 13.145,35.425 C13.4896684,35.425 13.7976653,35.3461675 14.069,35.1885 C14.3403347,35.0308325 14.5548325,34.8200013 14.7125,34.556 C14.8701675,34.2919987 14.949,34.0060015 14.949,33.698 C14.949,33.3679984 14.8701675,33.0728346 14.7125,32.8125 C14.5548325,32.5521654 14.3403347,32.3486674 14.069,32.202 C13.7976653,32.0553326 13.4896684,31.982 13.145,31.982 Z M18.865,34.875 C18.5349983,34.875 18.236168,34.7998341 17.9685,34.6495 C17.700832,34.4991659 17.4900008,34.2865014 17.336,34.0115 C17.1819992,33.7364986 17.105,33.4083352 17.105,33.027 C17.105,32.6456648 17.1838325,32.3175014 17.3415,32.0425 C17.4991675,31.7674986 17.711832,31.5548341 17.9795,31.4045 C18.247168,31.2541659 18.5459983,31.179 18.876,31.179 C19.2060016,31.179 19.5029987,31.2541659 19.767,31.4045 C20.0310013,31.5548341 20.2399992,31.7674986 20.394,32.0425 C20.5480008,32.3175014 20.625,32.6456648 20.625,33.027 C20.625,33.4083352 20.5461675,33.7364986 20.3885,34.0115 C20.2308325,34.2865014 20.0200013,34.4991659 19.756,34.6495 C19.4919987,34.7998341 19.1950016,34.875 18.865,34.875 Z M18.183,39 L22.66,31.3 L23.584,31.3 L19.107,39 L18.183,39 Z M18.865,34.16 C19.1216679,34.16 19.3471657,34.0646676 19.5415,33.874 C19.7358343,33.6833324 19.833,33.4010019 19.833,33.027 C19.833,32.6456648 19.7376676,32.3578343 19.547,32.1635 C19.3563324,31.9691657 19.1326679,31.872 18.876,31.872 C18.6193321,31.872 18.3901677,31.9691657 18.1885,32.1635 C17.9868323,32.3578343 17.886,32.6456648 17.886,33.027 C17.886,33.4010019 17.984999,33.6833324 18.183,33.874 C18.381001,34.0646676 18.6083321,34.16 18.865,34.16 Z M22.979,39.132 C22.6489983,39.132 22.350168,39.0568341 22.0825,38.9065 C21.814832,38.7561659 21.6040008,38.5435014 21.45,38.2685 C21.2959992,37.9934986 21.219,37.6653352 21.219,37.284 C21.219,36.9026648 21.2978325,36.5745014 21.4555,36.2995 C21.6131675,36.0244986 21.8239987,35.8118341 22.088,35.6615 C22.3520013,35.5111659 22.6489983,35.436 22.979,35.436 C23.3090016,35.436 23.6059987,35.5111659 23.87,35.6615 C24.1340013,35.8118341 24.3429992,36.0244986 24.497,36.2995 C24.6510008,36.5745014 24.728,36.9026648 24.728,37.284 C24.728,37.6653352 24.6510008,37.9934986 24.497,38.2685 C24.3429992,38.5435014 24.1340013,38.7561659 23.87,38.9065 C23.6059987,39.0568341 23.3090016,39.132 22.979,39.132 Z M22.968,38.417 C23.2320013,38.417 23.4611657,38.3216676 23.6555,38.131 C23.8498343,37.9403324 23.947,37.6580019 23.947,37.284 C23.947,36.9026648 23.8516676,36.6166676 23.661,36.426 C23.4703324,36.2353324 23.2430013,36.14 22.979,36.14 C22.722332,36.14 22.495001,36.2353324 22.297,36.426 C22.098999,36.6166676 22,36.9026648 22,37.284 C22,37.6580019 22.0971657,37.9403324 22.2915,38.131 C22.4858343,38.3216676 22.711332,38.417 22.968,38.417 Z" id="path-8"></path>
    </defs>
    <g id="Page-1" stroke="none" stroke-width="1" fill="none" fill-rule="evenodd">
        <g id="biz_2014" transform="translate(0.000000, -2.000000)" fill-rule="nonzero">
            <g id="Total-1,622-20,629" transform="translate(103.000000, 0.000000)">
                <g id="Total">
                    <use fill="#000000" xlink:href="#path-1"></use>
                    <use fill="#979797" xlink:href="#path-1"></use>
                </g>
                <g id="1,622">
                    <use fill="#000000" xlink:href="#path-2"></use>
                    <use fill="#979797" xlink:href="#path-2"></use>
                </g>
                <g id="20,629">
                    <use fill="#000000" xlink:href="#path-3"></use>
                    <use fill="#979797" xlink:href="#path-3"></use>
                </g>
            </g>
            <g id="Blocks-with-parklets" transform="translate(0.000000, 15.000000)">
                <g id="Blockswithparklets">
                    <use fill="#000000" xlink:href="#path-4"></use>
                    <use fill="#979797" xlink:href="#path-4"></use>
                </g>
                <g id="Citywide">
                    <use fill="#000000" xlink:href="#path-5"></use>
                    <use fill="#979797" xlink:href="#path-5"></use>
                </g>
            </g>
            <g id="%-Change-+10%-+19%" transform="translate(170.000000, 0.000000)">
                <g id="%Change">
                    <use fill="#000000" xlink:href="#path-6"></use>
                    <use fill="#979797" xlink:href="#path-6"></use>
                </g>
                <g id="+10%">
                    <use fill="#000000" xlink:href="#path-7"></use>
                    <use fill="#979797" xlink:href="#path-7"></use>
                </g>
                <g id="+19%">
                    <use fill="#000000" xlink:href="#path-8"></use>
                    <use fill="#979797" xlink:href="#path-8"></use>
                </g>
            </g>
        </g>
    </g>
</svg>