<?xml version="1.0" encoding="UTF-8"?>
<svg width="213px" height="40px" viewBox="0 0 213 40" version="1.1" xmlns="http://www.w3.org/2000/svg" xmlns:xlink="http://www.w3.org/1999/xlink">
    <!-- Generator: Sketch 57.1 (83088) - https://sketch.com -->
    <title>biz_2011</title>
    <desc>Created with Sketch.</desc>
    <defs>
        <path d="M2.079,9 L2.079,3.627 L0.243,3.627 L0.243,2.7 L5.076,2.7 L5.076,3.627 L3.231,3.627 L3.231,9 L2.079,9 Z M7.236,9.108 C6.80399784,9.108 6.41550173,9.00900099 6.0705,8.811 C5.72549828,8.61299901 5.45250101,8.33850175 5.2515,7.9875 C5.050499,7.63649825 4.95,7.23000231 4.95,6.768 C4.95,6.30599769 5.05199898,5.89950175 5.256,5.5485 C5.46000102,5.19749825 5.73449828,4.92300099 6.0795,4.725 C6.42450173,4.52699901 6.81299784,4.428 7.245,4.428 C7.67100213,4.428 8.05649828,4.52699901 8.4015,4.725 C8.74650173,4.92300099 9.019499,5.19749825 9.2205,5.5485 C9.42150101,5.89950175 9.522,6.30599769 9.522,6.768 C9.522,7.23000231 9.42150101,7.63649825 9.2205,7.9875 C9.019499,8.33850175 8.74500174,8.61299901 8.397,8.811 C8.04899826,9.00900099 7.66200213,9.108 7.236,9.108 Z M7.236,8.109 C7.5360015,8.109 7.79699889,7.99650112 8.019,7.7715 C8.24100111,7.54649887 8.352,7.21200222 8.352,6.768 C8.352,6.32399778 8.24100111,5.98950113 8.019,5.7645 C7.79699889,5.53949887 7.53900147,5.427 7.245,5.427 C6.93899847,5.427 6.6765011,5.53949887 6.4575,5.7645 C6.23849891,5.98950113 6.129,6.32399778 6.129,6.768 C6.129,7.21200222 6.23849891,7.54649887 6.4575,7.7715 C6.6765011,7.99650112 6.9359985,8.109 7.236,8.109 Z M12.357,9 C11.8889977,9 11.5140014,8.88600114 11.232,8.658 C10.9499986,8.42999886 10.809,8.02500291 10.809,7.443 L10.809,5.499 L10.044,5.499 L10.044,4.536 L10.809,4.536 L10.944,3.339 L11.961,3.339 L11.961,4.536 L13.167,4.536 L13.167,5.499 L11.961,5.499 L11.961,7.452 C11.961,7.66800108 12.0074995,7.81649959 12.1005,7.8975 C12.1935005,7.97850041 12.3539989,8.019 12.582,8.019 L13.14,8.019 L13.14,9 L12.357,9 Z M15.696,9.108 C15.3119981,9.108 14.9970012,9.04650061 14.751,8.9235 C14.5049988,8.80049939 14.3220006,8.63700102 14.202,8.433 C14.0819994,8.22899898 14.022,8.00400123 14.022,7.758 C14.022,7.34399793 14.1839984,7.00800129 14.508,6.75 C14.8320016,6.49199871 15.3179968,6.363 15.966,6.363 L17.1,6.363 L17.1,6.255 C17.1,5.94899847 17.0130009,5.72400072 16.839,5.58 C16.6649991,5.43599928 16.4490013,5.364 16.191,5.364 C15.9569988,5.364 15.7530009,5.41949944 15.579,5.5305 C15.4049991,5.64150056 15.2970002,5.80499892 15.255,6.021 L14.13,6.021 C14.1600002,5.69699838 14.2694991,5.4150012 14.4585,5.175 C14.6475009,4.9349988 14.8919985,4.75050064 15.192,4.6215 C15.4920015,4.49249935 15.8279981,4.428 16.2,4.428 C16.8360032,4.428 17.3369982,4.58699841 17.703,4.905 C18.0690018,5.22300159 18.252,5.67299709 18.252,6.255 L18.252,9 L17.271,9 L17.163,8.28 C17.0309993,8.5200012 16.8465012,8.71799922 16.6095,8.874 C16.3724988,9.03000078 16.0680019,9.108 15.696,9.108 Z M15.957,8.208 C16.2870017,8.208 16.5434991,8.10000108 16.7265,7.884 C16.9095009,7.66799892 17.0249998,7.40100159 17.073,7.083 L16.092,7.083 C15.7859985,7.083 15.5670007,7.13849944 15.435,7.2495 C15.3029993,7.36050055 15.237,7.49699919 15.237,7.659 C15.237,7.83300087 15.3029993,7.96799952 15.435,8.064 C15.5670007,8.16000048 15.7409989,8.208 15.957,8.208 Z M19.35,9 L19.35,2.52 L20.502,2.52 L20.502,9 L19.35,9 Z" id="path-1"></path>
        <path d="M1.573,23 L1.573,16.334 L0.33,16.609 L0.33,15.971 L1.881,15.3 L2.508,15.3 L2.508,23 L1.573,23 Z M3.344,24.309 L3.982,21.878 L4.939,21.878 L3.982,24.309 L3.344,24.309 Z M6.853,23 L6.853,16.334 L5.61,16.609 L5.61,15.971 L7.161,15.3 L7.788,15.3 L7.788,23 L6.853,23 Z M11.957,23.132 C11.4509975,23.132 10.9963354,23.0385009 10.593,22.8515 C10.1896646,22.6644991 9.87250116,22.4041683 9.6415,22.0705 C9.41049885,21.7368317 9.295,21.3500022 9.295,20.91 C9.295,20.4406643 9.43249862,20.0190019 9.7075,19.645 C9.98250138,19.2709981 10.3473311,19.0216673 10.802,18.897 C10.3839979,18.757666 10.0613345,18.5340015 9.834,18.226 C9.60666553,17.9179985 9.493,17.5806685 9.493,17.214 C9.493,16.8399981 9.59199901,16.4971682 9.79,16.1855 C9.98800099,15.8738318 10.2703315,15.6263343 10.637,15.443 C11.0036685,15.2596657 11.4436641,15.168 11.957,15.168 C12.4703359,15.168 12.9103315,15.2596657 13.277,15.443 C13.6436685,15.6263343 13.925999,15.8738318 14.124,16.1855 C14.322001,16.4971682 14.421,16.8399981 14.421,17.214 C14.421,17.5733351 14.3073345,17.9088318 14.08,18.2205 C13.8526655,18.5321682 13.5300021,18.757666 13.112,18.897 C13.5666689,19.0216673 13.9314986,19.2709981 14.2065,19.645 C14.4815014,20.0190019 14.619,20.4406643 14.619,20.91 C14.619,21.3500022 14.5035012,21.7368317 14.2725,22.0705 C14.0414988,22.4041683 13.7243354,22.6644991 13.321,22.8515 C12.9176646,23.0385009 12.4630025,23.132 11.957,23.132 Z M11.957,18.567 C12.4263357,18.567 12.7984986,18.4478345 13.0735,18.2095 C13.3485014,17.9711655 13.486,17.6576686 13.486,17.269 C13.486,16.8363312 13.3503347,16.5100011 13.079,16.29 C12.8076653,16.0699989 12.433669,15.96 11.957,15.96 C11.4803309,15.96 11.108168,16.0699989 10.8405,16.29 C10.572832,16.5100011 10.439,16.8363312 10.439,17.269 C10.439,17.6576686 10.5746653,17.9711655 10.846,18.2095 C11.1173347,18.4478345 11.4876643,18.567 11.957,18.567 Z M11.957,22.318 C12.5363362,22.318 12.9708319,22.184168 13.2605,21.9165 C13.5501681,21.648832 13.695,21.2950022 13.695,20.855 C13.695,20.3563308 13.5373349,19.978668 13.222,19.722 C12.9066651,19.4653321 12.4850026,19.337 11.957,19.337 C11.4289974,19.337 11.0073349,19.4653321 10.692,19.722 C10.3766651,19.978668 10.219,20.3563308 10.219,20.855 C10.219,21.2950022 10.3638319,21.648832 10.6535,21.9165 C10.9431681,22.184168 11.3776638,22.318 11.957,22.318 Z M18.524,23.132 C18.0326642,23.132 17.589002,23.0421676 17.193,22.8625 C16.796998,22.6828324 16.4798345,22.4133351 16.2415,22.054 C16.0031655,21.6946649 15.8766667,21.247336 15.862,20.712 L16.797,20.712 C16.8043334,21.1520022 16.9583318,21.5314984 17.259,21.8505 C17.5596682,22.1695016 17.9813306,22.329 18.524,22.329 C19.0666694,22.329 19.4754986,22.1786682 19.7505,21.878 C20.0255014,21.5773318 20.163,21.2143355 20.163,20.789 C20.163,20.4296649 20.0768342,20.1363345 19.9045,19.909 C19.7321658,19.6816655 19.5011681,19.5130006 19.2115,19.403 C18.9218319,19.2929994 18.6046684,19.238 18.26,19.238 L17.688,19.238 L17.688,18.457 L18.26,18.457 C18.7586692,18.457 19.1491653,18.3433345 19.4315,18.116 C19.7138347,17.8886655 19.855,17.5696687 19.855,17.159 C19.855,16.8143316 19.7431678,16.5301678 19.5195,16.3065 C19.2958322,16.0828322 18.9640022,15.971 18.524,15.971 C18.0986645,15.971 17.7576679,16.0974987 17.501,16.3505 C17.244332,16.6035013 17.1013335,16.9206648 17.072,17.302 L16.137,17.302 C16.1590001,16.8839979 16.2708323,16.5136683 16.4725,16.191 C16.6741677,15.8683317 16.9509982,15.6171676 17.303,15.4375 C17.6550018,15.2578324 18.0619977,15.168 18.524,15.168 C19.0226692,15.168 19.4388317,15.2559991 19.7725,15.432 C20.1061683,15.6080009 20.3591658,15.8426652 20.5315,16.136 C20.7038342,16.4293348 20.79,16.7519982 20.79,17.104 C20.79,17.4926686 20.6836677,17.8464984 20.471,18.1655 C20.2583323,18.4845016 19.9393355,18.6989994 19.514,18.809 C19.9686689,18.9043338 20.3463318,19.120665 20.647,19.458 C20.9476682,19.795335 21.098,20.2389973 21.098,20.789 C21.098,21.2143355 21.0008343,21.6048316 20.8065,21.9605 C20.6121657,22.3161684 20.3243352,22.6003323 19.943,22.813 C19.5616648,23.0256677 19.0886695,23.132 18.524,23.132 Z" id="path-2"></path>
        <path d="M1.573,39 L1.573,32.334 L0.33,32.609 L0.33,31.971 L1.881,31.3 L2.508,31.3 L2.508,39 L1.573,39 Z M6.534,39.132 C6.04266421,39.132 5.59900198,39.0421676 5.203,38.8625 C4.80699802,38.6828324 4.48983452,38.4133351 4.2515,38.054 C4.01316547,37.6946649 3.88666674,37.247336 3.872,36.712 L4.807,36.712 C4.81433337,37.1520022 4.96833183,37.5314984 5.269,37.8505 C5.56966817,38.1695016 5.99133062,38.329 6.534,38.329 C7.07666938,38.329 7.48549862,38.1786682 7.7605,37.878 C8.03550137,37.5773318 8.173,37.2143355 8.173,36.789 C8.173,36.4296649 8.08683419,36.1363345 7.9145,35.909 C7.7421658,35.6816655 7.51116811,35.5130006 7.2215,35.403 C6.93183188,35.2929994 6.61466839,35.238 6.27,35.238 L5.698,35.238 L5.698,34.457 L6.27,34.457 C6.76866916,34.457 7.15916525,34.3433345 7.4415,34.116 C7.72383474,33.8886655 7.865,33.5696687 7.865,33.159 C7.865,32.8143316 7.75316778,32.5301678 7.5295,32.3065 C7.30583221,32.0828322 6.9740022,31.971 6.534,31.971 C6.10866454,31.971 5.76766795,32.0974987 5.511,32.3505 C5.25433205,32.6035013 5.11133348,32.9206648 5.082,33.302 L4.147,33.302 C4.16900011,32.8839979 4.28083232,32.5136683 4.4825,32.191 C4.68416767,31.8683317 4.96099824,31.6171676 5.313,31.4375 C5.66500176,31.2578324 6.07199769,31.168 6.534,31.168 C7.03266916,31.168 7.44883166,31.2559991 7.7825,31.432 C8.11616833,31.6080009 8.3691658,31.8426652 8.5415,32.136 C8.71383419,32.4293348 8.8,32.7519982 8.8,33.104 C8.8,33.4926686 8.69366773,33.8464984 8.481,34.1655 C8.26833227,34.4845016 7.94933546,34.6989995 7.524,34.809 C7.97866894,34.9043338 8.35633183,35.120665 8.657,35.458 C8.95766817,35.795335 9.108,36.2389972 9.108,36.789 C9.108,37.2143355 9.0108343,37.6048316 8.8165,37.9605 C8.62216569,38.3161684 8.33433524,38.6003323 7.953,38.813 C7.57166476,39.0256677 7.09866949,39.132 6.534,39.132 Z M9.812,40.309 L10.45,37.878 L11.407,37.878 L10.45,40.309 L9.812,40.309 Z M14.96,39.132 C14.4686642,39.132 14.025002,39.0421676 13.629,38.8625 C13.232998,38.6828324 12.9158345,38.4133351 12.6775,38.054 C12.4391655,37.6946649 12.3126667,37.247336 12.298,36.712 L13.233,36.712 C13.2403334,37.1520022 13.3943318,37.5314984 13.695,37.8505 C13.9956682,38.1695016 14.4173306,38.329 14.96,38.329 C15.5026694,38.329 15.9114986,38.1786682 16.1865,37.878 C16.4615014,37.5773318 16.599,37.2143355 16.599,36.789 C16.599,36.4296649 16.5128342,36.1363345 16.3405,35.909 C16.1681658,35.6816655 15.9371681,35.5130006 15.6475,35.403 C15.3578319,35.2929994 15.0406684,35.238 14.696,35.238 L14.124,35.238 L14.124,34.457 L14.696,34.457 C15.1946692,34.457 15.5851653,34.3433345 15.8675,34.116 C16.1498347,33.8886655 16.291,33.5696687 16.291,33.159 C16.291,32.8143316 16.1791678,32.5301678 15.9555,32.3065 C15.7318322,32.0828322 15.4000022,31.971 14.96,31.971 C14.5346645,31.971 14.1936679,32.0974987 13.937,32.3505 C13.6803321,32.6035013 13.5373335,32.9206648 13.508,33.302 L12.573,33.302 C12.5950001,32.8839979 12.7068323,32.5136683 12.9085,32.191 C13.1101677,31.8683317 13.3869982,31.6171676 13.739,31.4375 C14.0910018,31.2578324 14.4979977,31.168 14.96,31.168 C15.4586692,31.168 15.8748317,31.2559991 16.2085,31.432 C16.5421683,31.6080009 16.7951658,31.8426652 16.9675,32.136 C17.1398342,32.4293348 17.226,32.7519982 17.226,33.104 C17.226,33.4926686 17.1196677,33.8464984 16.907,34.1655 C16.6943323,34.4845016 16.3753355,34.6989995 15.95,34.809 C16.4046689,34.9043338 16.7823318,35.120665 17.083,35.458 C17.3836682,35.795335 17.534,36.2389972 17.534,36.789 C17.534,37.2143355 17.4368343,37.6048316 17.2425,37.9605 C17.0481657,38.3161684 16.7603352,38.6003323 16.379,38.813 C15.9976648,39.0256677 15.5246695,39.132 14.96,39.132 Z M18.909,39 L18.909,38.351 C19.4296693,37.9403313 19.922831,37.5241688 20.3885,37.1025 C20.854169,36.6808312 21.2684982,36.2646687 21.6315,35.854 C21.9945018,35.4433313 22.280499,35.040002 22.4895,34.644 C22.698501,34.247998 22.803,33.8666685 22.803,33.5 C22.803,33.2286653 22.7571671,32.9756678 22.6655,32.741 C22.5738329,32.5063322 22.4253344,32.3175007 22.22,32.1745 C22.0146656,32.0314993 21.7360018,31.96 21.384,31.96 C21.046665,31.96 20.7643345,32.0351659 20.537,32.1855 C20.3096655,32.3358341 20.1391672,32.5356654 20.0255,32.785 C19.9118328,33.0343346 19.855,33.3019986 19.855,33.588 L18.964,33.588 C18.964,33.0819975 19.0703323,32.6475018 19.283,32.2845 C19.4956677,31.9214982 19.7853315,31.6446676 20.152,31.454 C20.5186685,31.2633324 20.9329977,31.168 21.395,31.168 C22.0770034,31.168 22.6361645,31.3604981 23.0725,31.7455 C23.5088355,32.1305019 23.727,32.7043295 23.727,33.467 C23.727,33.9216689 23.6133345,34.3708311 23.386,34.8145 C23.1586655,35.2581689 22.8690018,35.6871646 22.517,36.1015 C22.1649982,36.5158354 21.7891687,36.9026649 21.3895,37.262 C20.9898313,37.6213351 20.6176684,37.9439986 20.273,38.23 L23.991,38.23 L23.991,39 L18.909,39 Z M28.094,39.132 C27.5366639,39.132 27.0673352,39.027501 26.686,38.8185 C26.3046648,38.609499 25.9985012,38.3290018 25.7675,37.977 C25.5364988,37.6249982 25.3678339,37.2308355 25.2615,36.7945 C25.1551661,36.3581645 25.102,35.9126689 25.102,35.458 C25.102,34.6073291 25.2193322,33.8611699 25.454,33.2195 C25.6886678,32.5778301 26.0278311,32.0755018 26.4715,31.7125 C26.9151689,31.3494982 27.4523302,31.168 28.083,31.168 C28.5670024,31.168 28.9813316,31.2633324 29.326,31.454 C29.6706684,31.6446676 29.9438323,31.8994984 30.1455,32.2185 C30.3471677,32.5375016 30.4736664,32.8913314 30.525,33.28 L29.667,33.28 C29.5863329,32.8619979 29.4066681,32.5393345 29.128,32.312 C28.8493319,32.0846655 28.4973355,31.971 28.072,31.971 C27.4926638,31.971 27.0068353,32.2441639 26.6145,32.7905 C26.2221647,33.3368361 26.0113335,34.1893275 25.982,35.348 C26.1580009,35.0033316 26.4384981,34.7045013 26.8235,34.4515 C27.2085019,34.1984987 27.6723306,34.072 28.215,34.072 C28.6550022,34.072 29.0674981,34.1746656 29.4525,34.38 C29.8375019,34.5853344 30.1509988,34.8731648 30.393,35.2435 C30.6350012,35.6138352 30.756,36.0483308 30.756,36.547 C30.756,36.9796688 30.6496677,37.393998 30.437,37.79 C30.2243323,38.186002 29.9181687,38.5086654 29.5185,38.758 C29.1188313,39.0073346 28.6440028,39.132 28.094,39.132 Z M28.028,38.318 C28.3726684,38.318 28.6806653,38.2446674 28.952,38.098 C29.2233347,37.9513326 29.4359992,37.7478346 29.59,37.4875 C29.7440008,37.2271654 29.821,36.928335 29.821,36.591 C29.821,36.0703307 29.6505017,35.6541682 29.3095,35.3425 C28.9684983,35.0308318 28.5413359,34.875 28.028,34.875 C27.6833316,34.875 27.3753347,34.9538325 27.104,35.1115 C26.8326653,35.2691675 26.6181675,35.4799987 26.4605,35.744 C26.3028325,36.0080013 26.224,36.2939985 26.224,36.602 C26.224,36.9320017 26.3028325,37.2271654 26.4605,37.4875 C26.6181675,37.7478346 26.8326653,37.9513326 27.104,38.098 C27.3753347,38.2446674 27.6833316,38.318 28.028,38.318 Z" id="path-3"></path>
        <path d="M0.781,9 L0.781,2.7 L3.31,2.7 C3.96400327,2.7 4.46349828,2.85149849 4.8085,3.1545 C5.15350173,3.45750151 5.326,3.84599763 5.326,4.32 C5.326,4.71600198 5.21950107,5.03249881 5.0065,5.2695 C4.79349894,5.50650118 4.53400153,5.66699958 4.228,5.751 C4.5880018,5.82300036 4.88499883,6.00149857 5.119,6.2865 C5.35300117,6.57150142 5.47,6.90299811 5.47,7.281 C5.47,7.77900249 5.2900018,8.18999838 4.93,8.514 C4.5699982,8.83800162 4.0600033,9 3.4,9 L0.781,9 Z M1.933,5.346 L3.139,5.346 C3.46300162,5.346 3.71199913,5.27100075 3.886,5.121 C4.06000087,4.97099925 4.147,4.75800138 4.147,4.482 C4.147,4.21799868 4.06150086,4.00950077 3.8905,3.8565 C3.71949914,3.70349923 3.46300171,3.627 3.121,3.627 L1.933,3.627 L1.933,5.346 Z M1.933,8.064 L3.22,8.064 C3.56200171,8.064 3.82749906,7.98450079 4.0165,7.8255 C4.20550094,7.66649921 4.3,7.44300144 4.3,7.155 C4.3,6.86099853 4.20100099,6.63000084 4.003,6.462 C3.80499901,6.29399916 3.53800168,6.21 3.202,6.21 L1.933,6.21 L1.933,8.064 Z M6.433,9 L6.433,2.52 L7.585,2.52 L7.585,9 L6.433,9 Z M10.906,9.108 C10.4739978,9.108 10.0855017,9.00900099 9.7405,8.811 C9.39549828,8.61299901 9.12250101,8.33850175 8.9215,7.9875 C8.720499,7.63649825 8.62,7.23000231 8.62,6.768 C8.62,6.30599769 8.72199898,5.89950175 8.926,5.5485 C9.13000102,5.19749825 9.40449828,4.92300099 9.7495,4.725 C10.0945017,4.52699901 10.4829978,4.428 10.915,4.428 C11.3410021,4.428 11.7264983,4.52699901 12.0715,4.725 C12.4165017,4.92300099 12.689499,5.19749825 12.8905,5.5485 C13.091501,5.89950175 13.192,6.30599769 13.192,6.768 C13.192,7.23000231 13.091501,7.63649825 12.8905,7.9875 C12.689499,8.33850175 12.4150017,8.61299901 12.067,8.811 C11.7189983,9.00900099 11.3320021,9.108 10.906,9.108 Z M10.906,8.109 C11.2060015,8.109 11.4669989,7.99650112 11.689,7.7715 C11.9110011,7.54649887 12.022,7.21200222 12.022,6.768 C12.022,6.32399778 11.9110011,5.98950113 11.689,5.7645 C11.4669989,5.53949887 11.2090015,5.427 10.915,5.427 C10.6089985,5.427 10.3465011,5.53949887 10.1275,5.7645 C9.90849891,5.98950113 9.799,6.32399778 9.799,6.768 C9.799,7.21200222 9.90849891,7.54649887 10.1275,7.7715 C10.3465011,7.99650112 10.6059985,8.109 10.906,8.109 Z M16.405,9.108 C15.9489977,9.108 15.5470017,9.00900099 15.199,8.811 C14.8509983,8.61299901 14.576501,8.33700177 14.3755,7.983 C14.174499,7.62899823 14.074,7.22400228 14.074,6.768 C14.074,6.31199772 14.174499,5.90700177 14.3755,5.553 C14.576501,5.19899823 14.8509983,4.92300099 15.199,4.725 C15.5470017,4.52699901 15.9489977,4.428 16.405,4.428 C16.9750029,4.428 17.4549981,4.57649851 17.845,4.8735 C18.235002,5.17050148 18.4839995,5.57999739 18.592,6.102 L17.377,6.102 C17.3169997,5.88599892 17.1985009,5.71650062 17.0215,5.5935 C16.8444991,5.47049938 16.6360012,5.409 16.396,5.409 C16.0779984,5.409 15.8080011,5.5289988 15.586,5.769 C15.3639989,6.0090012 15.253,6.34199787 15.253,6.768 C15.253,7.19400213 15.3639989,7.5269988 15.586,7.767 C15.8080011,8.0070012 16.0779984,8.127 16.396,8.127 C16.6360012,8.127 16.8444991,8.0670006 17.0215,7.947 C17.1985009,7.8269994 17.3169997,7.65600111 17.377,7.434 L18.592,7.434 C18.4839995,7.93800252 18.235002,8.34299847 17.845,8.649 C17.4549981,8.95500153 16.9750029,9.108 16.405,9.108 Z M19.618,9 L19.618,2.52 L20.77,2.52 L20.77,6.345 L22.354,4.536 L23.722,4.536 L21.895,6.57 L24.019,9 L22.579,9 L20.77,6.759 L20.77,9 L19.618,9 Z M26.359,9.108 C25.962998,9.108 25.6150015,9.04350064 25.315,8.9145 C25.0149985,8.78549936 24.7750009,8.60700114 24.595,8.379 C24.4149991,8.15099886 24.3070002,7.8870015 24.271,7.587 L25.432,7.587 C25.4680002,7.76100087 25.5654992,7.90949939 25.7245,8.0325 C25.8835008,8.15550061 26.0889987,8.217 26.341,8.217 C26.5930013,8.217 26.7774994,8.16600051 26.8945,8.064 C27.0115006,7.96199949 27.07,7.84500066 27.07,7.713 C27.07,7.52099904 26.9860008,7.39050035 26.818,7.3215 C26.6499992,7.25249966 26.4160015,7.18500033 26.116,7.119 C25.923999,7.07699979 25.729001,7.0260003 25.531,6.966 C25.332999,6.9059997 25.1515008,6.82950046 24.9865,6.7365 C24.8214992,6.64349954 24.6880005,6.52350073 24.586,6.3765 C24.4839995,6.22949926 24.433,6.04800108 24.433,5.832 C24.433,5.43599802 24.5904984,5.10300135 24.9055,4.833 C25.2205016,4.56299865 25.6629972,4.428 26.233,4.428 C26.7610026,4.428 27.1824984,4.55099877 27.4975,4.797 C27.8125016,5.04300123 27.9999997,5.38199784 28.06,5.814 L26.971,5.814 C26.9049997,5.48399835 26.6560022,5.319 26.224,5.319 C26.0079989,5.319 25.8415006,5.36099958 25.7245,5.445 C25.6074994,5.52900042 25.549,5.63399937 25.549,5.76 C25.549,5.89200066 25.6359991,5.99699961 25.81,6.075 C25.9840009,6.15300039 26.2149986,6.22499967 26.503,6.291 C26.8150016,6.36300036 27.1014987,6.44249956 27.3625,6.5295 C27.6235013,6.61650043 27.8319992,6.74549915 27.988,6.9165 C28.1440008,7.08750086 28.222,7.33199841 28.222,7.65 C28.228,7.92600138 28.1560008,8.17499889 28.006,8.397 C27.8559993,8.61900111 27.6400014,8.79299937 27.358,8.919 C27.0759986,9.04500063 26.7430019,9.108 26.359,9.108 Z M32.254,9 L30.949,4.536 L32.092,4.536 L32.866,7.749 L33.766,4.536 L35.044,4.536 L35.944,7.749 L36.727,4.536 L37.87,4.536 L36.556,9 L35.359,9 L34.405,5.661 L33.451,9 L32.254,9 Z M39.22,3.843 C39.009999,3.843 38.8375007,3.78000063 38.7025,3.654 C38.5674993,3.52799937 38.5,3.36900096 38.5,3.177 C38.5,2.98499904 38.5674993,2.82750061 38.7025,2.7045 C38.8375007,2.58149938 39.009999,2.52 39.22,2.52 C39.4300011,2.52 39.6024993,2.58149938 39.7375,2.7045 C39.8725007,2.82750061 39.94,2.98499904 39.94,3.177 C39.94,3.36900096 39.8725007,3.52799937 39.7375,3.654 C39.6024993,3.78000063 39.4300011,3.843 39.22,3.843 Z M38.644,9 L38.644,4.536 L39.796,4.536 L39.796,9 L38.644,9 Z M42.991,9 C42.5229977,9 42.1480014,8.88600114 41.866,8.658 C41.5839986,8.42999886 41.443,8.02500291 41.443,7.443 L41.443,5.499 L40.678,5.499 L40.678,4.536 L41.443,4.536 L41.578,3.339 L42.595,3.339 L42.595,4.536 L43.801,4.536 L43.801,5.499 L42.595,5.499 L42.595,7.452 C42.595,7.66800108 42.6414995,7.81649959 42.7345,7.8975 C42.8275005,7.97850041 42.9879989,8.019 43.216,8.019 L43.774,8.019 L43.774,9 L42.991,9 Z M44.791,9 L44.791,2.52 L45.943,2.52 L45.943,5.22 C46.0930008,4.97399877 46.2954987,4.7805007 46.5505,4.6395 C46.8055013,4.49849929 47.0979984,4.428 47.428,4.428 C47.9800028,4.428 48.4074985,4.60199826 48.7105,4.95 C49.0135015,5.29800174 49.165,5.80799664 49.165,6.48 L49.165,9 L48.022,9 L48.022,6.588 C48.022,6.20399808 47.9455008,5.91000102 47.7925,5.706 C47.6394992,5.50199898 47.3980017,5.4 47.068,5.4 C46.7439984,5.4 46.4755011,5.51399886 46.2625,5.742 C46.0494989,5.97000114 45.943,6.28799796 45.943,6.696 L45.943,9 L44.791,9 Z M52.405,10.98 L52.405,4.536 L53.431,4.536 L53.557,5.175 C53.7010007,4.97699901 53.8914988,4.80300075 54.1285,4.653 C54.3655012,4.50299925 54.6729981,4.428 55.051,4.428 C55.4710021,4.428 55.8459984,4.52999898 56.176,4.734 C56.5060017,4.93800102 56.766999,5.21699823 56.959,5.571 C57.151001,5.92500177 57.247,6.32699775 57.247,6.777 C57.247,7.22700225 57.151001,7.62749824 56.959,7.9785 C56.766999,8.32950175 56.5060017,8.60549899 56.176,8.8065 C55.8459984,9.007501 55.4710021,9.108 55.051,9.108 C54.7149983,9.108 54.4210013,9.04500063 54.169,8.919 C53.9169987,8.79299937 53.7130008,8.61600114 53.557,8.388 L53.557,10.98 L52.405,10.98 Z M54.808,8.1 C55.1740018,8.1 55.4769988,7.97700123 55.717,7.731 C55.9570012,7.48499877 56.077,7.16700195 56.077,6.777 C56.077,6.38699805 55.9570012,6.06600126 55.717,5.814 C55.4769988,5.56199874 55.1740018,5.436 54.808,5.436 C54.4359981,5.436 54.1315012,5.56049876 53.8945,5.8095 C53.6574988,6.05850125 53.539,6.37799805 53.539,6.768 C53.539,7.15800195 53.6574988,7.47749876 53.8945,7.7265 C54.1315012,7.97550125 54.4359981,8.1 54.808,8.1 Z M59.812,9.108 C59.4279981,9.108 59.1130012,9.04650061 58.867,8.9235 C58.6209988,8.80049939 58.4380006,8.63700102 58.318,8.433 C58.1979994,8.22899898 58.138,8.00400123 58.138,7.758 C58.138,7.34399793 58.2999984,7.00800129 58.624,6.75 C58.9480016,6.49199871 59.4339968,6.363 60.082,6.363 L61.216,6.363 L61.216,6.255 C61.216,5.94899847 61.1290009,5.72400072 60.955,5.58 C60.7809991,5.43599928 60.5650013,5.364 60.307,5.364 C60.0729988,5.364 59.8690009,5.41949944 59.695,5.5305 C59.5209991,5.64150056 59.4130002,5.80499892 59.371,6.021 L58.246,6.021 C58.2760002,5.69699838 58.3854991,5.4150012 58.5745,5.175 C58.7635009,4.9349988 59.0079985,4.75050064 59.308,4.6215 C59.6080015,4.49249935 59.9439981,4.428 60.316,4.428 C60.9520032,4.428 61.4529982,4.58699841 61.819,4.905 C62.1850018,5.22300159 62.368,5.67299709 62.368,6.255 L62.368,9 L61.387,9 L61.279,8.28 C61.1469993,8.5200012 60.9625012,8.71799922 60.7255,8.874 C60.4884988,9.03000078 60.1840019,9.108 59.812,9.108 Z M60.073,8.208 C60.4030017,8.208 60.6594991,8.10000108 60.8425,7.884 C61.0255009,7.66799892 61.1409998,7.40100159 61.189,7.083 L60.208,7.083 C59.9019985,7.083 59.6830007,7.13849944 59.551,7.2495 C59.4189993,7.36050055 59.353,7.49699919 59.353,7.659 C59.353,7.83300087 59.4189993,7.96799952 59.551,8.064 C59.6830007,8.16000048 59.8569989,8.208 60.073,8.208 Z M63.466,9 L63.466,4.536 L64.492,4.536 L64.6,5.373 C64.7620008,5.08499856 64.9824986,4.85550085 65.2615,4.6845 C65.5405014,4.51349914 65.8689981,4.428 66.247,4.428 L66.247,5.643 L65.923,5.643 C65.6709987,5.643 65.446001,5.68199961 65.248,5.76 C65.049999,5.83800039 64.8955006,5.97299904 64.7845,6.165 C64.6734994,6.35700096 64.618,6.62399829 64.618,6.966 L64.618,9 L63.466,9 Z M67.03,9 L67.03,2.52 L68.182,2.52 L68.182,6.345 L69.766,4.536 L71.134,4.536 L69.307,6.57 L71.431,9 L69.991,9 L68.182,6.759 L68.182,9 L67.03,9 Z M72.142,9 L72.142,2.52 L73.294,2.52 L73.294,9 L72.142,9 Z M76.642,9.108 C76.1919977,9.108 75.7930017,9.01200096 75.445,8.82 C75.0969983,8.62799904 74.824001,8.35800174 74.626,8.01 C74.427999,7.66199826 74.329,7.26000228 74.329,6.804 C74.329,6.34199769 74.426499,5.9310018 74.6215,5.571 C74.816501,5.2109982 75.0864983,4.930501 75.4315,4.7295 C75.7765017,4.52849899 76.1829977,4.428 76.651,4.428 C77.0890022,4.428 77.4759983,4.52399904 77.812,4.716 C78.1480017,4.90800096 78.4104991,5.17049833 78.5995,5.5035 C78.7885009,5.83650167 78.883,6.20699796 78.883,6.615 C78.883,6.68100033 78.8815,6.74999964 78.8785,6.822 C78.8755,6.89400036 78.871,6.96899961 78.865,7.047 L75.472,7.047 C75.4960001,7.39500174 75.6174989,7.66799901 75.8365,7.866 C76.0555011,8.06400099 76.3209984,8.163 76.633,8.163 C76.8670012,8.163 77.0634992,8.11050052 77.2225,8.0055 C77.3815008,7.90049948 77.4999996,7.76400084 77.578,7.596 L78.748,7.596 C78.6639996,7.87800141 78.524501,8.13449884 78.3295,8.3655 C78.134499,8.59650115 77.8945014,8.77799934 77.6095,8.91 C77.3244986,9.04200066 77.0020018,9.108 76.642,9.108 Z M76.651,5.364 C76.3689986,5.364 76.1200011,5.4434992 75.904,5.6025 C75.6879989,5.76150079 75.5500003,6.00299838 75.49,6.327 L77.713,6.327 C77.6949999,6.03299853 77.587001,5.79900087 77.389,5.625 C77.190999,5.45099913 76.9450015,5.364 76.651,5.364 Z M81.763,9 C81.2949977,9 80.9200014,8.88600114 80.638,8.658 C80.3559986,8.42999886 80.215,8.02500291 80.215,7.443 L80.215,5.499 L79.45,5.499 L79.45,4.536 L80.215,4.536 L80.35,3.339 L81.367,3.339 L81.367,4.536 L82.573,4.536 L82.573,5.499 L81.367,5.499 L81.367,7.452 C81.367,7.66800108 81.4134995,7.81649959 81.5065,7.8975 C81.5995005,7.97850041 81.7599989,8.019 81.988,8.019 L82.546,8.019 L82.546,9 L81.763,9 Z M85.408,9.108 C85.011998,9.108 84.6640015,9.04350064 84.364,8.9145 C84.0639985,8.78549936 83.8240009,8.60700114 83.644,8.379 C83.4639991,8.15099886 83.3560002,7.8870015 83.32,7.587 L84.481,7.587 C84.5170002,7.76100087 84.6144992,7.90949939 84.7735,8.0325 C84.9325008,8.15550061 85.1379987,8.217 85.39,8.217 C85.6420013,8.217 85.8264994,8.16600051 85.9435,8.064 C86.0605006,7.96199949 86.119,7.84500066 86.119,7.713 C86.119,7.52099904 86.0350008,7.39050035 85.867,7.3215 C85.6989992,7.25249966 85.4650015,7.18500033 85.165,7.119 C84.972999,7.07699979 84.778001,7.0260003 84.58,6.966 C84.381999,6.9059997 84.2005008,6.82950046 84.0355,6.7365 C83.8704992,6.64349954 83.7370005,6.52350073 83.635,6.3765 C83.5329995,6.22949926 83.482,6.04800108 83.482,5.832 C83.482,5.43599802 83.6394984,5.10300135 83.9545,4.833 C84.2695016,4.56299865 84.7119972,4.428 85.282,4.428 C85.8100026,4.428 86.2314984,4.55099877 86.5465,4.797 C86.8615016,5.04300123 87.0489997,5.38199784 87.109,5.814 L86.02,5.814 C85.9539997,5.48399835 85.7050022,5.319 85.273,5.319 C85.0569989,5.319 84.8905006,5.36099958 84.7735,5.445 C84.6564994,5.52900042 84.598,5.63399937 84.598,5.76 C84.598,5.89200066 84.6849991,5.99699961 84.859,6.075 C85.0330009,6.15300039 85.2639986,6.22499967 85.552,6.291 C85.8640016,6.36300036 86.1504987,6.44249956 86.4115,6.5295 C86.6725013,6.61650043 86.8809992,6.74549915 87.037,6.9165 C87.1930008,7.08750086 87.271,7.33199841 87.271,7.65 C87.277,7.92600138 87.2050008,8.17499889 87.055,8.397 C86.9049993,8.61900111 86.6890014,8.79299937 86.407,8.919 C86.1249986,9.04500063 85.7920019,9.108 85.408,9.108 Z" id="path-4"></path>
        <path d="M52.396,25.108 C51.7599968,25.108 51.2140023,24.9715014 50.758,24.6985 C50.3019977,24.4254986 49.9510012,24.0445024 49.705,23.5555 C49.4589988,23.0664976 49.336,22.5010032 49.336,21.859 C49.336,21.2169968 49.4589988,20.6500025 49.705,20.158 C49.9510012,19.6659975 50.3019977,19.2820014 50.758,19.006 C51.2140023,18.7299986 51.7599968,18.592 52.396,18.592 C53.1520038,18.592 53.7714976,18.7794981 54.2545,19.1545 C54.7375024,19.5295019 55.0389994,20.0559966 55.159,20.734 L53.89,20.734 C53.8119996,20.3919983 53.6455013,20.123501 53.3905,19.9285 C53.1354987,19.733499 52.7980021,19.636 52.378,19.636 C51.7959971,19.636 51.3400016,19.833998 51.01,20.23 C50.6799983,20.626002 50.515,21.1689965 50.515,21.859 C50.515,22.5490035 50.6799983,23.090498 51.01,23.4835 C51.3400016,23.876502 51.7959971,24.073 52.378,24.073 C52.7980021,24.073 53.1354987,23.9815009 53.3905,23.7985 C53.6455013,23.6154991 53.8119996,23.3620016 53.89,23.038 L55.159,23.038 C55.0389994,23.6860032 54.7375024,24.1929982 54.2545,24.559 C53.7714976,24.9250018 53.1520038,25.108 52.396,25.108 Z M56.77,19.843 C56.5599989,19.843 56.3875007,19.7800006 56.2525,19.654 C56.1174993,19.5279994 56.05,19.369001 56.05,19.177 C56.05,18.984999 56.1174993,18.8275006 56.2525,18.7045 C56.3875007,18.5814994 56.5599989,18.52 56.77,18.52 C56.980001,18.52 57.1524993,18.5814994 57.2875,18.7045 C57.4225007,18.8275006 57.49,18.984999 57.49,19.177 C57.49,19.369001 57.4225007,19.5279994 57.2875,19.654 C57.1524993,19.7800006 56.980001,19.843 56.77,19.843 Z M56.194,25 L56.194,20.536 L57.346,20.536 L57.346,25 L56.194,25 Z M60.541,25 C60.0729977,25 59.6980014,24.8860011 59.416,24.658 C59.1339986,24.4299989 58.993,24.0250029 58.993,23.443 L58.993,21.499 L58.228,21.499 L58.228,20.536 L58.993,20.536 L59.128,19.339 L60.145,19.339 L60.145,20.536 L61.351,20.536 L61.351,21.499 L60.145,21.499 L60.145,23.452 C60.145,23.6680011 60.1914995,23.8164996 60.2845,23.8975 C60.3775005,23.9785004 60.5379989,24.019 60.766,24.019 L61.324,24.019 L61.324,25 L60.541,25 Z M62.899,26.98 L63.934,24.703 L63.664,24.703 L61.927,20.536 L63.178,20.536 L64.429,23.677 L65.734,20.536 L66.958,20.536 L64.123,26.98 L62.899,26.98 Z M68.587,25 L67.282,20.536 L68.425,20.536 L69.199,23.749 L70.099,20.536 L71.377,20.536 L72.277,23.749 L73.06,20.536 L74.203,20.536 L72.889,25 L71.692,25 L70.738,21.661 L69.784,25 L68.587,25 Z M75.553,19.843 C75.3429989,19.843 75.1705007,19.7800006 75.0355,19.654 C74.9004993,19.5279994 74.833,19.369001 74.833,19.177 C74.833,18.984999 74.9004993,18.8275006 75.0355,18.7045 C75.1705007,18.5814994 75.3429989,18.52 75.553,18.52 C75.763001,18.52 75.9354993,18.5814994 76.0705,18.7045 C76.2055007,18.8275006 76.273,18.984999 76.273,19.177 C76.273,19.369001 76.2055007,19.5279994 76.0705,19.654 C75.9354993,19.7800006 75.763001,19.843 75.553,19.843 Z M74.977,25 L74.977,20.536 L76.129,20.536 L76.129,25 L74.977,25 Z M79.387,25.108 C78.9669979,25.108 78.5920016,25.006001 78.262,24.802 C77.9319983,24.597999 77.671001,24.3190018 77.479,23.965 C77.286999,23.6109982 77.191,23.2090022 77.191,22.759 C77.191,22.3089977 77.286999,21.9085018 77.479,21.5575 C77.671001,21.2064982 77.9319983,20.930501 78.262,20.7295 C78.5920016,20.528499 78.9669979,20.428 79.387,20.428 C79.7230017,20.428 80.0169987,20.4909994 80.269,20.617 C80.5210013,20.7430006 80.7249992,20.9199989 80.881,21.148 L80.881,18.52 L82.033,18.52 L82.033,25 L81.007,25 L80.881,24.361 C80.7369993,24.559001 80.5465012,24.7329992 80.3095,24.883 C80.0724988,25.0330007 79.7650019,25.108 79.387,25.108 Z M79.63,24.1 C80.0020019,24.1 80.3064988,23.9755012 80.5435,23.7265 C80.7805012,23.4774988 80.899,23.1580019 80.899,22.768 C80.899,22.3779981 80.7805012,22.0585012 80.5435,21.8095 C80.3064988,21.5604988 80.0020019,21.436 79.63,21.436 C79.2639982,21.436 78.9610012,21.5589988 78.721,21.805 C78.4809988,22.0510012 78.361,22.3689981 78.361,22.759 C78.361,23.1490019 78.4809988,23.4699987 78.721,23.722 C78.9610012,23.9740013 79.2639982,24.1 79.63,24.1 Z M85.372,25.108 C84.9219978,25.108 84.5230017,25.012001 84.175,24.82 C83.8269983,24.627999 83.554001,24.3580017 83.356,24.01 C83.157999,23.6619983 83.059,23.2600023 83.059,22.804 C83.059,22.3419977 83.156499,21.9310018 83.3515,21.571 C83.546501,21.2109982 83.8164983,20.930501 84.1615,20.7295 C84.5065017,20.528499 84.9129977,20.428 85.381,20.428 C85.8190022,20.428 86.2059983,20.523999 86.542,20.716 C86.8780017,20.908001 87.1404991,21.1704983 87.3295,21.5035 C87.5185009,21.8365017 87.613,22.206998 87.613,22.615 C87.613,22.6810003 87.6115,22.7499996 87.6085,22.822 C87.6055,22.8940004 87.601,22.9689996 87.595,23.047 L84.202,23.047 C84.2260001,23.3950017 84.3474989,23.667999 84.5665,23.866 C84.7855011,24.064001 85.0509984,24.163 85.363,24.163 C85.5970012,24.163 85.7934992,24.1105005 85.9525,24.0055 C86.1115008,23.9004995 86.2299996,23.7640008 86.308,23.596 L87.478,23.596 C87.3939996,23.8780014 87.254501,24.1344988 87.0595,24.3655 C86.864499,24.5965012 86.6245014,24.7779993 86.3395,24.91 C86.0544986,25.0420007 85.7320018,25.108 85.372,25.108 Z M85.381,21.364 C85.0989986,21.364 84.8500011,21.4434992 84.634,21.6025 C84.4179989,21.7615008 84.2800003,22.0029984 84.22,22.327 L86.443,22.327 C86.4249999,22.0329985 86.317001,21.7990009 86.119,21.625 C85.920999,21.4509991 85.6750015,21.364 85.381,21.364 Z" id="path-5"></path>
        <path d="M1.908,5.796 C1.61999856,5.796 1.35900117,5.73150064 1.125,5.6025 C0.89099883,5.47349935 0.70500069,5.2890012 0.567,5.049 C0.42899931,4.8089988 0.36,4.52400165 0.36,4.194 C0.36,3.86399835 0.42899931,3.5790012 0.567,3.339 C0.70500069,3.0989988 0.89099883,2.91450064 1.125,2.7855 C1.35900117,2.65649935 1.62299853,2.592 1.917,2.592 C2.20500144,2.592 2.46449885,2.65649935 2.6955,2.7855 C2.92650116,2.91450064 3.11099931,3.0989988 3.249,3.339 C3.38700069,3.5790012 3.456,3.86399835 3.456,4.194 C3.456,4.52400165 3.38700069,4.8089988 3.249,5.049 C3.11099931,5.2890012 2.92500117,5.47349935 2.691,5.6025 C2.45699883,5.73150064 2.19600144,5.796 1.908,5.796 Z M1.566,9 L5.121,2.7 L6.246,2.7 L2.691,9 L1.566,9 Z M1.908,4.995 C2.08200087,4.995 2.23199937,4.92750067 2.358,4.7925 C2.48400063,4.65749932 2.547,4.45800132 2.547,4.194 C2.547,3.92999868 2.48550062,3.72900069 2.3625,3.591 C2.23949939,3.45299931 2.0880009,3.384 1.908,3.384 C1.7279991,3.384 1.57650061,3.45299931 1.4535,3.591 C1.33049938,3.72900069 1.269,3.92999868 1.269,4.194 C1.269,4.45800132 1.33049938,4.65749932 1.4535,4.7925 C1.57650061,4.92750067 1.7279991,4.995 1.908,4.995 Z M5.94,9.108 C5.65199856,9.108 5.39100117,9.04350064 5.157,8.9145 C4.92299883,8.78549935 4.73700069,8.6010012 4.599,8.361 C4.46099931,8.1209988 4.392,7.83600165 4.392,7.506 C4.392,7.17599835 4.46099931,6.89250118 4.599,6.6555 C4.73700069,6.41849881 4.92299883,6.23550065 5.157,6.1065 C5.39100117,5.97749935 5.65499853,5.913 5.949,5.913 C6.23700144,5.913 6.49649885,5.97749935 6.7275,6.1065 C6.95850116,6.23550065 7.14299931,6.41849881 7.281,6.6555 C7.41900069,6.89250118 7.488,7.17599835 7.488,7.506 C7.488,7.83600165 7.41900069,8.1209988 7.281,8.361 C7.14299931,8.6010012 6.95850116,8.78549935 6.7275,8.9145 C6.49649885,9.04350064 6.23400147,9.108 5.94,9.108 Z M5.94,8.307 C6.1200009,8.307 6.27149939,8.23950067 6.3945,8.1045 C6.51750062,7.96949933 6.579,7.77000132 6.579,7.506 C6.579,7.24199868 6.51750062,7.04100069 6.3945,6.903 C6.27149939,6.76499931 6.1200009,6.696 5.94,6.696 C5.7599991,6.696 5.60850062,6.76499931 5.4855,6.903 C5.36249939,7.04100069 5.301,7.24199868 5.301,7.506 C5.301,7.77000132 5.36249939,7.96949933 5.4855,8.1045 C5.60850062,8.23950067 5.7599991,8.307 5.94,8.307 Z M13.455,9.108 C12.8189968,9.108 12.2730023,8.97150136 11.817,8.6985 C11.3609977,8.42549864 11.0100012,8.04450244 10.764,7.5555 C10.5179988,7.06649755 10.395,6.50100321 10.395,5.859 C10.395,5.21699679 10.5179988,4.65000246 10.764,4.158 C11.0100012,3.66599754 11.3609977,3.28200138 11.817,3.006 C12.2730023,2.72999862 12.8189968,2.592 13.455,2.592 C14.2110038,2.592 14.8304976,2.77949813 15.3135,3.1545 C15.7965024,3.52950188 16.0979994,4.05599661 16.218,4.734 L14.949,4.734 C14.8709996,4.39199829 14.7045013,4.12350097 14.4495,3.9285 C14.1944987,3.73349902 13.8570021,3.636 13.437,3.636 C12.8549971,3.636 12.3990017,3.83399802 12.069,4.23 C11.7389984,4.62600198 11.574,5.16899655 11.574,5.859 C11.574,6.54900345 11.7389984,7.09049803 12.069,7.4835 C12.3990017,7.87650196 12.8549971,8.073 13.437,8.073 C13.8570021,8.073 14.1944987,7.98150091 14.4495,7.7985 C14.7045013,7.61549908 14.8709996,7.36200162 14.949,7.038 L16.218,7.038 C16.0979994,7.68600324 15.7965024,8.19299817 15.3135,8.559 C14.8304976,8.92500183 14.2110038,9.108 13.455,9.108 Z M17.208,9 L17.208,2.52 L18.36,2.52 L18.36,5.22 C18.5100008,4.97399877 18.7124987,4.7805007 18.9675,4.6395 C19.2225013,4.49849929 19.5149984,4.428 19.845,4.428 C20.3970028,4.428 20.8244985,4.60199826 21.1275,4.95 C21.4305015,5.29800174 21.582,5.80799664 21.582,6.48 L21.582,9 L20.439,9 L20.439,6.588 C20.439,6.20399808 20.3625008,5.91000102 20.2095,5.706 C20.0564992,5.50199898 19.8150017,5.4 19.485,5.4 C19.1609984,5.4 18.8925011,5.51399886 18.6795,5.742 C18.4664989,5.97000114 18.36,6.28799796 18.36,6.696 L18.36,9 L17.208,9 Z M24.219,9.108 C23.8349981,9.108 23.5200012,9.04650061 23.274,8.9235 C23.0279988,8.80049939 22.8450006,8.63700102 22.725,8.433 C22.6049994,8.22899898 22.545,8.00400123 22.545,7.758 C22.545,7.34399793 22.7069984,7.00800129 23.031,6.75 C23.3550016,6.49199871 23.8409968,6.363 24.489,6.363 L25.623,6.363 L25.623,6.255 C25.623,5.94899847 25.5360009,5.72400072 25.362,5.58 C25.1879991,5.43599928 24.9720013,5.364 24.714,5.364 C24.4799988,5.364 24.2760009,5.41949944 24.102,5.5305 C23.9279991,5.64150055 23.8200002,5.80499892 23.778,6.021 L22.653,6.021 C22.6830002,5.69699838 22.7924991,5.4150012 22.9815,5.175 C23.1705009,4.9349988 23.4149985,4.75050064 23.715,4.6215 C24.0150015,4.49249935 24.3509981,4.428 24.723,4.428 C25.3590032,4.428 25.8599982,4.58699841 26.226,4.905 C26.5920018,5.22300159 26.775,5.67299709 26.775,6.255 L26.775,9 L25.794,9 L25.686,8.28 C25.5539993,8.5200012 25.3695012,8.71799922 25.1325,8.874 C24.8954988,9.03000078 24.5910019,9.108 24.219,9.108 Z M24.48,8.208 C24.8100017,8.208 25.0664991,8.10000108 25.2495,7.884 C25.4325009,7.66799892 25.5479998,7.40100159 25.596,7.083 L24.615,7.083 C24.3089985,7.083 24.0900007,7.13849944 23.958,7.2495 C23.8259993,7.36050055 23.76,7.49699919 23.76,7.659 C23.76,7.83300087 23.8259993,7.96799952 23.958,8.064 C24.0900007,8.16000048 24.2639989,8.208 24.48,8.208 Z M27.873,9 L27.873,4.536 L28.89,4.536 L28.98,5.292 C29.1180007,5.02799868 29.3174987,4.81800078 29.5785,4.662 C29.8395013,4.50599922 30.1469982,4.428 30.501,4.428 C31.0530028,4.428 31.4819985,4.60199826 31.788,4.95 C32.0940015,5.29800174 32.247,5.80799664 32.247,6.48 L32.247,9 L31.095,9 L31.095,6.588 C31.095,6.20399808 31.0170008,5.91000102 30.861,5.706 C30.7049992,5.50199898 30.4620017,5.4 30.132,5.4 C29.8079984,5.4 29.542501,5.51399886 29.3355,5.742 C29.128499,5.97000114 29.025,6.28799796 29.025,6.696 L29.025,9 L27.873,9 Z M35.235,7.668 C35.0189989,7.668 34.8180009,7.64400024 34.632,7.596 L34.299,7.929 C34.4010005,7.98300027 34.5389991,8.02799982 34.713,8.064 C34.8870009,8.10000018 35.1689981,8.13599982 35.559,8.172 C36.153003,8.22600027 36.5849987,8.36699886 36.855,8.595 C37.1250014,8.82300114 37.26,9.13799799 37.26,9.54 C37.26,9.80400132 37.1880007,10.0544988 37.044,10.2915 C36.8999993,10.5285012 36.6780015,10.7204993 36.378,10.8675 C36.0779985,11.0145007 35.6940023,11.088 35.226,11.088 C34.5899968,11.088 34.077002,10.9695012 33.687,10.7325 C33.296998,10.4954988 33.102,10.1400024 33.102,9.666 C33.102,9.26399799 33.296998,8.91600147 33.687,8.622 C33.5669994,8.56799973 33.4635004,8.5110003 33.3765,8.451 C33.2894996,8.3909997 33.2130003,8.32800033 33.147,8.262 L33.147,8.055 L33.93,7.227 C33.5819983,6.92099847 33.408,6.5280024 33.408,6.048 C33.408,5.7479985 33.4814993,5.47500123 33.6285,5.229 C33.7755007,4.98299877 33.9839987,4.78800072 34.254,4.644 C34.5240014,4.49999928 34.8509981,4.428 35.235,4.428 C35.4870013,4.428 35.7209989,4.46399964 35.937,4.536 L37.629,4.536 L37.629,5.238 L36.864,5.292 C36.9840006,5.52000114 37.044,5.77199862 37.044,6.048 C37.044,6.3480015 36.9720007,6.62099877 36.828,6.867 C36.6839993,7.11300123 36.4755014,7.30799928 36.2025,7.452 C35.9294986,7.59600072 35.6070019,7.668 35.235,7.668 Z M35.235,6.786 C35.4690012,6.786 35.6624992,6.72300063 35.8155,6.597 C35.9685008,6.47099937 36.045,6.29100117 36.045,6.057 C36.045,5.82299883 35.9685008,5.64300063 35.8155,5.517 C35.6624992,5.39099937 35.4690012,5.328 35.235,5.328 C34.9889988,5.328 34.7910008,5.39099937 34.641,5.517 C34.4909993,5.64300063 34.416,5.82299883 34.416,6.057 C34.416,6.29100117 34.4909993,6.47099937 34.641,6.597 C34.7910008,6.72300063 34.9889988,6.786 35.235,6.786 Z M34.155,9.549 C34.155,9.77100111 34.258499,9.93749945 34.4655,10.0485 C34.672501,10.1595006 34.9259985,10.215 35.226,10.215 C35.5140014,10.215 35.7479991,10.1565006 35.928,10.0395 C36.1080009,9.92249942 36.198,9.76500099 36.198,9.567 C36.198,9.40499919 36.1395006,9.27000054 36.0225,9.162 C35.9054994,9.05399946 35.6730017,8.98800012 35.325,8.964 C35.0789988,8.94599991 34.851001,8.91900018 34.641,8.883 C34.4669991,8.97900048 34.3425004,9.08399943 34.2675,9.198 C34.1924996,9.31200057 34.155,9.4289994 34.155,9.549 Z M40.455,9.108 C40.0049978,9.108 39.6060017,9.01200096 39.258,8.82 C38.9099983,8.62799904 38.637001,8.35800174 38.439,8.01 C38.240999,7.66199826 38.142,7.26000228 38.142,6.804 C38.142,6.34199769 38.239499,5.9310018 38.4345,5.571 C38.629501,5.2109982 38.8994983,4.930501 39.2445,4.7295 C39.5895017,4.52849899 39.9959977,4.428 40.464,4.428 C40.9020022,4.428 41.2889983,4.52399904 41.625,4.716 C41.9610017,4.90800096 42.2234991,5.17049833 42.4125,5.5035 C42.6015009,5.83650167 42.696,6.20699796 42.696,6.615 C42.696,6.68100033 42.6945,6.74999964 42.6915,6.822 C42.6885,6.89400036 42.684,6.96899961 42.678,7.047 L39.285,7.047 C39.3090001,7.39500174 39.4304989,7.66799901 39.6495,7.866 C39.8685011,8.06400099 40.1339984,8.163 40.446,8.163 C40.6800012,8.163 40.8764992,8.11050052 41.0355,8.0055 C41.1945008,7.90049947 41.3129996,7.76400084 41.391,7.596 L42.561,7.596 C42.4769996,7.87800141 42.337501,8.13449884 42.1425,8.3655 C41.947499,8.59650115 41.7075014,8.77799934 41.4225,8.91 C41.1374986,9.04200066 40.8150018,9.108 40.455,9.108 Z M40.464,5.364 C40.1819986,5.364 39.9330011,5.4434992 39.717,5.6025 C39.5009989,5.76150079 39.3630003,6.00299838 39.303,6.327 L41.526,6.327 C41.5079999,6.03299853 41.400001,5.79900087 41.202,5.625 C41.003999,5.45099913 40.7580015,5.364 40.464,5.364 Z" id="path-6"></path>
        <path d="M0.693,20.195 L0.693,19.414 L2.794,19.414 L2.794,17.412 L3.619,17.412 L3.619,19.414 L5.72,19.414 L5.72,20.195 L3.619,20.195 L3.619,22.208 L2.794,22.208 L2.794,20.195 L0.693,20.195 Z M9.625,23.132 C9.13366421,23.132 8.69000198,23.0421676 8.294,22.8625 C7.89799802,22.6828324 7.58083452,22.4133351 7.3425,22.054 C7.10416547,21.6946649 6.97766674,21.247336 6.963,20.712 L7.898,20.712 C7.90533337,21.1520022 8.05933183,21.5314984 8.36,21.8505 C8.66066817,22.1695016 9.08233062,22.329 9.625,22.329 C10.1676694,22.329 10.5764986,22.1786682 10.8515,21.878 C11.1265014,21.5773318 11.264,21.2143355 11.264,20.789 C11.264,20.4296649 11.1778342,20.1363345 11.0055,19.909 C10.8331658,19.6816655 10.6021681,19.5130006 10.3125,19.403 C10.0228319,19.2929995 9.70566839,19.238 9.361,19.238 L8.789,19.238 L8.789,18.457 L9.361,18.457 C9.85966916,18.457 10.2501653,18.3433345 10.5325,18.116 C10.8148347,17.8886655 10.956,17.5696687 10.956,17.159 C10.956,16.8143316 10.8441678,16.5301678 10.6205,16.3065 C10.3968322,16.0828322 10.0650022,15.971 9.625,15.971 C9.19966454,15.971 8.85866795,16.0974987 8.602,16.3505 C8.34533205,16.6035013 8.20233348,16.9206648 8.173,17.302 L7.238,17.302 C7.26000011,16.8839979 7.37183232,16.5136683 7.5735,16.191 C7.77516767,15.8683317 8.05199824,15.6171676 8.404,15.4375 C8.75600176,15.2578324 9.16299769,15.168 9.625,15.168 C10.1236692,15.168 10.5398317,15.2559991 10.8735,15.432 C11.2071683,15.6080009 11.4601658,15.8426652 11.6325,16.136 C11.8048342,16.4293348 11.891,16.7519982 11.891,17.104 C11.891,17.4926686 11.7846677,17.8464984 11.572,18.1655 C11.3593323,18.4845016 11.0403355,18.6989995 10.615,18.809 C11.0696689,18.9043338 11.4473318,19.120665 11.748,19.458 C12.0486682,19.795335 12.199,20.2389973 12.199,20.789 C12.199,21.2143355 12.1018343,21.6048316 11.9075,21.9605 C11.7131657,22.3161684 11.4253352,22.6003323 11.044,22.813 C10.6626648,23.0256677 10.1896695,23.132 9.625,23.132 Z M13.574,23 L13.574,22.351 C14.0946693,21.9403313 14.587831,21.5241688 15.0535,21.1025 C15.519169,20.6808312 15.9334982,20.2646687 16.2965,19.854 C16.6595018,19.4433313 16.945499,19.040002 17.1545,18.644 C17.363501,18.247998 17.468,17.8666685 17.468,17.5 C17.468,17.2286653 17.4221671,16.9756678 17.3305,16.741 C17.2388329,16.5063322 17.0903344,16.3175007 16.885,16.1745 C16.6796656,16.0314993 16.4010018,15.96 16.049,15.96 C15.711665,15.96 15.4293345,16.0351659 15.202,16.1855 C14.9746655,16.3358341 14.8041672,16.5356654 14.6905,16.785 C14.5768328,17.0343346 14.52,17.3019986 14.52,17.588 L13.629,17.588 C13.629,17.0819975 13.7353323,16.6475018 13.948,16.2845 C14.1606677,15.9214982 14.4503315,15.6446676 14.817,15.454 C15.1836685,15.2633324 15.5979977,15.168 16.06,15.168 C16.7420034,15.168 17.3011645,15.3604981 17.7375,15.7455 C18.1738355,16.1305019 18.392,16.7043295 18.392,17.467 C18.392,17.9216689 18.2783345,18.3708311 18.051,18.8145 C17.8236655,19.2581689 17.5340018,19.6871646 17.182,20.1015 C16.8299982,20.5158354 16.4541687,20.9026649 16.0545,21.262 C15.6548313,21.6213351 15.2826684,21.9439986 14.938,22.23 L18.656,22.23 L18.656,23 L13.574,23 Z M21.373,18.875 C21.0429984,18.875 20.744168,18.7998341 20.4765,18.6495 C20.208832,18.4991659 19.9980008,18.2865014 19.844,18.0115 C19.6899992,17.7364986 19.613,17.4083352 19.613,17.027 C19.613,16.6456648 19.6918325,16.3175014 19.8495,16.0425 C20.0071675,15.7674986 20.219832,15.5548341 20.4875,15.4045 C20.755168,15.2541659 21.0539984,15.179 21.384,15.179 C21.7140017,15.179 22.0109987,15.2541659 22.275,15.4045 C22.5390013,15.5548341 22.7479992,15.7674986 22.902,16.0425 C23.0560008,16.3175014 23.133,16.6456648 23.133,17.027 C23.133,17.4083352 23.0541675,17.7364986 22.8965,18.0115 C22.7388325,18.2865014 22.5280013,18.4991659 22.264,18.6495 C21.9999987,18.7998341 21.7030017,18.875 21.373,18.875 Z M20.691,23 L25.168,15.3 L26.092,15.3 L21.615,23 L20.691,23 Z M21.373,18.16 C21.629668,18.16 21.8551657,18.0646676 22.0495,17.874 C22.2438343,17.6833324 22.341,17.4010019 22.341,17.027 C22.341,16.6456648 22.2456676,16.3578343 22.055,16.1635 C21.8643324,15.9691657 21.640668,15.872 21.384,15.872 C21.1273321,15.872 20.8981677,15.9691657 20.6965,16.1635 C20.4948323,16.3578343 20.394,16.6456648 20.394,17.027 C20.394,17.4010019 20.492999,17.6833324 20.691,17.874 C20.889001,18.0646676 21.1163321,18.16 21.373,18.16 Z M25.487,23.132 C25.1569984,23.132 24.858168,23.0568341 24.5905,22.9065 C24.322832,22.7561659 24.1120008,22.5435014 23.958,22.2685 C23.8039992,21.9934986 23.727,21.6653352 23.727,21.284 C23.727,20.9026648 23.8058325,20.5745014 23.9635,20.2995 C24.1211675,20.0244986 24.3319987,19.8118341 24.596,19.6615 C24.8600013,19.5111659 25.1569984,19.436 25.487,19.436 C25.8170017,19.436 26.1139987,19.5111659 26.378,19.6615 C26.6420013,19.8118341 26.8509992,20.0244986 27.005,20.2995 C27.1590008,20.5745014 27.236,20.9026648 27.236,21.284 C27.236,21.6653352 27.1590008,21.9934986 27.005,22.2685 C26.8509992,22.5435014 26.6420013,22.7561659 26.378,22.9065 C26.1139987,23.0568341 25.8170017,23.132 25.487,23.132 Z M25.476,22.417 C25.7400013,22.417 25.9691657,22.3216676 26.1635,22.131 C26.3578343,21.9403324 26.455,21.6580019 26.455,21.284 C26.455,20.9026648 26.3596676,20.6166676 26.169,20.426 C25.9783324,20.2353324 25.7510013,20.14 25.487,20.14 C25.230332,20.14 25.003001,20.2353324 24.805,20.426 C24.606999,20.6166676 24.508,20.9026648 24.508,21.284 C24.508,21.6580019 24.6051657,21.9403324 24.7995,22.131 C24.9938343,22.3216676 25.219332,22.417 25.476,22.417 Z" id="path-7"></path>
        <path d="M0.693,34.195 L0.693,33.414 L2.794,33.414 L2.794,31.412 L3.619,31.412 L3.619,33.414 L5.72,33.414 L5.72,34.195 L3.619,34.195 L3.619,36.208 L2.794,36.208 L2.794,34.195 L0.693,34.195 Z M9.625,37.132 C9.13366421,37.132 8.69000198,37.0421676 8.294,36.8625 C7.89799802,36.6828324 7.58083452,36.4133351 7.3425,36.054 C7.10416547,35.6946649 6.97766674,35.247336 6.963,34.712 L7.898,34.712 C7.90533337,35.1520022 8.05933183,35.5314984 8.36,35.8505 C8.66066817,36.1695016 9.08233062,36.329 9.625,36.329 C10.1676694,36.329 10.5764986,36.1786682 10.8515,35.878 C11.1265014,35.5773318 11.264,35.2143355 11.264,34.789 C11.264,34.4296649 11.1778342,34.1363345 11.0055,33.909 C10.8331658,33.6816655 10.6021681,33.5130006 10.3125,33.403 C10.0228319,33.2929995 9.70566839,33.238 9.361,33.238 L8.789,33.238 L8.789,32.457 L9.361,32.457 C9.85966916,32.457 10.2501653,32.3433345 10.5325,32.116 C10.8148347,31.8886655 10.956,31.5696687 10.956,31.159 C10.956,30.8143316 10.8441678,30.5301678 10.6205,30.3065 C10.3968322,30.0828322 10.0650022,29.971 9.625,29.971 C9.19966454,29.971 8.85866795,30.0974987 8.602,30.3505 C8.34533205,30.6035013 8.20233348,30.9206648 8.173,31.302 L7.238,31.302 C7.26000011,30.8839979 7.37183232,30.5136683 7.5735,30.191 C7.77516767,29.8683317 8.05199824,29.6171676 8.404,29.4375 C8.75600176,29.2578324 9.16299769,29.168 9.625,29.168 C10.1236692,29.168 10.5398317,29.2559991 10.8735,29.432 C11.2071683,29.6080009 11.4601658,29.8426652 11.6325,30.136 C11.8048342,30.4293348 11.891,30.7519982 11.891,31.104 C11.891,31.4926686 11.7846677,31.8464984 11.572,32.1655 C11.3593323,32.4845016 11.0403355,32.6989995 10.615,32.809 C11.0696689,32.9043338 11.4473318,33.120665 11.748,33.458 C12.0486682,33.795335 12.199,34.2389972 12.199,34.789 C12.199,35.2143355 12.1018343,35.6048316 11.9075,35.9605 C11.7131657,36.3161684 11.4253352,36.6003323 11.044,36.813 C10.6626648,37.0256677 10.1896695,37.132 9.625,37.132 Z M14.267,37 L14.267,30.334 L13.024,30.609 L13.024,29.971 L14.575,29.3 L15.202,29.3 L15.202,37 L14.267,37 Z M18.216,32.875 C17.8859983,32.875 17.587168,32.7998341 17.3195,32.6495 C17.051832,32.4991659 16.8410008,32.2865014 16.687,32.0115 C16.5329992,31.7364986 16.456,31.4083352 16.456,31.027 C16.456,30.6456648 16.5348325,30.3175014 16.6925,30.0425 C16.8501675,29.7674986 17.062832,29.5548341 17.3305,29.4045 C17.598168,29.2541659 17.8969984,29.179 18.227,29.179 C18.5570017,29.179 18.8539987,29.2541659 19.118,29.4045 C19.3820013,29.5548341 19.5909992,29.7674986 19.745,30.0425 C19.8990008,30.3175014 19.976,30.6456648 19.976,31.027 C19.976,31.4083352 19.8971675,31.7364986 19.7395,32.0115 C19.5818325,32.2865014 19.3710013,32.4991659 19.107,32.6495 C18.8429987,32.7998341 18.5460016,32.875 18.216,32.875 Z M17.534,37 L22.011,29.3 L22.935,29.3 L18.458,37 L17.534,37 Z M18.216,32.16 C18.4726679,32.16 18.6981657,32.0646676 18.8925,31.874 C19.0868343,31.6833324 19.184,31.4010019 19.184,31.027 C19.184,30.6456648 19.0886676,30.3578343 18.898,30.1635 C18.7073324,29.9691657 18.4836679,29.872 18.227,29.872 C17.970332,29.872 17.7411677,29.9691657 17.5395,30.1635 C17.3378323,30.3578343 17.237,30.6456648 17.237,31.027 C17.237,31.4010019 17.335999,31.6833324 17.534,31.874 C17.732001,32.0646676 17.9593321,32.16 18.216,32.16 Z M22.33,37.132 C21.9999983,37.132 21.701168,37.0568341 21.4335,36.9065 C21.165832,36.7561659 20.9550008,36.5435014 20.801,36.2685 C20.6469992,35.9934986 20.57,35.6653352 20.57,35.284 C20.57,34.9026648 20.6488325,34.5745014 20.8065,34.2995 C20.9641675,34.0244986 21.1749987,33.8118341 21.439,33.6615 C21.7030013,33.5111659 21.9999983,33.436 22.33,33.436 C22.6600016,33.436 22.9569987,33.5111659 23.221,33.6615 C23.4850013,33.8118341 23.6939992,34.0244986 23.848,34.2995 C24.0020008,34.5745014 24.079,34.9026648 24.079,35.284 C24.079,35.6653352 24.0020008,35.9934986 23.848,36.2685 C23.6939992,36.5435014 23.4850013,36.7561659 23.221,36.9065 C22.9569987,37.0568341 22.6600016,37.132 22.33,37.132 Z M22.319,36.417 C22.5830013,36.417 22.8121657,36.3216676 23.0065,36.131 C23.2008343,35.9403324 23.298,35.6580019 23.298,35.284 C23.298,34.9026648 23.2026676,34.6166676 23.012,34.426 C22.8213324,34.2353324 22.5940013,34.14 22.33,34.14 C22.073332,34.14 21.846001,34.2353324 21.648,34.426 C21.449999,34.6166676 21.351,34.9026648 21.351,35.284 C21.351,35.6580019 21.4481657,35.9403324 21.6425,36.131 C21.8368343,36.3216676 22.062332,36.417 22.319,36.417 Z" id="path-8"></path>
    </defs>
    <g id="Page-1" stroke="none" stroke-width="1" fill="none" fill-rule="evenodd">
        <g id="biz_2011" transform="translate(0.000000, -2.000000)" fill-rule="nonzero">
            <g id="Total-1,183-13,326" transform="translate(103.000000, 0.000000)">
                <g id="Total">
                    <use fill="#000000" xlink:href="#path-1"></use>
                    <use fill="#979797" xlink:href="#path-1"></use>
                </g>
                <g id="1,183">
                    <use fill="#000000" xlink:href="#path-2"></use>
                    <use fill="#979797" xlink:href="#path-2"></use>
                </g>
                <g id="13,326">
                    <use fill="#000000" xlink:href="#path-3"></use>
                    <use fill="#979797" xlink:href="#path-3"></use>
                </g>
            </g>
            <g id="Blocks-with-parklets" transform="translate(0.000000, 15.000000)">
                <g id="Blockswithparklets">
                    <use fill="#000000" xlink:href="#path-4"></use>
                    <use fill="#979797" xlink:href="#path-4"></use>
                </g>
                <g id="Citywide">
                    <use fill="#000000" xlink:href="#path-5"></use>
                    <use fill="#979797" xlink:href="#path-5"></use>
                </g>
            </g>
            <g id="%-Change-+32%+31%" transform="translate(170.000000, 0.000000)">
                <g id="%Change">
                    <use fill="#000000" xlink:href="#path-6"></use>
                    <use fill="#979797" xlink:href="#path-6"></use>
                </g>
                <g id="+32%">
                    <use fill="#000000" xlink:href="#path-7"></use>
                    <use fill="#979797" xlink:href="#path-7"></use>
                </g>
                <g id="+31%">
                    <use fill="#000000" xlink:href="#path-8"></use>
                    <use fill="#979797" xlink:href="#path-8"></use>
                </g>
            </g>
        </g>
    </g>
</svg>