<?xml version="1.0" encoding="UTF-8"?>
<svg width="87px" height="72px" viewBox="0 0 87 72" version="1.1" xmlns="http://www.w3.org/2000/svg" xmlns:xlink="http://www.w3.org/1999/xlink">
    <!-- Generator: Sketch 56.2 (81672) - https://sketch.com -->
    <title>Group</title>
    <desc>Created with Sketch.</desc>
    <defs>
        <polygon id="path-1" points="0.111361861 0.507602051 10.2773174 0.507602051 10.2773174 10.7816562 0.111361861 10.7816562"></polygon>
    </defs>
    <g id="Pages" stroke="none" stroke-width="1" fill="none" fill-rule="evenodd">
        <g id="Section-04-07" transform="translate(-690.000000, -204.000000)">
            <g id="Group" transform="translate(690.000000, 204.000000)">
                <polygon id="Fill-6" fill="#E8B54C" points="0 52 48.1126222 52.8893654 52 60 0 58.5188679"></polygon>
                <path d="M20.1146988,59.0711123 C13.7650504,51.8773876 12.4144256,41.5087879 13.2026297,31.9524223 C13.4748739,28.6595373 13.9737167,25.3503751 15.184959,22.2756051 C17.9228882,15.3260389 24.1812451,10.1344143 31.1829755,7.50970992 C38.1847059,4.88419166 45.8768281,4.60015388 53.3146383,5.38146124 C58.0626103,5.88035854 62.8073219,6.81223033 67.1860525,8.71341157 C80.3092025,14.4136998 88.7039431,29.3911991 86.706942,43.540187 C82.2939771,74.8128278 39.2997661,80.8052925 20.1146988,59.0711123" id="Fill-7" fill-opacity="0.5" fill="#E8B54C"></path>
                <path d="M52.0263676,29.4591585 C51.4368359,30.5949684 49.7138922,29.6788352 50.3042109,28.5397709 C52.8071625,23.712579 55.5053129,19.017193 57.0070838,13.7254255 C57.3565525,12.4936088 59.2518693,12.9158762 58.9000394,14.1558291 C57.3502558,19.6192699 54.6119638,24.4724976 52.0263676,29.4591585 L52.0263676,29.4591585 Z M56.433294,8 L39,41.7976662 C41.7563951,42.6218606 44.09878,44.2173643 46.3781976,46 L63,11.9631303 L56.433294,8 Z" id="Fill-9" fill="#1D8E7F"></path>
                <path d="M38.3924073,43 L38.0700313,43.6461869 L37,55 L45.6092899,48.2201933 L46,47.3909774 C43.6637785,45.4627282 41.234301,43.7338346 38.3924073,43" id="Fill-11" fill="#1D8E7F"></path>
                <g id="Group-15" transform="translate(58.000000, 0.000000)">
                    <mask id="mask-2" fill="white">
                        <use xlink:href="#path-1"></use>
                    </mask>
                    <g id="Clip-14"></g>
                    <polygon id="Fill-13" fill="#1D8E7F" mask="url(#mask-2)" points="0.111361861 6.68054031 3.28049547 0.507001846 10.2773174 4.40490544 6.92444103 10.7816562"></polygon>
                </g>
            </g>
        </g>
    </g>
</svg>