<?xml version="1.0" encoding="UTF-8"?>
<svg width="83px" height="68px" viewBox="0 0 83 68" version="1.1" xmlns="http://www.w3.org/2000/svg" xmlns:xlink="http://www.w3.org/1999/xlink">
    <!-- Generator: Sketch 56.2 (81672) - https://sketch.com -->
    <title>Group 2</title>
    <desc>Created with Sketch.</desc>
    <g id="Pages" stroke="none" stroke-width="1" fill="none" fill-rule="evenodd">
        <g id="Section-04-07" transform="translate(-853.000000, -209.000000)">
            <g id="Group-2" transform="translate(853.000000, 209.000000)">
                <path d="M53.2597561,39.8501706 C48.4834579,43.4840696 44.8481643,48.501536 41.3970075,53.3676239 C38.6518421,57.2383571 31.8974811,55.0409265 33.4107796,49.9599788 C34.4408197,46.503502 35.7370137,42.7833334 36.4639116,39.0289827 C30.866637,45.8231124 25.6907058,52.9769696 19.8216485,59.5497285 C17.3860581,62.2769839 12.0235779,60.2276765 12.3637082,56.4220523 C13.0600507,48.6057105 16.5916166,41.2028112 18.796433,33.6485333 C16.3463689,36.5043791 14.349812,39.6589128 13.4838064,43.2488632 C12.149016,48.7847604 3.7253629,46.426185 5.05774102,40.8976125 C7.30517425,31.5788793 15.0051458,24.639882 21.8503691,18.555441 C24.7056948,16.0178156 29.1523158,17.7253005 29.3091135,21.6831171 C29.5318466,27.3093531 28.0434749,32.5660953 26.2680428,37.7650532 C29.846246,33.2285799 33.4871682,28.7474493 37.5188785,24.5975611 C39.8427003,22.2048034 43.9331092,23.3743247 44.8216293,26.5492049 C45.5943604,29.3090149 45.8146812,32.0948685 45.6820063,34.8782806 C46.6975727,33.9553597 47.7404782,33.0568548 48.8493191,32.2136926 C53.3498142,28.7889564 57.7007484,36.4718246 53.2597561,39.8501706 M53.4535419,4.71407016 C49.1347713,2.81207195 44.4541599,1.88019863 39.7703322,1.38130051 C32.4330055,0.599991873 24.8439984,0.88484398 17.9368601,3.50955268 C11.0297219,6.13426138 4.85671837,11.3258945 2.15577805,18.275472 C0.960899423,21.3502471 0.468795977,24.6594147 0.200229717,27.952305 C-0.578129983,37.5095002 0.754248139,47.877303 7.0181139,55.0710395 C25.9439943,76.8052552 68.3573611,70.8127808 72.7107076,39.5409026 C74.6815337,25.3910777 66.3994005,10.4143677 53.4535419,4.71407016" id="Fill-16" fill-opacity="0.5" fill="#E8B54C"></path>
                <path d="M82.425093,7.98315939 L78.4277266,1.67623176 C78.4277266,1.67623176 77.0288508,-2.46288919 71.4325377,2.26730654 L55,19.8877249 C58.4797743,24.0611921 61.9749387,28.315333 64.70465,33 L81.2262881,15.078453 C81.2262881,15.078453 84.2241104,11.9249892 82.425093,7.98315939" id="Fill-18" fill="#1D8E7F"></path>
                <path d="M53.7682386,22 L51.5197923,24.2682425 C51.5197923,24.2682425 48.7656817,26.8232011 50.6724397,30.1642395 L55.5445026,39.0078367 C55.5445026,39.0078367 57.6624549,41.3660762 60.4165655,38.8111176 L64,35.1546916 C61.2270021,30.4167089 57.4546947,26.1478255 53.7682386,22" id="Fill-20" fill="#1D8E7F"></path>
            </g>
        </g>
    </g>
</svg>