<?xml version="1.0" encoding="UTF-8"?>
<svg width="79px" height="68px" viewBox="0 0 79 68" version="1.1" xmlns="http://www.w3.org/2000/svg" xmlns:xlink="http://www.w3.org/1999/xlink">
    <!-- Generator: Sketch 56.2 (81672) - https://sketch.com -->
    <title>Group 3</title>
    <desc>Created with Sketch.</desc>
    <defs>
        <polygon id="path-1" points="0.188280315 0.547014888 74.927252 0.547014888 74.927252 67.1098827 0.188280315 67.1098827"></polygon>
    </defs>
    <g id="Pages" stroke="none" stroke-width="1" fill="none" fill-rule="evenodd">
        <g id="Section-04-07" transform="translate(-702.000000, -363.000000)">
            <g id="Group-3" transform="translate(702.000000, 363.000000)">
                <g id="Group-28" opacity="0.5">
                    <mask id="mask-2" fill="white">
                        <use xlink:href="#path-1"></use>
                    </mask>
                    <g id="Clip-27"></g>
                    <path d="M7.37402725,54.265698 C0.960970605,47.1188997 -0.403141699,36.817937 0.392933496,27.32391 C0.667896387,24.0516968 1.17172061,20.7641211 2.3950585,17.7094086 C5.160329,10.8059848 11.4811825,5.64741791 18.5528329,3.03983512 C25.6244833,0.432252329 33.3934198,0.1500674 40.9055048,0.925469538 C45.7008905,1.42111241 50.4929833,2.34771392 54.9154403,4.23649327 C68.1696396,9.8995971 76.6482108,24.7785858 74.6312675,38.8360848 C70.1742343,69.9047263 26.7506786,75.857292 7.37402725,54.265698" id="Fill-26" fill="#E8B54C" mask="url(#mask-2)"></path>
                </g>
                <path d="M22.1187573,35.4465802 C24.178348,35.214467 26.0411409,35.833969 27.652847,37.2954815 C28.4493691,38.0174335 29.3239317,38.9442853 30,40 L29.7090446,7.12797448 C29.6674796,4.95491508 28.4527622,3.18445196 26.9284275,1.75415467 C25.5389672,0.449518646 23.9323508,-0.181188832 22.0144205,0.0453215948 C19.4772559,0.34546792 16.8349062,0.963369154 15.3428056,3.22767303 C14.5276217,4.46427589 14.0475029,5.9257884 14,7.40971183 L14.3104655,39.7158615 C14.46485,39.4253198 14.624324,39.136379 14.8126392,38.8618451 C16.4955996,36.3950425 19.4501113,35.7515288 22.1187573,35.4465802" id="Fill-29" fill="#1D8E7F"></path>
                <path d="M31.8923757,11.3328903 L32.4607158,45.123328 L30.7368872,44.9327988 L30.7434292,44.3310847 C30.3778925,42.337856 28.6990404,40.5245715 27.6506778,39.5654116 C26.2555869,38.2903315 24.7239308,37.7659691 22.964121,37.9687117 C20.5280273,38.2496201 17.8433359,38.8252789 16.3934554,40.9691397 C15.5797887,42.1717536 15.1259343,43.5486121 15.08014,44.9531544 L15,44.9507118 L15.0318925,48.2914868 C15.0318925,48.2914868 15.1938081,56.0478172 28.1928498,56 L79,55.3182694 L79,10 L31.8923757,11.3328903 Z" id="Fill-31" fill="#1D8E7F"></path>
                <polygon id="Fill-33" fill="#E8B54C" points="44.4138218 29 71.4483761 29.9286301 72 42 40 41.0713699"></polygon>
                <polygon id="Fill-35" fill="#E8B54C" points="34 15 34 17 55 16.9001041 54.8386813 15.2996878"></polygon>
                <polygon id="Fill-37" fill="#E8B54C" points="34 17.2004161 54.9175504 17 55 17.8668516 34 18"></polygon>
                <polygon id="Fill-39" fill="#E8B54C" points="34 20.2004161 54.9175504 20 55 20.8668516 34 21"></polygon>
            </g>
        </g>
    </g>
</svg>