<?xml version="1.0" encoding="UTF-8"?>
<svg width="81px" height="75px" viewBox="0 0 81 75" version="1.1" xmlns="http://www.w3.org/2000/svg" xmlns:xlink="http://www.w3.org/1999/xlink">
    <!-- Generator: Sketch 56.2 (81672) - https://sketch.com -->
    <title>Group 6</title>
    <desc>Created with Sketch.</desc>
    <g id="Pages" stroke="none" stroke-width="1" fill="none" fill-rule="evenodd">
        <g id="Section-04-07" transform="translate(-545.000000, -358.000000)" stroke-width="6.457">
            <g id="Group-6" transform="translate(549.000000, 362.000000)">
                <g id="Group-5">
                    <path d="M7.20438261,54.6182554 C0.938513043,47.3766651 -0.394291304,36.9390747 0.384317391,27.3191229 C0.652165217,24.0043277 1.14523043,20.673147 2.3404913,17.5779181 C5.04229565,10.5821108 11.2172739,5.35594217 18.1266217,2.71377349 C25.0359696,0.0707855422 32.6266,-0.215142169 39.9662739,0.571363855 C44.6524043,1.07358072 49.334513,2.01165301 53.6546652,3.92548434 C66.6046652,9.6637012 74.8886435,24.7408578 72.9179913,38.9839904 C68.5632522,70.4647133 26.1363174,76.4970506 7.20438261,54.6182554 Z" id="Stroke-1" stroke="#E8B54C"></path>
                    <path d="M20.0307543,35.2807759 C22.007037,40.1694024 24.83995,44.697547 28.3581674,48.5866554 C38.2830152,38.3923904 48.5159283,28.507812 59.0351891,18.9517639" id="Stroke-3" stroke="#1D8E7F"></path>
                </g>
            </g>
        </g>
    </g>
</svg>