<?xml version="1.0" encoding="UTF-8"?>
<svg width="82px" height="74px" viewBox="0 0 82 74" version="1.1" xmlns="http://www.w3.org/2000/svg" xmlns:xlink="http://www.w3.org/1999/xlink">
    <!-- Generator: Sketch 56.2 (81672) - https://sketch.com -->
    <title>Group 5</title>
    <desc>Created with Sketch.</desc>
    <g id="Pages" stroke="none" stroke-width="1" fill="none" fill-rule="evenodd">
        <g id="Section-04-07" transform="translate(-545.000000, -206.000000)">
            <g id="Group-5" transform="translate(549.000000, 209.000000)">
                <path d="M7.11469881,54.2640808 C0.765050418,47.1777251 -0.585574407,36.9638806 0.2026297,27.5501473 C0.474873931,24.3064099 0.973716655,21.0466382 2.18495895,18.0177603 C4.92288822,11.171919 11.1812451,6.05778128 18.1829755,3.47225156 C25.1847059,0.88592014 32.8768281,0.606121731 40.3146383,1.37576778 C45.0626103,1.86721886 49.8073219,2.78518212 54.1860525,4.65798752 C67.3092025,10.2731968 75.7039431,25.0271513 73.706942,38.9649603 C69.2939771,69.7708453 26.2997661,75.6738702 7.11469881,54.2640808 Z" id="Stroke-1" stroke="#E8B54C" stroke-width="6.457"></path>
                <path d="M48.109489,37.9253341 C46.6627578,34.8124363 43.8356814,33.0983361 41.7178028,32.2097557 C40.013623,31.4939776 38.2964898,31.0803987 36.6368373,30.6807423 C36.0717458,30.5447936 35.5090832,30.4096638 34.9496588,30.2622496 C34.0372547,30.020654 33.1191835,29.7340151 32.5872851,29.2729361 C31.8173682,28.607934 31.6465455,27.1231448 32.221352,26.0961588 C32.8649733,24.9438707 34.3198004,24.1732217 35.8482999,24.1732217 L35.8709684,24.1732217 C36.7145576,24.1781355 37.6601548,24.3779638 38.9368728,24.8218445 C40.5309489,25.3771048 42.0707826,26.1018916 43.5150851,26.9773685 L46.4028805,22.1028704 C44.6250283,21.0242894 42.7281669,20.1307952 40.7649194,19.4477758 C39.9982409,19.1807922 38.9676371,18.8589377 37.8083091,18.6648423 L37.1225893,14 L32.7273436,14 L32.7273436,18.9391966 L32.8552583,18.9629467 C30.515553,19.6893714 28.4907769,21.2224797 27.3298297,23.2977448 C25.4175861,26.7193936 26.1065443,31.1450972 28.9344303,33.5921739 C30.3309672,34.7993328 31.9679513,35.3480415 33.5296439,35.7608014 C34.128738,35.9188622 34.73188,36.0646386 35.3342124,36.2095959 C36.8473298,36.5740367 38.2754406,36.9180033 39.5643024,37.4585223 C40.5479502,37.8721012 42.3055627,38.7958972 43.0244756,40.3437469 C43.6057588,41.5934922 43.6227601,42.4607794 42.05621,43.4615584 C38.2122928,45.9192817 30.1261418,45.4270819 28.3410034,43.2289715 L24,46.836526 C26.1761688,49.5178275 30.5212201,50.762659 34.9383246,50.7749436 L34.6808761,50.8011506 L34.6808761,55 L39.0761217,55 L39.5618737,50.3253301 C41.6408921,49.9125702 43.5604219,49.222999 45.0573476,48.2664443 C48.8510704,45.8422987 49.9917779,41.9767693 48.109489,37.9253341" id="Fill-3" fill="#1D8E7F"></path>
            </g>
        </g>
    </g>
</svg>