<?xml version="1.0" encoding="UTF-8"?>
<svg width="198px" height="198px" viewBox="0 0 198 198" version="1.1" xmlns="http://www.w3.org/2000/svg" xmlns:xlink="http://www.w3.org/1999/xlink">
    <!-- Generator: Sketch 57.1 (83088) - https://sketch.com -->
    <title>Shape Copy</title>
    <desc>Created with Sketch.</desc>
    <g id="Page-1" stroke="none" stroke-width="1" fill="none" fill-rule="evenodd">
        <path d="M63.23,56.34 L62.64,56 C62.93,56 63,56 63.23,56.34 Z M115.44,131.48 C115.411803,131.399052 115.411803,131.310948 115.44,131.23 C115.411803,131.310948 115.411803,131.399052 115.44,131.48 L115.44,131.48 Z M119.62,101.57 C118.277931,102.874939 117.028249,104.271642 115.88,105.75 C114.479244,107.552573 113.180543,109.432183 111.99,111.38 C111.1,112.85 110.51,114.5 109.64,115.98 C109.53,116.15 109.31,116.34 109.45,116.55 C109.59,116.76 109.87,116.62 110.07,116.55 C112.59,115.94 115.07,115.31 117.62,114.72 C118.130795,114.630774 118.530774,114.230795 118.62,113.72 C119.24,111.72 119.62,109.64 120.16,107.61 C120.796691,105.379043 121.297609,103.111554 121.66,100.82 C121.7453,100.522663 121.7453,100.207337 121.66,99.91 C120.913724,100.3765 120.228451,100.934125 119.62,101.57 L119.62,101.57 Z M86.07,81.91 C86.25,82.91 86.34,84.16 87.6,84.44 C88.6768391,84.6040268 89.7453529,84.0974721 90.3,83.16 L90.4,83.02 C92.693712,80.0303643 93.9568075,76.3779134 94,72.61 C94,72.14 93.93,71.61 93.84,71.15 C93.7603973,70.7539484 93.6362758,70.3681654 93.47,70 C92.72,68.32 92.21,68.67 91.38,69.61 C88.7879882,72.5320705 86.9753507,76.0610383 86.11,79.87 C85.9615487,80.5406228 85.9479516,81.2340732 86.07,81.91 L86.07,81.91 Z M115.63,131.07 C115.577433,131.117867 115.530466,131.171544 115.49,131.23 C115.530466,131.171544 115.577433,131.117867 115.63,131.07 L115.63,131.07 Z M115.63,131.07 C115.735867,131.299564 115.696683,131.569936 115.53,131.76 L115.53,131.76 C115.696683,131.569936 115.735867,131.299564 115.63,131.07 Z M44.63,95.92 C40.93,98.35 38.21,101.77 35.56,105.21 C33.95,107.3 33.74,109.82 33.98,112.39 C33.98,112.95 34.27,113.18 34.83,113.16 C35.3806917,113.231529 35.9405244,113.166272 36.46,112.97 C38.9840763,111.623485 41.0904852,109.610464 42.55,107.15 C44.47,103.73 44.96,99.89 45.47,96.07 C45.47,95.98 45.4,95.88 45.34,95.73 C45.0894904,95.6580802 44.8197674,95.7312908 44.64,95.92 L44.63,95.92 Z M198,99 C198,153.67619 153.67619,198 99,198 C44.3238098,198 0,153.67619 0,99 C0,44.3238098 44.3238098,0 99,0 C125.256432,0 150.43747,10.4303272 169.003571,28.9964287 C187.569673,47.5625301 198,72.7435675 198,99 Z M129.93,67.74 C129.14,70 128.49,72.3 127.8,74.58 C127.321491,76.5058127 126.602508,78.3637456 125.66,80.11 C124.8,81.55 124.31,83.11 123.31,84.53 C122.988199,84.9472236 122.874082,85.4883594 123,86 L122.94,86 C123.736761,87.8457312 125.539954,89.0543792 127.55,89.09 C127.9,89.09 128.1,88.8 128.62,88.03 C129.307352,87.0163817 129.887152,85.9338634 130.35,84.8 C131,83.22 131.68,81.65 132.35,80.08 L132.68,80.16 C133.03,81.51 133.4,82.85 133.73,84.16 C133.828466,84.8312134 134.251089,85.4109172 134.86,85.71 C136.104405,86.4438782 137.397404,87.0920482 138.73,87.65 C138.83,87.65 138.93,87.72 139.03,87.74 C139.356662,87.834448 139.691461,87.8980598 140.03,87.93 C140.76,87.93 141.22,87.68 141.87,86.86 C142.641726,85.8437287 143.270886,84.7267186 143.74,83.54 C144.231402,82.9230777 144.573634,82.2009679 144.74,81.43 C144.84,81.05 144.69,80.6 145.26,80.51 L145.26,80.51 C144.93,80.2 145.38,80.22 145.44,80.07 C145.612316,79.7937008 145.75957,79.5025404 145.88,79.2 C145.933049,78.8633308 146.003139,78.5295687 146.09,78.2 C146.22,77.85 146.6,77.53 146.39,77.09 C146.39,77.09 146.46,77 146.5,76.97 C146.54,76.94 146.62,76.75 146.66,76.62 C146.692586,76.3718113 146.759912,76.1294382 146.86,75.9 C147.110655,75.4509358 147.299049,74.9698575 147.42,74.47 C147.67,73.53 148.06,72.63 148.35,71.7 C148.645639,70.8146919 148.85986,69.9042491 148.99,68.98 C148.994817,68.9334576 148.994817,68.8865424 148.99,68.84 C149.286856,68.0283349 149.475153,67.1810004 149.55,66.32 L149.55,66.32 C149.637956,65.3620146 149.637956,64.3979854 149.55,63.44 C149.543836,61.8633269 148.952245,60.3451484 147.89,59.18 C147.692993,58.9727341 147.449681,58.8150952 147.18,58.72 C146.54,58.51 145.99,59.23 145.62,59.8 C144.798898,60.9975971 144.092443,62.2698846 143.51,63.6 C142.81,65.33 142.12,67.07 141.44,68.8 L139.61,73.39 C139.48512,74.0301495 139.15092,74.6106007 138.66,75.04 C138.048328,73.5841694 137.709367,72.0283371 137.66,70.45 C137.501046,68.000585 136.819069,65.6136679 135.66,63.45 C135.352626,62.8342051 134.78247,62.3911156 134.109845,62.2453153 C133.43722,62.099515 132.734768,62.2667505 132.2,62.7 C131.263714,63.887762 130.567446,65.2463324 130.15,66.7 C130.127107,67.0554489 130.05301,67.4057297 129.93,67.74 L129.93,67.74 Z M129.51,101 C129.648345,99.925457 129.535381,98.8334678 129.18,97.81 C128.775937,96.8419358 128.19617,95.9570287 127.47,95.2 C126.959321,94.555378 126.200485,94.155991 125.38,94.1 C123.687663,93.8989292 121.972843,94.1760719 120.43,94.9 C119.9395,95.1646819 119.465315,95.4585428 119.01,95.78 C115.812845,97.9361413 113.025873,100.645227 110.78,103.78 C108.849935,106.440466 107.210573,109.30013 105.89,112.31 C105.15,113.98 104.47,115.66 103.89,117.38 C103.739431,117.896768 103.309623,118.283982 102.78,118.38 C102.653418,118.394578 102.529135,118.424809 102.41,118.47 C102.04,118.63 101.99,118.84 102.24,119.18 C102.311926,119.289339 102.392163,119.392979 102.48,119.49 C102.793596,119.820912 102.865624,120.313104 102.66,120.72 C102.07,122.48 100.03,128 99.55,129.79 C99.33,130.61 99.21,131.56 98.33,131.9 C98.33,132.13 98.48,132.18 98.58,132.26 C99.1349724,132.605047 99.7765303,132.785376 100.43,132.78 C101.792445,132.892999 103.05897,132.070581 103.51,130.78 C104.1,129.11 106.51,123.84 106.98,122.14 C106.9954,122.011653 107.066461,121.896571 107.174313,121.825312 C107.282166,121.754052 107.415897,121.733825 107.54,121.77 L108.06,121.87 C109.458457,122.084931 110.881543,122.084931 112.28,121.87 C113.58,121.63 114.86,121.31 116.15,121.03 C116.34,121.03 116.53,120.86 116.77,121.03 C116.77,121.98 116.41,122.9 116.37,123.86 C116.72,123.71 116.78,123.99 116.72,124.23 C116.47,125.23 116.57,126.17 116.33,127.11 C116.282847,127.454937 116.112326,127.771112 115.85,128 C115.58,128.19 115.59,128.44 115.56,128.69 C115.490191,129.227377 115.45013,129.768202 115.44,130.31 C115.44,131.16 115.09,132.01 115.5,132.85 C115.553171,132.948397 115.52785,133.07078 115.44,133.14 C115.19,133.32 115.28,133.57 115.31,133.8 C115.38,134.56 115.43,135.31 115.51,136.07 C115.5192,136.28242 115.573755,136.490411 115.67,136.68 C116.139877,137.40331 116.686368,138.073851 117.3,138.68 C117.933745,139.59136 118.906186,140.210841 120,140.4 C120.67,140.4 120.67,140.49 120.9,139.8 C120.9,139.73 120.9,139.64 121.04,139.64 C121.18,139.64 121.22,140.05 121.47,139.95 C121.7,139.56 121.74,139.1 122,138.72 C122.14,138.52 122.08,138.06 122.46,138.49 C122.46,138.49 122.63,138.49 122.66,138.49 C122.87,138.15 123.23,137.98 123.29,137.49 C123.36,136.79 123.16,136.15 123.19,135.49 C123.223178,133.71164 123.376864,131.937573 123.65,130.18 C123.812992,129.461532 123.929897,128.733381 124,128 C123.999159,127.828338 124.051565,127.660638 124.15,127.52 L124.15,127.52 C124.425788,127.125978 124.492916,126.622516 124.33,126.17 L124.33,126.17 C124.33,126.05 124.42,125.97 124.48,125.87 C124.622166,125.640112 124.678814,125.367494 124.64,125.1 C124.64,124.97 124.58,124.84 124.64,124.72 C124.998408,124.215982 125.135652,123.587548 125.02,122.98 C125.02,122.41 125.38,121.98 125.37,121.41 C125.461283,120.844474 125.605243,120.288722 125.8,119.75 C125.92,119.06 126.08,118.4 126.25,117.75 C126.700819,116.318447 127.071396,114.862851 127.36,113.39 C127.45,112.77 127.89,112.26 127.86,111.65 C127.916995,110.831643 128.106109,110.027911 128.42,109.27 C128.48,109.06 128.6,108.83 128.48,108.65 C128.301367,108.340599 128.301367,107.959401 128.48,107.65 C128.824017,107.135587 128.929693,106.497885 128.77,105.9 C128.77,105.9 128.77,105.76 128.77,105.75 C129.13,105.54 128.98,105.12 129.09,104.81 C129.317262,104.089222 129.422048,103.335436 129.4,102.58 C129.51,102.05 129.44,101.57 129.51,101 Z M116,126 C115.9,126.57 115.81,127.13 115.71,127.7 C115.956574,127.169345 116.056702,126.58239 116,126 L116,126 Z M116.19,125.33 C116.36772,124.942176 116.416775,124.507686 116.33,124.09 C116.202799,124.480082 116.14856,124.890263 116.17,125.3 L116.19,125.33 Z M97.53,144.76 L97.53,144.76 C97.9822229,144.550483 98.4228584,144.316813 98.85,144.06 C99.0913849,143.93211 99.297478,143.746626 99.45,143.52 C106.66,138.37 104.34,133.44 102.23,135.84 C101.382579,136.340563 100.639127,136.999146 100.04,137.78 C97.722043,139.907642 94.3721736,140.478998 91.48,139.24 C90.0406715,138.626883 89.1350514,137.182678 89.21,135.62 L89.21,135.62 L89.21,135.51 C89.21,135.42 89.21,135.32 89.21,135.22 C89.6015166,133.317038 90.2756511,131.483392 91.21,129.78 C91.476057,128.608779 92.052969,127.530956 92.88,126.66 C94.1,124.51 95.15,122.87 95.15,122.87 C97.2238284,119.927122 98.9929335,116.780929 100.43,113.48 C101.83,110.36 103.1,107.19 104.27,103.98 C104.898129,102.342666 105.275709,100.619956 105.39,98.87 C105.46,97.45 105.2,96.15 103.73,95.5 C101.974681,94.6074009 99.9666559,94.3427227 98.04,94.75 C96.8081453,94.9367892 95.8674952,95.9478845 95.77,97.19 C95.200727,100.901457 94.1867671,104.530896 92.75,108 C91.3011635,111.456342 89.6654143,114.831327 87.85,118.11 C85.2759006,122.611834 83.0236084,127.290186 81.11,132.11 C80.41,133.97 79.83,135.61 80.64,137.67 C81.3246285,139.699527 82.5946359,141.481017 84.29,142.79 C87.82,145.31 91.89,145.67 96.06,145.21 C96.5700252,145.135593 97.0657225,144.983849 97.53,144.76 Z M64.32,71.76 C63.593315,74.9151356 62.554879,77.9902459 61.22,80.94 C61.1313277,81.1215071 61.0545003,81.3085651 60.99,81.5 C60.8889157,81.7298205 60.8183172,81.9718724 60.78,82.22 C60.4623676,83.110062 60.3562349,84.0618326 60.47,85 C60.7957012,85.1008774 61.1442988,85.1008774 61.47,85 C62.06,85 62.05,85 62.2,85.55 C62.2,85.67 62.2,85.81 62.41,85.83 C62.77,85.34 62.89,85.32 63.1,85.72 C63.1479305,85.8038996 63.1817159,85.8951203 63.2,85.99 C63.2236119,86.2627197 63.3661747,86.511186 63.5897045,86.6691985 C63.8132344,86.827211 64.095026,86.8787194 64.36,86.81 L64.36,86.81 C64.49,87.27 64.7,87.44 65.29,87.45 C65.88,87.46 66.66,87.29 67.21,87.73 C67.34,87.82 67.52,87.73 67.66,87.6 C67.9556806,87.2226764 68.229464,86.8286953 68.48,86.42 L68.48,86.42 C68.5325703,86.3366443 68.5793472,86.2497728 68.62,86.16 C68.7382741,85.9487732 68.8386258,85.7279995 68.92,85.5 C69.41,84.41 69.85,83.3 70.34,82.21 C71.83,78.97 73.41,75.77 74.04,72.21 C75.44,65.73 83,62 86,64.27 L86,64.27 C86.0811093,64.3300596 86.1463306,64.4090117 86.19,64.5 C86.2281688,64.5634841 86.2488687,64.6359337 86.25,64.71 C86.25,65.1 85.86,65.45 85.59,65.78 C84.060986,67.6423975 82.7210538,69.6522957 81.59,71.78 C80.3229841,74.090872 79.5755925,76.6504323 79.4,79.28 C79.0910484,81.5334013 79.9411816,83.790392 81.66,85.28 C82.9653466,86.4276188 84.4702915,87.3258405 86.1,87.93 C89.2,88.93 92.29,88.93 94.98,86.72 C95.9679175,85.9182052 96.8604372,85.0055535 97.64,84 C97.705944,83.8891266 97.7830083,83.7852574 97.87,83.69 C98.09,83.39 98.31,83.09 98.52,82.77 C98.8643387,82.2382519 99.178178,81.6873637 99.46,81.12 C100.715766,77.9737079 101.54967,74.6750772 101.94,71.31 C101.891738,70.6618612 102.356057,70.0880338 103,70 L103.08,70 C103.72,70 103.47,71 103.44,71.31 C103.450055,71.5320288 103.412551,71.7536431 103.33,71.96 C103.05,73.86 102.33,79.43 103.46,82.32 C103.839989,83.260931 104.452415,84.0901152 105.24,84.73 C106.579652,85.7173107 108.1189,86.399904 109.75,86.73 C112.788421,87.5733652 116.045282,86.7046137 118.26,84.46 C120.75,82.07 122.34,79.06 124.07,76.14 C125.015296,74.3185034 125.850138,72.441779 126.57,70.52 C127.4,68.68 128.19,66.75 127.73,64.52 C127.59,63.85 127.39,63.52 126.73,63.4 C125.73,63.24 124.73,63.05 123.73,62.92 C122.375887,62.6821838 121.02396,63.350052 120.39,64.57 C119.978864,65.3036403 119.707595,66.1072742 119.59,66.94 C118.61521,71.820447 116.732584,76.4744331 114.04,80.66 C113.422878,81.7296094 112.509494,82.5978451 111.41,83.16 C110.23,83.71 109.54,83.5 109.03,82.29 C108.627083,81.3444182 108.465572,80.3134992 108.56,79.29 C108.79224,76.7939541 109.364188,74.3413035 110.26,72 C111.035688,69.8559471 112.116839,67.8351049 113.47,66 C114.096997,65.2089158 114.270945,64.1501032 113.93,63.2 C113.420729,61.972293 112.256618,61.1418939 110.93,61.06 C109.820971,61.0915108 108.725366,61.3113079 107.69,61.71 C106.98,61.89 106.89,62.85 106.52,63.46 C106.26,63.89 106.06,64.36 105.84,64.81 C105.544995,65.6845834 104.759619,66.3011038 103.84,66.38 C103.590187,66.3879215 103.340632,66.3575703 103.1,66.29 C101.86,65.97 99.85,65.36 98.99,64.39 C96.99,62.15 94.68,61.17 91.71,62.12 C91.22,62.27 90.71,62.34 90.19,62.45 L90.13,62.36 C89.3707526,61.2836128 88.4730316,60.3119222 87.46,59.47 C86.713716,58.7969239 85.8143168,58.3163289 84.84,58.07 C81.4586908,57.2004645 77.8663389,57.8466498 75,59.84 C73.62,60.74 72.38,61.4 70.69,60.84 C69.9106629,60.7018773 69.1076788,60.8511044 68.43,61.26 C67.9966102,61.3994354 67.6598778,61.7436507 67.53,62.18 C66.67,65.46 65.2,68.49 64.32,71.73 L64.32,71.76 Z M47.87,114.46 C49.8413654,112.512997 51.4349269,110.21759 52.57,107.69 L52.57,107.69 C52.57,107.69 52.71,107.54 52.64,107.49 C52.76,107.2 52.89,106.9 53,106.6 C53.0169763,106.617726 53.0404558,106.627751 53.065,106.627751 C53.0895442,106.627751 53.1130237,106.617726 53.13,106.6 C53.19,106.44 53.2,106.22 53.36,106.09 C53.4419411,106.009393 53.4760357,105.891956 53.45,105.78 C53.4205916,105.558978 53.5030618,105.337808 53.67,105.19 C53.73,105.13 53.81,105.09 53.75,105.01 C53.54,104.75 53.65,104.64 53.88,104.52 C53.96,104.52 53.97,104.33 53.97,104.21 C53.9966274,103.766792 54.0841146,103.329356 54.23,102.91 C54.2886954,102.739828 54.3125025,102.559575 54.3,102.38 C54.2850347,102.086858 54.2850347,101.793142 54.3,101.5 C54.3,101.29 54.37,101.09 54.4,100.89 C55.06,95.74 55.62,90.58 56.22,85.43 C56.54,82.65 57.37,79.97 57.93,77.24 C58.37,75.1 58.53,72.93 58.93,70.79 C59.21,69.14 58.93,68.86 57.26,68.79 C57.0934863,68.779902 56.9265137,68.779902 56.76,68.79 C55.26,68.92 53.76,69.28 52.28,69.31 L52.28,69.31 C52.1358685,69.1497928 51.9305,69.058306 51.715,69.058306 C51.4995,69.058306 51.2941315,69.1497928 51.15,69.31 C50.7342517,69.6968654 50.578531,70.2886038 50.75,70.83 C50.684756,71.2950698 50.5569316,71.749183 50.37,72.18 C50.27,72.05 50.49,71.72 50.37,71.64 C50.25,71.56 50.25,71.82 50.19,71.82 C50.19,72 49.97,72.1 49.91,72.21 C49.6693227,72.7157269 49.5074493,73.2553047 49.43,73.81 L49.07,74.31 C48.48,75.11 47.83,75.87 47.28,76.7 C47.0999222,76.9684446 46.8993222,77.2225378 46.68,77.46 L46.68,77.46 C46.6,77.46 46.5,77.46 46.53,77.66 C46.0209235,78.1467803 45.4760626,78.5947027 44.9,79 C44.78,79.09 44.68,79.17 44.58,79.23 C44.63,79.23 44.66,79.1 44.58,78.92 C44.17,78.76 43.99,79.08 43.84,79.44 C43.56,79.38 43.3,79.13 42.94,78.69 C42.6857133,78.389622 42.5257004,78.0208966 42.48,77.63 C42.1581796,75.8744541 42.1921852,74.0721566 42.58,72.33 C42.66,72.02 42.76,71.71 42.87,71.41 L42.87,71.41 L42.87,71.35 C42.8741287,71.3134496 42.8741287,71.2765504 42.87,71.24 C45.66,63.14 50.57,60.89 53.46,60.29 L53.73,60.24 C54.3219258,60.1080701 54.9241861,60.0277687 55.53,60 L55.72,60 C56.0329626,59.9784443 56.3470374,59.9784443 56.66,60 L56.73,60 L57.19,60.07 C58.93,60.38 59.19,60.93 60.27,60.76 L60.47,60.71 C60.73,60.65 60.95,60.52 61.22,60.61 C61.2897205,60.6425542 61.3702795,60.6425542 61.44,60.61 C61.63,60.32 61.89,60.43 62.12,60.51 C62.35,60.59 62.62,60.51 62.87,60.62 C63.12,60.73 63.08,60.62 63.08,60.45 C63.08,60.28 63.29,60.14 63.3,59.92 C63.31,59.7 63.69,59.92 63.8,59.73 C63.67,59.43 63.29,59.49 63.17,59.23 C63.32,59 63.54,59.23 63.73,59.12 C63.6601167,58.9775148 63.5530026,58.8565795 63.42,58.77 C62.91,58.4 63.21,58.21 63.32,58.03 C63.43,57.85 63.32,57.76 63.24,57.68 C63.16,57.6 63.06,57.43 63.32,57.4 C63.58,57.37 62.93,56.88 63.42,56.82 L63.57,56.82 C63.69,56.82 63.74,56.75 63.63,56.64 C63.52,56.53 63.63,56.5 63.63,56.44 C63.93,56.22 63.73,56.14 63.53,56.07 C63,55.86 62.53,55.47 62.06,55.27 C62.4121717,55.31146 62.7523223,55.4237097 63.06,55.6 C62.95,55.43 62.82,55.43 62.72,55.38 C62.1168774,55.1698627 61.5397885,54.8913837 61,54.55 C60.72,54.35 60.52,54.02 60.18,53.92 C59.8691181,53.8023938 59.5838899,53.625824 59.34,53.4 C57.9,52.47 49,49.47 40,57.59 C38.579531,58.9149748 37.2435744,60.3277489 36,61.82 L36,61.82 C35.43,62.7 34.85,63.58 34.26,64.44 C33.4199938,65.6194253 32.6743471,66.8632844 32.03,68.16 C30.4614654,71.0283863 29.9887964,74.369055 30.7,77.56 C30.93,78.47 31.11,79.41 31.3,80.34 C31.7059781,82.8220754 33.1135933,85.0284615 35.1933614,86.4427038 C37.2731295,87.8569461 39.8424806,88.3548971 42.3,87.82 L43.21,87.63 C43.6070495,87.7261528 44.0245656,87.6910674 44.4,87.53 C44.4057003,87.4801625 44.4057003,87.4298375 44.4,87.38 L44.97,87.26 C45.13,87.26 45.29,87.15 45.46,87.09 C45.4635715,87.1165471 45.4635715,87.1434529 45.46,87.17 L46.01,86.97 C46.1368969,86.9850319 46.2540905,87.0454044 46.34,87.14 C46.79,87.58 46.34,88.14 46.34,88.72 C46.3254634,88.8624932 46.2774961,88.9995426 46.2,89.12 C44.1211815,89.9774591 42.11471,91.0007595 40.2,92.18 C39.7229889,92.4136143 39.2791098,92.7095337 38.88,93.06 L38.88,93.06 L38.49,93.37 C35.5601442,95.6162925 33.0456144,98.3575699 31.06,101.47 C28.64,105.23 26.86,109.22 26.93,113.84 C26.9961066,114.334054 27.0328379,114.831595 27.04,115.33 C26.9863013,116.324655 27.6727315,117.207208 28.65,117.4 C30.96,118.07 33.24,119.06 35.65,119.17 C35.71,119.25 35.79,119.17 35.86,119.17 L36.03,119.17 C36.3640809,119.17599 36.6981829,119.159285 37.03,119.12 L37.12,119.12 C37.5501034,119.199272 37.9942125,119.109734 38.36,118.87 C38.4114431,118.849919 38.4685569,118.849919 38.52,118.87 C38.9027918,118.972048 39.3100113,118.92561 39.66,118.74 C39.78,118.68 39.89,118.66 39.96,118.81 C40.03,118.96 40.18,118.93 40.32,118.81 C40.6170414,118.593791 40.958739,118.446861 41.32,118.38 C41.3899391,118.366593 41.4553207,118.335622 41.51,118.29 C41.7902106,118.072759 42.1143996,117.919196 42.46,117.84 C42.7571377,117.740336 43.0321903,117.584133 43.27,117.38 C44.9810699,116.719895 46.5444762,115.727472 47.87,114.46 L47.87,114.46 Z M67.05,118.68 C67.8832324,118.826539 68.7249233,118.92006 69.57,118.96 C69.71,118.96 69.93,118.96 69.99,119.03 C70.25,119.37 70.61,119.29 70.99,119.31 C71.85,119.31 72.71,119.38 73.57,119.31 C74.2455696,119.307329 74.917906,119.216564 75.57,119.04 C76.2845075,118.721232 77.0430624,118.512208 77.82,118.42 C77.9197081,118.425887 78.0184522,118.397674 78.1,118.34 C78.3953184,118.14116 78.7439963,118.036556 79.1,118.04 C79.26,118.04 79.47,118.04 79.59,117.93 C80.1752806,117.57614 80.7993996,117.290925 81.45,117.08 C81.6247313,116.992365 81.7249941,116.803871 81.7,116.61 L81.7,116.61 C81.7718498,116.667119 81.8664986,116.686851 81.9551868,116.6632 C82.0438749,116.63955 82.1161312,116.57531 82.15,116.49 C81.94,116.37 81.86,116.61 81.7,116.61 L81.7,116.61 L81.7,116.61 L81.7,116.61 C81.52,116.74 81.27,116.95 81.13,116.68 C80.99,116.41 81.37,116.32 81.54,116.17 C81.5866276,116.172702 81.6333724,116.172702 81.68,116.17 C82.5708192,115.871964 83.4081068,115.433064 84.16,114.87 C84.6669989,114.421314 85.1477917,113.94386 85.6,113.44 C85.9017297,113.052353 86.2628552,112.714853 86.67,112.44 C86.8732015,112.306805 87.0468052,112.133202 87.18,111.93 C87.7726692,111.028641 88.4101353,110.157549 89.09,109.32 C89.19,109.21 89.22,109.14 89.09,109.02 C89.0205448,108.913671 89.0205448,108.776329 89.09,108.67 C89.57365,107.736895 89.9558352,106.754611 90.23,105.74 C90.3734585,105.374489 90.4115673,104.976079 90.34,104.59 C90.2294444,104.211236 90.2294444,103.808764 90.34,103.43 C90.5171366,102.7751 90.5171366,102.0849 90.34,101.43 C90.34,101.24 90.28,101.04 90.25,100.85 C90.0044359,98.9735595 89.1302273,97.2357174 87.77,95.92 C85.9629058,94.1188734 83.7200593,92.8165755 81.26,92.14 C78.7565223,91.4614707 76.1587353,91.1979761 73.57,91.36 C71.664736,91.4652201 69.7865741,91.8597352 68,92.53 C67.5861151,92.688553 67.1413948,92.7501297 66.7,92.71 C65.91,92.64 65.7,92.71 65.43,93.4 C65.2002824,93.9469793 64.7863472,94.3962937 64.26,94.67 C63.3035665,95.2065118 62.4309548,95.8803432 61.67,96.67 C61.1413649,97.1874322 60.7229604,97.8065349 60.44,98.49 C60.2499785,98.9511937 60.2499785,99.4688063 60.44,99.93 C60.64,100.48 60.82,101.05 61.01,101.6 C61.07,101.76 61.01,101.96 61.23,102.04 C61.45,102.12 61.53,101.86 61.74,102.04 C61.45,102.8 61.14,103.57 60.86,104.36 C59.86,107.19 58.73,109.97 57.93,112.87 C57.6,114.06 57.12,115.2 56.74,116.37 C55.5,120.16 52.23,132.24 51.14,136.08 C50.8290309,137.093118 50.6213075,138.135085 50.52,139.19 C50.3909188,139.870065 50.7471887,140.549464 51.38,140.83 C51.9858235,141.198078 52.6295375,141.499819 53.3,141.73 C53.5216305,141.764263 53.7274935,141.86545 53.89,142.02 L55.67,142.02 C56.0115709,141.567101 56.5116082,141.259935 57.07,141.16 C57.14,141.16 57.25,141.16 57.27,141.09 C57.61,140.48 58.41,140.5 58.79,139.96 C58.8432664,139.875189 58.94051,139.828512 59.04,139.84 C59.67,139.84 59.89,139.38 60.12,138.94 C60.19,138.81 60.21,138.64 60.34,138.56 C60.8431427,138.130494 61.2170494,137.569634 61.42,136.94 C61.6212007,136.468213 61.791559,135.983861 61.93,135.49 C62.1974188,134.779963 62.5045708,134.085532 62.85,133.41 C63.1814707,132.617375 63.4555109,131.801938 63.67,130.97 C64,129.61 66.63,120 67.05,118.68 L67.05,118.68 Z M157.63,95.87 C156.664883,96.135791 155.686974,96.3527333 154.7,96.52 C152.84,96.77 152.35,97.94 151.83,99.4 C150.55,103.08 149.89,106.91 148.95,110.67 C147.95,114.83 146.95,119.02 146.03,123.21 C145.219282,126.705328 143.396741,129.88434 140.79,132.35 C139.71,133.42 139.2,133.41 138.54,132.06 C137.66251,130.307416 137.314999,128.337027 137.54,126.39 C138.417144,119.869403 140.113889,113.485608 142.59,107.39 C143.525214,104.727198 144.2213,101.986361 144.67,99.2 C145.08,97.2 144.18,96.01 142.21,95.44 C141.629187,95.2779418 141.032217,95.1806828 140.43,95.15 C138.838598,94.8993726 137.295077,95.8204383 136.76,97.34 C136.262004,98.439157 135.873462,99.5846851 135.6,100.76 C135.187101,103.01235 134.536807,105.214634 133.66,107.33 C132.959542,109.212802 132.361993,111.132302 131.87,113.08 C130.8,116.62 130.31,120.3 129.54,123.91 C128.915522,126.897496 129.266033,130.006534 130.54,132.78 C131.359003,134.882486 133.093662,136.495608 135.25,137.16 C136.400595,137.520525 137.605556,137.676222 138.81,137.62 C139.55,137.62 139.81,138.07 139.46,138.68 C138.816961,140.010621 138.007115,141.253952 137.05,142.38 C134.571677,144.65255 131.974705,146.792215 129.27,148.79 C126.280052,151.10512 122.860814,152.804543 119.21,153.79 C116.15,154.61 113.06,155.26 110,155.99 C107.641032,156.544339 105.238921,156.895623 102.82,157.04 C97.48,157.38 92.24,156.41 87.03,155.39 C83.23,154.65 79.83,152.79 76.35,151.21 C74.98,150.59 73.63,149.93 72.26,149.29 C71.1835769,148.747001 70.0354224,148.359793 68.85,148.14 C67.78,147.93 66.04,149.14 68.79,152.43 C68.9664193,152.654119 69.1969947,152.829631 69.46,152.94 C69.69,153.04 69.91,153.16 70.13,153.28 C70.560284,153.660859 71.0109485,154.018053 71.48,154.35 C72.5503361,155.125739 73.6767624,155.820981 74.85,156.43 L74.43,156.03 C75.0445414,156.204589 75.6380878,156.446031 76.2,156.75 C76.32,156.81 76.32,156.87 76.2,156.93 C76.4052196,157.059508 76.638301,157.138344 76.88,157.16 C76.82,157.05 76.88,156.99 77,157.02 C77.12,157.05 77.26,157.12 77.24,157.27 C77.57,157.16 77.69,157.2 77.72,157.44 C77.9,157.52 78.06,157.62 78.24,157.68 C80.1212964,158.320839 82.0462671,158.825475 84,159.19 C84.21,159.24 84.45,159.37 84.69,159.19 C84.7233297,159.16484 84.7661508,159.155873 84.8067749,159.165545 C84.8473991,159.175218 84.8815845,159.20252 84.9,159.24 C85.04,159.45 85.31,159.39 85.53,159.44 C86.1639236,159.461978 86.7939055,159.549104 87.41,159.7 C87.7843818,159.850036 88.1874446,159.914936 88.59,159.89 C89.2596353,159.895432 89.9280179,159.948903 90.59,160.05 C91.4226436,160.124425 92.2505616,160.244606 93.07,160.41 C94.3516477,160.603924 95.6441721,160.71748 96.94,160.75 C98.601926,160.907089 100.270699,160.980515 101.94,160.97 C103.22,160.97 104.5,160.97 105.79,160.9 C107.24,160.79 108.68,160.61 110.12,160.4 C111.12,160.27 112.02,160.11 112.96,159.9 C114.51,159.55 116.05,159.16 117.59,158.77 C119.366498,158.339763 121.11618,157.805509 122.83,157.17 L124.05,156.67 C124.8,156.44 125.55,156.19 126.28,155.93 C129.823323,154.720585 133.20517,153.081715 136.35,151.05 L136.74,150.97 C137.168803,150.854892 137.517588,150.543212 137.68,150.13 C139.303726,148.971438 140.825887,147.676764 142.23,146.26 C143.392882,145.508957 144.324192,144.449549 144.92,143.2 C145.982279,141.84306 146.957564,140.420213 147.84,138.94 C148.55408,137.858997 149.179457,136.721949 149.71,135.54 L149.71,135.54 C150.66,133.65 150.94,132.74 150.81,132.47 C150.81,132.37 150.81,132.28 150.89,132.18 C151.31,130.63 151.63,129.04 152.18,127.52 C153.95,122.64 154.36,117.43 155.98,112.52 C156.78,110.1 156.73,107.46 157.66,105.07 C158.462751,102.79363 159.147002,100.477191 159.71,98.13 C160.17,96.51 159.25,95.48 157.63,95.87 Z M177.83,56 C177.83,54.74 178.37,53.54 178.28,52.27 C178.068596,51.3692197 177.348299,50.6763253 176.44,50.5 C175.755517,50.5013414 175.077277,50.6302071 174.44,50.88 C173.413627,51.2745674 172.319151,51.461512 171.22,51.43 C170.61,51.43 170.46,51.57 170.29,52.04 C169.78,53.51 169.29,54.98 168.71,56.43 C168.296049,57.626529 167.961981,58.8492169 167.71,60.09 C167.371293,61.1491969 166.78511,62.1124572 166,62.9 C165.651593,63.0624388 165.253887,63.0839364 164.89,62.96 C164.432594,62.8909113 163.967406,62.8909113 163.51,62.96 C161.339392,62.7648749 159.167764,63.322789 157.36,64.54 C155.548285,65.6300823 153.904466,66.9774745 152.48,68.54 C150.711849,70.5517998 149.532029,73.0117763 149.07,75.65 C148.816686,77.9322632 149.1613,80.2411717 150.07,82.35 C150.78545,84.2644459 152.252142,85.8033889 154.13,86.61 C155.632929,87.2207133 157.189718,87.6894238 158.78,88.01 C159.289095,88.1183097 159.810301,88.1586611 160.33,88.13 L160.33,88.13 C164.62,87.8 166.45,86.13 167.2,85.13 C167.324952,84.9741203 167.429155,84.8026898 167.51,84.62 C167.544816,84.5521636 167.574888,84.4819954 167.6,84.41 L167.6,84.41 C167.967513,83.6156042 168.249111,82.7842203 168.44,81.93 C171.76,72.35 176.65,58.93 177.6,56.46 C177.715459,56.3293407 177.794748,56.1707629 177.83,56 Z M156.43,71.4 C155.950834,72.8023062 155.615771,74.2497785 155.43,75.72 C155.43,76.26 155.32,76.81 155.29,77.36 C155.109691,78.0514552 155.062184,78.7708384 155.15,79.48 C155.176521,80.5507139 155.396742,81.6077728 155.8,82.6 C156.500868,84.1583704 158.094737,85.1186763 159.8,85.01 C160.8,84.87 161.68,84.01 161.44,83.11 C161.215447,82.2559476 161.131015,81.3711075 161.19,80.49 L161.19,80.49 C161.507589,75.867355 162.766692,71.3584066 164.89,67.24 L164.89,67.24 C166.44,63.86 159.37,64.26 156.43,71.36 L156.43,71.4 Z M115.43,133.91 C115.36,133.91 115.37,134.05 115.43,134.12 C115.49,134.19 115.43,134.3 115.57,134.23 C115.635034,134.181516 115.659603,134.095523 115.63,134.02 C115.59,133.9 115.54,133.83 115.46,133.87 L115.43,133.91 Z M70.23,110.35 C71.31,110.14 72.37,109.84 73.43,109.55 C75.0079558,109.151562 76.5396935,108.588472 78,107.87 C79.2755108,107.250578 80.3247172,106.246838 81,105 C81.9567536,103.230365 82.3377773,101.206395 82.09,99.21 C82.0613821,97.9090707 81.1280007,96.8048472 79.85,96.56 C78.1639091,96.1776289 76.4225967,96.103098 74.71,96.34 C73.9764827,96.4209801 73.2507604,96.5614425 72.54,96.76 C72.1893555,96.8164477 71.9436802,97.136703 71.98,97.49 C71.98,98.35 71.78,99.19 71.75,100.05 C71.7048903,100.859218 71.6046578,101.664419 71.45,102.46 C71.16,104.09 70.82,105.7 70.45,107.3 C70.2410149,108.293802 69.9772796,109.275298 69.66,110.24 C69.8156983,110.37792 70.0341614,110.42008 70.23,110.35 Z M115.53,131.76 L115.53,131.76 C115.483571,131.672768 115.453093,131.577947 115.44,131.48 C115.453093,131.577947 115.483571,131.672768 115.53,131.76 Z" id="Shape-Copy" fill="#393A44" fill-rule="nonzero"></path>
    </g>
</svg>