<?xml version="1.0" encoding="UTF-8"?>
<svg width="213px" height="40px" viewBox="0 0 213 40" version="1.1" xmlns="http://www.w3.org/2000/svg" xmlns:xlink="http://www.w3.org/1999/xlink">
    <!-- Generator: Sketch 57.1 (83088) - https://sketch.com -->
    <title>land_2010</title>
    <desc>Created with Sketch.</desc>
    <defs>
        <path d="M0.612,9 L0.612,2.7 L2.943,2.7 C3.44700252,2.7 3.86399835,2.78399916 4.194,2.952 C4.52400165,3.12000084 4.76999919,3.35099853 4.932,3.645 C5.09400081,3.93900147 5.175,4.26899817 5.175,4.635 C5.175,4.98300174 5.09700078,5.30249854 4.941,5.5935 C4.78499922,5.88450145 4.54200165,6.11849911 4.212,6.2955 C3.88199835,6.47250088 3.45900258,6.561 2.943,6.561 L1.764,6.561 L1.764,9 L0.612,9 Z M1.764,5.625 L2.871,5.625 C3.27300201,5.625 3.56249912,5.53650089 3.7395,5.3595 C3.91650089,5.18249911 4.005,4.94100153 4.005,4.635 C4.005,4.32299844 3.91650089,4.07850088 3.7395,3.9015 C3.56249912,3.72449911 3.27300201,3.636 2.871,3.636 L1.764,3.636 L1.764,5.625 Z M6.048,9 L6.048,4.536 L7.074,4.536 L7.182,5.373 C7.34400081,5.08499856 7.56449861,4.85550085 7.8435,4.6845 C8.1225014,4.51349914 8.45099811,4.428 8.829,4.428 L8.829,5.643 L8.505,5.643 C8.25299874,5.643 8.02800099,5.68199961 7.83,5.76 C7.63199901,5.83800039 7.47750056,5.97299904 7.3665,6.165 C7.25549945,6.35700096 7.2,6.62399829 7.2,6.966 L7.2,9 L6.048,9 Z M10.233,3.843 C10.022999,3.843 9.85050068,3.78000063 9.7155,3.654 C9.58049933,3.52799937 9.513,3.36900096 9.513,3.177 C9.513,2.98499904 9.58049933,2.82750061 9.7155,2.7045 C9.85050068,2.58149938 10.022999,2.52 10.233,2.52 C10.4430011,2.52 10.6154993,2.58149938 10.7505,2.7045 C10.8855007,2.82750061 10.953,2.98499904 10.953,3.177 C10.953,3.36900096 10.8855007,3.52799937 10.7505,3.654 C10.6154993,3.78000063 10.4430011,3.843 10.233,3.843 Z M9.657,9 L9.657,4.536 L10.809,4.536 L10.809,9 L9.657,9 Z M14.202,9.108 C13.7459977,9.108 13.3440017,9.00900099 12.996,8.811 C12.6479983,8.61299901 12.373501,8.33700177 12.1725,7.983 C11.971499,7.62899823 11.871,7.22400228 11.871,6.768 C11.871,6.31199772 11.971499,5.90700177 12.1725,5.553 C12.373501,5.19899823 12.6479983,4.92300099 12.996,4.725 C13.3440017,4.52699901 13.7459977,4.428 14.202,4.428 C14.7720029,4.428 15.2519981,4.57649851 15.642,4.8735 C16.032002,5.17050148 16.2809995,5.57999739 16.389,6.102 L15.174,6.102 C15.1139997,5.88599892 14.9955009,5.71650062 14.8185,5.5935 C14.6414991,5.47049938 14.4330012,5.409 14.193,5.409 C13.8749984,5.409 13.6050011,5.5289988 13.383,5.769 C13.1609989,6.0090012 13.05,6.34199787 13.05,6.768 C13.05,7.19400213 13.1609989,7.5269988 13.383,7.767 C13.6050011,8.0070012 13.8749984,8.127 14.193,8.127 C14.4330012,8.127 14.6414991,8.0670006 14.8185,7.947 C14.9955009,7.8269994 15.1139997,7.65600111 15.174,7.434 L16.389,7.434 C16.2809995,7.93800252 16.032002,8.34299847 15.642,8.649 C15.2519981,8.95500153 14.7720029,9.108 14.202,9.108 Z M19.584,9.108 C19.1339978,9.108 18.7350017,9.01200096 18.387,8.82 C18.0389983,8.62799904 17.766001,8.35800174 17.568,8.01 C17.369999,7.66199826 17.271,7.26000228 17.271,6.804 C17.271,6.34199769 17.368499,5.9310018 17.5635,5.571 C17.758501,5.2109982 18.0284983,4.930501 18.3735,4.7295 C18.7185017,4.52849899 19.1249977,4.428 19.593,4.428 C20.0310022,4.428 20.4179983,4.52399904 20.754,4.716 C21.0900017,4.90800096 21.3524991,5.17049833 21.5415,5.5035 C21.7305009,5.83650167 21.825,6.20699796 21.825,6.615 C21.825,6.68100033 21.8235,6.74999964 21.8205,6.822 C21.8175,6.89400036 21.813,6.96899961 21.807,7.047 L18.414,7.047 C18.4380001,7.39500174 18.5594989,7.66799901 18.7785,7.866 C18.9975011,8.06400099 19.2629984,8.163 19.575,8.163 C19.8090012,8.163 20.0054992,8.11050052 20.1645,8.0055 C20.3235008,7.90049948 20.4419996,7.76400084 20.52,7.596 L21.69,7.596 C21.6059996,7.87800141 21.466501,8.13449884 21.2715,8.3655 C21.076499,8.59650115 20.8365014,8.77799934 20.5515,8.91 C20.2664986,9.04200066 19.9440018,9.108 19.584,9.108 Z M19.593,5.364 C19.3109986,5.364 19.0620011,5.4434992 18.846,5.6025 C18.6299989,5.76150079 18.4920003,6.00299838 18.432,6.327 L20.655,6.327 C20.6369999,6.03299853 20.529001,5.79900087 20.331,5.625 C20.132999,5.45099913 19.8870015,5.364 19.593,5.364 Z M22.419,9.999 L24.669,2.007 L25.794,2.007 L23.535,9.999 L22.419,9.999 Z M28.161,9.108 C27.764998,9.108 27.4170015,9.04350064 27.117,8.9145 C26.8169985,8.78549936 26.5770009,8.60700114 26.397,8.379 C26.2169991,8.15099886 26.1090002,7.8870015 26.073,7.587 L27.234,7.587 C27.2700002,7.76100087 27.3674992,7.90949939 27.5265,8.0325 C27.6855008,8.15550061 27.8909987,8.217 28.143,8.217 C28.3950013,8.217 28.5794994,8.16600051 28.6965,8.064 C28.8135006,7.96199949 28.872,7.84500066 28.872,7.713 C28.872,7.52099904 28.7880008,7.39050035 28.62,7.3215 C28.4519992,7.25249966 28.2180015,7.18500033 27.918,7.119 C27.725999,7.07699979 27.531001,7.0260003 27.333,6.966 C27.134999,6.9059997 26.9535008,6.82950046 26.7885,6.7365 C26.6234992,6.64349954 26.4900005,6.52350073 26.388,6.3765 C26.2859995,6.22949926 26.235,6.04800108 26.235,5.832 C26.235,5.43599802 26.3924984,5.10300135 26.7075,4.833 C27.0225016,4.56299865 27.4649972,4.428 28.035,4.428 C28.5630026,4.428 28.9844984,4.55099877 29.2995,4.797 C29.6145016,5.04300123 29.8019997,5.38199784 29.862,5.814 L28.773,5.814 C28.7069997,5.48399835 28.4580022,5.319 28.026,5.319 C27.8099989,5.319 27.6435006,5.36099958 27.5265,5.445 C27.4094994,5.52900042 27.351,5.63399937 27.351,5.76 C27.351,5.89200066 27.4379991,5.99699961 27.612,6.075 C27.7860009,6.15300039 28.0169986,6.22499967 28.305,6.291 C28.6170016,6.36300036 28.9034987,6.44249956 29.1645,6.5295 C29.4255013,6.61650043 29.6339992,6.74549915 29.79,6.9165 C29.9460008,7.08750086 30.024,7.33199841 30.024,7.65 C30.03,7.92600138 29.9580008,8.17499889 29.808,8.397 C29.6579993,8.61900111 29.4420014,8.79299937 29.16,8.919 C28.8779986,9.04500063 28.5450019,9.108 28.161,9.108 Z M34.587,10.98 L34.587,8.361 C34.4429993,8.55900099 34.2525012,8.73299925 34.0155,8.883 C33.7784988,9.03300075 33.4710019,9.108 33.093,9.108 C32.6729979,9.108 32.2980017,9.00600102 31.968,8.802 C31.6379984,8.59799898 31.377001,8.31900177 31.185,7.965 C30.992999,7.61099823 30.897,7.20900225 30.897,6.759 C30.897,6.30899775 30.992999,5.90850175 31.185,5.5575 C31.377001,5.20649824 31.6379984,4.930501 31.968,4.7295 C32.2980017,4.52849899 32.6729979,4.428 33.093,4.428 C33.4290017,4.428 33.7229987,4.49099937 33.975,4.617 C34.2270013,4.74300063 34.4309992,4.91999886 34.587,5.148 L34.713,4.536 L35.739,4.536 L35.739,10.98 L34.587,10.98 Z M33.336,8.1 C33.7080019,8.1 34.0124988,7.97550125 34.2495,7.7265 C34.4865012,7.47749876 34.605,7.15800195 34.605,6.768 C34.605,6.37799805 34.4865012,6.05850125 34.2495,5.8095 C34.0124988,5.56049876 33.7080019,5.436 33.336,5.436 C32.9699982,5.436 32.6670012,5.55899877 32.427,5.805 C32.1869988,6.05100123 32.067,6.36899805 32.067,6.759 C32.067,7.14900195 32.1869988,7.46999874 32.427,7.722 C32.6670012,7.97400126 32.9699982,8.1 33.336,8.1 Z M37.116,9 L37.116,5.499 L36.504,5.499 L36.504,4.536 L37.116,4.536 L37.116,4.014 C37.116,3.4739973 37.2524986,3.09000114 37.5255,2.862 C37.7985014,2.63399886 38.1689977,2.52 38.637,2.52 L39.132,2.52 L39.132,3.501 L38.817,3.501 C38.618999,3.501 38.4780004,3.53999961 38.394,3.618 C38.3099996,3.69600039 38.268,3.82799907 38.268,4.014 L38.268,4.536 L39.231,4.536 L39.231,5.499 L38.268,5.499 L38.268,9 L37.116,9 Z M42.129,9 C41.6609977,9 41.2860014,8.88600114 41.004,8.658 C40.7219986,8.42999886 40.581,8.02500291 40.581,7.443 L40.581,5.499 L39.816,5.499 L39.816,4.536 L40.581,4.536 L40.716,3.339 L41.733,3.339 L41.733,4.536 L42.939,4.536 L42.939,5.499 L41.733,5.499 L41.733,7.452 C41.733,7.66800108 41.7794995,7.81649959 41.8725,7.8975 C41.9655005,7.97850041 42.1259989,8.019 42.354,8.019 L42.912,8.019 L42.912,9 L42.129,9 Z" id="path-1"></path>
        <path d="M2.816,23.957 L2.816,23.11 C2.09732974,23.0293329 1.52900209,22.7726688 1.111,22.34 C0.69299791,21.9073312 0.484,21.3573367 0.484,20.69 L1.452,20.69 C1.452,21.0786686 1.56749885,21.4251651 1.7985,21.7295 C2.02950116,22.0338349 2.36866443,22.2299996 2.816,22.318 L2.816,19.337 C2.76466641,19.3223333 2.71150027,19.3058334 2.6565,19.2875 C2.60149973,19.2691666 2.54833359,19.2526667 2.497,19.238 C1.90299703,19.0326656 1.46300143,18.7778349 1.177,18.4735 C0.89099857,18.1691651 0.748,17.7713358 0.748,17.28 C0.74066663,16.7079971 0.922164815,16.2313352 1.2925,15.85 C1.66283518,15.4686648 2.17066344,15.248667 2.816,15.19 L2.816,14.299 L3.575,14.299 L3.575,15.19 C4.19100308,15.2633337 4.6823315,15.4943314 5.049,15.883 C5.4156685,16.2716686 5.60266663,16.7446639 5.61,17.302 L4.642,17.302 C4.642,17.0306653 4.55400088,16.7685013 4.378,16.5155 C4.20199912,16.2624987 3.93433513,16.0920004 3.575,16.004 L3.575,18.666 C3.63366696,18.6806667 3.69233304,18.6989999 3.751,18.721 C3.80966696,18.7430001 3.87199967,18.7613333 3.938,18.776 C4.3046685,18.9080007 4.6346652,19.0619991 4.928,19.238 C5.2213348,19.4140009 5.45049918,19.6413319 5.6155,19.92 C5.78050082,20.1986681 5.863,20.5543312 5.863,20.987 C5.863,21.3316684 5.77866751,21.6579985 5.61,21.966 C5.44133249,22.2740015 5.1865017,22.5343323 4.8455,22.747 C4.50449829,22.9596677 4.08100253,23.0843331 3.575,23.121 L3.575,23.957 L2.816,23.957 Z M1.705,17.192 C1.705,17.529335 1.80399901,17.7841658 2.002,17.9565 C2.20000099,18.1288342 2.47133161,18.2773327 2.816,18.402 L2.816,15.982 C2.48599835,16.0333336 2.21833436,16.163499 2.013,16.3725 C1.80766564,16.581501 1.705,16.854665 1.705,17.192 Z M4.906,21.042 C4.906,20.6166645 4.78133458,20.3013344 4.532,20.096 C4.28266542,19.8906656 3.96366861,19.7220007 3.575,19.59 L3.575,22.34 C4.00033546,22.2886664 4.32849885,22.1420012 4.5595,21.9 C4.79050115,21.6579988 4.906,21.3720017 4.906,21.042 Z M7.931,23 L7.931,16.334 L6.688,16.609 L6.688,15.971 L8.239,15.3 L8.866,15.3 L8.866,23 L7.931,23 Z M13.497,23.132 C12.8149966,23.132 12.2265025,22.9651683 11.7315,22.6315 C11.2364975,22.2978317 10.8570013,21.8321697 10.593,21.2345 C10.3289987,20.6368303 10.197,19.942004 10.197,19.15 C10.197,18.357996 10.3289987,17.6631697 10.593,17.0655 C10.8570013,16.4678303 11.2364975,16.0021683 11.7315,15.6685 C12.2265025,15.3348317 12.8149966,15.168 13.497,15.168 C14.1790034,15.168 14.7656642,15.3348317 15.257,15.6685 C15.7483358,16.0021683 16.1259987,16.4678303 16.39,17.0655 C16.6540013,17.6631697 16.786,18.357996 16.786,19.15 C16.786,19.942004 16.6540013,20.6368303 16.39,21.2345 C16.1259987,21.8321697 15.7483358,22.2978317 15.257,22.6315 C14.7656642,22.9651683 14.1790034,23.132 13.497,23.132 Z M13.497,22.318 C13.9443356,22.318 14.3458316,22.1915013 14.7015,21.9385 C15.0571684,21.6854987 15.3358323,21.3225024 15.5375,20.8495 C15.7391677,20.3764976 15.84,19.8100033 15.84,19.15 C15.84,18.4899967 15.7391677,17.9253357 15.5375,17.456 C15.3358323,16.9866643 15.0571684,16.6255013 14.7015,16.3725 C14.3458316,16.1194987 13.9443356,15.993 13.497,15.993 C13.0423311,15.993 12.6390018,16.1194987 12.287,16.3725 C11.9349982,16.6255013 11.6563344,16.9866643 11.451,17.456 C11.2456656,17.9253357 11.143,18.4899967 11.143,19.15 C11.143,19.8100033 11.2456656,20.3764976 11.451,20.8495 C11.6563344,21.3225024 11.9349982,21.6854987 12.287,21.9385 C12.6390018,22.1915013 13.0423311,22.318 13.497,22.318 Z M21.12,23.132 C20.4379966,23.132 19.8495025,22.9651683 19.3545,22.6315 C18.8594975,22.2978317 18.4800013,21.8321697 18.216,21.2345 C17.9519987,20.6368303 17.82,19.942004 17.82,19.15 C17.82,18.357996 17.9519987,17.6631697 18.216,17.0655 C18.4800013,16.4678303 18.8594975,16.0021683 19.3545,15.6685 C19.8495025,15.3348317 20.4379966,15.168 21.12,15.168 C21.8020034,15.168 22.3886642,15.3348317 22.88,15.6685 C23.3713358,16.0021683 23.7489987,16.4678303 24.013,17.0655 C24.2770013,17.6631697 24.409,18.357996 24.409,19.15 C24.409,19.942004 24.2770013,20.6368303 24.013,21.2345 C23.7489987,21.8321697 23.3713358,22.2978317 22.88,22.6315 C22.3886642,22.9651683 21.8020034,23.132 21.12,23.132 Z M21.12,22.318 C21.5673356,22.318 21.9688316,22.1915013 22.3245,21.9385 C22.6801684,21.6854987 22.9588323,21.3225024 23.1605,20.8495 C23.3621677,20.3764976 23.463,19.8100033 23.463,19.15 C23.463,18.4899967 23.3621677,17.9253357 23.1605,17.456 C22.9588323,16.9866643 22.6801684,16.6255013 22.3245,16.3725 C21.9688316,16.1194987 21.5673356,15.993 21.12,15.993 C20.6653311,15.993 20.2620018,16.1194987 19.91,16.3725 C19.5579982,16.6255013 19.2793344,16.9866643 19.074,17.456 C18.8686656,17.9253357 18.766,18.4899967 18.766,19.15 C18.766,19.8100033 18.8686656,20.3764976 19.074,20.8495 C19.2793344,21.3225024 19.5579982,21.6854987 19.91,21.9385 C20.2620018,22.1915013 20.6653311,22.318 21.12,22.318 Z M25.564,23.055 C25.3806657,23.055 25.2285006,22.9945006 25.1075,22.8735 C24.9864994,22.7524994 24.926,22.6040009 24.926,22.428 C24.926,22.2519991 24.9864994,22.1035006 25.1075,21.9825 C25.2285006,21.8614994 25.3806657,21.801 25.564,21.801 C25.7400009,21.801 25.8884994,21.8614994 26.0095,21.9825 C26.1305006,22.1035006 26.191,22.2519991 26.191,22.428 C26.191,22.6040009 26.1305006,22.7524994 26.0095,22.8735 C25.8884994,22.9945006 25.7400009,23.055 25.564,23.055 Z M29.986,23.132 C29.4799975,23.132 29.0253353,23.0385009 28.622,22.8515 C28.2186646,22.6644991 27.9015012,22.4041683 27.6705,22.0705 C27.4394988,21.7368317 27.324,21.3500022 27.324,20.91 C27.324,20.4406643 27.4614986,20.0190019 27.7365,19.645 C28.0115014,19.2709981 28.3763311,19.0216673 28.831,18.897 C28.4129979,18.757666 28.0903345,18.5340015 27.863,18.226 C27.6356655,17.9179985 27.522,17.5806685 27.522,17.214 C27.522,16.8399981 27.620999,16.4971682 27.819,16.1855 C28.017001,15.8738318 28.2993315,15.6263343 28.666,15.443 C29.0326685,15.2596657 29.4726641,15.168 29.986,15.168 C30.4993359,15.168 30.9393315,15.2596657 31.306,15.443 C31.6726685,15.6263343 31.954999,15.8738318 32.153,16.1855 C32.351001,16.4971682 32.45,16.8399981 32.45,17.214 C32.45,17.5733351 32.3363345,17.9088318 32.109,18.2205 C31.8816655,18.5321682 31.5590021,18.757666 31.141,18.897 C31.5956689,19.0216673 31.9604986,19.2709981 32.2355,19.645 C32.5105014,20.0190019 32.648,20.4406643 32.648,20.91 C32.648,21.3500022 32.5325012,21.7368317 32.3015,22.0705 C32.0704988,22.4041683 31.7533353,22.6644991 31.35,22.8515 C30.9466646,23.0385009 30.4920025,23.132 29.986,23.132 Z M29.986,18.567 C30.4553357,18.567 30.8274986,18.4478345 31.1025,18.2095 C31.3775014,17.9711655 31.515,17.6576686 31.515,17.269 C31.515,16.8363312 31.3793347,16.5100011 31.108,16.29 C30.8366653,16.0699989 30.462669,15.96 29.986,15.96 C29.5093309,15.96 29.137168,16.0699989 28.8695,16.29 C28.601832,16.5100011 28.468,16.8363312 28.468,17.269 C28.468,17.6576686 28.6036653,17.9711655 28.875,18.2095 C29.1463347,18.4478345 29.5166643,18.567 29.986,18.567 Z M29.986,22.318 C30.5653362,22.318 30.9998319,22.184168 31.2895,21.9165 C31.5791681,21.648832 31.724,21.2950022 31.724,20.855 C31.724,20.3563308 31.5663349,19.978668 31.251,19.722 C30.9356651,19.4653321 30.5140026,19.337 29.986,19.337 C29.4579974,19.337 29.0363349,19.4653321 28.721,19.722 C28.4056651,19.978668 28.248,20.3563308 28.248,20.855 C28.248,21.2950022 28.3928319,21.648832 28.6825,21.9165 C28.9721681,22.184168 29.4066638,22.318 29.986,22.318 Z M34.694,23 L34.694,16.334 L33.451,16.609 L33.451,15.971 L35.002,15.3 L35.629,15.3 L35.629,23 L34.694,23 Z" id="path-2"></path>
        <path d="M2.816,39.957 L2.816,39.11 C2.09732974,39.0293329 1.52900209,38.7726688 1.111,38.34 C0.69299791,37.9073312 0.484,37.3573367 0.484,36.69 L1.452,36.69 C1.452,37.0786686 1.56749885,37.4251651 1.7985,37.7295 C2.02950116,38.0338349 2.36866443,38.2299996 2.816,38.318 L2.816,35.337 C2.76466641,35.3223333 2.71150027,35.3058334 2.6565,35.2875 C2.60149973,35.2691666 2.54833359,35.2526667 2.497,35.238 C1.90299703,35.0326656 1.46300143,34.7778349 1.177,34.4735 C0.89099857,34.1691651 0.748,33.7713358 0.748,33.28 C0.74066663,32.7079971 0.922164815,32.2313352 1.2925,31.85 C1.66283518,31.4686648 2.17066344,31.248667 2.816,31.19 L2.816,30.299 L3.575,30.299 L3.575,31.19 C4.19100308,31.2633337 4.6823315,31.4943314 5.049,31.883 C5.4156685,32.2716686 5.60266663,32.7446639 5.61,33.302 L4.642,33.302 C4.642,33.0306653 4.55400088,32.7685013 4.378,32.5155 C4.20199912,32.2624987 3.93433513,32.0920004 3.575,32.004 L3.575,34.666 C3.63366696,34.6806667 3.69233304,34.6989999 3.751,34.721 C3.80966696,34.7430001 3.87199967,34.7613333 3.938,34.776 C4.3046685,34.9080007 4.6346652,35.0619991 4.928,35.238 C5.2213348,35.4140009 5.45049918,35.6413319 5.6155,35.92 C5.78050082,36.1986681 5.863,36.5543312 5.863,36.987 C5.863,37.3316684 5.77866751,37.6579985 5.61,37.966 C5.44133249,38.2740015 5.1865017,38.5343323 4.8455,38.747 C4.50449829,38.9596677 4.08100253,39.0843331 3.575,39.121 L3.575,39.957 L2.816,39.957 Z M1.705,33.192 C1.705,33.529335 1.80399901,33.7841658 2.002,33.9565 C2.20000099,34.1288342 2.47133161,34.2773327 2.816,34.402 L2.816,31.982 C2.48599835,32.0333336 2.21833436,32.163499 2.013,32.3725 C1.80766564,32.581501 1.705,32.854665 1.705,33.192 Z M4.906,37.042 C4.906,36.6166645 4.78133458,36.3013344 4.532,36.096 C4.28266542,35.8906656 3.96366861,35.7220007 3.575,35.59 L3.575,38.34 C4.00033546,38.2886664 4.32849885,38.1420012 4.5595,37.9 C4.79050115,37.6579988 4.906,37.3720017 4.906,37.042 Z M7.931,39 L7.931,32.334 L6.688,32.609 L6.688,31.971 L8.239,31.3 L8.866,31.3 L8.866,39 L7.931,39 Z M10.373,39 L10.373,38.351 C10.8936693,37.9403313 11.386831,37.5241688 11.8525,37.1025 C12.318169,36.6808312 12.7324982,36.2646687 13.0955,35.854 C13.4585018,35.4433313 13.744499,35.040002 13.9535,34.644 C14.162501,34.247998 14.267,33.8666685 14.267,33.5 C14.267,33.2286653 14.2211671,32.9756678 14.1295,32.741 C14.0378329,32.5063322 13.8893344,32.3175007 13.684,32.1745 C13.4786656,32.0314993 13.2000018,31.96 12.848,31.96 C12.510665,31.96 12.2283345,32.0351659 12.001,32.1855 C11.7736655,32.3358341 11.6031672,32.5356654 11.4895,32.785 C11.3758328,33.0343346 11.319,33.3019986 11.319,33.588 L10.428,33.588 C10.428,33.0819975 10.5343323,32.6475018 10.747,32.2845 C10.9596677,31.9214982 11.2493315,31.6446676 11.616,31.454 C11.9826685,31.2633324 12.3969977,31.168 12.859,31.168 C13.5410034,31.168 14.1001645,31.3604981 14.5365,31.7455 C14.9728355,32.1305019 15.191,32.7043295 15.191,33.467 C15.191,33.9216689 15.0773345,34.3708311 14.85,34.8145 C14.6226655,35.2581689 14.3330018,35.6871646 13.981,36.1015 C13.6289982,36.5158354 13.2531687,36.9026649 12.8535,37.262 C12.4538313,37.6213351 12.0816684,37.9439986 11.737,38.23 L15.455,38.23 L15.455,39 L10.373,39 Z M19.184,39.132 C18.6926642,39.132 18.249002,39.0421676 17.853,38.8625 C17.456998,38.6828324 17.1398345,38.4133351 16.9015,38.054 C16.6631655,37.6946649 16.5366667,37.247336 16.522,36.712 L17.457,36.712 C17.4643334,37.1520022 17.6183318,37.5314984 17.919,37.8505 C18.2196682,38.1695016 18.6413306,38.329 19.184,38.329 C19.7266694,38.329 20.1354986,38.1786682 20.4105,37.878 C20.6855014,37.5773318 20.823,37.2143355 20.823,36.789 C20.823,36.4296649 20.7368342,36.1363345 20.5645,35.909 C20.3921658,35.6816655 20.1611681,35.5130006 19.8715,35.403 C19.5818319,35.2929994 19.2646684,35.238 18.92,35.238 L18.348,35.238 L18.348,34.457 L18.92,34.457 C19.4186692,34.457 19.8091653,34.3433345 20.0915,34.116 C20.3738347,33.8886655 20.515,33.5696687 20.515,33.159 C20.515,32.8143316 20.4031678,32.5301678 20.1795,32.3065 C19.9558322,32.0828322 19.6240022,31.971 19.184,31.971 C18.7586645,31.971 18.417668,32.0974987 18.161,32.3505 C17.9043321,32.6035013 17.7613335,32.9206648 17.732,33.302 L16.797,33.302 C16.8190001,32.8839979 16.9308323,32.5136683 17.1325,32.191 C17.3341677,31.8683317 17.6109982,31.6171676 17.963,31.4375 C18.3150018,31.2578324 18.7219977,31.168 19.184,31.168 C19.6826692,31.168 20.0988317,31.2559991 20.4325,31.432 C20.7661683,31.6080009 21.0191658,31.8426652 21.1915,32.136 C21.3638342,32.4293348 21.45,32.7519982 21.45,33.104 C21.45,33.4926686 21.3436677,33.8464984 21.131,34.1655 C20.9183323,34.4845016 20.5993355,34.6989995 20.174,34.809 C20.6286689,34.9043338 21.0063318,35.120665 21.307,35.458 C21.6076682,35.795335 21.758,36.2389972 21.758,36.789 C21.758,37.2143355 21.6608343,37.6048316 21.4665,37.9605 C21.2721657,38.3161684 20.9843352,38.6003323 20.603,38.813 C20.2216648,39.0256677 19.7486695,39.132 19.184,39.132 Z M23.518,39.055 C23.3346657,39.055 23.1825006,38.9945006 23.0615,38.8735 C22.9404994,38.7524994 22.88,38.6040009 22.88,38.428 C22.88,38.2519991 22.9404994,38.1035006 23.0615,37.9825 C23.1825006,37.8614994 23.3346657,37.801 23.518,37.801 C23.6940009,37.801 23.8424994,37.8614994 23.9635,37.9825 C24.0845006,38.1035006 24.145,38.2519991 24.145,38.428 C24.145,38.6040009 24.0845006,38.7524994 23.9635,38.8735 C23.8424994,38.9945006 23.6940009,39.055 23.518,39.055 Z M28.886,39 L28.886,37.35 L24.981,37.35 L24.981,36.635 L28.721,31.3 L29.799,31.3 L29.799,36.536 L30.943,36.536 L30.943,37.35 L29.799,37.35 L29.799,39 L28.886,39 Z M26.004,36.536 L28.93,36.536 L28.93,32.323 L26.004,36.536 Z M34.584,31.168 C35.1413361,31.168 35.6106648,31.272499 35.992,31.4815 C36.3733352,31.690501 36.6794988,31.9709982 36.9105,32.323 C37.1415012,32.6750018 37.3101661,33.0691645 37.4165,33.5055 C37.5228339,33.9418355 37.576,34.3873311 37.576,34.842 C37.576,35.6926709 37.4586678,36.4388301 37.224,37.0805 C36.9893322,37.7221699 36.6501689,38.2244982 36.2065,38.5875 C35.7628311,38.9505018 35.2256698,39.132 34.595,39.132 C34.1109976,39.132 33.6966684,39.0366676 33.352,38.846 C33.0073316,38.6553324 32.7341677,38.4005016 32.5325,38.0815 C32.3308323,37.7624984 32.2043336,37.4086686 32.153,37.02 L33.011,37.02 C33.0916671,37.4380021 33.2713319,37.7606655 33.55,37.988 C33.8286681,38.2153345 34.1806645,38.329 34.606,38.329 C35.1853362,38.329 35.6711647,38.0558361 36.0635,37.5095 C36.4558353,36.9631639 36.6666665,36.1106725 36.696,34.952 C36.5199991,35.2966684 36.2395019,35.5954987 35.8545,35.8485 C35.4694981,36.1015013 35.0056694,36.228 34.463,36.228 C34.0229978,36.228 33.6105019,36.1253344 33.2255,35.92 C32.8404981,35.7146656 32.5270012,35.4268352 32.285,35.0565 C32.0429988,34.6861648 31.922,34.2516692 31.922,33.753 C31.922,33.3203312 32.0283323,32.906002 32.241,32.51 C32.4536677,32.113998 32.7598313,31.7913346 33.1595,31.542 C33.5591687,31.2926654 34.0339972,31.168 34.584,31.168 Z M34.65,31.982 C34.3053316,31.982 33.9973347,32.0553326 33.726,32.202 C33.4546653,32.3486674 33.2420008,32.5521654 33.088,32.8125 C32.9339992,33.0728346 32.857,33.371665 32.857,33.709 C32.857,34.2296693 33.0274983,34.6458318 33.3685,34.9575 C33.7095017,35.2691682 34.1366641,35.425 34.65,35.425 C34.9946684,35.425 35.3026653,35.3461675 35.574,35.1885 C35.8453347,35.0308325 36.0598325,34.8200013 36.2175,34.556 C36.3751675,34.2919987 36.454,34.0060015 36.454,33.698 C36.454,33.3679984 36.3751675,33.0728346 36.2175,32.8125 C36.0598325,32.5521654 35.8453347,32.3486674 35.574,32.202 C35.3026653,32.0553326 34.9946684,31.982 34.65,31.982 Z" id="path-3"></path>
        <path d="M0.781,9 L0.781,2.7 L3.31,2.7 C3.96400327,2.7 4.46349828,2.85149849 4.8085,3.1545 C5.15350173,3.45750151 5.326,3.84599763 5.326,4.32 C5.326,4.71600198 5.21950107,5.03249881 5.0065,5.2695 C4.79349894,5.50650118 4.53400153,5.66699958 4.228,5.751 C4.5880018,5.82300036 4.88499883,6.00149857 5.119,6.2865 C5.35300117,6.57150142 5.47,6.90299811 5.47,7.281 C5.47,7.77900249 5.2900018,8.18999838 4.93,8.514 C4.5699982,8.83800162 4.0600033,9 3.4,9 L0.781,9 Z M1.933,5.346 L3.139,5.346 C3.46300162,5.346 3.71199913,5.27100075 3.886,5.121 C4.06000087,4.97099925 4.147,4.75800138 4.147,4.482 C4.147,4.21799868 4.06150086,4.00950077 3.8905,3.8565 C3.71949914,3.70349923 3.46300171,3.627 3.121,3.627 L1.933,3.627 L1.933,5.346 Z M1.933,8.064 L3.22,8.064 C3.56200171,8.064 3.82749906,7.98450079 4.0165,7.8255 C4.20550094,7.66649921 4.3,7.44300144 4.3,7.155 C4.3,6.86099853 4.20100099,6.63000084 4.003,6.462 C3.80499901,6.29399916 3.53800168,6.21 3.202,6.21 L1.933,6.21 L1.933,8.064 Z M6.433,9 L6.433,2.52 L7.585,2.52 L7.585,9 L6.433,9 Z M10.906,9.108 C10.4739978,9.108 10.0855017,9.00900099 9.7405,8.811 C9.39549828,8.61299901 9.12250101,8.33850175 8.9215,7.9875 C8.720499,7.63649825 8.62,7.23000231 8.62,6.768 C8.62,6.30599769 8.72199898,5.89950175 8.926,5.5485 C9.13000102,5.19749825 9.40449828,4.92300099 9.7495,4.725 C10.0945017,4.52699901 10.4829978,4.428 10.915,4.428 C11.3410021,4.428 11.7264983,4.52699901 12.0715,4.725 C12.4165017,4.92300099 12.689499,5.19749825 12.8905,5.5485 C13.091501,5.89950175 13.192,6.30599769 13.192,6.768 C13.192,7.23000231 13.091501,7.63649825 12.8905,7.9875 C12.689499,8.33850175 12.4150017,8.61299901 12.067,8.811 C11.7189983,9.00900099 11.3320021,9.108 10.906,9.108 Z M10.906,8.109 C11.2060015,8.109 11.4669989,7.99650112 11.689,7.7715 C11.9110011,7.54649887 12.022,7.21200222 12.022,6.768 C12.022,6.32399778 11.9110011,5.98950113 11.689,5.7645 C11.4669989,5.53949887 11.2090015,5.427 10.915,5.427 C10.6089985,5.427 10.3465011,5.53949887 10.1275,5.7645 C9.90849891,5.98950113 9.799,6.32399778 9.799,6.768 C9.799,7.21200222 9.90849891,7.54649887 10.1275,7.7715 C10.3465011,7.99650112 10.6059985,8.109 10.906,8.109 Z M16.405,9.108 C15.9489977,9.108 15.5470017,9.00900099 15.199,8.811 C14.8509983,8.61299901 14.576501,8.33700177 14.3755,7.983 C14.174499,7.62899823 14.074,7.22400228 14.074,6.768 C14.074,6.31199772 14.174499,5.90700177 14.3755,5.553 C14.576501,5.19899823 14.8509983,4.92300099 15.199,4.725 C15.5470017,4.52699901 15.9489977,4.428 16.405,4.428 C16.9750029,4.428 17.4549981,4.57649851 17.845,4.8735 C18.235002,5.17050148 18.4839995,5.57999739 18.592,6.102 L17.377,6.102 C17.3169997,5.88599892 17.1985009,5.71650062 17.0215,5.5935 C16.8444991,5.47049938 16.6360012,5.409 16.396,5.409 C16.0779984,5.409 15.8080011,5.5289988 15.586,5.769 C15.3639989,6.0090012 15.253,6.34199787 15.253,6.768 C15.253,7.19400213 15.3639989,7.5269988 15.586,7.767 C15.8080011,8.0070012 16.0779984,8.127 16.396,8.127 C16.6360012,8.127 16.8444991,8.0670006 17.0215,7.947 C17.1985009,7.8269994 17.3169997,7.65600111 17.377,7.434 L18.592,7.434 C18.4839995,7.93800252 18.235002,8.34299847 17.845,8.649 C17.4549981,8.95500153 16.9750029,9.108 16.405,9.108 Z M19.618,9 L19.618,2.52 L20.77,2.52 L20.77,6.345 L22.354,4.536 L23.722,4.536 L21.895,6.57 L24.019,9 L22.579,9 L20.77,6.759 L20.77,9 L19.618,9 Z M26.359,9.108 C25.962998,9.108 25.6150015,9.04350064 25.315,8.9145 C25.0149985,8.78549936 24.7750009,8.60700114 24.595,8.379 C24.4149991,8.15099886 24.3070002,7.8870015 24.271,7.587 L25.432,7.587 C25.4680002,7.76100087 25.5654992,7.90949939 25.7245,8.0325 C25.8835008,8.15550061 26.0889987,8.217 26.341,8.217 C26.5930013,8.217 26.7774994,8.16600051 26.8945,8.064 C27.0115006,7.96199949 27.07,7.84500066 27.07,7.713 C27.07,7.52099904 26.9860008,7.39050035 26.818,7.3215 C26.6499992,7.25249966 26.4160015,7.18500033 26.116,7.119 C25.923999,7.07699979 25.729001,7.0260003 25.531,6.966 C25.332999,6.9059997 25.1515008,6.82950046 24.9865,6.7365 C24.8214992,6.64349954 24.6880005,6.52350073 24.586,6.3765 C24.4839995,6.22949926 24.433,6.04800108 24.433,5.832 C24.433,5.43599802 24.5904984,5.10300135 24.9055,4.833 C25.2205016,4.56299865 25.6629972,4.428 26.233,4.428 C26.7610026,4.428 27.1824984,4.55099877 27.4975,4.797 C27.8125016,5.04300123 27.9999997,5.38199784 28.06,5.814 L26.971,5.814 C26.9049997,5.48399835 26.6560022,5.319 26.224,5.319 C26.0079989,5.319 25.8415006,5.36099958 25.7245,5.445 C25.6074994,5.52900042 25.549,5.63399937 25.549,5.76 C25.549,5.89200066 25.6359991,5.99699961 25.81,6.075 C25.9840009,6.15300039 26.2149986,6.22499967 26.503,6.291 C26.8150016,6.36300036 27.1014987,6.44249956 27.3625,6.5295 C27.6235013,6.61650043 27.8319992,6.74549915 27.988,6.9165 C28.1440008,7.08750086 28.222,7.33199841 28.222,7.65 C28.228,7.92600138 28.1560008,8.17499889 28.006,8.397 C27.8559993,8.61900111 27.6400014,8.79299937 27.358,8.919 C27.0759986,9.04500063 26.7430019,9.108 26.359,9.108 Z M32.254,9 L30.949,4.536 L32.092,4.536 L32.866,7.749 L33.766,4.536 L35.044,4.536 L35.944,7.749 L36.727,4.536 L37.87,4.536 L36.556,9 L35.359,9 L34.405,5.661 L33.451,9 L32.254,9 Z M39.22,3.843 C39.009999,3.843 38.8375007,3.78000063 38.7025,3.654 C38.5674993,3.52799937 38.5,3.36900096 38.5,3.177 C38.5,2.98499904 38.5674993,2.82750061 38.7025,2.7045 C38.8375007,2.58149938 39.009999,2.52 39.22,2.52 C39.4300011,2.52 39.6024993,2.58149938 39.7375,2.7045 C39.8725007,2.82750061 39.94,2.98499904 39.94,3.177 C39.94,3.36900096 39.8725007,3.52799937 39.7375,3.654 C39.6024993,3.78000063 39.4300011,3.843 39.22,3.843 Z M38.644,9 L38.644,4.536 L39.796,4.536 L39.796,9 L38.644,9 Z M42.991,9 C42.5229977,9 42.1480014,8.88600114 41.866,8.658 C41.5839986,8.42999886 41.443,8.02500291 41.443,7.443 L41.443,5.499 L40.678,5.499 L40.678,4.536 L41.443,4.536 L41.578,3.339 L42.595,3.339 L42.595,4.536 L43.801,4.536 L43.801,5.499 L42.595,5.499 L42.595,7.452 C42.595,7.66800108 42.6414995,7.81649959 42.7345,7.8975 C42.8275005,7.97850041 42.9879989,8.019 43.216,8.019 L43.774,8.019 L43.774,9 L42.991,9 Z M44.791,9 L44.791,2.52 L45.943,2.52 L45.943,5.22 C46.0930008,4.97399877 46.2954987,4.7805007 46.5505,4.6395 C46.8055013,4.49849929 47.0979984,4.428 47.428,4.428 C47.9800028,4.428 48.4074985,4.60199826 48.7105,4.95 C49.0135015,5.29800174 49.165,5.80799664 49.165,6.48 L49.165,9 L48.022,9 L48.022,6.588 C48.022,6.20399808 47.9455008,5.91000102 47.7925,5.706 C47.6394992,5.50199898 47.3980017,5.4 47.068,5.4 C46.7439984,5.4 46.4755011,5.51399886 46.2625,5.742 C46.0494989,5.97000114 45.943,6.28799796 45.943,6.696 L45.943,9 L44.791,9 Z M52.405,10.98 L52.405,4.536 L53.431,4.536 L53.557,5.175 C53.7010007,4.97699901 53.8914988,4.80300075 54.1285,4.653 C54.3655012,4.50299925 54.6729981,4.428 55.051,4.428 C55.4710021,4.428 55.8459984,4.52999898 56.176,4.734 C56.5060017,4.93800102 56.766999,5.21699823 56.959,5.571 C57.151001,5.92500177 57.247,6.32699775 57.247,6.777 C57.247,7.22700225 57.151001,7.62749824 56.959,7.9785 C56.766999,8.32950175 56.5060017,8.60549899 56.176,8.8065 C55.8459984,9.007501 55.4710021,9.108 55.051,9.108 C54.7149983,9.108 54.4210013,9.04500063 54.169,8.919 C53.9169987,8.79299937 53.7130008,8.61600114 53.557,8.388 L53.557,10.98 L52.405,10.98 Z M54.808,8.1 C55.1740018,8.1 55.4769988,7.97700123 55.717,7.731 C55.9570012,7.48499877 56.077,7.16700195 56.077,6.777 C56.077,6.38699805 55.9570012,6.06600126 55.717,5.814 C55.4769988,5.56199874 55.1740018,5.436 54.808,5.436 C54.4359981,5.436 54.1315012,5.56049876 53.8945,5.8095 C53.6574988,6.05850125 53.539,6.37799805 53.539,6.768 C53.539,7.15800195 53.6574988,7.47749876 53.8945,7.7265 C54.1315012,7.97550125 54.4359981,8.1 54.808,8.1 Z M59.812,9.108 C59.4279981,9.108 59.1130012,9.04650061 58.867,8.9235 C58.6209988,8.80049939 58.4380006,8.63700102 58.318,8.433 C58.1979994,8.22899898 58.138,8.00400123 58.138,7.758 C58.138,7.34399793 58.2999984,7.00800129 58.624,6.75 C58.9480016,6.49199871 59.4339968,6.363 60.082,6.363 L61.216,6.363 L61.216,6.255 C61.216,5.94899847 61.1290009,5.72400072 60.955,5.58 C60.7809991,5.43599928 60.5650013,5.364 60.307,5.364 C60.0729988,5.364 59.8690009,5.41949944 59.695,5.5305 C59.5209991,5.64150056 59.4130002,5.80499892 59.371,6.021 L58.246,6.021 C58.2760002,5.69699838 58.3854991,5.4150012 58.5745,5.175 C58.7635009,4.9349988 59.0079985,4.75050064 59.308,4.6215 C59.6080015,4.49249935 59.9439981,4.428 60.316,4.428 C60.9520032,4.428 61.4529982,4.58699841 61.819,4.905 C62.1850018,5.22300159 62.368,5.67299709 62.368,6.255 L62.368,9 L61.387,9 L61.279,8.28 C61.1469993,8.5200012 60.9625012,8.71799922 60.7255,8.874 C60.4884988,9.03000078 60.1840019,9.108 59.812,9.108 Z M60.073,8.208 C60.4030017,8.208 60.6594991,8.10000108 60.8425,7.884 C61.0255009,7.66799892 61.1409998,7.40100159 61.189,7.083 L60.208,7.083 C59.9019985,7.083 59.6830007,7.13849944 59.551,7.2495 C59.4189993,7.36050055 59.353,7.49699919 59.353,7.659 C59.353,7.83300087 59.4189993,7.96799952 59.551,8.064 C59.6830007,8.16000048 59.8569989,8.208 60.073,8.208 Z M63.466,9 L63.466,4.536 L64.492,4.536 L64.6,5.373 C64.7620008,5.08499856 64.9824986,4.85550085 65.2615,4.6845 C65.5405014,4.51349914 65.8689981,4.428 66.247,4.428 L66.247,5.643 L65.923,5.643 C65.6709987,5.643 65.446001,5.68199961 65.248,5.76 C65.049999,5.83800039 64.8955006,5.97299904 64.7845,6.165 C64.6734994,6.35700096 64.618,6.62399829 64.618,6.966 L64.618,9 L63.466,9 Z M67.03,9 L67.03,2.52 L68.182,2.52 L68.182,6.345 L69.766,4.536 L71.134,4.536 L69.307,6.57 L71.431,9 L69.991,9 L68.182,6.759 L68.182,9 L67.03,9 Z M72.142,9 L72.142,2.52 L73.294,2.52 L73.294,9 L72.142,9 Z M76.642,9.108 C76.1919977,9.108 75.7930017,9.01200096 75.445,8.82 C75.0969983,8.62799904 74.824001,8.35800174 74.626,8.01 C74.427999,7.66199826 74.329,7.26000228 74.329,6.804 C74.329,6.34199769 74.426499,5.9310018 74.6215,5.571 C74.816501,5.2109982 75.0864983,4.930501 75.4315,4.7295 C75.7765017,4.52849899 76.1829977,4.428 76.651,4.428 C77.0890022,4.428 77.4759983,4.52399904 77.812,4.716 C78.1480017,4.90800096 78.4104991,5.17049833 78.5995,5.5035 C78.7885009,5.83650167 78.883,6.20699796 78.883,6.615 C78.883,6.68100033 78.8815,6.74999964 78.8785,6.822 C78.8755,6.89400036 78.871,6.96899961 78.865,7.047 L75.472,7.047 C75.4960001,7.39500174 75.6174989,7.66799901 75.8365,7.866 C76.0555011,8.06400099 76.3209984,8.163 76.633,8.163 C76.8670012,8.163 77.0634992,8.11050052 77.2225,8.0055 C77.3815008,7.90049948 77.4999996,7.76400084 77.578,7.596 L78.748,7.596 C78.6639996,7.87800141 78.524501,8.13449884 78.3295,8.3655 C78.134499,8.59650115 77.8945014,8.77799934 77.6095,8.91 C77.3244986,9.04200066 77.0020018,9.108 76.642,9.108 Z M76.651,5.364 C76.3689986,5.364 76.1200011,5.4434992 75.904,5.6025 C75.6879989,5.76150079 75.5500003,6.00299838 75.49,6.327 L77.713,6.327 C77.6949999,6.03299853 77.587001,5.79900087 77.389,5.625 C77.190999,5.45099913 76.9450015,5.364 76.651,5.364 Z M81.763,9 C81.2949977,9 80.9200014,8.88600114 80.638,8.658 C80.3559986,8.42999886 80.215,8.02500291 80.215,7.443 L80.215,5.499 L79.45,5.499 L79.45,4.536 L80.215,4.536 L80.35,3.339 L81.367,3.339 L81.367,4.536 L82.573,4.536 L82.573,5.499 L81.367,5.499 L81.367,7.452 C81.367,7.66800108 81.4134995,7.81649959 81.5065,7.8975 C81.5995005,7.97850041 81.7599989,8.019 81.988,8.019 L82.546,8.019 L82.546,9 L81.763,9 Z M85.408,9.108 C85.011998,9.108 84.6640015,9.04350064 84.364,8.9145 C84.0639985,8.78549936 83.8240009,8.60700114 83.644,8.379 C83.4639991,8.15099886 83.3560002,7.8870015 83.32,7.587 L84.481,7.587 C84.5170002,7.76100087 84.6144992,7.90949939 84.7735,8.0325 C84.9325008,8.15550061 85.1379987,8.217 85.39,8.217 C85.6420013,8.217 85.8264994,8.16600051 85.9435,8.064 C86.0605006,7.96199949 86.119,7.84500066 86.119,7.713 C86.119,7.52099904 86.0350008,7.39050035 85.867,7.3215 C85.6989992,7.25249966 85.4650015,7.18500033 85.165,7.119 C84.972999,7.07699979 84.778001,7.0260003 84.58,6.966 C84.381999,6.9059997 84.2005008,6.82950046 84.0355,6.7365 C83.8704992,6.64349954 83.7370005,6.52350073 83.635,6.3765 C83.5329995,6.22949926 83.482,6.04800108 83.482,5.832 C83.482,5.43599802 83.6394984,5.10300135 83.9545,4.833 C84.2695016,4.56299865 84.7119972,4.428 85.282,4.428 C85.8100026,4.428 86.2314984,4.55099877 86.5465,4.797 C86.8615016,5.04300123 87.0489997,5.38199784 87.109,5.814 L86.02,5.814 C85.9539997,5.48399835 85.7050022,5.319 85.273,5.319 C85.0569989,5.319 84.8905006,5.36099958 84.7735,5.445 C84.6564994,5.52900042 84.598,5.63399937 84.598,5.76 C84.598,5.89200066 84.6849991,5.99699961 84.859,6.075 C85.0330009,6.15300039 85.2639986,6.22499967 85.552,6.291 C85.8640016,6.36300036 86.1504987,6.44249956 86.4115,6.5295 C86.6725013,6.61650043 86.8809992,6.74549915 87.037,6.9165 C87.1930008,7.08750086 87.271,7.33199841 87.271,7.65 C87.277,7.92600138 87.2050008,8.17499889 87.055,8.397 C86.9049993,8.61900111 86.6890014,8.79299937 86.407,8.919 C86.1249986,9.04500063 85.7920019,9.108 85.408,9.108 Z" id="path-4"></path>
        <path d="M52.396,25.108 C51.7599968,25.108 51.2140023,24.9715014 50.758,24.6985 C50.3019977,24.4254986 49.9510012,24.0445024 49.705,23.5555 C49.4589988,23.0664976 49.336,22.5010032 49.336,21.859 C49.336,21.2169968 49.4589988,20.6500025 49.705,20.158 C49.9510012,19.6659975 50.3019977,19.2820014 50.758,19.006 C51.2140023,18.7299986 51.7599968,18.592 52.396,18.592 C53.1520038,18.592 53.7714976,18.7794981 54.2545,19.1545 C54.7375024,19.5295019 55.0389994,20.0559966 55.159,20.734 L53.89,20.734 C53.8119996,20.3919983 53.6455013,20.123501 53.3905,19.9285 C53.1354987,19.733499 52.7980021,19.636 52.378,19.636 C51.7959971,19.636 51.3400016,19.833998 51.01,20.23 C50.6799983,20.626002 50.515,21.1689965 50.515,21.859 C50.515,22.5490035 50.6799983,23.090498 51.01,23.4835 C51.3400016,23.876502 51.7959971,24.073 52.378,24.073 C52.7980021,24.073 53.1354987,23.9815009 53.3905,23.7985 C53.6455013,23.6154991 53.8119996,23.3620016 53.89,23.038 L55.159,23.038 C55.0389994,23.6860032 54.7375024,24.1929982 54.2545,24.559 C53.7714976,24.9250018 53.1520038,25.108 52.396,25.108 Z M56.77,19.843 C56.5599989,19.843 56.3875007,19.7800006 56.2525,19.654 C56.1174993,19.5279994 56.05,19.369001 56.05,19.177 C56.05,18.984999 56.1174993,18.8275006 56.2525,18.7045 C56.3875007,18.5814994 56.5599989,18.52 56.77,18.52 C56.980001,18.52 57.1524993,18.5814994 57.2875,18.7045 C57.4225007,18.8275006 57.49,18.984999 57.49,19.177 C57.49,19.369001 57.4225007,19.5279994 57.2875,19.654 C57.1524993,19.7800006 56.980001,19.843 56.77,19.843 Z M56.194,25 L56.194,20.536 L57.346,20.536 L57.346,25 L56.194,25 Z M60.541,25 C60.0729977,25 59.6980014,24.8860011 59.416,24.658 C59.1339986,24.4299989 58.993,24.0250029 58.993,23.443 L58.993,21.499 L58.228,21.499 L58.228,20.536 L58.993,20.536 L59.128,19.339 L60.145,19.339 L60.145,20.536 L61.351,20.536 L61.351,21.499 L60.145,21.499 L60.145,23.452 C60.145,23.6680011 60.1914995,23.8164996 60.2845,23.8975 C60.3775005,23.9785004 60.5379989,24.019 60.766,24.019 L61.324,24.019 L61.324,25 L60.541,25 Z M62.899,26.98 L63.934,24.703 L63.664,24.703 L61.927,20.536 L63.178,20.536 L64.429,23.677 L65.734,20.536 L66.958,20.536 L64.123,26.98 L62.899,26.98 Z M68.587,25 L67.282,20.536 L68.425,20.536 L69.199,23.749 L70.099,20.536 L71.377,20.536 L72.277,23.749 L73.06,20.536 L74.203,20.536 L72.889,25 L71.692,25 L70.738,21.661 L69.784,25 L68.587,25 Z M75.553,19.843 C75.3429989,19.843 75.1705007,19.7800006 75.0355,19.654 C74.9004993,19.5279994 74.833,19.369001 74.833,19.177 C74.833,18.984999 74.9004993,18.8275006 75.0355,18.7045 C75.1705007,18.5814994 75.3429989,18.52 75.553,18.52 C75.763001,18.52 75.9354993,18.5814994 76.0705,18.7045 C76.2055007,18.8275006 76.273,18.984999 76.273,19.177 C76.273,19.369001 76.2055007,19.5279994 76.0705,19.654 C75.9354993,19.7800006 75.763001,19.843 75.553,19.843 Z M74.977,25 L74.977,20.536 L76.129,20.536 L76.129,25 L74.977,25 Z M79.387,25.108 C78.9669979,25.108 78.5920016,25.006001 78.262,24.802 C77.9319983,24.597999 77.671001,24.3190018 77.479,23.965 C77.286999,23.6109982 77.191,23.2090022 77.191,22.759 C77.191,22.3089977 77.286999,21.9085018 77.479,21.5575 C77.671001,21.2064982 77.9319983,20.930501 78.262,20.7295 C78.5920016,20.528499 78.9669979,20.428 79.387,20.428 C79.7230017,20.428 80.0169987,20.4909994 80.269,20.617 C80.5210013,20.7430006 80.7249992,20.9199989 80.881,21.148 L80.881,18.52 L82.033,18.52 L82.033,25 L81.007,25 L80.881,24.361 C80.7369993,24.559001 80.5465012,24.7329992 80.3095,24.883 C80.0724988,25.0330007 79.7650019,25.108 79.387,25.108 Z M79.63,24.1 C80.0020019,24.1 80.3064988,23.9755012 80.5435,23.7265 C80.7805012,23.4774988 80.899,23.1580019 80.899,22.768 C80.899,22.3779981 80.7805012,22.0585012 80.5435,21.8095 C80.3064988,21.5604988 80.0020019,21.436 79.63,21.436 C79.2639982,21.436 78.9610012,21.5589988 78.721,21.805 C78.4809988,22.0510012 78.361,22.3689981 78.361,22.759 C78.361,23.1490019 78.4809988,23.4699987 78.721,23.722 C78.9610012,23.9740013 79.2639982,24.1 79.63,24.1 Z M85.372,25.108 C84.9219978,25.108 84.5230017,25.012001 84.175,24.82 C83.8269983,24.627999 83.554001,24.3580017 83.356,24.01 C83.157999,23.6619983 83.059,23.2600023 83.059,22.804 C83.059,22.3419977 83.156499,21.9310018 83.3515,21.571 C83.546501,21.2109982 83.8164983,20.930501 84.1615,20.7295 C84.5065017,20.528499 84.9129977,20.428 85.381,20.428 C85.8190022,20.428 86.2059983,20.523999 86.542,20.716 C86.8780017,20.908001 87.1404991,21.1704983 87.3295,21.5035 C87.5185009,21.8365017 87.613,22.206998 87.613,22.615 C87.613,22.6810003 87.6115,22.7499996 87.6085,22.822 C87.6055,22.8940004 87.601,22.9689996 87.595,23.047 L84.202,23.047 C84.2260001,23.3950017 84.3474989,23.667999 84.5665,23.866 C84.7855011,24.064001 85.0509984,24.163 85.363,24.163 C85.5970012,24.163 85.7934992,24.1105005 85.9525,24.0055 C86.1115008,23.9004995 86.2299996,23.7640008 86.308,23.596 L87.478,23.596 C87.3939996,23.8780014 87.254501,24.1344988 87.0595,24.3655 C86.864499,24.5965012 86.6245014,24.7779993 86.3395,24.91 C86.0544986,25.0420007 85.7320018,25.108 85.372,25.108 Z M85.381,21.364 C85.0989986,21.364 84.8500011,21.4434992 84.634,21.6025 C84.4179989,21.7615008 84.2800003,22.0029984 84.22,22.327 L86.443,22.327 C86.4249999,22.0329985 86.317001,21.7990009 86.119,21.625 C85.920999,21.4509991 85.6750015,21.364 85.381,21.364 Z" id="path-5"></path>
        <path d="M1.908,5.796 C1.61999856,5.796 1.35900117,5.73150064 1.125,5.6025 C0.89099883,5.47349935 0.70500069,5.2890012 0.567,5.049 C0.42899931,4.8089988 0.36,4.52400165 0.36,4.194 C0.36,3.86399835 0.42899931,3.5790012 0.567,3.339 C0.70500069,3.0989988 0.89099883,2.91450064 1.125,2.7855 C1.35900117,2.65649935 1.62299853,2.592 1.917,2.592 C2.20500144,2.592 2.46449885,2.65649935 2.6955,2.7855 C2.92650116,2.91450064 3.11099931,3.0989988 3.249,3.339 C3.38700069,3.5790012 3.456,3.86399835 3.456,4.194 C3.456,4.52400165 3.38700069,4.8089988 3.249,5.049 C3.11099931,5.2890012 2.92500117,5.47349935 2.691,5.6025 C2.45699883,5.73150064 2.19600144,5.796 1.908,5.796 Z M1.566,9 L5.121,2.7 L6.246,2.7 L2.691,9 L1.566,9 Z M1.908,4.995 C2.08200087,4.995 2.23199937,4.92750067 2.358,4.7925 C2.48400063,4.65749932 2.547,4.45800132 2.547,4.194 C2.547,3.92999868 2.48550062,3.72900069 2.3625,3.591 C2.23949939,3.45299931 2.0880009,3.384 1.908,3.384 C1.7279991,3.384 1.57650061,3.45299931 1.4535,3.591 C1.33049938,3.72900069 1.269,3.92999868 1.269,4.194 C1.269,4.45800132 1.33049938,4.65749932 1.4535,4.7925 C1.57650061,4.92750067 1.7279991,4.995 1.908,4.995 Z M5.94,9.108 C5.65199856,9.108 5.39100117,9.04350064 5.157,8.9145 C4.92299883,8.78549936 4.73700069,8.6010012 4.599,8.361 C4.46099931,8.1209988 4.392,7.83600165 4.392,7.506 C4.392,7.17599835 4.46099931,6.89250118 4.599,6.6555 C4.73700069,6.41849882 4.92299883,6.23550065 5.157,6.1065 C5.39100117,5.97749935 5.65499853,5.913 5.949,5.913 C6.23700144,5.913 6.49649885,5.97749935 6.7275,6.1065 C6.95850116,6.23550065 7.14299931,6.41849882 7.281,6.6555 C7.41900069,6.89250118 7.488,7.17599835 7.488,7.506 C7.488,7.83600165 7.41900069,8.1209988 7.281,8.361 C7.14299931,8.6010012 6.95850116,8.78549936 6.7275,8.9145 C6.49649885,9.04350064 6.23400147,9.108 5.94,9.108 Z M5.94,8.307 C6.1200009,8.307 6.27149939,8.23950068 6.3945,8.1045 C6.51750062,7.96949933 6.579,7.77000132 6.579,7.506 C6.579,7.24199868 6.51750062,7.04100069 6.3945,6.903 C6.27149939,6.76499931 6.1200009,6.696 5.94,6.696 C5.7599991,6.696 5.60850062,6.76499931 5.4855,6.903 C5.36249939,7.04100069 5.301,7.24199868 5.301,7.506 C5.301,7.77000132 5.36249939,7.96949933 5.4855,8.1045 C5.60850062,8.23950068 5.7599991,8.307 5.94,8.307 Z M13.455,9.108 C12.8189968,9.108 12.2730023,8.97150136 11.817,8.6985 C11.3609977,8.42549864 11.0100012,8.04450244 10.764,7.5555 C10.5179988,7.06649755 10.395,6.50100321 10.395,5.859 C10.395,5.21699679 10.5179988,4.65000246 10.764,4.158 C11.0100012,3.66599754 11.3609977,3.28200138 11.817,3.006 C12.2730023,2.72999862 12.8189968,2.592 13.455,2.592 C14.2110038,2.592 14.8304976,2.77949812 15.3135,3.1545 C15.7965024,3.52950187 16.0979994,4.05599661 16.218,4.734 L14.949,4.734 C14.8709996,4.39199829 14.7045013,4.12350097 14.4495,3.9285 C14.1944987,3.73349902 13.8570021,3.636 13.437,3.636 C12.8549971,3.636 12.3990017,3.83399802 12.069,4.23 C11.7389984,4.62600198 11.574,5.16899655 11.574,5.859 C11.574,6.54900345 11.7389984,7.09049803 12.069,7.4835 C12.3990017,7.87650197 12.8549971,8.073 13.437,8.073 C13.8570021,8.073 14.1944987,7.98150091 14.4495,7.7985 C14.7045013,7.61549908 14.8709996,7.36200162 14.949,7.038 L16.218,7.038 C16.0979994,7.68600324 15.7965024,8.19299817 15.3135,8.559 C14.8304976,8.92500183 14.2110038,9.108 13.455,9.108 Z M17.208,9 L17.208,2.52 L18.36,2.52 L18.36,5.22 C18.5100008,4.97399877 18.7124987,4.7805007 18.9675,4.6395 C19.2225013,4.49849929 19.5149984,4.428 19.845,4.428 C20.3970028,4.428 20.8244985,4.60199826 21.1275,4.95 C21.4305015,5.29800174 21.582,5.80799664 21.582,6.48 L21.582,9 L20.439,9 L20.439,6.588 C20.439,6.20399808 20.3625008,5.91000102 20.2095,5.706 C20.0564992,5.50199898 19.8150017,5.4 19.485,5.4 C19.1609984,5.4 18.8925011,5.51399886 18.6795,5.742 C18.4664989,5.97000114 18.36,6.28799796 18.36,6.696 L18.36,9 L17.208,9 Z M24.219,9.108 C23.8349981,9.108 23.5200012,9.04650061 23.274,8.9235 C23.0279988,8.80049939 22.8450006,8.63700102 22.725,8.433 C22.6049994,8.22899898 22.545,8.00400123 22.545,7.758 C22.545,7.34399793 22.7069984,7.00800129 23.031,6.75 C23.3550016,6.49199871 23.8409968,6.363 24.489,6.363 L25.623,6.363 L25.623,6.255 C25.623,5.94899847 25.5360009,5.72400072 25.362,5.58 C25.1879991,5.43599928 24.9720013,5.364 24.714,5.364 C24.4799988,5.364 24.2760009,5.41949944 24.102,5.5305 C23.9279991,5.64150056 23.8200002,5.80499892 23.778,6.021 L22.653,6.021 C22.6830002,5.69699838 22.7924991,5.4150012 22.9815,5.175 C23.1705009,4.9349988 23.4149985,4.75050064 23.715,4.6215 C24.0150015,4.49249935 24.3509981,4.428 24.723,4.428 C25.3590032,4.428 25.8599982,4.58699841 26.226,4.905 C26.5920018,5.22300159 26.775,5.67299709 26.775,6.255 L26.775,9 L25.794,9 L25.686,8.28 C25.5539993,8.5200012 25.3695012,8.71799922 25.1325,8.874 C24.8954988,9.03000078 24.5910019,9.108 24.219,9.108 Z M24.48,8.208 C24.8100017,8.208 25.0664991,8.10000108 25.2495,7.884 C25.4325009,7.66799892 25.5479998,7.40100159 25.596,7.083 L24.615,7.083 C24.3089985,7.083 24.0900007,7.13849944 23.958,7.2495 C23.8259993,7.36050055 23.76,7.49699919 23.76,7.659 C23.76,7.83300087 23.8259993,7.96799952 23.958,8.064 C24.0900007,8.16000048 24.2639989,8.208 24.48,8.208 Z M27.873,9 L27.873,4.536 L28.89,4.536 L28.98,5.292 C29.1180007,5.02799868 29.3174987,4.81800078 29.5785,4.662 C29.8395013,4.50599922 30.1469982,4.428 30.501,4.428 C31.0530028,4.428 31.4819985,4.60199826 31.788,4.95 C32.0940015,5.29800174 32.247,5.80799664 32.247,6.48 L32.247,9 L31.095,9 L31.095,6.588 C31.095,6.20399808 31.0170008,5.91000102 30.861,5.706 C30.7049992,5.50199898 30.4620017,5.4 30.132,5.4 C29.8079984,5.4 29.542501,5.51399886 29.3355,5.742 C29.128499,5.97000114 29.025,6.28799796 29.025,6.696 L29.025,9 L27.873,9 Z M35.235,7.668 C35.0189989,7.668 34.8180009,7.64400024 34.632,7.596 L34.299,7.929 C34.4010005,7.98300027 34.5389991,8.02799982 34.713,8.064 C34.8870009,8.10000018 35.1689981,8.13599982 35.559,8.172 C36.153003,8.22600027 36.5849987,8.36699886 36.855,8.595 C37.1250014,8.82300114 37.26,9.13799799 37.26,9.54 C37.26,9.80400132 37.1880007,10.0544988 37.044,10.2915 C36.8999993,10.5285012 36.6780015,10.7204993 36.378,10.8675 C36.0779985,11.0145007 35.6940023,11.088 35.226,11.088 C34.5899968,11.088 34.077002,10.9695012 33.687,10.7325 C33.296998,10.4954988 33.102,10.1400024 33.102,9.666 C33.102,9.26399799 33.296998,8.91600147 33.687,8.622 C33.5669994,8.56799973 33.4635004,8.5110003 33.3765,8.451 C33.2894996,8.3909997 33.2130003,8.32800033 33.147,8.262 L33.147,8.055 L33.93,7.227 C33.5819983,6.92099847 33.408,6.5280024 33.408,6.048 C33.408,5.7479985 33.4814993,5.47500123 33.6285,5.229 C33.7755007,4.98299877 33.9839987,4.78800072 34.254,4.644 C34.5240014,4.49999928 34.8509981,4.428 35.235,4.428 C35.4870013,4.428 35.7209989,4.46399964 35.937,4.536 L37.629,4.536 L37.629,5.238 L36.864,5.292 C36.9840006,5.52000114 37.044,5.77199862 37.044,6.048 C37.044,6.3480015 36.9720007,6.62099877 36.828,6.867 C36.6839993,7.11300123 36.4755014,7.30799928 36.2025,7.452 C35.9294986,7.59600072 35.6070019,7.668 35.235,7.668 Z M35.235,6.786 C35.4690012,6.786 35.6624992,6.72300063 35.8155,6.597 C35.9685008,6.47099937 36.045,6.29100117 36.045,6.057 C36.045,5.82299883 35.9685008,5.64300063 35.8155,5.517 C35.6624992,5.39099937 35.4690012,5.328 35.235,5.328 C34.9889988,5.328 34.7910008,5.39099937 34.641,5.517 C34.4909993,5.64300063 34.416,5.82299883 34.416,6.057 C34.416,6.29100117 34.4909993,6.47099937 34.641,6.597 C34.7910008,6.72300063 34.9889988,6.786 35.235,6.786 Z M34.155,9.549 C34.155,9.77100111 34.258499,9.93749945 34.4655,10.0485 C34.672501,10.1595006 34.9259985,10.215 35.226,10.215 C35.5140014,10.215 35.7479991,10.1565006 35.928,10.0395 C36.1080009,9.92249942 36.198,9.76500099 36.198,9.567 C36.198,9.40499919 36.1395006,9.27000054 36.0225,9.162 C35.9054994,9.05399946 35.6730017,8.98800012 35.325,8.964 C35.0789988,8.94599991 34.851001,8.91900018 34.641,8.883 C34.4669991,8.97900048 34.3425004,9.08399943 34.2675,9.198 C34.1924996,9.31200057 34.155,9.4289994 34.155,9.549 Z M40.455,9.108 C40.0049978,9.108 39.6060017,9.01200096 39.258,8.82 C38.9099983,8.62799904 38.637001,8.35800174 38.439,8.01 C38.240999,7.66199826 38.142,7.26000228 38.142,6.804 C38.142,6.34199769 38.239499,5.9310018 38.4345,5.571 C38.629501,5.2109982 38.8994983,4.930501 39.2445,4.7295 C39.5895017,4.52849899 39.9959977,4.428 40.464,4.428 C40.9020022,4.428 41.2889983,4.52399904 41.625,4.716 C41.9610017,4.90800096 42.2234991,5.17049833 42.4125,5.5035 C42.6015009,5.83650167 42.696,6.20699796 42.696,6.615 C42.696,6.68100033 42.6945,6.74999964 42.6915,6.822 C42.6885,6.89400036 42.684,6.96899961 42.678,7.047 L39.285,7.047 C39.3090001,7.39500174 39.4304989,7.66799901 39.6495,7.866 C39.8685011,8.06400099 40.1339984,8.163 40.446,8.163 C40.6800012,8.163 40.8764992,8.11050052 41.0355,8.0055 C41.1945008,7.90049948 41.3129996,7.76400084 41.391,7.596 L42.561,7.596 C42.4769996,7.87800141 42.337501,8.13449884 42.1425,8.3655 C41.947499,8.59650115 41.7075014,8.77799934 41.4225,8.91 C41.1374986,9.04200066 40.8150018,9.108 40.455,9.108 Z M40.464,5.364 C40.1819986,5.364 39.9330011,5.4434992 39.717,5.6025 C39.5009989,5.76150079 39.3630003,6.00299838 39.303,6.327 L41.526,6.327 C41.5079999,6.03299853 41.400001,5.79900087 41.202,5.625 C41.003999,5.45099913 40.7580015,5.364 40.464,5.364 Z" id="path-6"></path>
        <path d="M0.693,20.195 L0.693,19.414 L2.794,19.414 L2.794,17.412 L3.619,17.412 L3.619,19.414 L5.72,19.414 L5.72,20.195 L3.619,20.195 L3.619,22.208 L2.794,22.208 L2.794,20.195 L0.693,20.195 Z M9.999,23.132 C9.44166388,23.132 8.97233524,23.027501 8.591,22.8185 C8.20966476,22.609499 7.90350115,22.3290018 7.6725,21.977 C7.44149884,21.6249982 7.27283386,21.2308355 7.1665,20.7945 C7.06016613,20.3581645 7.007,19.9126689 7.007,19.458 C7.007,18.6073291 7.12433216,17.8611699 7.359,17.2195 C7.59366784,16.5778301 7.93283111,16.0755018 8.3765,15.7125 C8.82016888,15.3494982 9.35733018,15.168 9.988,15.168 C10.4720024,15.168 10.8863316,15.2633324 11.231,15.454 C11.5756684,15.6446676 11.8488323,15.8994984 12.0505,16.2185 C12.2521677,16.5375016 12.3786664,16.8913314 12.43,17.28 L11.572,17.28 C11.4913329,16.8619979 11.3116681,16.5393345 11.033,16.312 C10.7543319,16.0846655 10.4023355,15.971 9.977,15.971 C9.39766377,15.971 8.9118353,16.2441639 8.5195,16.7905 C8.12716471,17.3368361 7.91633348,18.1893275 7.887,19.348 C8.06300088,19.0033316 8.34349808,18.7045013 8.7285,18.4515 C9.11350192,18.1984987 9.57733062,18.072 10.12,18.072 C10.5600022,18.072 10.9724981,18.1746656 11.3575,18.38 C11.7425019,18.5853344 12.0559988,18.8731648 12.298,19.2435 C12.5400012,19.6138352 12.661,20.0483308 12.661,20.547 C12.661,20.9796688 12.5546677,21.393998 12.342,21.79 C12.1293323,22.186002 11.8231687,22.5086654 11.4235,22.758 C11.0238313,23.0073346 10.5490027,23.132 9.999,23.132 Z M9.933,22.318 C10.2776684,22.318 10.5856653,22.2446674 10.857,22.098 C11.1283347,21.9513326 11.3409992,21.7478346 11.495,21.4875 C11.6490008,21.2271654 11.726,20.928335 11.726,20.591 C11.726,20.0703307 11.5555017,19.6541682 11.2145,19.3425 C10.8734983,19.0308318 10.4463359,18.875 9.933,18.875 C9.58833161,18.875 9.28033469,18.9538325 9.009,19.1115 C8.73766531,19.2691675 8.52316746,19.4799987 8.3655,19.744 C8.20783255,20.0080013 8.129,20.2939985 8.129,20.602 C8.129,20.9320017 8.20783255,21.2271654 8.3655,21.4875 C8.52316746,21.7478346 8.73766531,21.9513326 9.009,22.098 C9.28033469,22.2446674 9.58833161,22.318 9.933,22.318 Z M15.356,18.875 C15.0259983,18.875 14.727168,18.7998341 14.4595,18.6495 C14.191832,18.4991659 13.9810008,18.2865014 13.827,18.0115 C13.6729992,17.7364986 13.596,17.4083352 13.596,17.027 C13.596,16.6456648 13.6748325,16.3175014 13.8325,16.0425 C13.9901675,15.7674986 14.202832,15.5548341 14.4705,15.4045 C14.738168,15.2541659 15.0369983,15.179 15.367,15.179 C15.6970016,15.179 15.9939987,15.2541659 16.258,15.4045 C16.5220013,15.5548341 16.7309992,15.7674986 16.885,16.0425 C17.0390008,16.3175014 17.116,16.6456648 17.116,17.027 C17.116,17.4083352 17.0371675,17.7364986 16.8795,18.0115 C16.7218325,18.2865014 16.5110013,18.4991659 16.247,18.6495 C15.9829987,18.7998341 15.6860016,18.875 15.356,18.875 Z M14.674,23 L19.151,15.3 L20.075,15.3 L15.598,23 L14.674,23 Z M15.356,18.16 C15.6126679,18.16 15.8381657,18.0646676 16.0325,17.874 C16.2268343,17.6833324 16.324,17.4010019 16.324,17.027 C16.324,16.6456648 16.2286676,16.3578343 16.038,16.1635 C15.8473324,15.9691657 15.6236679,15.872 15.367,15.872 C15.1103321,15.872 14.8811677,15.9691657 14.6795,16.1635 C14.4778323,16.3578343 14.377,16.6456648 14.377,17.027 C14.377,17.4010019 14.475999,17.6833324 14.674,17.874 C14.872001,18.0646676 15.099332,18.16 15.356,18.16 Z M19.47,23.132 C19.1399983,23.132 18.841168,23.0568341 18.5735,22.9065 C18.305832,22.7561659 18.0950008,22.5435014 17.941,22.2685 C17.7869992,21.9934986 17.71,21.6653352 17.71,21.284 C17.71,20.9026648 17.7888325,20.5745014 17.9465,20.2995 C18.1041675,20.0244986 18.3149987,19.8118341 18.579,19.6615 C18.8430013,19.5111659 19.1399983,19.436 19.47,19.436 C19.8000016,19.436 20.0969987,19.5111659 20.361,19.6615 C20.6250013,19.8118341 20.8339992,20.0244986 20.988,20.2995 C21.1420008,20.5745014 21.219,20.9026648 21.219,21.284 C21.219,21.6653352 21.1420008,21.9934986 20.988,22.2685 C20.8339992,22.5435014 20.6250013,22.7561659 20.361,22.9065 C20.0969987,23.0568341 19.8000016,23.132 19.47,23.132 Z M19.459,22.417 C19.7230013,22.417 19.9521657,22.3216676 20.1465,22.131 C20.3408343,21.9403324 20.438,21.6580019 20.438,21.284 C20.438,20.9026648 20.3426676,20.6166676 20.152,20.426 C19.9613324,20.2353324 19.7340013,20.14 19.47,20.14 C19.213332,20.14 18.986001,20.2353324 18.788,20.426 C18.589999,20.6166676 18.491,20.9026648 18.491,21.284 C18.491,21.6580019 18.5881657,21.9403324 18.7825,22.131 C18.9768343,22.3216676 19.202332,22.417 19.459,22.417 Z" id="path-7"></path>
        <path d="M0.693,36.195 L0.693,35.414 L2.794,35.414 L2.794,33.412 L3.619,33.412 L3.619,35.414 L5.72,35.414 L5.72,36.195 L3.619,36.195 L3.619,38.208 L2.794,38.208 L2.794,36.195 L0.693,36.195 Z M9.845,39.132 C9.31699736,39.132 8.85866861,39.0366676 8.47,38.846 C8.08133139,38.6553324 7.77150115,38.3931683 7.5405,38.0595 C7.30949884,37.7258317 7.16833359,37.3463355 7.117,36.921 L8.019,36.921 C8.10700044,37.3463355 8.31233172,37.6891654 8.635,37.9495 C8.95766828,38.2098346 9.36466421,38.34 9.856,38.34 C10.2226685,38.34 10.5379987,38.2538342 10.802,38.0815 C11.0660013,37.9091658 11.2694993,37.6763348 11.4125,37.383 C11.5555007,37.0896652 11.627,36.7633351 11.627,36.404 C11.627,35.8319971 11.4656683,35.3700018 11.143,35.018 C10.8203317,34.6659982 10.4023359,34.49 9.889,34.49 C9.46366454,34.49 9.10066817,34.5853324 8.8,34.776 C8.49933183,34.9666676 8.27933403,35.2159985 8.14,35.524 L7.26,35.524 L7.92,31.3 L11.957,31.3 L11.957,32.103 L8.635,32.103 L8.184,34.446 C8.36000088,34.2333323 8.60383177,34.057334 8.9155,33.918 C9.22716822,33.778666 9.58466465,33.709 9.988,33.709 C10.4940025,33.709 10.9358314,33.8263322 11.3135,34.061 C11.6911686,34.2956678 11.9863323,34.6146647 12.199,35.018 C12.4116677,35.4213353 12.518,35.8796641 12.518,36.393 C12.518,36.8843358 12.413501,37.3389979 12.2045,37.757 C11.995499,38.1750021 11.6911687,38.5086654 11.2915,38.758 C10.8918313,39.0073346 10.4096695,39.132 9.845,39.132 Z M15.345,34.875 C15.0149983,34.875 14.716168,34.7998341 14.4485,34.6495 C14.180832,34.4991659 13.9700008,34.2865014 13.816,34.0115 C13.6619992,33.7364986 13.585,33.4083352 13.585,33.027 C13.585,32.6456648 13.6638325,32.3175014 13.8215,32.0425 C13.9791675,31.7674986 14.191832,31.5548341 14.4595,31.4045 C14.727168,31.2541659 15.0259983,31.179 15.356,31.179 C15.6860016,31.179 15.9829987,31.2541659 16.247,31.4045 C16.5110013,31.5548341 16.7199992,31.7674986 16.874,32.0425 C17.0280008,32.3175014 17.105,32.6456648 17.105,33.027 C17.105,33.4083352 17.0261675,33.7364986 16.8685,34.0115 C16.7108325,34.2865014 16.5000013,34.4991659 16.236,34.6495 C15.9719987,34.7998341 15.6750016,34.875 15.345,34.875 Z M14.663,39 L19.14,31.3 L20.064,31.3 L15.587,39 L14.663,39 Z M15.345,34.16 C15.6016679,34.16 15.8271657,34.0646676 16.0215,33.874 C16.2158343,33.6833324 16.313,33.4010019 16.313,33.027 C16.313,32.6456648 16.2176676,32.3578343 16.027,32.1635 C15.8363324,31.9691657 15.6126679,31.872 15.356,31.872 C15.0993321,31.872 14.8701677,31.9691657 14.6685,32.1635 C14.4668323,32.3578343 14.366,32.6456648 14.366,33.027 C14.366,33.4010019 14.464999,33.6833324 14.663,33.874 C14.861001,34.0646676 15.088332,34.16 15.345,34.16 Z M19.459,39.132 C19.1289983,39.132 18.830168,39.0568341 18.5625,38.9065 C18.294832,38.7561659 18.0840008,38.5435014 17.93,38.2685 C17.7759992,37.9934986 17.699,37.6653352 17.699,37.284 C17.699,36.9026648 17.7778325,36.5745014 17.9355,36.2995 C18.0931675,36.0244986 18.3039987,35.8118341 18.568,35.6615 C18.8320013,35.5111659 19.1289983,35.436 19.459,35.436 C19.7890016,35.436 20.0859987,35.5111659 20.35,35.6615 C20.6140013,35.8118341 20.8229992,36.0244986 20.977,36.2995 C21.1310008,36.5745014 21.208,36.9026648 21.208,37.284 C21.208,37.6653352 21.1310008,37.9934986 20.977,38.2685 C20.8229992,38.5435014 20.6140013,38.7561659 20.35,38.9065 C20.0859987,39.0568341 19.7890016,39.132 19.459,39.132 Z M19.448,38.417 C19.7120013,38.417 19.9411657,38.3216676 20.1355,38.131 C20.3298343,37.9403324 20.427,37.6580019 20.427,37.284 C20.427,36.9026648 20.3316676,36.6166676 20.141,36.426 C19.9503324,36.2353324 19.7230013,36.14 19.459,36.14 C19.202332,36.14 18.975001,36.2353324 18.777,36.426 C18.578999,36.6166676 18.48,36.9026648 18.48,37.284 C18.48,37.6580019 18.5771657,37.9403324 18.7715,38.131 C18.9658343,38.3216676 19.191332,38.417 19.448,38.417 Z" id="path-8"></path>
    </defs>
    <g id="Page-1" stroke="none" stroke-width="1" fill="none" fill-rule="evenodd">
        <g id="land_2010" transform="translate(0.000000, -2.000000)" fill-rule="nonzero">
            <g id="Price/sqft-$100.81-$" transform="translate(103.000000, 0.000000)">
                <g id="Price/sqft">
                    <use fill="#000000" xlink:href="#path-1"></use>
                    <use fill="#979797" xlink:href="#path-1"></use>
                </g>
                <g id="$100.81">
                    <use fill="#000000" xlink:href="#path-2"></use>
                    <use fill="#979797" xlink:href="#path-2"></use>
                </g>
                <g id="$123.49">
                    <use fill="#000000" xlink:href="#path-3"></use>
                    <use fill="#979797" xlink:href="#path-3"></use>
                </g>
            </g>
            <g id="Blocks-with-parklets" transform="translate(0.000000, 15.000000)">
                <g id="Blockswithparklets">
                    <use fill="#000000" xlink:href="#path-4"></use>
                    <use fill="#979797" xlink:href="#path-4"></use>
                </g>
                <g id="Citywide">
                    <use fill="#000000" xlink:href="#path-5"></use>
                    <use fill="#979797" xlink:href="#path-5"></use>
                </g>
            </g>
            <g id="%-Change-+6%-+5%" transform="translate(170.000000, 0.000000)">
                <g id="%Change">
                    <use fill="#000000" xlink:href="#path-6"></use>
                    <use fill="#979797" xlink:href="#path-6"></use>
                </g>
                <g id="+6%">
                    <use fill="#000000" xlink:href="#path-7"></use>
                    <use fill="#979797" xlink:href="#path-7"></use>
                </g>
                <g id="+5%">
                    <use fill="#000000" xlink:href="#path-8"></use>
                    <use fill="#979797" xlink:href="#path-8"></use>
                </g>
            </g>
        </g>
    </g>
</svg>