<?xml version="1.0" encoding="UTF-8"?>
<svg width="213px" height="40px" viewBox="0 0 213 40" version="1.1" xmlns="http://www.w3.org/2000/svg" xmlns:xlink="http://www.w3.org/1999/xlink">
    <!-- Generator: Sketch 57.1 (83088) - https://sketch.com -->
    <title>land_2016</title>
    <desc>Created with Sketch.</desc>
    <defs>
        <path d="M0.612,9 L0.612,2.7 L2.943,2.7 C3.44700252,2.7 3.86399835,2.78399916 4.194,2.952 C4.52400165,3.12000084 4.76999919,3.35099853 4.932,3.645 C5.09400081,3.93900147 5.175,4.26899817 5.175,4.635 C5.175,4.98300174 5.09700078,5.30249854 4.941,5.5935 C4.78499922,5.88450145 4.54200165,6.11849911 4.212,6.2955 C3.88199835,6.47250088 3.45900258,6.561 2.943,6.561 L1.764,6.561 L1.764,9 L0.612,9 Z M1.764,5.625 L2.871,5.625 C3.27300201,5.625 3.56249912,5.53650089 3.7395,5.3595 C3.91650089,5.18249911 4.005,4.94100153 4.005,4.635 C4.005,4.32299844 3.91650089,4.07850088 3.7395,3.9015 C3.56249912,3.72449911 3.27300201,3.636 2.871,3.636 L1.764,3.636 L1.764,5.625 Z M6.048,9 L6.048,4.536 L7.074,4.536 L7.182,5.373 C7.34400081,5.08499856 7.56449861,4.85550085 7.8435,4.6845 C8.1225014,4.51349914 8.45099811,4.428 8.829,4.428 L8.829,5.643 L8.505,5.643 C8.25299874,5.643 8.02800099,5.68199961 7.83,5.76 C7.63199901,5.83800039 7.47750056,5.97299904 7.3665,6.165 C7.25549945,6.35700096 7.2,6.62399829 7.2,6.966 L7.2,9 L6.048,9 Z M10.233,3.843 C10.022999,3.843 9.85050068,3.78000063 9.7155,3.654 C9.58049933,3.52799937 9.513,3.36900096 9.513,3.177 C9.513,2.98499904 9.58049933,2.82750061 9.7155,2.7045 C9.85050068,2.58149938 10.022999,2.52 10.233,2.52 C10.4430011,2.52 10.6154993,2.58149938 10.7505,2.7045 C10.8855007,2.82750061 10.953,2.98499904 10.953,3.177 C10.953,3.36900096 10.8855007,3.52799937 10.7505,3.654 C10.6154993,3.78000063 10.4430011,3.843 10.233,3.843 Z M9.657,9 L9.657,4.536 L10.809,4.536 L10.809,9 L9.657,9 Z M14.202,9.108 C13.7459977,9.108 13.3440017,9.00900099 12.996,8.811 C12.6479983,8.61299901 12.373501,8.33700177 12.1725,7.983 C11.971499,7.62899823 11.871,7.22400228 11.871,6.768 C11.871,6.31199772 11.971499,5.90700177 12.1725,5.553 C12.373501,5.19899823 12.6479983,4.92300099 12.996,4.725 C13.3440017,4.52699901 13.7459977,4.428 14.202,4.428 C14.7720029,4.428 15.2519981,4.57649851 15.642,4.8735 C16.032002,5.17050148 16.2809995,5.57999739 16.389,6.102 L15.174,6.102 C15.1139997,5.88599892 14.9955009,5.71650062 14.8185,5.5935 C14.6414991,5.47049938 14.4330012,5.409 14.193,5.409 C13.8749984,5.409 13.6050011,5.5289988 13.383,5.769 C13.1609989,6.0090012 13.05,6.34199787 13.05,6.768 C13.05,7.19400213 13.1609989,7.5269988 13.383,7.767 C13.6050011,8.0070012 13.8749984,8.127 14.193,8.127 C14.4330012,8.127 14.6414991,8.0670006 14.8185,7.947 C14.9955009,7.8269994 15.1139997,7.65600111 15.174,7.434 L16.389,7.434 C16.2809995,7.93800252 16.032002,8.34299847 15.642,8.649 C15.2519981,8.95500153 14.7720029,9.108 14.202,9.108 Z M19.584,9.108 C19.1339978,9.108 18.7350017,9.01200096 18.387,8.82 C18.0389983,8.62799904 17.766001,8.35800174 17.568,8.01 C17.369999,7.66199826 17.271,7.26000228 17.271,6.804 C17.271,6.34199769 17.368499,5.9310018 17.5635,5.571 C17.758501,5.2109982 18.0284983,4.930501 18.3735,4.7295 C18.7185017,4.52849899 19.1249977,4.428 19.593,4.428 C20.0310022,4.428 20.4179983,4.52399904 20.754,4.716 C21.0900017,4.90800096 21.3524991,5.17049833 21.5415,5.5035 C21.7305009,5.83650167 21.825,6.20699796 21.825,6.615 C21.825,6.68100033 21.8235,6.74999964 21.8205,6.822 C21.8175,6.89400036 21.813,6.96899961 21.807,7.047 L18.414,7.047 C18.4380001,7.39500174 18.5594989,7.66799901 18.7785,7.866 C18.9975011,8.06400099 19.2629984,8.163 19.575,8.163 C19.8090012,8.163 20.0054992,8.11050052 20.1645,8.0055 C20.3235008,7.90049948 20.4419996,7.76400084 20.52,7.596 L21.69,7.596 C21.6059996,7.87800141 21.466501,8.13449884 21.2715,8.3655 C21.076499,8.59650115 20.8365014,8.77799934 20.5515,8.91 C20.2664986,9.04200066 19.9440018,9.108 19.584,9.108 Z M19.593,5.364 C19.3109986,5.364 19.0620011,5.4434992 18.846,5.6025 C18.6299989,5.76150079 18.4920003,6.00299838 18.432,6.327 L20.655,6.327 C20.6369999,6.03299853 20.529001,5.79900087 20.331,5.625 C20.132999,5.45099913 19.8870015,5.364 19.593,5.364 Z M22.419,9.999 L24.669,2.007 L25.794,2.007 L23.535,9.999 L22.419,9.999 Z M28.161,9.108 C27.764998,9.108 27.4170015,9.04350064 27.117,8.9145 C26.8169985,8.78549936 26.5770009,8.60700114 26.397,8.379 C26.2169991,8.15099886 26.1090002,7.8870015 26.073,7.587 L27.234,7.587 C27.2700002,7.76100087 27.3674992,7.90949939 27.5265,8.0325 C27.6855008,8.15550061 27.8909987,8.217 28.143,8.217 C28.3950013,8.217 28.5794994,8.16600051 28.6965,8.064 C28.8135006,7.96199949 28.872,7.84500066 28.872,7.713 C28.872,7.52099904 28.7880008,7.39050035 28.62,7.3215 C28.4519992,7.25249966 28.2180015,7.18500033 27.918,7.119 C27.725999,7.07699979 27.531001,7.0260003 27.333,6.966 C27.134999,6.9059997 26.9535008,6.82950046 26.7885,6.7365 C26.6234992,6.64349954 26.4900005,6.52350073 26.388,6.3765 C26.2859995,6.22949926 26.235,6.04800108 26.235,5.832 C26.235,5.43599802 26.3924984,5.10300135 26.7075,4.833 C27.0225016,4.56299865 27.4649972,4.428 28.035,4.428 C28.5630026,4.428 28.9844984,4.55099877 29.2995,4.797 C29.6145016,5.04300123 29.8019997,5.38199784 29.862,5.814 L28.773,5.814 C28.7069997,5.48399835 28.4580022,5.319 28.026,5.319 C27.8099989,5.319 27.6435006,5.36099958 27.5265,5.445 C27.4094994,5.52900042 27.351,5.63399937 27.351,5.76 C27.351,5.89200066 27.4379991,5.99699961 27.612,6.075 C27.7860009,6.15300039 28.0169986,6.22499967 28.305,6.291 C28.6170016,6.36300036 28.9034987,6.44249956 29.1645,6.5295 C29.4255013,6.61650043 29.6339992,6.74549915 29.79,6.9165 C29.9460008,7.08750086 30.024,7.33199841 30.024,7.65 C30.03,7.92600138 29.9580008,8.17499889 29.808,8.397 C29.6579993,8.61900111 29.4420014,8.79299937 29.16,8.919 C28.8779986,9.04500063 28.5450019,9.108 28.161,9.108 Z M34.587,10.98 L34.587,8.361 C34.4429993,8.55900099 34.2525012,8.73299925 34.0155,8.883 C33.7784988,9.03300075 33.4710019,9.108 33.093,9.108 C32.6729979,9.108 32.2980017,9.00600102 31.968,8.802 C31.6379984,8.59799898 31.377001,8.31900177 31.185,7.965 C30.992999,7.61099823 30.897,7.20900225 30.897,6.759 C30.897,6.30899775 30.992999,5.90850175 31.185,5.5575 C31.377001,5.20649824 31.6379984,4.930501 31.968,4.7295 C32.2980017,4.52849899 32.6729979,4.428 33.093,4.428 C33.4290017,4.428 33.7229987,4.49099937 33.975,4.617 C34.2270013,4.74300063 34.4309992,4.91999886 34.587,5.148 L34.713,4.536 L35.739,4.536 L35.739,10.98 L34.587,10.98 Z M33.336,8.1 C33.7080019,8.1 34.0124988,7.97550125 34.2495,7.7265 C34.4865012,7.47749876 34.605,7.15800195 34.605,6.768 C34.605,6.37799805 34.4865012,6.05850125 34.2495,5.8095 C34.0124988,5.56049876 33.7080019,5.436 33.336,5.436 C32.9699982,5.436 32.6670012,5.55899877 32.427,5.805 C32.1869988,6.05100123 32.067,6.36899805 32.067,6.759 C32.067,7.14900195 32.1869988,7.46999874 32.427,7.722 C32.6670012,7.97400126 32.9699982,8.1 33.336,8.1 Z M37.116,9 L37.116,5.499 L36.504,5.499 L36.504,4.536 L37.116,4.536 L37.116,4.014 C37.116,3.4739973 37.2524986,3.09000114 37.5255,2.862 C37.7985014,2.63399886 38.1689977,2.52 38.637,2.52 L39.132,2.52 L39.132,3.501 L38.817,3.501 C38.618999,3.501 38.4780004,3.53999961 38.394,3.618 C38.3099996,3.69600039 38.268,3.82799907 38.268,4.014 L38.268,4.536 L39.231,4.536 L39.231,5.499 L38.268,5.499 L38.268,9 L37.116,9 Z M42.129,9 C41.6609977,9 41.2860014,8.88600114 41.004,8.658 C40.7219986,8.42999886 40.581,8.02500291 40.581,7.443 L40.581,5.499 L39.816,5.499 L39.816,4.536 L40.581,4.536 L40.716,3.339 L41.733,3.339 L41.733,4.536 L42.939,4.536 L42.939,5.499 L41.733,5.499 L41.733,7.452 C41.733,7.66800108 41.7794995,7.81649959 41.8725,7.8975 C41.9655005,7.97850041 42.1259989,8.019 42.354,8.019 L42.912,8.019 L42.912,9 L42.129,9 Z" id="path-1"></path>
        <path d="M2.816,23.957 L2.816,23.11 C2.09732974,23.0293329 1.52900209,22.7726688 1.111,22.34 C0.69299791,21.9073312 0.484,21.3573367 0.484,20.69 L1.452,20.69 C1.452,21.0786686 1.56749885,21.4251651 1.7985,21.7295 C2.02950116,22.0338349 2.36866443,22.2299996 2.816,22.318 L2.816,19.337 C2.76466641,19.3223333 2.71150027,19.3058334 2.6565,19.2875 C2.60149973,19.2691666 2.54833359,19.2526667 2.497,19.238 C1.90299703,19.0326656 1.46300143,18.7778349 1.177,18.4735 C0.89099857,18.1691651 0.748,17.7713358 0.748,17.28 C0.74066663,16.7079971 0.922164815,16.2313352 1.2925,15.85 C1.66283518,15.4686648 2.17066344,15.248667 2.816,15.19 L2.816,14.299 L3.575,14.299 L3.575,15.19 C4.19100308,15.2633337 4.6823315,15.4943314 5.049,15.883 C5.4156685,16.2716686 5.60266663,16.7446639 5.61,17.302 L4.642,17.302 C4.642,17.0306653 4.55400088,16.7685013 4.378,16.5155 C4.20199912,16.2624987 3.93433513,16.0920004 3.575,16.004 L3.575,18.666 C3.63366696,18.6806667 3.69233304,18.6989999 3.751,18.721 C3.80966696,18.7430001 3.87199967,18.7613333 3.938,18.776 C4.3046685,18.9080007 4.6346652,19.0619991 4.928,19.238 C5.2213348,19.4140009 5.45049918,19.6413319 5.6155,19.92 C5.78050082,20.1986681 5.863,20.5543312 5.863,20.987 C5.863,21.3316684 5.77866751,21.6579985 5.61,21.966 C5.44133249,22.2740015 5.1865017,22.5343323 4.8455,22.747 C4.50449829,22.9596677 4.08100253,23.0843331 3.575,23.121 L3.575,23.957 L2.816,23.957 Z M1.705,17.192 C1.705,17.529335 1.80399901,17.7841658 2.002,17.9565 C2.20000099,18.1288342 2.47133161,18.2773327 2.816,18.402 L2.816,15.982 C2.48599835,16.0333336 2.21833436,16.163499 2.013,16.3725 C1.80766564,16.581501 1.705,16.854665 1.705,17.192 Z M4.906,21.042 C4.906,20.6166645 4.78133458,20.3013344 4.532,20.096 C4.28266542,19.8906656 3.96366861,19.7220007 3.575,19.59 L3.575,22.34 C4.00033546,22.2886664 4.32849885,22.1420012 4.5595,21.9 C4.79050115,21.6579988 4.906,21.3720017 4.906,21.042 Z M7.931,23 L7.931,16.334 L6.688,16.609 L6.688,15.971 L8.239,15.3 L8.866,15.3 L8.866,23 L7.931,23 Z M12.892,23.132 C12.4006642,23.132 11.957002,23.0421676 11.561,22.8625 C11.164998,22.6828324 10.8478345,22.4133351 10.6095,22.054 C10.3711655,21.6946649 10.2446667,21.247336 10.23,20.712 L11.165,20.712 C11.1723334,21.1520022 11.3263318,21.5314984 11.627,21.8505 C11.9276682,22.1695016 12.3493306,22.329 12.892,22.329 C13.4346694,22.329 13.8434986,22.1786682 14.1185,21.878 C14.3935014,21.5773318 14.531,21.2143355 14.531,20.789 C14.531,20.4296649 14.4448342,20.1363345 14.2725,19.909 C14.1001658,19.6816655 13.8691681,19.5130006 13.5795,19.403 C13.2898319,19.2929994 12.9726684,19.238 12.628,19.238 L12.056,19.238 L12.056,18.457 L12.628,18.457 C13.1266692,18.457 13.5171653,18.3433345 13.7995,18.116 C14.0818347,17.8886655 14.223,17.5696687 14.223,17.159 C14.223,16.8143316 14.1111678,16.5301678 13.8875,16.3065 C13.6638322,16.0828322 13.3320022,15.971 12.892,15.971 C12.4666645,15.971 12.125668,16.0974987 11.869,16.3505 C11.6123321,16.6035013 11.4693335,16.9206648 11.44,17.302 L10.505,17.302 C10.5270001,16.8839979 10.6388323,16.5136683 10.8405,16.191 C11.0421677,15.8683317 11.3189982,15.6171676 11.671,15.4375 C12.0230018,15.2578324 12.4299977,15.168 12.892,15.168 C13.3906692,15.168 13.8068317,15.2559991 14.1405,15.432 C14.4741683,15.6080009 14.7271658,15.8426652 14.8995,16.136 C15.0718342,16.4293348 15.158,16.7519982 15.158,17.104 C15.158,17.4926686 15.0516677,17.8464984 14.839,18.1655 C14.6263323,18.4845016 14.3073355,18.6989994 13.882,18.809 C14.3366689,18.9043338 14.7143318,19.120665 15.015,19.458 C15.3156682,19.795335 15.466,20.2389973 15.466,20.789 C15.466,21.2143355 15.3688343,21.6048316 15.1745,21.9605 C14.9801657,22.3161684 14.6923352,22.6003323 14.311,22.813 C13.9296648,23.0256677 13.4566695,23.132 12.892,23.132 Z M17.413,23 L20.471,16.092 L16.247,16.092 L16.247,15.3 L21.417,15.3 L21.417,15.993 L18.392,23 L17.413,23 Z M22.242,23.055 C22.0586657,23.055 21.9065006,22.9945006 21.7855,22.8735 C21.6644994,22.7524994 21.604,22.6040009 21.604,22.428 C21.604,22.2519991 21.6644994,22.1035006 21.7855,21.9825 C21.9065006,21.8614994 22.0586657,21.801 22.242,21.801 C22.4180009,21.801 22.5664994,21.8614994 22.6875,21.9825 C22.8085006,22.1035006 22.869,22.2519991 22.869,22.428 C22.869,22.6040009 22.8085006,22.7524994 22.6875,22.8735 C22.5664994,22.9945006 22.4180009,23.055 22.242,23.055 Z M24.002,23 L24.002,22.351 C24.5226693,21.9403313 25.015831,21.5241688 25.4815,21.1025 C25.947169,20.6808312 26.3614982,20.2646687 26.7245,19.854 C27.0875018,19.4433313 27.373499,19.040002 27.5825,18.644 C27.791501,18.247998 27.896,17.8666685 27.896,17.5 C27.896,17.2286653 27.8501671,16.9756678 27.7585,16.741 C27.6668329,16.5063322 27.5183344,16.3175007 27.313,16.1745 C27.1076656,16.0314993 26.8290018,15.96 26.477,15.96 C26.139665,15.96 25.8573345,16.0351659 25.63,16.1855 C25.4026655,16.3358341 25.2321672,16.5356654 25.1185,16.785 C25.0048328,17.0343346 24.948,17.3019986 24.948,17.588 L24.057,17.588 C24.057,17.0819975 24.1633323,16.6475018 24.376,16.2845 C24.5886677,15.9214982 24.8783315,15.6446676 25.245,15.454 C25.6116685,15.2633324 26.0259977,15.168 26.488,15.168 C27.1700034,15.168 27.7291645,15.3604981 28.1655,15.7455 C28.6018355,16.1305019 28.82,16.7043295 28.82,17.467 C28.82,17.9216689 28.7063345,18.3708311 28.479,18.8145 C28.2516655,19.2581689 27.9620018,19.6871646 27.61,20.1015 C27.2579982,20.5158354 26.8821687,20.9026649 26.4825,21.262 C26.0828313,21.6213351 25.7106684,21.9439986 25.366,22.23 L29.084,22.23 L29.084,23 L24.002,23 Z M30.866,23 L33.924,16.092 L29.7,16.092 L29.7,15.3 L34.87,15.3 L34.87,15.993 L31.845,23 L30.866,23 Z" id="path-2"></path>
        <path d="M2.816,39.957 L2.816,39.11 C2.09732974,39.0293329 1.52900209,38.7726688 1.111,38.34 C0.69299791,37.9073312 0.484,37.3573367 0.484,36.69 L1.452,36.69 C1.452,37.0786686 1.56749885,37.4251651 1.7985,37.7295 C2.02950116,38.0338349 2.36866443,38.2299996 2.816,38.318 L2.816,35.337 C2.76466641,35.3223333 2.71150027,35.3058334 2.6565,35.2875 C2.60149973,35.2691666 2.54833359,35.2526667 2.497,35.238 C1.90299703,35.0326656 1.46300143,34.7778349 1.177,34.4735 C0.89099857,34.1691651 0.748,33.7713358 0.748,33.28 C0.74066663,32.7079971 0.922164815,32.2313352 1.2925,31.85 C1.66283518,31.4686648 2.17066344,31.248667 2.816,31.19 L2.816,30.299 L3.575,30.299 L3.575,31.19 C4.19100308,31.2633337 4.6823315,31.4943314 5.049,31.883 C5.4156685,32.2716686 5.60266663,32.7446639 5.61,33.302 L4.642,33.302 C4.642,33.0306653 4.55400088,32.7685013 4.378,32.5155 C4.20199912,32.2624987 3.93433513,32.0920004 3.575,32.004 L3.575,34.666 C3.63366696,34.6806667 3.69233304,34.6989999 3.751,34.721 C3.80966696,34.7430001 3.87199967,34.7613333 3.938,34.776 C4.3046685,34.9080007 4.6346652,35.0619991 4.928,35.238 C5.2213348,35.4140009 5.45049918,35.6413319 5.6155,35.92 C5.78050082,36.1986681 5.863,36.5543312 5.863,36.987 C5.863,37.3316684 5.77866751,37.6579985 5.61,37.966 C5.44133249,38.2740015 5.1865017,38.5343323 4.8455,38.747 C4.50449829,38.9596677 4.08100253,39.0843331 3.575,39.121 L3.575,39.957 L2.816,39.957 Z M1.705,33.192 C1.705,33.529335 1.80399901,33.7841658 2.002,33.9565 C2.20000099,34.1288342 2.47133161,34.2773327 2.816,34.402 L2.816,31.982 C2.48599835,32.0333336 2.21833436,32.163499 2.013,32.3725 C1.80766564,32.581501 1.705,32.854665 1.705,33.192 Z M4.906,37.042 C4.906,36.6166645 4.78133458,36.3013344 4.532,36.096 C4.28266542,35.8906656 3.96366861,35.7220007 3.575,35.59 L3.575,38.34 C4.00033546,38.2886664 4.32849885,38.1420012 4.5595,37.9 C4.79050115,37.6579988 4.906,37.3720017 4.906,37.042 Z M7.931,39 L7.931,32.334 L6.688,32.609 L6.688,31.971 L8.239,31.3 L8.866,31.3 L8.866,39 L7.931,39 Z M13.266,39.132 C12.7086639,39.132 12.2393352,39.027501 11.858,38.8185 C11.4766648,38.609499 11.1705012,38.3290018 10.9395,37.977 C10.7084988,37.6249982 10.5398339,37.2308355 10.4335,36.7945 C10.3271661,36.3581645 10.274,35.9126689 10.274,35.458 C10.274,34.6073291 10.3913322,33.8611699 10.626,33.2195 C10.8606678,32.5778301 11.1998311,32.0755018 11.6435,31.7125 C12.0871689,31.3494982 12.6243302,31.168 13.255,31.168 C13.7390024,31.168 14.1533316,31.2633324 14.498,31.454 C14.8426684,31.6446676 15.1158323,31.8994984 15.3175,32.2185 C15.5191677,32.5375016 15.6456664,32.8913314 15.697,33.28 L14.839,33.28 C14.7583329,32.8619979 14.5786681,32.5393345 14.3,32.312 C14.0213319,32.0846655 13.6693355,31.971 13.244,31.971 C12.6646638,31.971 12.1788353,32.2441639 11.7865,32.7905 C11.3941647,33.3368361 11.1833335,34.1893275 11.154,35.348 C11.3300009,35.0033316 11.6104981,34.7045013 11.9955,34.4515 C12.3805019,34.1984987 12.8443306,34.072 13.387,34.072 C13.8270022,34.072 14.2394981,34.1746656 14.6245,34.38 C15.0095019,34.5853344 15.3229988,34.8731648 15.565,35.2435 C15.8070012,35.6138352 15.928,36.0483308 15.928,36.547 C15.928,36.9796688 15.8216677,37.393998 15.609,37.79 C15.3963323,38.186002 15.0901687,38.5086654 14.6905,38.758 C14.2908313,39.0073346 13.8160027,39.132 13.266,39.132 Z M13.2,38.318 C13.5446684,38.318 13.8526653,38.2446674 14.124,38.098 C14.3953347,37.9513326 14.6079992,37.7478346 14.762,37.4875 C14.9160008,37.2271654 14.993,36.928335 14.993,36.591 C14.993,36.0703307 14.8225017,35.6541682 14.4815,35.3425 C14.1404983,35.0308318 13.7133359,34.875 13.2,34.875 C12.8553316,34.875 12.5473347,34.9538325 12.276,35.1115 C12.0046653,35.2691675 11.7901675,35.4799987 11.6325,35.744 C11.4748325,36.0080013 11.396,36.2939985 11.396,36.602 C11.396,36.9320017 11.4748325,37.2271654 11.6325,37.4875 C11.7901675,37.7478346 12.0046653,37.9513326 12.276,38.098 C12.5473347,38.2446674 12.8553316,38.318 13.2,38.318 Z M19.822,39.132 C19.2939974,39.132 18.8356686,39.0366676 18.447,38.846 C18.0583314,38.6553324 17.7485012,38.3931683 17.5175,38.0595 C17.2864988,37.7258317 17.1453336,37.3463355 17.094,36.921 L17.996,36.921 C18.0840004,37.3463355 18.2893317,37.6891654 18.612,37.9495 C18.9346683,38.2098346 19.3416642,38.34 19.833,38.34 C20.1996685,38.34 20.5149987,38.2538342 20.779,38.0815 C21.0430013,37.9091658 21.2464993,37.6763348 21.3895,37.383 C21.5325007,37.0896652 21.604,36.7633351 21.604,36.404 C21.604,35.8319971 21.4426683,35.3700018 21.12,35.018 C20.7973317,34.6659982 20.3793359,34.49 19.866,34.49 C19.4406645,34.49 19.0776682,34.5853324 18.777,34.776 C18.4763318,34.9666676 18.256334,35.2159985 18.117,35.524 L17.237,35.524 L17.897,31.3 L21.934,31.3 L21.934,32.103 L18.612,32.103 L18.161,34.446 C18.3370009,34.2333323 18.5808318,34.057334 18.8925,33.918 C19.2041682,33.778666 19.5616647,33.709 19.965,33.709 C20.4710025,33.709 20.9128314,33.8263322 21.2905,34.061 C21.6681686,34.2956678 21.9633323,34.6146647 22.176,35.018 C22.3886677,35.4213353 22.495,35.8796641 22.495,36.393 C22.495,36.8843358 22.390501,37.3389979 22.1815,37.757 C21.972499,38.1750021 21.6681687,38.5086654 21.2685,38.758 C20.8688313,39.0073346 20.3866695,39.132 19.822,39.132 Z M24.2,39.055 C24.0166658,39.055 23.8645006,38.9945006 23.7435,38.8735 C23.6224994,38.7524994 23.562,38.6040009 23.562,38.428 C23.562,38.2519991 23.6224994,38.1035006 23.7435,37.9825 C23.8645006,37.8614994 24.0166658,37.801 24.2,37.801 C24.3760009,37.801 24.5244994,37.8614994 24.6455,37.9825 C24.7665006,38.1035006 24.827,38.2519991 24.827,38.428 C24.827,38.6040009 24.7665006,38.7524994 24.6455,38.8735 C24.5244994,38.9945006 24.3760009,39.055 24.2,39.055 Z M25.96,39 L25.96,38.351 C26.4806693,37.9403313 26.973831,37.5241688 27.4395,37.1025 C27.905169,36.6808312 28.3194982,36.2646687 28.6825,35.854 C29.0455018,35.4433313 29.331499,35.040002 29.5405,34.644 C29.749501,34.247998 29.854,33.8666685 29.854,33.5 C29.854,33.2286653 29.8081671,32.9756678 29.7165,32.741 C29.6248329,32.5063322 29.4763344,32.3175007 29.271,32.1745 C29.0656656,32.0314993 28.7870018,31.96 28.435,31.96 C28.097665,31.96 27.8153345,32.0351659 27.588,32.1855 C27.3606655,32.3358341 27.1901672,32.5356654 27.0765,32.785 C26.9628328,33.0343346 26.906,33.3019986 26.906,33.588 L26.015,33.588 C26.015,33.0819975 26.1213323,32.6475018 26.334,32.2845 C26.5466677,31.9214982 26.8363315,31.6446676 27.203,31.454 C27.5696685,31.2633324 27.9839977,31.168 28.446,31.168 C29.1280034,31.168 29.6871645,31.3604981 30.1235,31.7455 C30.5598355,32.1305019 30.778,32.7043295 30.778,33.467 C30.778,33.9216689 30.6643345,34.3708311 30.437,34.8145 C30.2096655,35.2581689 29.9200018,35.6871646 29.568,36.1015 C29.2159982,36.5158354 28.8401687,36.9026649 28.4405,37.262 C28.0408313,37.6213351 27.6686684,37.9439986 27.324,38.23 L31.042,38.23 L31.042,39 L25.96,39 Z M34.793,31.168 C35.3503361,31.168 35.8196648,31.272499 36.201,31.4815 C36.5823352,31.690501 36.8884988,31.9709982 37.1195,32.323 C37.3505012,32.6750018 37.5191661,33.0691645 37.6255,33.5055 C37.7318339,33.9418355 37.785,34.3873311 37.785,34.842 C37.785,35.6926709 37.6676678,36.4388301 37.433,37.0805 C37.1983322,37.7221699 36.8591689,38.2244982 36.4155,38.5875 C35.9718311,38.9505018 35.4346698,39.132 34.804,39.132 C34.3199976,39.132 33.9056684,39.0366676 33.561,38.846 C33.2163316,38.6553324 32.9431677,38.4005016 32.7415,38.0815 C32.5398323,37.7624984 32.4133336,37.4086686 32.362,37.02 L33.22,37.02 C33.3006671,37.4380021 33.4803319,37.7606655 33.759,37.988 C34.0376681,38.2153345 34.3896645,38.329 34.815,38.329 C35.3943362,38.329 35.8801647,38.0558361 36.2725,37.5095 C36.6648353,36.9631639 36.8756665,36.1106725 36.905,34.952 C36.7289991,35.2966684 36.4485019,35.5954987 36.0635,35.8485 C35.6784981,36.1015013 35.2146694,36.228 34.672,36.228 C34.2319978,36.228 33.8195019,36.1253344 33.4345,35.92 C33.0494981,35.7146656 32.7360012,35.4268352 32.494,35.0565 C32.2519988,34.6861648 32.131,34.2516692 32.131,33.753 C32.131,33.3203312 32.2373323,32.906002 32.45,32.51 C32.6626677,32.113998 32.9688313,31.7913346 33.3685,31.542 C33.7681687,31.2926654 34.2429972,31.168 34.793,31.168 Z M34.859,31.982 C34.5143316,31.982 34.2063347,32.0553326 33.935,32.202 C33.6636653,32.3486674 33.4510008,32.5521654 33.297,32.8125 C33.1429992,33.0728346 33.066,33.371665 33.066,33.709 C33.066,34.2296693 33.2364983,34.6458318 33.5775,34.9575 C33.9185017,35.2691682 34.3456641,35.425 34.859,35.425 C35.2036684,35.425 35.5116653,35.3461675 35.783,35.1885 C36.0543347,35.0308325 36.2688325,34.8200013 36.4265,34.556 C36.5841675,34.2919987 36.663,34.0060015 36.663,33.698 C36.663,33.3679984 36.5841675,33.0728346 36.4265,32.8125 C36.2688325,32.5521654 36.0543347,32.3486674 35.783,32.202 C35.5116653,32.0553326 35.2036684,31.982 34.859,31.982 Z" id="path-3"></path>
        <path d="M0.781,9 L0.781,2.7 L3.31,2.7 C3.96400327,2.7 4.46349828,2.85149849 4.8085,3.1545 C5.15350173,3.45750151 5.326,3.84599763 5.326,4.32 C5.326,4.71600198 5.21950107,5.03249881 5.0065,5.2695 C4.79349894,5.50650118 4.53400153,5.66699958 4.228,5.751 C4.5880018,5.82300036 4.88499883,6.00149857 5.119,6.2865 C5.35300117,6.57150142 5.47,6.90299811 5.47,7.281 C5.47,7.77900249 5.2900018,8.18999838 4.93,8.514 C4.5699982,8.83800162 4.0600033,9 3.4,9 L0.781,9 Z M1.933,5.346 L3.139,5.346 C3.46300162,5.346 3.71199913,5.27100075 3.886,5.121 C4.06000087,4.97099925 4.147,4.75800138 4.147,4.482 C4.147,4.21799868 4.06150086,4.00950077 3.8905,3.8565 C3.71949914,3.70349923 3.46300171,3.627 3.121,3.627 L1.933,3.627 L1.933,5.346 Z M1.933,8.064 L3.22,8.064 C3.56200171,8.064 3.82749906,7.98450079 4.0165,7.8255 C4.20550094,7.66649921 4.3,7.44300144 4.3,7.155 C4.3,6.86099853 4.20100099,6.63000084 4.003,6.462 C3.80499901,6.29399916 3.53800168,6.21 3.202,6.21 L1.933,6.21 L1.933,8.064 Z M6.433,9 L6.433,2.52 L7.585,2.52 L7.585,9 L6.433,9 Z M10.906,9.108 C10.4739978,9.108 10.0855017,9.00900099 9.7405,8.811 C9.39549828,8.61299901 9.12250101,8.33850175 8.9215,7.9875 C8.720499,7.63649825 8.62,7.23000231 8.62,6.768 C8.62,6.30599769 8.72199898,5.89950175 8.926,5.5485 C9.13000102,5.19749825 9.40449828,4.92300099 9.7495,4.725 C10.0945017,4.52699901 10.4829978,4.428 10.915,4.428 C11.3410021,4.428 11.7264983,4.52699901 12.0715,4.725 C12.4165017,4.92300099 12.689499,5.19749825 12.8905,5.5485 C13.091501,5.89950175 13.192,6.30599769 13.192,6.768 C13.192,7.23000231 13.091501,7.63649825 12.8905,7.9875 C12.689499,8.33850175 12.4150017,8.61299901 12.067,8.811 C11.7189983,9.00900099 11.3320021,9.108 10.906,9.108 Z M10.906,8.109 C11.2060015,8.109 11.4669989,7.99650112 11.689,7.7715 C11.9110011,7.54649887 12.022,7.21200222 12.022,6.768 C12.022,6.32399778 11.9110011,5.98950113 11.689,5.7645 C11.4669989,5.53949887 11.2090015,5.427 10.915,5.427 C10.6089985,5.427 10.3465011,5.53949887 10.1275,5.7645 C9.90849891,5.98950113 9.799,6.32399778 9.799,6.768 C9.799,7.21200222 9.90849891,7.54649887 10.1275,7.7715 C10.3465011,7.99650112 10.6059985,8.109 10.906,8.109 Z M16.405,9.108 C15.9489977,9.108 15.5470017,9.00900099 15.199,8.811 C14.8509983,8.61299901 14.576501,8.33700177 14.3755,7.983 C14.174499,7.62899823 14.074,7.22400228 14.074,6.768 C14.074,6.31199772 14.174499,5.90700177 14.3755,5.553 C14.576501,5.19899823 14.8509983,4.92300099 15.199,4.725 C15.5470017,4.52699901 15.9489977,4.428 16.405,4.428 C16.9750029,4.428 17.4549981,4.57649851 17.845,4.8735 C18.235002,5.17050148 18.4839995,5.57999739 18.592,6.102 L17.377,6.102 C17.3169997,5.88599892 17.1985009,5.71650062 17.0215,5.5935 C16.8444991,5.47049938 16.6360012,5.409 16.396,5.409 C16.0779984,5.409 15.8080011,5.5289988 15.586,5.769 C15.3639989,6.0090012 15.253,6.34199787 15.253,6.768 C15.253,7.19400213 15.3639989,7.5269988 15.586,7.767 C15.8080011,8.0070012 16.0779984,8.127 16.396,8.127 C16.6360012,8.127 16.8444991,8.0670006 17.0215,7.947 C17.1985009,7.8269994 17.3169997,7.65600111 17.377,7.434 L18.592,7.434 C18.4839995,7.93800252 18.235002,8.34299847 17.845,8.649 C17.4549981,8.95500153 16.9750029,9.108 16.405,9.108 Z M19.618,9 L19.618,2.52 L20.77,2.52 L20.77,6.345 L22.354,4.536 L23.722,4.536 L21.895,6.57 L24.019,9 L22.579,9 L20.77,6.759 L20.77,9 L19.618,9 Z M26.359,9.108 C25.962998,9.108 25.6150015,9.04350064 25.315,8.9145 C25.0149985,8.78549936 24.7750009,8.60700114 24.595,8.379 C24.4149991,8.15099886 24.3070002,7.8870015 24.271,7.587 L25.432,7.587 C25.4680002,7.76100087 25.5654992,7.90949939 25.7245,8.0325 C25.8835008,8.15550061 26.0889987,8.217 26.341,8.217 C26.5930013,8.217 26.7774994,8.16600051 26.8945,8.064 C27.0115006,7.96199949 27.07,7.84500066 27.07,7.713 C27.07,7.52099904 26.9860008,7.39050035 26.818,7.3215 C26.6499992,7.25249966 26.4160015,7.18500033 26.116,7.119 C25.923999,7.07699979 25.729001,7.0260003 25.531,6.966 C25.332999,6.9059997 25.1515008,6.82950046 24.9865,6.7365 C24.8214992,6.64349954 24.6880005,6.52350073 24.586,6.3765 C24.4839995,6.22949926 24.433,6.04800108 24.433,5.832 C24.433,5.43599802 24.5904984,5.10300135 24.9055,4.833 C25.2205016,4.56299865 25.6629972,4.428 26.233,4.428 C26.7610026,4.428 27.1824984,4.55099877 27.4975,4.797 C27.8125016,5.04300123 27.9999997,5.38199784 28.06,5.814 L26.971,5.814 C26.9049997,5.48399835 26.6560022,5.319 26.224,5.319 C26.0079989,5.319 25.8415006,5.36099958 25.7245,5.445 C25.6074994,5.52900042 25.549,5.63399937 25.549,5.76 C25.549,5.89200066 25.6359991,5.99699961 25.81,6.075 C25.9840009,6.15300039 26.2149986,6.22499967 26.503,6.291 C26.8150016,6.36300036 27.1014987,6.44249956 27.3625,6.5295 C27.6235013,6.61650043 27.8319992,6.74549915 27.988,6.9165 C28.1440008,7.08750086 28.222,7.33199841 28.222,7.65 C28.228,7.92600138 28.1560008,8.17499889 28.006,8.397 C27.8559993,8.61900111 27.6400014,8.79299937 27.358,8.919 C27.0759986,9.04500063 26.7430019,9.108 26.359,9.108 Z M32.254,9 L30.949,4.536 L32.092,4.536 L32.866,7.749 L33.766,4.536 L35.044,4.536 L35.944,7.749 L36.727,4.536 L37.87,4.536 L36.556,9 L35.359,9 L34.405,5.661 L33.451,9 L32.254,9 Z M39.22,3.843 C39.009999,3.843 38.8375007,3.78000063 38.7025,3.654 C38.5674993,3.52799937 38.5,3.36900096 38.5,3.177 C38.5,2.98499904 38.5674993,2.82750061 38.7025,2.7045 C38.8375007,2.58149938 39.009999,2.52 39.22,2.52 C39.4300011,2.52 39.6024993,2.58149938 39.7375,2.7045 C39.8725007,2.82750061 39.94,2.98499904 39.94,3.177 C39.94,3.36900096 39.8725007,3.52799937 39.7375,3.654 C39.6024993,3.78000063 39.4300011,3.843 39.22,3.843 Z M38.644,9 L38.644,4.536 L39.796,4.536 L39.796,9 L38.644,9 Z M42.991,9 C42.5229977,9 42.1480014,8.88600114 41.866,8.658 C41.5839986,8.42999886 41.443,8.02500291 41.443,7.443 L41.443,5.499 L40.678,5.499 L40.678,4.536 L41.443,4.536 L41.578,3.339 L42.595,3.339 L42.595,4.536 L43.801,4.536 L43.801,5.499 L42.595,5.499 L42.595,7.452 C42.595,7.66800108 42.6414995,7.81649959 42.7345,7.8975 C42.8275005,7.97850041 42.9879989,8.019 43.216,8.019 L43.774,8.019 L43.774,9 L42.991,9 Z M44.791,9 L44.791,2.52 L45.943,2.52 L45.943,5.22 C46.0930008,4.97399877 46.2954987,4.7805007 46.5505,4.6395 C46.8055013,4.49849929 47.0979984,4.428 47.428,4.428 C47.9800028,4.428 48.4074985,4.60199826 48.7105,4.95 C49.0135015,5.29800174 49.165,5.80799664 49.165,6.48 L49.165,9 L48.022,9 L48.022,6.588 C48.022,6.20399808 47.9455008,5.91000102 47.7925,5.706 C47.6394992,5.50199898 47.3980017,5.4 47.068,5.4 C46.7439984,5.4 46.4755011,5.51399886 46.2625,5.742 C46.0494989,5.97000114 45.943,6.28799796 45.943,6.696 L45.943,9 L44.791,9 Z M52.405,10.98 L52.405,4.536 L53.431,4.536 L53.557,5.175 C53.7010007,4.97699901 53.8914988,4.80300075 54.1285,4.653 C54.3655012,4.50299925 54.6729981,4.428 55.051,4.428 C55.4710021,4.428 55.8459984,4.52999898 56.176,4.734 C56.5060017,4.93800102 56.766999,5.21699823 56.959,5.571 C57.151001,5.92500177 57.247,6.32699775 57.247,6.777 C57.247,7.22700225 57.151001,7.62749824 56.959,7.9785 C56.766999,8.32950175 56.5060017,8.60549899 56.176,8.8065 C55.8459984,9.007501 55.4710021,9.108 55.051,9.108 C54.7149983,9.108 54.4210013,9.04500063 54.169,8.919 C53.9169987,8.79299937 53.7130008,8.61600114 53.557,8.388 L53.557,10.98 L52.405,10.98 Z M54.808,8.1 C55.1740018,8.1 55.4769988,7.97700123 55.717,7.731 C55.9570012,7.48499877 56.077,7.16700195 56.077,6.777 C56.077,6.38699805 55.9570012,6.06600126 55.717,5.814 C55.4769988,5.56199874 55.1740018,5.436 54.808,5.436 C54.4359981,5.436 54.1315012,5.56049876 53.8945,5.8095 C53.6574988,6.05850125 53.539,6.37799805 53.539,6.768 C53.539,7.15800195 53.6574988,7.47749876 53.8945,7.7265 C54.1315012,7.97550125 54.4359981,8.1 54.808,8.1 Z M59.812,9.108 C59.4279981,9.108 59.1130012,9.04650061 58.867,8.9235 C58.6209988,8.80049939 58.4380006,8.63700102 58.318,8.433 C58.1979994,8.22899898 58.138,8.00400123 58.138,7.758 C58.138,7.34399793 58.2999984,7.00800129 58.624,6.75 C58.9480016,6.49199871 59.4339968,6.363 60.082,6.363 L61.216,6.363 L61.216,6.255 C61.216,5.94899847 61.1290009,5.72400072 60.955,5.58 C60.7809991,5.43599928 60.5650013,5.364 60.307,5.364 C60.0729988,5.364 59.8690009,5.41949944 59.695,5.5305 C59.5209991,5.64150056 59.4130002,5.80499892 59.371,6.021 L58.246,6.021 C58.2760002,5.69699838 58.3854991,5.4150012 58.5745,5.175 C58.7635009,4.9349988 59.0079985,4.75050064 59.308,4.6215 C59.6080015,4.49249935 59.9439981,4.428 60.316,4.428 C60.9520032,4.428 61.4529982,4.58699841 61.819,4.905 C62.1850018,5.22300159 62.368,5.67299709 62.368,6.255 L62.368,9 L61.387,9 L61.279,8.28 C61.1469993,8.5200012 60.9625012,8.71799922 60.7255,8.874 C60.4884988,9.03000078 60.1840019,9.108 59.812,9.108 Z M60.073,8.208 C60.4030017,8.208 60.6594991,8.10000108 60.8425,7.884 C61.0255009,7.66799892 61.1409998,7.40100159 61.189,7.083 L60.208,7.083 C59.9019985,7.083 59.6830007,7.13849944 59.551,7.2495 C59.4189993,7.36050055 59.353,7.49699919 59.353,7.659 C59.353,7.83300087 59.4189993,7.96799952 59.551,8.064 C59.6830007,8.16000048 59.8569989,8.208 60.073,8.208 Z M63.466,9 L63.466,4.536 L64.492,4.536 L64.6,5.373 C64.7620008,5.08499856 64.9824986,4.85550085 65.2615,4.6845 C65.5405014,4.51349914 65.8689981,4.428 66.247,4.428 L66.247,5.643 L65.923,5.643 C65.6709987,5.643 65.446001,5.68199961 65.248,5.76 C65.049999,5.83800039 64.8955006,5.97299904 64.7845,6.165 C64.6734994,6.35700096 64.618,6.62399829 64.618,6.966 L64.618,9 L63.466,9 Z M67.03,9 L67.03,2.52 L68.182,2.52 L68.182,6.345 L69.766,4.536 L71.134,4.536 L69.307,6.57 L71.431,9 L69.991,9 L68.182,6.759 L68.182,9 L67.03,9 Z M72.142,9 L72.142,2.52 L73.294,2.52 L73.294,9 L72.142,9 Z M76.642,9.108 C76.1919977,9.108 75.7930017,9.01200096 75.445,8.82 C75.0969983,8.62799904 74.824001,8.35800174 74.626,8.01 C74.427999,7.66199826 74.329,7.26000228 74.329,6.804 C74.329,6.34199769 74.426499,5.9310018 74.6215,5.571 C74.816501,5.2109982 75.0864983,4.930501 75.4315,4.7295 C75.7765017,4.52849899 76.1829977,4.428 76.651,4.428 C77.0890022,4.428 77.4759983,4.52399904 77.812,4.716 C78.1480017,4.90800096 78.4104991,5.17049833 78.5995,5.5035 C78.7885009,5.83650167 78.883,6.20699796 78.883,6.615 C78.883,6.68100033 78.8815,6.74999964 78.8785,6.822 C78.8755,6.89400036 78.871,6.96899961 78.865,7.047 L75.472,7.047 C75.4960001,7.39500174 75.6174989,7.66799901 75.8365,7.866 C76.0555011,8.06400099 76.3209984,8.163 76.633,8.163 C76.8670012,8.163 77.0634992,8.11050052 77.2225,8.0055 C77.3815008,7.90049948 77.4999996,7.76400084 77.578,7.596 L78.748,7.596 C78.6639996,7.87800141 78.524501,8.13449884 78.3295,8.3655 C78.134499,8.59650115 77.8945014,8.77799934 77.6095,8.91 C77.3244986,9.04200066 77.0020018,9.108 76.642,9.108 Z M76.651,5.364 C76.3689986,5.364 76.1200011,5.4434992 75.904,5.6025 C75.6879989,5.76150079 75.5500003,6.00299838 75.49,6.327 L77.713,6.327 C77.6949999,6.03299853 77.587001,5.79900087 77.389,5.625 C77.190999,5.45099913 76.9450015,5.364 76.651,5.364 Z M81.763,9 C81.2949977,9 80.9200014,8.88600114 80.638,8.658 C80.3559986,8.42999886 80.215,8.02500291 80.215,7.443 L80.215,5.499 L79.45,5.499 L79.45,4.536 L80.215,4.536 L80.35,3.339 L81.367,3.339 L81.367,4.536 L82.573,4.536 L82.573,5.499 L81.367,5.499 L81.367,7.452 C81.367,7.66800108 81.4134995,7.81649959 81.5065,7.8975 C81.5995005,7.97850041 81.7599989,8.019 81.988,8.019 L82.546,8.019 L82.546,9 L81.763,9 Z M85.408,9.108 C85.011998,9.108 84.6640015,9.04350064 84.364,8.9145 C84.0639985,8.78549936 83.8240009,8.60700114 83.644,8.379 C83.4639991,8.15099886 83.3560002,7.8870015 83.32,7.587 L84.481,7.587 C84.5170002,7.76100087 84.6144992,7.90949939 84.7735,8.0325 C84.9325008,8.15550061 85.1379987,8.217 85.39,8.217 C85.6420013,8.217 85.8264994,8.16600051 85.9435,8.064 C86.0605006,7.96199949 86.119,7.84500066 86.119,7.713 C86.119,7.52099904 86.0350008,7.39050035 85.867,7.3215 C85.6989992,7.25249966 85.4650015,7.18500033 85.165,7.119 C84.972999,7.07699979 84.778001,7.0260003 84.58,6.966 C84.381999,6.9059997 84.2005008,6.82950046 84.0355,6.7365 C83.8704992,6.64349954 83.7370005,6.52350073 83.635,6.3765 C83.5329995,6.22949926 83.482,6.04800108 83.482,5.832 C83.482,5.43599802 83.6394984,5.10300135 83.9545,4.833 C84.2695016,4.56299865 84.7119972,4.428 85.282,4.428 C85.8100026,4.428 86.2314984,4.55099877 86.5465,4.797 C86.8615016,5.04300123 87.0489997,5.38199784 87.109,5.814 L86.02,5.814 C85.9539997,5.48399835 85.7050022,5.319 85.273,5.319 C85.0569989,5.319 84.8905006,5.36099958 84.7735,5.445 C84.6564994,5.52900042 84.598,5.63399937 84.598,5.76 C84.598,5.89200066 84.6849991,5.99699961 84.859,6.075 C85.0330009,6.15300039 85.2639986,6.22499967 85.552,6.291 C85.8640016,6.36300036 86.1504987,6.44249956 86.4115,6.5295 C86.6725013,6.61650043 86.8809992,6.74549915 87.037,6.9165 C87.1930008,7.08750086 87.271,7.33199841 87.271,7.65 C87.277,7.92600138 87.2050008,8.17499889 87.055,8.397 C86.9049993,8.61900111 86.6890014,8.79299937 86.407,8.919 C86.1249986,9.04500063 85.7920019,9.108 85.408,9.108 Z" id="path-4"></path>
        <path d="M52.396,25.108 C51.7599968,25.108 51.2140023,24.9715014 50.758,24.6985 C50.3019977,24.4254986 49.9510012,24.0445024 49.705,23.5555 C49.4589988,23.0664976 49.336,22.5010032 49.336,21.859 C49.336,21.2169968 49.4589988,20.6500025 49.705,20.158 C49.9510012,19.6659975 50.3019977,19.2820014 50.758,19.006 C51.2140023,18.7299986 51.7599968,18.592 52.396,18.592 C53.1520038,18.592 53.7714976,18.7794981 54.2545,19.1545 C54.7375024,19.5295019 55.0389994,20.0559966 55.159,20.734 L53.89,20.734 C53.8119996,20.3919983 53.6455013,20.123501 53.3905,19.9285 C53.1354987,19.733499 52.7980021,19.636 52.378,19.636 C51.7959971,19.636 51.3400016,19.833998 51.01,20.23 C50.6799983,20.626002 50.515,21.1689965 50.515,21.859 C50.515,22.5490035 50.6799983,23.090498 51.01,23.4835 C51.3400016,23.876502 51.7959971,24.073 52.378,24.073 C52.7980021,24.073 53.1354987,23.9815009 53.3905,23.7985 C53.6455013,23.6154991 53.8119996,23.3620016 53.89,23.038 L55.159,23.038 C55.0389994,23.6860032 54.7375024,24.1929982 54.2545,24.559 C53.7714976,24.9250018 53.1520038,25.108 52.396,25.108 Z M56.77,19.843 C56.5599989,19.843 56.3875007,19.7800006 56.2525,19.654 C56.1174993,19.5279994 56.05,19.369001 56.05,19.177 C56.05,18.984999 56.1174993,18.8275006 56.2525,18.7045 C56.3875007,18.5814994 56.5599989,18.52 56.77,18.52 C56.980001,18.52 57.1524993,18.5814994 57.2875,18.7045 C57.4225007,18.8275006 57.49,18.984999 57.49,19.177 C57.49,19.369001 57.4225007,19.5279994 57.2875,19.654 C57.1524993,19.7800006 56.980001,19.843 56.77,19.843 Z M56.194,25 L56.194,20.536 L57.346,20.536 L57.346,25 L56.194,25 Z M60.541,25 C60.0729977,25 59.6980014,24.8860011 59.416,24.658 C59.1339986,24.4299989 58.993,24.0250029 58.993,23.443 L58.993,21.499 L58.228,21.499 L58.228,20.536 L58.993,20.536 L59.128,19.339 L60.145,19.339 L60.145,20.536 L61.351,20.536 L61.351,21.499 L60.145,21.499 L60.145,23.452 C60.145,23.6680011 60.1914995,23.8164996 60.2845,23.8975 C60.3775005,23.9785004 60.5379989,24.019 60.766,24.019 L61.324,24.019 L61.324,25 L60.541,25 Z M62.899,26.98 L63.934,24.703 L63.664,24.703 L61.927,20.536 L63.178,20.536 L64.429,23.677 L65.734,20.536 L66.958,20.536 L64.123,26.98 L62.899,26.98 Z M68.587,25 L67.282,20.536 L68.425,20.536 L69.199,23.749 L70.099,20.536 L71.377,20.536 L72.277,23.749 L73.06,20.536 L74.203,20.536 L72.889,25 L71.692,25 L70.738,21.661 L69.784,25 L68.587,25 Z M75.553,19.843 C75.3429989,19.843 75.1705007,19.7800006 75.0355,19.654 C74.9004993,19.5279994 74.833,19.369001 74.833,19.177 C74.833,18.984999 74.9004993,18.8275006 75.0355,18.7045 C75.1705007,18.5814994 75.3429989,18.52 75.553,18.52 C75.763001,18.52 75.9354993,18.5814994 76.0705,18.7045 C76.2055007,18.8275006 76.273,18.984999 76.273,19.177 C76.273,19.369001 76.2055007,19.5279994 76.0705,19.654 C75.9354993,19.7800006 75.763001,19.843 75.553,19.843 Z M74.977,25 L74.977,20.536 L76.129,20.536 L76.129,25 L74.977,25 Z M79.387,25.108 C78.9669979,25.108 78.5920016,25.006001 78.262,24.802 C77.9319983,24.597999 77.671001,24.3190018 77.479,23.965 C77.286999,23.6109982 77.191,23.2090022 77.191,22.759 C77.191,22.3089977 77.286999,21.9085018 77.479,21.5575 C77.671001,21.2064982 77.9319983,20.930501 78.262,20.7295 C78.5920016,20.528499 78.9669979,20.428 79.387,20.428 C79.7230017,20.428 80.0169987,20.4909994 80.269,20.617 C80.5210013,20.7430006 80.7249992,20.9199989 80.881,21.148 L80.881,18.52 L82.033,18.52 L82.033,25 L81.007,25 L80.881,24.361 C80.7369993,24.559001 80.5465012,24.7329992 80.3095,24.883 C80.0724988,25.0330007 79.7650019,25.108 79.387,25.108 Z M79.63,24.1 C80.0020019,24.1 80.3064988,23.9755012 80.5435,23.7265 C80.7805012,23.4774988 80.899,23.1580019 80.899,22.768 C80.899,22.3779981 80.7805012,22.0585012 80.5435,21.8095 C80.3064988,21.5604988 80.0020019,21.436 79.63,21.436 C79.2639982,21.436 78.9610012,21.5589988 78.721,21.805 C78.4809988,22.0510012 78.361,22.3689981 78.361,22.759 C78.361,23.1490019 78.4809988,23.4699987 78.721,23.722 C78.9610012,23.9740013 79.2639982,24.1 79.63,24.1 Z M85.372,25.108 C84.9219978,25.108 84.5230017,25.012001 84.175,24.82 C83.8269983,24.627999 83.554001,24.3580017 83.356,24.01 C83.157999,23.6619983 83.059,23.2600023 83.059,22.804 C83.059,22.3419977 83.156499,21.9310018 83.3515,21.571 C83.546501,21.2109982 83.8164983,20.930501 84.1615,20.7295 C84.5065017,20.528499 84.9129977,20.428 85.381,20.428 C85.8190022,20.428 86.2059983,20.523999 86.542,20.716 C86.8780017,20.908001 87.1404991,21.1704983 87.3295,21.5035 C87.5185009,21.8365017 87.613,22.206998 87.613,22.615 C87.613,22.6810003 87.6115,22.7499996 87.6085,22.822 C87.6055,22.8940004 87.601,22.9689996 87.595,23.047 L84.202,23.047 C84.2260001,23.3950017 84.3474989,23.667999 84.5665,23.866 C84.7855011,24.064001 85.0509984,24.163 85.363,24.163 C85.5970012,24.163 85.7934992,24.1105005 85.9525,24.0055 C86.1115008,23.9004995 86.2299996,23.7640008 86.308,23.596 L87.478,23.596 C87.3939996,23.8780014 87.254501,24.1344988 87.0595,24.3655 C86.864499,24.5965012 86.6245014,24.7779993 86.3395,24.91 C86.0544986,25.0420007 85.7320018,25.108 85.372,25.108 Z M85.381,21.364 C85.0989986,21.364 84.8500011,21.4434992 84.634,21.6025 C84.4179989,21.7615008 84.2800003,22.0029984 84.22,22.327 L86.443,22.327 C86.4249999,22.0329985 86.317001,21.7990009 86.119,21.625 C85.920999,21.4509991 85.6750015,21.364 85.381,21.364 Z" id="path-5"></path>
        <path d="M1.908,5.796 C1.61999856,5.796 1.35900117,5.73150064 1.125,5.6025 C0.89099883,5.47349935 0.70500069,5.2890012 0.567,5.049 C0.42899931,4.8089988 0.36,4.52400165 0.36,4.194 C0.36,3.86399835 0.42899931,3.5790012 0.567,3.339 C0.70500069,3.0989988 0.89099883,2.91450064 1.125,2.7855 C1.35900117,2.65649935 1.62299853,2.592 1.917,2.592 C2.20500144,2.592 2.46449885,2.65649935 2.6955,2.7855 C2.92650116,2.91450064 3.11099931,3.0989988 3.249,3.339 C3.38700069,3.5790012 3.456,3.86399835 3.456,4.194 C3.456,4.52400165 3.38700069,4.8089988 3.249,5.049 C3.11099931,5.2890012 2.92500117,5.47349935 2.691,5.6025 C2.45699883,5.73150064 2.19600144,5.796 1.908,5.796 Z M1.566,9 L5.121,2.7 L6.246,2.7 L2.691,9 L1.566,9 Z M1.908,4.995 C2.08200087,4.995 2.23199937,4.92750067 2.358,4.7925 C2.48400063,4.65749932 2.547,4.45800132 2.547,4.194 C2.547,3.92999868 2.48550062,3.72900069 2.3625,3.591 C2.23949939,3.45299931 2.0880009,3.384 1.908,3.384 C1.7279991,3.384 1.57650061,3.45299931 1.4535,3.591 C1.33049938,3.72900069 1.269,3.92999868 1.269,4.194 C1.269,4.45800132 1.33049938,4.65749932 1.4535,4.7925 C1.57650061,4.92750067 1.7279991,4.995 1.908,4.995 Z M5.94,9.108 C5.65199856,9.108 5.39100117,9.04350064 5.157,8.9145 C4.92299883,8.78549936 4.73700069,8.6010012 4.599,8.361 C4.46099931,8.1209988 4.392,7.83600165 4.392,7.506 C4.392,7.17599835 4.46099931,6.89250118 4.599,6.6555 C4.73700069,6.41849882 4.92299883,6.23550065 5.157,6.1065 C5.39100117,5.97749935 5.65499853,5.913 5.949,5.913 C6.23700144,5.913 6.49649885,5.97749935 6.7275,6.1065 C6.95850116,6.23550065 7.14299931,6.41849882 7.281,6.6555 C7.41900069,6.89250118 7.488,7.17599835 7.488,7.506 C7.488,7.83600165 7.41900069,8.1209988 7.281,8.361 C7.14299931,8.6010012 6.95850116,8.78549936 6.7275,8.9145 C6.49649885,9.04350064 6.23400147,9.108 5.94,9.108 Z M5.94,8.307 C6.1200009,8.307 6.27149939,8.23950068 6.3945,8.1045 C6.51750062,7.96949933 6.579,7.77000132 6.579,7.506 C6.579,7.24199868 6.51750062,7.04100069 6.3945,6.903 C6.27149939,6.76499931 6.1200009,6.696 5.94,6.696 C5.7599991,6.696 5.60850062,6.76499931 5.4855,6.903 C5.36249939,7.04100069 5.301,7.24199868 5.301,7.506 C5.301,7.77000132 5.36249939,7.96949933 5.4855,8.1045 C5.60850062,8.23950068 5.7599991,8.307 5.94,8.307 Z M13.455,9.108 C12.8189968,9.108 12.2730023,8.97150136 11.817,8.6985 C11.3609977,8.42549864 11.0100012,8.04450244 10.764,7.5555 C10.5179988,7.06649755 10.395,6.50100321 10.395,5.859 C10.395,5.21699679 10.5179988,4.65000246 10.764,4.158 C11.0100012,3.66599754 11.3609977,3.28200138 11.817,3.006 C12.2730023,2.72999862 12.8189968,2.592 13.455,2.592 C14.2110038,2.592 14.8304976,2.77949812 15.3135,3.1545 C15.7965024,3.52950187 16.0979994,4.05599661 16.218,4.734 L14.949,4.734 C14.8709996,4.39199829 14.7045013,4.12350097 14.4495,3.9285 C14.1944987,3.73349902 13.8570021,3.636 13.437,3.636 C12.8549971,3.636 12.3990017,3.83399802 12.069,4.23 C11.7389984,4.62600198 11.574,5.16899655 11.574,5.859 C11.574,6.54900345 11.7389984,7.09049803 12.069,7.4835 C12.3990017,7.87650197 12.8549971,8.073 13.437,8.073 C13.8570021,8.073 14.1944987,7.98150091 14.4495,7.7985 C14.7045013,7.61549908 14.8709996,7.36200162 14.949,7.038 L16.218,7.038 C16.0979994,7.68600324 15.7965024,8.19299817 15.3135,8.559 C14.8304976,8.92500183 14.2110038,9.108 13.455,9.108 Z M17.208,9 L17.208,2.52 L18.36,2.52 L18.36,5.22 C18.5100008,4.97399877 18.7124987,4.7805007 18.9675,4.6395 C19.2225013,4.49849929 19.5149984,4.428 19.845,4.428 C20.3970028,4.428 20.8244985,4.60199826 21.1275,4.95 C21.4305015,5.29800174 21.582,5.80799664 21.582,6.48 L21.582,9 L20.439,9 L20.439,6.588 C20.439,6.20399808 20.3625008,5.91000102 20.2095,5.706 C20.0564992,5.50199898 19.8150017,5.4 19.485,5.4 C19.1609984,5.4 18.8925011,5.51399886 18.6795,5.742 C18.4664989,5.97000114 18.36,6.28799796 18.36,6.696 L18.36,9 L17.208,9 Z M24.219,9.108 C23.8349981,9.108 23.5200012,9.04650061 23.274,8.9235 C23.0279988,8.80049939 22.8450006,8.63700102 22.725,8.433 C22.6049994,8.22899898 22.545,8.00400123 22.545,7.758 C22.545,7.34399793 22.7069984,7.00800129 23.031,6.75 C23.3550016,6.49199871 23.8409968,6.363 24.489,6.363 L25.623,6.363 L25.623,6.255 C25.623,5.94899847 25.5360009,5.72400072 25.362,5.58 C25.1879991,5.43599928 24.9720013,5.364 24.714,5.364 C24.4799988,5.364 24.2760009,5.41949944 24.102,5.5305 C23.9279991,5.64150056 23.8200002,5.80499892 23.778,6.021 L22.653,6.021 C22.6830002,5.69699838 22.7924991,5.4150012 22.9815,5.175 C23.1705009,4.9349988 23.4149985,4.75050064 23.715,4.6215 C24.0150015,4.49249935 24.3509981,4.428 24.723,4.428 C25.3590032,4.428 25.8599982,4.58699841 26.226,4.905 C26.5920018,5.22300159 26.775,5.67299709 26.775,6.255 L26.775,9 L25.794,9 L25.686,8.28 C25.5539993,8.5200012 25.3695012,8.71799922 25.1325,8.874 C24.8954988,9.03000078 24.5910019,9.108 24.219,9.108 Z M24.48,8.208 C24.8100017,8.208 25.0664991,8.10000108 25.2495,7.884 C25.4325009,7.66799892 25.5479998,7.40100159 25.596,7.083 L24.615,7.083 C24.3089985,7.083 24.0900007,7.13849944 23.958,7.2495 C23.8259993,7.36050055 23.76,7.49699919 23.76,7.659 C23.76,7.83300087 23.8259993,7.96799952 23.958,8.064 C24.0900007,8.16000048 24.2639989,8.208 24.48,8.208 Z M27.873,9 L27.873,4.536 L28.89,4.536 L28.98,5.292 C29.1180007,5.02799868 29.3174987,4.81800078 29.5785,4.662 C29.8395013,4.50599922 30.1469982,4.428 30.501,4.428 C31.0530028,4.428 31.4819985,4.60199826 31.788,4.95 C32.0940015,5.29800174 32.247,5.80799664 32.247,6.48 L32.247,9 L31.095,9 L31.095,6.588 C31.095,6.20399808 31.0170008,5.91000102 30.861,5.706 C30.7049992,5.50199898 30.4620017,5.4 30.132,5.4 C29.8079984,5.4 29.542501,5.51399886 29.3355,5.742 C29.128499,5.97000114 29.025,6.28799796 29.025,6.696 L29.025,9 L27.873,9 Z M35.235,7.668 C35.0189989,7.668 34.8180009,7.64400024 34.632,7.596 L34.299,7.929 C34.4010005,7.98300027 34.5389991,8.02799982 34.713,8.064 C34.8870009,8.10000018 35.1689981,8.13599982 35.559,8.172 C36.153003,8.22600027 36.5849987,8.36699886 36.855,8.595 C37.1250014,8.82300114 37.26,9.13799799 37.26,9.54 C37.26,9.80400132 37.1880007,10.0544988 37.044,10.2915 C36.8999993,10.5285012 36.6780015,10.7204993 36.378,10.8675 C36.0779985,11.0145007 35.6940023,11.088 35.226,11.088 C34.5899968,11.088 34.077002,10.9695012 33.687,10.7325 C33.296998,10.4954988 33.102,10.1400024 33.102,9.666 C33.102,9.26399799 33.296998,8.91600147 33.687,8.622 C33.5669994,8.56799973 33.4635004,8.5110003 33.3765,8.451 C33.2894996,8.3909997 33.2130003,8.32800033 33.147,8.262 L33.147,8.055 L33.93,7.227 C33.5819983,6.92099847 33.408,6.5280024 33.408,6.048 C33.408,5.7479985 33.4814993,5.47500123 33.6285,5.229 C33.7755007,4.98299877 33.9839987,4.78800072 34.254,4.644 C34.5240014,4.49999928 34.8509981,4.428 35.235,4.428 C35.4870013,4.428 35.7209989,4.46399964 35.937,4.536 L37.629,4.536 L37.629,5.238 L36.864,5.292 C36.9840006,5.52000114 37.044,5.77199862 37.044,6.048 C37.044,6.3480015 36.9720007,6.62099877 36.828,6.867 C36.6839993,7.11300123 36.4755014,7.30799928 36.2025,7.452 C35.9294986,7.59600072 35.6070019,7.668 35.235,7.668 Z M35.235,6.786 C35.4690012,6.786 35.6624992,6.72300063 35.8155,6.597 C35.9685008,6.47099937 36.045,6.29100117 36.045,6.057 C36.045,5.82299883 35.9685008,5.64300063 35.8155,5.517 C35.6624992,5.39099937 35.4690012,5.328 35.235,5.328 C34.9889988,5.328 34.7910008,5.39099937 34.641,5.517 C34.4909993,5.64300063 34.416,5.82299883 34.416,6.057 C34.416,6.29100117 34.4909993,6.47099937 34.641,6.597 C34.7910008,6.72300063 34.9889988,6.786 35.235,6.786 Z M34.155,9.549 C34.155,9.77100111 34.258499,9.93749945 34.4655,10.0485 C34.672501,10.1595006 34.9259985,10.215 35.226,10.215 C35.5140014,10.215 35.7479991,10.1565006 35.928,10.0395 C36.1080009,9.92249942 36.198,9.76500099 36.198,9.567 C36.198,9.40499919 36.1395006,9.27000054 36.0225,9.162 C35.9054994,9.05399946 35.6730017,8.98800012 35.325,8.964 C35.0789988,8.94599991 34.851001,8.91900018 34.641,8.883 C34.4669991,8.97900048 34.3425004,9.08399943 34.2675,9.198 C34.1924996,9.31200057 34.155,9.4289994 34.155,9.549 Z M40.455,9.108 C40.0049978,9.108 39.6060017,9.01200096 39.258,8.82 C38.9099983,8.62799904 38.637001,8.35800174 38.439,8.01 C38.240999,7.66199826 38.142,7.26000228 38.142,6.804 C38.142,6.34199769 38.239499,5.9310018 38.4345,5.571 C38.629501,5.2109982 38.8994983,4.930501 39.2445,4.7295 C39.5895017,4.52849899 39.9959977,4.428 40.464,4.428 C40.9020022,4.428 41.2889983,4.52399904 41.625,4.716 C41.9610017,4.90800096 42.2234991,5.17049833 42.4125,5.5035 C42.6015009,5.83650167 42.696,6.20699796 42.696,6.615 C42.696,6.68100033 42.6945,6.74999964 42.6915,6.822 C42.6885,6.89400036 42.684,6.96899961 42.678,7.047 L39.285,7.047 C39.3090001,7.39500174 39.4304989,7.66799901 39.6495,7.866 C39.8685011,8.06400099 40.1339984,8.163 40.446,8.163 C40.6800012,8.163 40.8764992,8.11050052 41.0355,8.0055 C41.1945008,7.90049948 41.3129996,7.76400084 41.391,7.596 L42.561,7.596 C42.4769996,7.87800141 42.337501,8.13449884 42.1425,8.3655 C41.947499,8.59650115 41.7075014,8.77799934 41.4225,8.91 C41.1374986,9.04200066 40.8150018,9.108 40.455,9.108 Z M40.464,5.364 C40.1819986,5.364 39.9330011,5.4434992 39.717,5.6025 C39.5009989,5.76150079 39.3630003,6.00299838 39.303,6.327 L41.526,6.327 C41.5079999,6.03299853 41.400001,5.79900087 41.202,5.625 C41.003999,5.45099913 40.7580015,5.364 40.464,5.364 Z" id="path-6"></path>
        <path d="M0.693,20.195 L0.693,19.414 L2.794,19.414 L2.794,17.412 L3.619,17.412 L3.619,19.414 L5.72,19.414 L5.72,20.195 L3.619,20.195 L3.619,22.208 L2.794,22.208 L2.794,20.195 L0.693,20.195 Z M9.768,23.132 C9.26199747,23.132 8.80733535,23.0385009 8.404,22.8515 C8.00066465,22.6644991 7.68350115,22.4041683 7.4525,22.0705 C7.22149884,21.7368317 7.106,21.3500022 7.106,20.91 C7.106,20.4406643 7.24349862,20.0190019 7.5185,19.645 C7.79350137,19.2709981 8.15833106,19.0216673 8.613,18.897 C8.19499791,18.757666 7.87233447,18.5340015 7.645,18.226 C7.41766553,17.9179985 7.304,17.5806685 7.304,17.214 C7.304,16.8399981 7.40299901,16.4971682 7.601,16.1855 C7.79900099,15.8738318 8.0813315,15.6263343 8.448,15.443 C8.8146685,15.2596657 9.2546641,15.168 9.768,15.168 C10.2813359,15.168 10.7213315,15.2596657 11.088,15.443 C11.4546685,15.6263343 11.736999,15.8738318 11.935,16.1855 C12.133001,16.4971682 12.232,16.8399981 12.232,17.214 C12.232,17.5733351 12.1183345,17.9088318 11.891,18.2205 C11.6636655,18.5321682 11.3410021,18.757666 10.923,18.897 C11.3776689,19.0216673 11.7424986,19.2709981 12.0175,19.645 C12.2925014,20.0190019 12.43,20.4406643 12.43,20.91 C12.43,21.3500022 12.3145012,21.7368317 12.0835,22.0705 C11.8524988,22.4041683 11.5353353,22.6644991 11.132,22.8515 C10.7286647,23.0385009 10.2740025,23.132 9.768,23.132 Z M9.768,18.567 C10.2373357,18.567 10.6094986,18.4478345 10.8845,18.2095 C11.1595014,17.9711655 11.297,17.6576686 11.297,17.269 C11.297,16.8363312 11.1613347,16.5100011 10.89,16.29 C10.6186653,16.0699989 10.2446691,15.96 9.768,15.96 C9.29133095,15.96 8.91916801,16.0699989 8.6515,16.29 C8.383832,16.5100011 8.25,16.8363312 8.25,17.269 C8.25,17.6576686 8.38566531,17.9711655 8.657,18.2095 C8.92833469,18.4478345 9.29866432,18.567 9.768,18.567 Z M9.768,22.318 C10.3473362,22.318 10.7818319,22.184168 11.0715,21.9165 C11.3611681,21.648832 11.506,21.2950022 11.506,20.855 C11.506,20.3563308 11.3483349,19.978668 11.033,19.722 C10.7176651,19.4653321 10.2960026,19.337 9.768,19.337 C9.23999736,19.337 8.81833491,19.4653321 8.503,19.722 C8.18766509,19.978668 8.03,20.3563308 8.03,20.855 C8.03,21.2950022 8.17483188,21.648832 8.4645,21.9165 C8.75416811,22.184168 9.18866377,22.318 9.768,22.318 Z M15.323,18.875 C14.9929984,18.875 14.694168,18.7998341 14.4265,18.6495 C14.158832,18.4991659 13.9480008,18.2865014 13.794,18.0115 C13.6399992,17.7364986 13.563,17.4083352 13.563,17.027 C13.563,16.6456648 13.6418325,16.3175014 13.7995,16.0425 C13.9571675,15.7674986 14.169832,15.5548341 14.4375,15.4045 C14.705168,15.2541659 15.0039984,15.179 15.334,15.179 C15.6640017,15.179 15.9609987,15.2541659 16.225,15.4045 C16.4890013,15.5548341 16.6979992,15.7674986 16.852,16.0425 C17.0060008,16.3175014 17.083,16.6456648 17.083,17.027 C17.083,17.4083352 17.0041675,17.7364986 16.8465,18.0115 C16.6888325,18.2865014 16.4780013,18.4991659 16.214,18.6495 C15.9499987,18.7998341 15.6530017,18.875 15.323,18.875 Z M14.641,23 L19.118,15.3 L20.042,15.3 L15.565,23 L14.641,23 Z M15.323,18.16 C15.5796679,18.16 15.8051657,18.0646676 15.9995,17.874 C16.1938343,17.6833324 16.291,17.4010019 16.291,17.027 C16.291,16.6456648 16.1956676,16.3578343 16.005,16.1635 C15.8143324,15.9691657 15.590668,15.872 15.334,15.872 C15.077332,15.872 14.8481677,15.9691657 14.6465,16.1635 C14.4448323,16.3578343 14.344,16.6456648 14.344,17.027 C14.344,17.4010019 14.442999,17.6833324 14.641,17.874 C14.839001,18.0646676 15.066332,18.16 15.323,18.16 Z M19.437,23.132 C19.1069983,23.132 18.808168,23.0568341 18.5405,22.9065 C18.272832,22.7561659 18.0620008,22.5435014 17.908,22.2685 C17.7539992,21.9934986 17.677,21.6653352 17.677,21.284 C17.677,20.9026648 17.7558325,20.5745014 17.9135,20.2995 C18.0711675,20.0244986 18.2819987,19.8118341 18.546,19.6615 C18.8100013,19.5111659 19.1069983,19.436 19.437,19.436 C19.7670016,19.436 20.0639987,19.5111659 20.328,19.6615 C20.5920013,19.8118341 20.8009992,20.0244986 20.955,20.2995 C21.1090008,20.5745014 21.186,20.9026648 21.186,21.284 C21.186,21.6653352 21.1090008,21.9934986 20.955,22.2685 C20.8009992,22.5435014 20.5920013,22.7561659 20.328,22.9065 C20.0639987,23.0568341 19.7670016,23.132 19.437,23.132 Z M19.426,22.417 C19.6900013,22.417 19.9191657,22.3216676 20.1135,22.131 C20.3078343,21.9403324 20.405,21.6580019 20.405,21.284 C20.405,20.9026648 20.3096676,20.6166676 20.119,20.426 C19.9283324,20.2353324 19.7010013,20.14 19.437,20.14 C19.180332,20.14 18.953001,20.2353324 18.755,20.426 C18.556999,20.6166676 18.458,20.9026648 18.458,21.284 C18.458,21.6580019 18.5551657,21.9403324 18.7495,22.131 C18.9438343,22.3216676 19.169332,22.417 19.426,22.417 Z" id="path-7"></path>
        <path d="M0.693,36.195 L0.693,35.414 L2.794,35.414 L2.794,33.412 L3.619,33.412 L3.619,35.414 L5.72,35.414 L5.72,36.195 L3.619,36.195 L3.619,38.208 L2.794,38.208 L2.794,36.195 L0.693,36.195 Z M9.999,39.132 C9.44166388,39.132 8.97233524,39.027501 8.591,38.8185 C8.20966476,38.609499 7.90350115,38.3290018 7.6725,37.977 C7.44149884,37.6249982 7.27283386,37.2308355 7.1665,36.7945 C7.06016613,36.3581645 7.007,35.9126689 7.007,35.458 C7.007,34.6073291 7.12433216,33.8611699 7.359,33.2195 C7.59366784,32.5778301 7.93283111,32.0755018 8.3765,31.7125 C8.82016888,31.3494982 9.35733018,31.168 9.988,31.168 C10.4720024,31.168 10.8863316,31.2633324 11.231,31.454 C11.5756684,31.6446676 11.8488323,31.8994984 12.0505,32.2185 C12.2521677,32.5375016 12.3786664,32.8913314 12.43,33.28 L11.572,33.28 C11.4913329,32.8619979 11.3116681,32.5393345 11.033,32.312 C10.7543319,32.0846655 10.4023355,31.971 9.977,31.971 C9.39766377,31.971 8.9118353,32.2441639 8.5195,32.7905 C8.12716471,33.3368361 7.91633348,34.1893275 7.887,35.348 C8.06300088,35.0033316 8.34349808,34.7045013 8.7285,34.4515 C9.11350192,34.1984987 9.57733062,34.072 10.12,34.072 C10.5600022,34.072 10.9724981,34.1746656 11.3575,34.38 C11.7425019,34.5853344 12.0559988,34.8731648 12.298,35.2435 C12.5400012,35.6138352 12.661,36.0483308 12.661,36.547 C12.661,36.9796688 12.5546677,37.393998 12.342,37.79 C12.1293323,38.186002 11.8231687,38.5086654 11.4235,38.758 C11.0238313,39.0073346 10.5490027,39.132 9.999,39.132 Z M9.933,38.318 C10.2776684,38.318 10.5856653,38.2446674 10.857,38.098 C11.1283347,37.9513326 11.3409992,37.7478346 11.495,37.4875 C11.6490008,37.2271654 11.726,36.928335 11.726,36.591 C11.726,36.0703307 11.5555017,35.6541682 11.2145,35.3425 C10.8734983,35.0308318 10.4463359,34.875 9.933,34.875 C9.58833161,34.875 9.28033469,34.9538325 9.009,35.1115 C8.73766531,35.2691675 8.52316746,35.4799987 8.3655,35.744 C8.20783255,36.0080013 8.129,36.2939985 8.129,36.602 C8.129,36.9320017 8.20783255,37.2271654 8.3655,37.4875 C8.52316746,37.7478346 8.73766531,37.9513326 9.009,38.098 C9.28033469,38.2446674 9.58833161,38.318 9.933,38.318 Z M15.356,34.875 C15.0259983,34.875 14.727168,34.7998341 14.4595,34.6495 C14.191832,34.4991659 13.9810008,34.2865014 13.827,34.0115 C13.6729992,33.7364986 13.596,33.4083352 13.596,33.027 C13.596,32.6456648 13.6748325,32.3175014 13.8325,32.0425 C13.9901675,31.7674986 14.202832,31.5548341 14.4705,31.4045 C14.738168,31.2541659 15.0369983,31.179 15.367,31.179 C15.6970016,31.179 15.9939987,31.2541659 16.258,31.4045 C16.5220013,31.5548341 16.7309992,31.7674986 16.885,32.0425 C17.0390008,32.3175014 17.116,32.6456648 17.116,33.027 C17.116,33.4083352 17.0371675,33.7364986 16.8795,34.0115 C16.7218325,34.2865014 16.5110013,34.4991659 16.247,34.6495 C15.9829987,34.7998341 15.6860016,34.875 15.356,34.875 Z M14.674,39 L19.151,31.3 L20.075,31.3 L15.598,39 L14.674,39 Z M15.356,34.16 C15.6126679,34.16 15.8381657,34.0646676 16.0325,33.874 C16.2268343,33.6833324 16.324,33.4010019 16.324,33.027 C16.324,32.6456648 16.2286676,32.3578343 16.038,32.1635 C15.8473324,31.9691657 15.6236679,31.872 15.367,31.872 C15.1103321,31.872 14.8811677,31.9691657 14.6795,32.1635 C14.4778323,32.3578343 14.377,32.6456648 14.377,33.027 C14.377,33.4010019 14.475999,33.6833324 14.674,33.874 C14.872001,34.0646676 15.099332,34.16 15.356,34.16 Z M19.47,39.132 C19.1399983,39.132 18.841168,39.0568341 18.5735,38.9065 C18.305832,38.7561659 18.0950008,38.5435014 17.941,38.2685 C17.7869992,37.9934986 17.71,37.6653352 17.71,37.284 C17.71,36.9026648 17.7888325,36.5745014 17.9465,36.2995 C18.1041675,36.0244986 18.3149987,35.8118341 18.579,35.6615 C18.8430013,35.5111659 19.1399983,35.436 19.47,35.436 C19.8000016,35.436 20.0969987,35.5111659 20.361,35.6615 C20.6250013,35.8118341 20.8339992,36.0244986 20.988,36.2995 C21.1420008,36.5745014 21.219,36.9026648 21.219,37.284 C21.219,37.6653352 21.1420008,37.9934986 20.988,38.2685 C20.8339992,38.5435014 20.6250013,38.7561659 20.361,38.9065 C20.0969987,39.0568341 19.8000016,39.132 19.47,39.132 Z M19.459,38.417 C19.7230013,38.417 19.9521657,38.3216676 20.1465,38.131 C20.3408343,37.9403324 20.438,37.6580019 20.438,37.284 C20.438,36.9026648 20.3426676,36.6166676 20.152,36.426 C19.9613324,36.2353324 19.7340013,36.14 19.47,36.14 C19.213332,36.14 18.986001,36.2353324 18.788,36.426 C18.589999,36.6166676 18.491,36.9026648 18.491,37.284 C18.491,37.6580019 18.5881657,37.9403324 18.7825,38.131 C18.9768343,38.3216676 19.202332,38.417 19.459,38.417 Z" id="path-8"></path>
    </defs>
    <g id="Page-1" stroke="none" stroke-width="1" fill="none" fill-rule="evenodd">
        <g id="land_2016" transform="translate(0.000000, -2.000000)" fill-rule="nonzero">
            <g id="Price/sqft-$137.27-$" transform="translate(103.000000, 0.000000)">
                <g id="Price/sqft">
                    <use fill="#000000" xlink:href="#path-1"></use>
                    <use fill="#979797" xlink:href="#path-1"></use>
                </g>
                <g id="$137.27">
                    <use fill="#000000" xlink:href="#path-2"></use>
                    <use fill="#979797" xlink:href="#path-2"></use>
                </g>
                <g id="$165.29">
                    <use fill="#000000" xlink:href="#path-3"></use>
                    <use fill="#979797" xlink:href="#path-3"></use>
                </g>
            </g>
            <g id="Blocks-with-parklets" transform="translate(0.000000, 15.000000)">
                <g id="Blockswithparklets">
                    <use fill="#000000" xlink:href="#path-4"></use>
                    <use fill="#979797" xlink:href="#path-4"></use>
                </g>
                <g id="Citywide">
                    <use fill="#000000" xlink:href="#path-5"></use>
                    <use fill="#979797" xlink:href="#path-5"></use>
                </g>
            </g>
            <g id="%-Change-+8%-+6%" transform="translate(170.000000, 0.000000)">
                <g id="%Change">
                    <use fill="#000000" xlink:href="#path-6"></use>
                    <use fill="#979797" xlink:href="#path-6"></use>
                </g>
                <g id="+8%">
                    <use fill="#000000" xlink:href="#path-7"></use>
                    <use fill="#979797" xlink:href="#path-7"></use>
                </g>
                <g id="+6%">
                    <use fill="#000000" xlink:href="#path-8"></use>
                    <use fill="#979797" xlink:href="#path-8"></use>
                </g>
            </g>
        </g>
    </g>
</svg>