<?xml version="1.0" encoding="UTF-8"?>
<svg width="56px" height="12px" viewBox="0 0 56 12" version="1.1" xmlns="http://www.w3.org/2000/svg" xmlns:xlink="http://www.w3.org/1999/xlink">
    <!-- Generator: Sketch 56.3 (81716) - https://sketch.com -->
    <title>openbox</title>
    <desc>Created with Sketch.</desc>
    <g id="Page-1" stroke="none" stroke-width="1" fill="none" fill-rule="evenodd">
        <g id="Group-2" transform="translate(-60.000000, 0.000000)">
            <g id="openbox" transform="translate(60.000000, 0.000000)">
                <g id="Group-3" transform="translate(0.000000, 2.181818)">
                    <g id="Fill-1-Clipped">
                        <polygon id="path-1" points="0.00885629865 3.69019824 0.00885629865 0.133005504 7.43943847 0.133005504 7.43943847 3.69019824"></polygon>
                        <path d="M1.59428136,3.69019824 C1.59413376,3.6880848 1.59383855,3.68611226 1.59383855,3.68399883 C1.59383855,2.55542459 2.5768877,1.65481953 3.74606673,1.65481953 C4.91701702,1.65481953 5.82611607,2.60037031 5.84368105,3.69019824 L7.43899567,3.69019824 C7.43899567,3.6880848 7.43943847,3.68611226 7.43943847,3.68399883 C7.43943847,1.75626441 5.79201931,0.133005504 3.74606673,0.133005504 C1.68904376,0.133005504 0.00354251946,1.71498198 0,3.69019824 L1.59428136,3.69019824" id="Fill-1" fill="#FCF5E9" fill-rule="nonzero"></path>
                    </g>
                </g>
                <path d="M14.1302423,5.85536228 C14.1302423,4.693132 13.2057456,3.67783163 12.0134708,3.67783163 C10.8076508,3.67783163 9.81617237,4.61284001 9.81617237,5.84185662 C9.81617237,7.03080141 10.7807093,7.99252433 11.9732818,7.99252433 C13.1521602,7.99252433 14.1302423,7.03080141 14.1302423,5.85536228 Z M8.18181818,2.25454106 L9.82956871,2.26181335 L9.82956871,3.38382342 C10.3521751,2.56903039 11.2095412,2.18181818 12.1742269,2.18181818 C14.197224,2.18181818 15.8181818,3.83811879 15.8181818,5.85536228 C15.8181818,7.80552267 14.237413,9.50204343 12.254605,9.50204343 C11.316712,9.50204343 10.4057604,9.14124895 9.82956871,8.39324223 L9.82867561,12 L8.18315781,12 L8.18181818,2.25454106 Z" id="Fill-4" fill="#FCF5E9" fill-rule="nonzero"></path>
                <path d="M22.4395264,5.36377426 C22.1495553,4.32117331 21.2106016,3.65764532 20.1197582,3.65764532 C19.1254185,3.65764532 18.1725032,4.41609199 17.965381,5.36377426 L22.4395264,5.36377426 Z M23.7236837,7.50297899 C23.1438951,8.88403786 21.7768889,9.81818182 20.2438781,9.81818182 C18.0898077,9.81818182 16.3636364,8.16650698 16.3636364,6.04084059 C16.3636364,3.90148544 18.0068054,2.18181818 20.2024537,2.18181818 C21.2242563,2.18181818 22.2462123,2.62888354 22.9643892,3.34626398 C23.6962208,4.10471064 24,5.0253163 24,6.05422848 L23.9449209,6.6365266 L17.9791891,6.6365266 C18.199966,7.63836217 19.1389198,8.36943135 20.1886455,8.36943135 C20.9204771,8.36943135 21.5556517,8.09851457 21.9702029,7.50297899 L23.7236837,7.50297899 Z" id="Fill-5" fill="#FCF5E9" fill-rule="nonzero"></path>
                <path d="M24.5490961,2.34010255 L26.2153883,2.33764965 L26.2153883,3.32472659 C26.652369,2.55855519 27.4718595,2.18181818 28.3731321,2.18181818 C29.1653113,2.18181818 29.9438348,2.49348112 30.476405,3.03903556 C31.0774052,3.67534741 31.0909091,4.28568733 31.0909091,5.07797491 L31.0909091,9.27272727 L29.4264376,9.27272727 L29.4246168,5.54532506 C29.4246168,5.1167885 29.4246168,4.67526599 29.138,4.29881756 C28.8372723,3.92208057 28.3459725,3.74027716 27.8539141,3.74027716 C27.3488069,3.74027716 26.8297407,3.93492223 26.5294682,4.32450092 C26.2153883,4.71422386 26.2153883,5.31157784 26.2153883,5.77921656 L26.2153883,7.79232831 L26.2167539,9.27272727 L24.5454545,9.27272727 L24.5490961,7.79232831 L24.5490961,2.34010255" id="Fill-6" fill="#FCF5E9" fill-rule="nonzero"></path>
                <path d="M33.7732933,6.03776256 C33.7732933,7.30248519 34.7650033,8.28150833 36.0144886,8.28150833 C37.2374114,8.28150833 38.1744876,7.2344975 38.1744876,6.05136013 C38.1744876,4.84102765 37.1829288,3.84840699 35.9737396,3.84840699 C34.7650033,3.84840699 33.7732933,4.8275812 33.7732933,6.03776256 Z M33.8410574,3.49487085 C34.3575133,2.73325733 35.1587595,2.33877748 36.0825545,2.33877748 C38.1338898,2.33877748 39.8181818,4.02502397 39.8181818,6.07855519 C39.8181818,7.01693681 39.4786071,7.94156974 38.8402059,8.63504448 C38.2016538,9.3422678 37.2236776,9.81818182 36.2727166,9.81818182 C35.3081725,9.81818182 34.3982623,9.41025553 33.8410574,8.62144691 L33.8410574,9.70940149 L32.18212,9.70940149 L32.1839311,8.15928155 L32.1818182,0 L33.8410574,0 L33.8410574,3.49487085 Z" id="Fill-7" fill="#FCF5E9" fill-rule="nonzero"></path>
                <path d="M42.0000866,6 C42.0000866,5.99788248 41.9997836,5.99576496 41.9997836,5.99379869 C41.9997836,4.7822777 43.0088347,3.8154809 44.20909,3.8154809 C45.4107088,3.8154809 46.3438538,4.83022427 46.3618831,6 L47.9996969,6 C47.9996969,5.99788248 48,5.99591621 48,5.99379869 C48,3.92438169 46.3091579,2.18181818 44.20909,2.18181818 C42.0976588,2.18181818 40.3677272,3.87961135 40.3636364,6 L42.0000866,6" id="Fill-8" fill="#FCF5E9" fill-rule="nonzero"></path>
                <polyline id="Fill-9" fill="#FCF5E9" fill-rule="nonzero" points="55.0909091 2.18181818 53.2505356 2.18181818 51.5454545 4.48474514 49.8402225 2.18181818 48 2.18181818 50.6253435 5.72734646 48 9.27272727 49.8402225 9.27272727 51.5454545 6.96994781 53.2505356 9.27272727 55.0909091 9.27272727 52.4655656 5.72734646 55.0909091 2.18181818"></polyline>
            </g>
        </g>
    </g>
</svg>