<?xml version="1.0" encoding="UTF-8"?>
<svg width="928px" height="547px" viewBox="0 0 928 547" version="1.1" xmlns="http://www.w3.org/2000/svg" xmlns:xlink="http://www.w3.org/1999/xlink">
    <!-- Generator: Sketch 55.2 (78181) - https://sketchapp.com -->
    <title>Background shapes</title>
    <desc>Created with Sketch.</desc>
    <g id="Page-1" stroke="none" stroke-width="1" fill="none" fill-rule="evenodd">
        <g id="Title" transform="translate(0.000000, -53.000000)">
            <g id="Background-shapes" transform="translate(0.000000, 53.000000)">
                <polygon id="Rectangle" fill="#85C9C0" transform="translate(205.370442, 208.220415) rotate(-10.000000) translate(-205.370442, -208.220415) " points="22.0093767 115.154565 388.731506 115.154565 388.731506 301.286264 22.0093767 301.286264"></polygon>
                <rect id="Rectangle-Copy-2" fill="#4D7174" transform="translate(138.582363, 418.603241) rotate(-10.000000) translate(-138.582363, -418.603241) " x="10.8086522" y="346.004155" width="255.547421" height="145.198172"></rect>
                <polygon id="Rectangle-Copy-4" fill="#4D7174" transform="translate(540.670875, 93.691980) rotate(-10.000000) translate(-540.670875, -93.691980) " points="412.897165 21.0928938 668.444586 21.0928938 668.444586 166.291066 412.897165 166.291066"></polygon>
                <polygon id="Rectangle-Copy-6" fill="#E8B64D" transform="translate(789.576864, 132.734692) rotate(-10.000000) translate(-789.576864, -132.734692) " points="686.894667 74.4237244 892.25906 74.4237244 892.25906 191.04566 686.894667 191.04566"></polygon>
                <polygon id="Rectangle-Copy-5" fill="#393A44" transform="translate(729.542726, 328.310335) rotate(-10.000000) translate(-729.542726, -328.310335) " points="546.567685 224.431856 912.517768 224.431856 912.517768 432.188815 546.567685 432.188815"></polygon>
                <polygon id="Rectangle-Copy-3" fill="#85C9C0" transform="translate(456.329949, 439.755833) rotate(-10.000000) translate(-456.329949, -439.755833) " points="317.361563 355.571787 595.298335 355.571787 595.298335 523.93988 317.361563 523.93988"></polygon>
                <polygon id="Rectangle-Copy" fill-opacity="0.770776721" fill="#ABDBCC" transform="translate(465.310075, 237.435650) rotate(-10.000000) translate(-465.310075, -237.435650) " points="222.90167 88.5034884 707.718481 88.5034884 707.718481 386.367812 222.90167 386.367812"></polygon>
            </g>
        </g>
    </g>
</svg>