<?xml version="1.0" encoding="UTF-8"?>
<svg width="490px" height="462px" viewBox="0 0 490 462" version="1.1" xmlns="http://www.w3.org/2000/svg" xmlns:xlink="http://www.w3.org/1999/xlink">
    <!-- Generator: Sketch 55.2 (78181) - https://sketchapp.com -->
    <title>Group 4</title>
    <desc>Created with Sketch.</desc>
    <g id="Page-1" stroke="none" stroke-width="1" fill="none" fill-rule="evenodd">
        <g id="Landing" transform="translate(0.000000, -102.000000)">
            <g id="Group-3" transform="translate(-201.000000, 101.000000)">
                <g id="Group-4" transform="translate(0.509992, 0.742140)">
                    <polygon id="Rectangle-Copy-4" fill="#4D7174" transform="translate(355.290393, 76.504061) rotate(-10.000000) translate(-355.290393, -76.504061) " points="256.404183 16.5825865 453.612118 16.5179461 454.176603 134.099062 257.392171 136.490176"></polygon>
                    <polygon id="Rectangle-Copy-6" fill="#E8B64D" transform="translate(550.951104, 176.098411) rotate(-10.000000) translate(-550.951104, -176.098411) " points="430.70047 59.8333994 668.966064 59.8795952 671.451104 292.363422 430.451104 292.363422"></polygon>
                    <polygon id="Rectangle-Copy-5" fill="#393A44" transform="translate(463.053613, 319.447067) rotate(-10.000000) translate(-463.053613, -319.447067) " points="252.072867 211.250533 668.984226 211.250533 674.034359 427.043368 255.670103 427.6436"></polygon>
                    <polygon id="Rectangle-Copy" fill-opacity="0.770776721" fill="#ABDBCC" transform="translate(223.181679, 249.135900) rotate(-10.000000) translate(-223.181679, -249.135900) " points="29 68.1097297 412 68.1097297 417.363358 428.285118 29 430.16207"></polygon>
                    <polygon id="Rectangle-Copy-3" fill="#85C9C0" transform="translate(362.988967, 196.739075) rotate(-100.000000) translate(-362.988967, -196.739075) " points="313.044119 5 404.834595 8.27716798 412.933816 388.47815 325.609506 388.47815"></polygon>
                </g>
            </g>
        </g>
    </g>
</svg>