<?xml version="1.0" encoding="UTF-8"?>
<svg width="68px" height="69px" viewBox="0 0 68 69" version="1.1" xmlns="http://www.w3.org/2000/svg" xmlns:xlink="http://www.w3.org/1999/xlink">
    <!-- Generator: Sketch 55.2 (78181) - https://sketchapp.com -->
    <title>Group</title>
    <desc>Created with Sketch.</desc>
    <g id="Page-1" stroke="none" stroke-width="1" fill="none" fill-rule="evenodd">
        <g id="Section-03:-The-Ripple-Effect-Copy-8" transform="translate(-520.000000, -208.000000)" fill="#724490" fill-rule="nonzero">
            <g id="Group" transform="translate(520.000000, 208.000000)">
                <polygon id="Path-13" fill-opacity="0.25" points="16.0933138 4.13314226 2.76334155 15.2095931 1.42108547e-14 22.3411927 1.42108547e-14 33.6948326 2.76334155 47.7147969 6.37909109 57.0071132 16.0933138 66.7260166 28.9806299 68.168758 40.992567 65.4802091 53.0237501 60.7877499 60.4452251 50.5478051 67.9039501 33.6948326 67.9039501 22.3411927 66.597123 8.73052992 61.8135479 4.13314226 51.4412389 1.09270527 44.0501849 1.09270527 27.8420164 8.81072992e-13 18.5915583 2.75522239"></polygon>
                <polygon id="Path-11" fill-opacity="0.5" points="31.3280801 17 24.4489443 18.3253812 18.0686829 21.2692422 15.7845234 25.4604762 14 30.799869 15.7845234 45.3586134 19.4312575 52.2354484 31.3280801 55.0308667 38.8774595 52.2354484 47.9204156 48.1646348 53.2001067 39.3656183 51.8900852 27.2137662 49.5853615 21.2692422 41.9849522 17 33.6000533 17"></polygon>
            </g>
        </g>
    </g>
</svg>