<?xml version="1.0" encoding="UTF-8"?>
<svg width="77px" height="68px" viewBox="0 0 77 68" version="1.1" xmlns="http://www.w3.org/2000/svg" xmlns:xlink="http://www.w3.org/1999/xlink">
    <!-- Generator: Sketch 55.2 (78181) - https://sketchapp.com -->
    <title>Group 4</title>
    <desc>Created with Sketch.</desc>
    <g id="Page-1" stroke="none" stroke-width="1" fill="none" fill-rule="evenodd">
        <g id="Section-03:-The-Ripple-Effect-Copy-8" transform="translate(-516.000000, -354.000000)" fill-rule="nonzero">
            <g id="Group-4" transform="translate(509.000000, 346.000000)">
                <polygon id="Path-13-Copy-3" fill="#B5E1D6" transform="translate(44.951975, 45.084379) rotate(66.000000) translate(-44.951975, -45.084379) " points="27.0933138 15.1331423 13.7633416 26.2095931 11 33.3411927 11 44.6948326 13.7633416 58.7147969 17.3790911 68.0071132 27.0933138 77.7260166 39.9806299 79.168758 51.992567 76.4802091 64.0237501 71.7877499 71.4452251 61.5478051 78.9039501 44.6948326 78.9039501 33.3411927 77.597123 19.7305299 72.8135479 15.1331423 62.4412389 12.0927053 55.0501849 12.0927053 38.8420164 11 29.5915583 13.7552224"></polygon>
                <polygon id="Path-11-Copy-3" fill="#724490" points="48.3280801 19 41.4489443 20.3253812 35.0686829 23.2692422 32.7845234 27.4604762 31 32.799869 32.7845234 47.3586134 36.4312575 54.2354484 48.3280801 57.0308667 55.8774595 54.2354484 64.9204156 50.1646348 70.2001067 41.3656183 68.8900852 29.2137662 66.5853615 23.2692422 58.9849522 19 50.6000533 19"></polygon>
            </g>
        </g>
    </g>
</svg>