<?xml version="1.0" encoding="UTF-8"?>
<svg width="76px" height="73px" viewBox="0 0 76 73" version="1.1" xmlns="http://www.w3.org/2000/svg" xmlns:xlink="http://www.w3.org/1999/xlink">
    <!-- Generator: Sketch 55.2 (78181) - https://sketchapp.com -->
    <title>Group 2</title>
    <desc>Created with Sketch.</desc>
    <g id="Page-1" stroke="none" stroke-width="1" fill="none" fill-rule="evenodd">
        <g id="Section-03:-The-Ripple-Effect-Copy-8" transform="translate(-668.000000, -202.000000)" fill-rule="nonzero">
            <g id="Group-2" transform="translate(668.000000, 202.312721)">
                <path d="M5.70671292,61.9453839 L1.26856597,49.1319319 C0.422855323,44.905431 -4.97379915e-14,42.7921805 -4.97379915e-14,42.7921805 C-4.97379915e-14,42.7921805 -4.97379915e-14,36.0730757 -4.97379915e-14,22.634866 L3.77792674,13.0082871 L13.4904996,4.85159689 L25.2356075,1.64442852 L46.0828465,8.66862138e-13 L63.102932,8.29469838 L73.3541329,13.0082871 L75.7979956,32.3299416 L75.7979956,41.0833143 L67.6951026,50.6464704 L59.3485568,63.5542956 L50.2852005,71.3319706 L37.8989978,71.3319706 L28.253757,72.638482 L18.4683503,70.5018919 L11.3264444,66.1277425 L5.70671292,61.9453839 Z" id="Path-14" fill-opacity="0.25" fill="#724490"></path>
                <path d="M17.3431763,60.3799882 L14.3255687,51.6678003 C13.7505488,48.7940961 13.4630388,47.3572441 13.4630388,47.3572441 C13.4630388,47.3572441 13.4630388,42.7887559 13.4630388,33.6517796 L16.0317461,27.1064268 L22.6355683,21.5604883 L30.6213622,19.3798539 L44.7959237,18.2617657 L56.3683074,23.9015395 L63.3383563,27.1064268 L65,40.2437051 L65,46.195343 L59.4906395,52.697573 L53.8156133,61.4739276 L47.6532097,66.7621643 L39.2315194,66.7621643 L32.6734779,67.6504942 L26.0201341,66.1977729 L21.1641729,63.2236788 L17.3431763,60.3799882 Z" id="Path-14-Copy" fill="#B5E1D6"></path>
            </g>
        </g>
    </g>
</svg>