<?xml version="1.0" encoding="UTF-8"?>
<svg width="83px" height="75px" viewBox="0 0 83 75" version="1.1" xmlns="http://www.w3.org/2000/svg" xmlns:xlink="http://www.w3.org/1999/xlink">
    <!-- Generator: Sketch 56.2 (81672) - https://sketch.com -->
    <title>Group 3</title>
    <desc>Created with Sketch.</desc>
    <g id="Pages" stroke="none" stroke-width="1" fill="none" fill-rule="evenodd">
        <g id="Section-03-08" transform="translate(-545.000000, -359.000000)">
            <g id="Group-3" transform="translate(549.000000, 363.000000)">
                <path d="M7.21063971,54.0714841 C0.775320322,46.8779775 -0.593812621,36.5086929 0.205571628,26.952594 C0.480976467,23.6594249 0.986805987,20.3507073 2.21468544,17.275217 C4.98925111,10.3258216 11.3322428,5.13418246 18.4280603,2.5095982 C25.524667,-0.115763494 33.3204389,-0.399523345 40.8589559,0.381010602 C45.6718331,0.88011697 50.4807646,1.81224864 54.9180179,3.71382836 C68.217941,9.41390295 76.7270825,24.3909811 74.7029753,38.5401025 C70.2294222,69.8127703 26.6546949,75.8051564 7.21063971,54.0714841 Z" id="Stroke-43" stroke="#B6DFD5" stroke-width="6.76"></path>
                <g id="Group-57" transform="translate(12.000000, 18.000000)" fill="#724490">
                    <polygon id="Fill-45" points="4.05410909 0.33472 4.05410909 4.02432 47.9310788 4.47552 47.8428364 0.06432"></polygon>
                    <polygon id="Fill-47" points="3.9656303 5.55504 3.9656303 9.87504 47.7535697 9.42544 47.7535697 5.82544"></polygon>
                    <polygon id="Fill-49" points="4.05410909 11.13552 3.78859394 14.82512 47.9310788 14.64592 47.7538061 11.13552"></polygon>
                    <polygon id="Fill-51" points="0.419781818 16.35576 0.403236364 16.71416 0.242509091 20.13576 51.7429939 19.77496 51.4766909 16.53576"></polygon>
                    <polygon id="Fill-53" points="2.45873333 21.21592 5.38333939 21.30552 5.73867273 27.60552 2.36970303 27.60552"></polygon>
                    <polygon id="Fill-55" points="46.424103 21.39568 49.4377394 21.39568 49.6150121 27.78608 46.424103 27.69568"></polygon>
                </g>
            </g>
        </g>
    </g>
</svg>