<?xml version="1.0" encoding="UTF-8"?>
<svg width="86px" height="80px" viewBox="0 0 86 80" version="1.1" xmlns="http://www.w3.org/2000/svg" xmlns:xlink="http://www.w3.org/1999/xlink">
    <!-- Generator: Sketch 56.2 (81672) - https://sketch.com -->
    <title>Group</title>
    <desc>Created with Sketch.</desc>
    <g id="Pages" stroke="none" stroke-width="1" fill="none" fill-rule="evenodd">
        <g id="Section-03-08" transform="translate(-538.000000, -198.000000)">
            <g id="Group" transform="translate(542.000000, 202.000000)">
                <path d="M14.2106397,63.0714885 C7.77532032,55.8779844 6.40618738,45.5087034 7.20557163,35.9526078 C7.48097647,32.6594398 7.98680599,29.3507233 9.21468544,26.275234 C11.9892511,19.3258411 18.3322428,14.1342037 25.4280603,11.5088429 C32.524667,8.88425955 40.3204389,8.6004998 47.8589559,9.38103347 C52.6718331,9.88013967 57.4807646,10.812271 61.9180179,12.7138501 C75.217941,18.4139227 83.7270825,33.3909957 81.7029753,47.5401122 C77.2294222,78.8127693 33.6546949,84.8051534 14.2106397,63.0714885" id="Fill-1" fill="#B6DFD5"></path>
                <polygon id="Stroke-3" stroke="#724490" stroke-width="6.76" stroke-linejoin="round" points="35.944787 0 0 60.9900136 75 70"></polygon>
                <path d="M34.5007256,37.1280119 C33.718501,33.6771699 33.9555388,30.0909071 34.5108844,26.6010321 C34.7479221,25.1114027 35.1144841,23.5054707 36.3318422,22.5264576 C36.7449651,22.1934817 37.2783001,21.9457412 37.817561,22.0102652 C38.9638078,22.1472793 39.4057139,23.4672343 39.5775662,24.5418386 C40.4656112,30.0988731 40.9405333,35.7148555 40.9989462,41.3340242 C41.0895284,50.1722263 35.3125799,40.7086985 34.5007256,37.1280119" id="Fill-5" fill="#FFFFFF"></path>
                <path d="M38.0163369,53.0340419 C38.133123,54.1086524 38.8596993,55.0402169 39.7647915,55.5426436 C41.2287885,56.3550032 43.1707743,56.0618474 44.3611582,54.848606 C44.6564601,54.5475032 44.9158921,54.1792923 44.9809586,53.7510376 C45.2470641,52.0062305 42.6610864,49.3669448 41.1587168,49.042001 C39.2684506,48.6322892 37.8294792,51.3130758 38.0163369,53.0340419" id="Fill-7" fill="#FFFFFF"></path>
            </g>
        </g>
    </g>
</svg>