<?xml version="1.0" encoding="UTF-8"?>
<svg width="68px" height="69px" viewBox="0 0 68 69" version="1.1" xmlns="http://www.w3.org/2000/svg" xmlns:xlink="http://www.w3.org/1999/xlink">
    <!-- Generator: Sketch 55.2 (78181) - https://sketchapp.com -->
    <title>Group 3</title>
    <desc>Created with Sketch.</desc>
    <g id="Page-1" stroke="none" stroke-width="1" fill="none" fill-rule="evenodd">
        <g id="Section-03:-The-Ripple-Effect-Copy-8" transform="translate(-826.000000, -208.000000)" fill="#724490" fill-rule="nonzero">
            <g id="Group-3" transform="translate(826.000000, 208.000000)">
                <polygon id="Path-13-Copy-2" fill-opacity="0.25" points="16.0933138 4.13314226 2.76334155 15.2095931 1.42108547e-14 22.3411927 1.42108547e-14 33.6948326 2.76334155 47.7147969 6.37909109 57.0071132 16.0933138 66.7260166 28.9806299 68.168758 40.992567 65.4802091 53.0237501 60.7877499 60.4452251 50.5478051 67.9039501 33.6948326 67.9039501 22.3411927 66.597123 8.73052992 61.8135479 4.13314226 51.4412389 1.09270527 44.0501849 1.09270527 27.8420164 8.81072992e-13 18.5915583 2.75522239"></polygon>
                <polygon id="Path-11-Copy-2" points="30.8106267 7 21.2991756 8.83254099 12.4774943 12.9028763 9.31929661 18.6978945 6.85192174 26.0804168 9.31929661 46.2100941 14.3614609 55.7183639 30.8106267 59.5834547 41.2487913 55.7183639 53.7520529 50.0898452 61.0520284 37.9238674 59.2407246 21.1220844 56.0540937 12.9028763 45.5453724 7 33.9519751 7"></polygon>
            </g>
        </g>
    </g>
</svg>