<?xml version="1.0" encoding="UTF-8"?>
<svg width="75px" height="80px" viewBox="0 0 75 80" version="1.1" xmlns="http://www.w3.org/2000/svg" xmlns:xlink="http://www.w3.org/1999/xlink">
    <!-- Generator: Sketch 56.2 (81672) - https://sketch.com -->
    <title>Group 2</title>
    <desc>Created with Sketch.</desc>
    <g id="Pages" stroke="none" stroke-width="1" fill="none" fill-rule="evenodd">
        <g id="Section-03-08" transform="translate(-852.000000, -198.000000)">
            <g id="Group-2" transform="translate(852.000000, 198.000000)">
                <g id="Group-36" transform="translate(0.000000, 12.000000)" fill="#724490" fill-opacity="0.25">
                    <path d="M0.500078125,27.4397195 C0.773515625,24.128823 1.27351562,20.8022943 2.48914063,17.7102483 C5.23679687,10.7234437 11.5164844,5.50385747 18.5414844,2.86436322 C25.5672656,0.225650575 33.2852344,-0.0596367816 40.7485156,0.725098851 C45.5125781,1.22689195 50.2735156,2.16404138 54.6664844,4.07585747 C67.8344531,9.80661609 76.2578906,24.8643172 74.2539844,39.0896046 C69.8250781,70.5306161 26.6860156,76.5552598 7.43601563,54.7045931 C1.06492188,47.4723632 -0.291328125,37.0472598 0.500078125,27.4397195 Z" id="Fill-32"></path>
                </g>
                <path d="M30.0516155,3.30905896 C30.018658,7.11702771 33.1248948,8.05835 34.060436,11.3928913 C34.3795238,12.5302236 34.6514225,13.7758357 34.6349438,15.074402 C34.6072296,17.262917 33.7758038,19.0933977 32.873969,20.3777375 C31.9713851,21.6620773 30.9422148,22.6405466 30.1826961,24.2402413 C28.9879897,26.7543858 28.6576664,30.7117332 29.3789845,33.844732 C30.0995535,36.9785211 31.8313161,39.1006457 33.5803064,38.9963177 C33.9480812,37.5871006 33.9735483,35.8498828 33.6492173,34.4003571 C33.4424844,33.4803746 33.1024238,32.6670912 32.9893199,31.6862507 C32.7294057,29.4400392 33.7383522,27.3937895 34.7727657,26.3102019 C36.8805424,24.0995567 39.4691979,23.7423126 41.3365353,20.8108564 C43.9484107,16.7120341 44.2255527,9.15379306 43.8809978,2.61986246 C43.8809978,2.61986246 43.3222198,-0.222282747 37.869265,0.0638286445 C37.869265,0.0638286445 30.08682,-0.733647583 30.0516155,3.30905896" id="Fill-37" fill="#724490"></path>
                <path d="M45.0234354,59.7382118 L45.0234354,47.3474046 C46.5633894,48.5072889 51.9931592,53.361966 45.0234354,59.7382118 M50.9251135,52.8599731 C50.9251135,52.8599731 49.5626294,46.0425347 45.0234354,44.2021538 L45.0234354,41 C45.0234354,41 34.1332421,43.1280136 25,41.0912006 L25.7026191,62.9255552 C25.7026191,62.9255552 41.8620527,68.0171979 45.0234354,62.2466175 L45.0234354,62.0626574 C46.8408877,61.0999846 51.6559665,58.032683 50.9251135,52.8599731" id="Fill-39" fill="#724490"></path>
                <polygon id="Fill-41" fill="#FFFFFF" points="34.2223958 43 34.2223958 49.0291683 32 49.1694915 32 54.7193536 37 55 37 49.0291683 35.1945963 49.0291683 34.9166016 43.1403232"></polygon>
            </g>
        </g>
    </g>
</svg>