<?xml version="1.0" encoding="UTF-8"?>
<svg width="83px" height="78px" viewBox="0 0 83 78" version="1.1" xmlns="http://www.w3.org/2000/svg" xmlns:xlink="http://www.w3.org/1999/xlink">
    <!-- Generator: Sketch 56.2 (81672) - https://sketch.com -->
    <title>Group 4</title>
    <desc>Created with Sketch.</desc>
    <g id="Pages" stroke="none" stroke-width="1" fill="none" fill-rule="evenodd">
        <g id="Section-03-08" transform="translate(-697.000000, -204.000000)">
            <g id="Group-4" transform="translate(701.000000, 204.000000)">
                <path d="M7.21137446,61.0714885 C0.77605188,53.8779844 -0.593870866,43.5087034 0.205513778,33.9526078 C0.48170788,30.6594398 0.986748524,27.3507233 2.21462859,24.275234 C4.98998475,17.3258411 11.3329796,12.1342037 18.4288006,9.50884291 C25.5254108,6.88425955 33.3211866,6.6004998 40.8597074,7.38103347 C45.6717977,7.88013967 50.4807316,8.81227103 54.9179872,10.7138501 C68.218706,16.4139227 76.7270626,31.3909957 74.7029544,45.5401122 C70.2293991,76.8127693 26.6554392,82.8051534 7.21137446,61.0714885 Z" id="Stroke-9" stroke-opacity="0.25" stroke="#724490" stroke-width="6.76"></path>
                <g id="Group-17" transform="translate(5.000000, 45.000000)" fill="#724490">
                    <path d="M4.345148,3.53763902 C4.213668,3.73900488 4.031268,3.92163902 3.958308,4.14329756 C2.876068,7.42446829 1.960268,10.7587122 0.327788,13.8392976 C-0.263492,14.9553951 0.289788,16.1198829 1.384188,16.8348098 C2.531028,17.5848585 3.829108,17.5114927 4.735028,16.468761 C5.444108,15.6515902 6.116708,14.7111024 6.496708,13.7027122 C7.078868,12.1612488 8.037988,11.1224195 9.396868,10.3005659 C11.487628,9.03617561 12.804708,7.11383415 13.288828,4.67246829 C13.895308,1.61607805 11.776428,-0.48577561 8.808628,0.204956098 C6.874428,0.655297561 5.455508,1.89549268 4.345148,3.53763902" id="Fill-11"></path>
                    <path d="M17.755804,23.1291317 C18.786364,21.0194732 19.017404,20.0313756 18.917084,18.2385951 C18.726324,14.8278634 15.671884,13.5533268 12.979204,15.5724488 C11.147604,16.9461073 9.967324,18.7857171 9.669404,21.1115707 C9.443684,22.8731317 8.730804,24.2733268 7.483644,25.5205463 C6.735804,26.2682537 6.171884,27.2891317 5.756924,28.2881561 C5.282684,29.4307902 5.696884,30.4547902 6.697044,31.2064 C8.182844,32.3217171 9.541724,31.8916683 11.054884,30.1160585 C12.342324,28.6034732 13.821284,27.2594732 15.250084,25.8772293 C16.032884,25.1209366 16.745764,24.4988878 17.755804,23.1291317" id="Fill-13"></path>
                    <path d="M4.345148,3.53763902 C5.455508,1.89549268 6.874428,0.655297561 8.808628,0.204956098 C11.776428,-0.48577561 13.895308,1.61607805 13.288828,4.67246829 C12.804708,7.11383415 11.487628,9.03617561 9.396868,10.3005659 C8.037988,11.1224195 7.078868,12.1612488 6.496708,13.7027122 C6.116708,14.7111024 5.444108,15.6515902 4.735028,16.468761 C3.829108,17.5114927 2.531028,17.5848585 1.384188,16.8348098 C0.289788,16.1198829 -0.263492,14.9553951 0.327788,13.8392976 C1.960268,10.7587122 2.876068,7.42446829 3.958308,4.14329756 C4.031268,3.92163902 4.213668,3.73900488 4.345148,3.53763902" id="Fill-15"></path>
                </g>
                <g id="Group-24" transform="translate(23.000000, 22.000000)" fill="#724490">
                    <path d="M4.87569231,4.14982857 C4.74261538,4.35254286 4.558,4.53718571 4.48415385,4.75954286 C3.38876923,8.06347143 2.46184615,11.4192571 0.809538462,14.5204714 C0.211076923,15.6440429 0.771076923,16.8163286 1.87876923,17.5360429 C3.03953846,18.2911143 4.35338462,18.2180429 5.27030769,17.1675429 C5.988,16.3449 6.66876923,15.3989 7.05338462,14.3837571 C7.64338462,12.8311857 8.61338462,11.7854 9.98876923,10.9580429 C12.1056923,9.68518571 13.438,7.75075714 13.928,5.29225714 C14.5418462,2.2154 12.3972308,0.0994714286 9.39338462,0.794828571 C7.43646154,1.24818571 5.99953846,2.49668571 4.87569231,4.14982857" id="Fill-18"></path>
                    <path d="M18.4491538,23.8725143 C19.4922308,21.7487286 19.7260769,20.7540143 19.6245385,18.9492286 C19.4314615,15.5156571 16.3399231,14.2333714 13.6145385,16.2652286 C11.7606923,17.6480857 10.5660769,19.5000143 10.2645385,21.8414429 C10.0360769,23.6148 9.31530769,25.0243714 8.05223077,26.2799429 C7.29530769,27.0326571 6.72453846,28.0603714 6.30453846,29.0660857 C5.82453846,30.2163714 6.24376923,31.2472286 7.25607692,32.0038714 C8.75992308,33.1274429 10.1353077,32.6937286 11.6668462,30.9062286 C12.9699231,29.3843 14.4668462,28.0305143 15.913,26.6398 C16.7053077,25.8776571 17.4268462,25.2514429 18.4491538,23.8725143" id="Fill-20"></path>
                    <path d="M4.87569231,4.14982857 C5.99953846,2.49668571 7.43646154,1.24818571 9.39338462,0.794828571 C12.3972308,0.0994714286 14.5418462,2.2154 13.928,5.29225714 C13.438,7.75075714 12.1056923,9.68518571 9.98876923,10.9580429 C8.61338462,11.7854 7.64338462,12.8311857 7.05338462,14.3837571 C6.66876923,15.3989 5.988,16.3449 5.27030769,17.1675429 C4.35338462,18.2180429 3.03953846,18.2911143 1.87876923,17.5360429 C0.771076923,16.8163286 0.211076923,15.6440429 0.809538462,14.5204714 C2.46184615,11.4192571 3.38876923,8.06347143 4.48415385,4.75954286 C4.558,4.53718571 4.74261538,4.35254286 4.87569231,4.14982857" id="Fill-22"></path>
                </g>
                <g id="Group-31" transform="translate(39.000000, 0.000000)" fill="#724490">
                    <path d="M4.51892308,3.75123571 C4.38584615,3.95395 4.202,4.13859286 4.12738462,4.36095 C3.03276923,7.66487857 2.10507692,11.0206643 0.453538462,14.1218786 C-0.144923077,15.24545 0.415076923,16.4177357 1.522,17.13745 C2.68276923,17.8933071 3.99738462,17.81945 4.91430769,16.76895 C5.63123077,15.9463071 6.312,15.0003071 6.69738462,13.9851643 C7.28661538,12.4325929 8.25661538,11.3868071 9.632,10.55945 C11.7489231,9.28659286 13.0812308,7.35216429 13.572,4.89445 C14.1850769,1.81680714 12.0412308,-0.299121429 9.03661538,0.396235714 C7.07969231,0.849592857 5.64276923,2.09809286 4.51892308,3.75123571" id="Fill-25"></path>
                    <path d="M18.0931538,23.4739214 C19.1362308,21.3501357 19.3700769,20.3562071 19.2685385,18.5514214 C19.0754615,15.1170643 15.9831538,13.8347786 13.2585385,15.8666357 C11.4046923,17.2494929 10.2100769,19.1014214 9.90853846,21.44285 C9.68007692,23.2162071 8.95853846,24.6257786 7.69546154,25.88135 C6.93930769,26.6340643 6.36776923,27.6617786 5.94853846,28.6674929 C5.46853846,29.8185643 5.88776923,30.8486357 6.90007692,31.6052786 C8.40315385,32.72885 9.77930769,32.2951357 11.3100769,30.5076357 C12.6139231,28.9849214 14.1108462,27.6319214 15.5562308,26.2412071 C16.3485385,25.4790643 17.0700769,24.85285 18.0931538,23.4739214" id="Fill-27"></path>
                    <path d="M4.51892308,3.75123571 C5.64276923,2.09809286 7.07969231,0.849592857 9.03661538,0.396235714 C12.0412308,-0.299121429 14.1850769,1.81680714 13.572,4.89445 C13.0812308,7.35216429 11.7489231,9.28659286 9.632,10.55945 C8.25661538,11.3868071 7.28661538,12.4325929 6.69738462,13.9851643 C6.312,15.0003071 5.63123077,15.9463071 4.91430769,16.76895 C3.99738462,17.81945 2.68276923,17.8933071 1.522,17.13745 C0.415076923,16.4177357 -0.144923077,15.24545 0.453538462,14.1218786 C2.10507692,11.0206643 3.03276923,7.66487857 4.12738462,4.36095 C4.202,4.13859286 4.38584615,3.95395 4.51892308,3.75123571" id="Fill-29"></path>
                </g>
            </g>
        </g>
    </g>
</svg>