<?xml version="1.0" encoding="UTF-8"?>
<svg width="75px" height="72px" viewBox="0 0 75 72" version="1.1" xmlns="http://www.w3.org/2000/svg" xmlns:xlink="http://www.w3.org/1999/xlink">
    <!-- Generator: Sketch 56.2 (81672) - https://sketch.com -->
    <title>Group 5</title>
    <desc>Created with Sketch.</desc>
    <g id="Pages" stroke="none" stroke-width="1" fill="none" fill-rule="evenodd">
        <g id="Section-03-08" transform="translate(-701.000000, -358.000000)">
            <g id="Group-5" transform="translate(701.000000, 358.000000)">
                <path d="M7.21063971,59.0714841 C0.775320322,51.8779775 -0.593812621,41.5086929 0.205571628,31.952594 C0.480976467,28.6594249 0.986805987,25.3507073 2.21468544,22.275217 C4.98925111,15.3258216 11.3322428,10.1341825 18.4280603,7.5095982 C25.524667,4.88423651 33.3204389,4.60047666 40.8589559,5.3810106 C45.6718331,5.88011697 50.4807646,6.81224864 54.9180179,8.71382836 C68.217941,14.413903 76.7270825,29.3909811 74.7029753,43.5401025 C70.2294222,74.8127703 26.6546949,80.8051564 7.21063971,59.0714841" id="Fill-58" fill="#B6DFD5"></path>
                <path d="M1.31540881,19.741451 C0.417183082,21.7712071 0.108319498,24.0541912 0.00667816573,26.3065049 C-0.00671642847,26.6100639 -0.0130197669,26.9309242 0.120926175,27.196735 C0.236750019,27.4271567 0.442396436,27.5836548 0.644103267,27.7259972 C3.1449528,29.4875833 6.09255144,30.3086083 8.76359111,31.7383241 C11.4354187,33.1688264 14.0040291,35.5280935 14.4870224,38.7437745 C14.7107909,40.2324721 14.4618091,41.7675685 14.6587884,43.2625575 C15.1331146,46.8667312 18.2950268,49.603481 21.6011278,49.9542254 C24.9080167,50.3041833 28.1952077,48.6118024 30.5999313,46.0999693 C31.7022276,44.9478606 32.6863364,43.5464559 32.937682,41.8996875 C33.319034,39.3941458 31.8984191,36.9279253 30.0893609,35.3393521 C28.2795149,33.7523518 26.0891048,32.7929165 24.1074927,31.4732998 C20.3908868,28.9984286 17.4086198,25.6498422 15.3994307,21.4472011 C13.5777658,17.6361983 10.0045609,13.8975464 5.73956449,15.3020967 C3.7689833,15.9516816 2.21363454,17.7116948 1.31540881,19.741451 Z" id="Fill-60" fill-opacity="0.25" fill="#724490"></path>
                <path d="M42.0208831,0 C42.0208831,0 38.9134784,0.931827741 37.4795979,4.6622448 L28.0387563,30.0731873 C28.0387563,30.0731873 22.4210654,32.6364901 20.5086939,38.2313392 L18,45.9251302 L18.5047642,46.1829359 C18.5047642,46.1829359 21.9433706,38.9309865 22.660709,39.16472 C22.660709,39.16472 22.7801327,42.5441486 20.7483374,46.8577345 L21.2339938,47.0782671 C21.2339938,47.0782671 24.1328051,40.8241499 25.3278383,40.4747145 C25.3278383,40.4747145 25.5284701,43.010839 23.0189801,47.7895622 L23.4122821,48 L27.5602653,41.6123208 C27.5602653,41.6123208 30.5482463,36.9492995 29.2329933,30.7720581 L41.9014594,6.41097486 C41.9014594,6.41097486 44.2915257,1.39851814 42.0208831,0" id="Fill-62" fill="#724490"></path>
            </g>
        </g>
    </g>
</svg>