<?xml version="1.0" encoding="UTF-8"?>
<svg width="69px" height="70px" viewBox="0 0 69 70" version="1.1" xmlns="http://www.w3.org/2000/svg" xmlns:xlink="http://www.w3.org/1999/xlink">
    <!-- Generator: Sketch 55.2 (78181) - https://sketchapp.com -->
    <title>Group 5</title>
    <desc>Created with Sketch.</desc>
    <g id="Page-1" stroke="none" stroke-width="1" fill="none" fill-rule="evenodd">
        <g id="Section-03:-The-Ripple-Effect-Copy-8" transform="translate(-673.000000, -357.000000)" fill-rule="nonzero">
            <g id="Group-5" transform="translate(668.000000, 353.000000)">
                <polygon id="Path-13-Copy-4" fill="#724490" transform="translate(38.951975, 38.084379) rotate(97.000000) translate(-38.951975, -38.084379) " points="21.0933138 8.13314226 7.76334155 19.2095931 5 26.3411927 5 37.6948326 7.76334155 51.7147969 11.3790911 61.0071132 21.0933138 70.7260166 33.9806299 72.168758 45.992567 69.4802091 58.0237501 64.7877499 65.4452251 54.5478051 72.9039501 37.6948326 72.9039501 26.3411927 71.597123 12.7305299 66.8135479 8.13314226 56.4412389 5.09270527 49.0501849 5.09270527 32.8420164 4 23.5915583 6.75522239"></polygon>
                <polygon id="Path-11-Copy-4" fill="#9F82AE" transform="translate(35.731519, 40.604268) rotate(-68.000000) translate(-35.731519, -40.604268) " points="33.1502309 19 25.3345429 20.5058237 18.085648 23.8504734 15.4905142 28.6123182 13.4630388 34.6786367 15.4905142 51.219465 19.6337288 59.032539 33.1502309 62.2085363 41.7274121 59.032539 52.0015113 54.4075089 58 44.4105603 56.5116272 30.6043079 53.8931294 23.8504734 45.2579709 19 35.7315194 19"></polygon>
            </g>
        </g>
    </g>
</svg>