<?xml version="1.0" encoding="UTF-8"?>
<svg width="450px" height="756px" viewBox="0 0 450 756" version="1.1" xmlns="http://www.w3.org/2000/svg" xmlns:xlink="http://www.w3.org/1999/xlink">
    <!-- Generator: Sketch 55.2 (78181) - https://sketchapp.com -->
    <title>Group</title>
    <desc>Created with Sketch.</desc>
    <g id="Page-1" stroke="none" stroke-width="1" fill="none" fill-rule="evenodd">
        <g id="Section-01:-Intro" transform="translate(-504.000000, -215.000000)" fill-rule="nonzero">
            <g id="Group" transform="translate(503.595545, 214.353440)">
                <polygon id="Path-2" fill="#B5E1D6" transform="translate(293.499693, 365.519951) rotate(-270.000000) translate(-293.499693, -365.519951) " points="609.999693 299.806772 609.999693 453.615189 -23.0003066 429.936608 -23.0003066 277.424713"></polygon>
                <polygon id="Path-2-Copy" fill="#1C8E7F" transform="translate(28.531113, 352.668316) rotate(-270.000000) translate(-28.531113, -352.668316) " points="7.46214665 324.842593 49.6000791 325.311704 49.6000791 380.49404 7.46214665 380.49404"></polygon>
                <polygon id="Path-2-Copy-5" fill="#1C8E7F" transform="translate(422.578732, 125.543853) rotate(-270.000000) translate(-422.578732, -125.543853) " points="401.509766 97.7181294 443.647698 98.187241 443.647698 153.369576 401.509766 153.369576"></polygon>
                <polygon id="Path-2-Copy-3" fill="#1C8E7F" transform="translate(28.531113, 541.938703) rotate(-270.000000) translate(-28.531113, -541.938703) " points="7.46214665 514.112979 49.6000791 514.582091 49.6000791 569.764426 7.46214665 569.764426"></polygon>
                <polygon id="Path-2-Copy-2" fill="#4D7174" transform="translate(27.377764, 494.371882) rotate(-270.000000) translate(-27.377764, -494.371882) " points="7.36918002 471.197667 47.3863474 468.964238 47.3863474 517.993618 7.36918002 519.779526"></polygon>
                <polygon id="Path-2-Copy-6" fill="#4D7174" transform="translate(421.425383, 267.247419) rotate(-270.000000) translate(-421.425383, -267.247419) " points="401.416799 244.073203 441.433966 241.839775 441.433966 290.869154 401.416799 292.655063"></polygon>
                <polygon id="Path-2-Copy-4" fill="#4D7174" transform="translate(27.377764, 683.642269) rotate(-270.000000) translate(-27.377764, -683.642269) " points="7.36918002 660.468053 47.3863474 658.234625 47.3863474 707.264004 7.36918002 709.049913"></polygon>
                <polygon id="Path-4" fill="#1C8E7F" transform="translate(176.594932, 130.431968) rotate(-270.000000) translate(-176.594932, -130.431968) " points="304.563941 93.5272062 306.380339 167.33673 46.8095238 154.042439 46.8095238 93.5272062"></polygon>
                <polygon id="Path-4-Copy-6" fill="#1C8E7F" transform="translate(413.499693, 433.264586) rotate(-270.000000) translate(-413.499693, -433.264586) " points="541.468703 396.359824 543.285101 470.169348 283.714286 456.875057 283.714286 396.359824"></polygon>
                <polygon id="Path-4-Copy" fill="#85C9C0" transform="translate(102.785408, 337.007075) rotate(-270.000000) translate(-102.785408, -337.007075) " points="230.754417 300.102313 232.570815 373.911837 -27 360.617546 -27 300.102313"></polygon>
                <polygon id="Path-4-Copy-2" fill="#85C9C0" transform="translate(94.266172, 102.852569) rotate(-270.000000) translate(-94.266172, -102.852569) " points="121.459587 61 121.845571 144.705138 66.686773 129.628486 66.686773 61"></polygon>
                <polygon id="Path-4-Copy-3" fill="#85C9C0" transform="translate(28.861007, 399.240951) rotate(-270.000000) translate(-28.861007, -399.240951) " points="49.9961703 371.745122 49.9961703 426.73678 7.72584439 424.012545 7.72584439 371.745122"></polygon>
                <polygon id="Path-4-Copy-5" fill="#85C9C0" transform="translate(422.908626, 172.116487) rotate(-270.000000) translate(-422.908626, -172.116487) " points="444.043789 144.620658 444.043789 199.612316 401.773463 196.888081 401.773463 144.620658"></polygon>
                <polygon id="Path-4-Copy-4" fill="#85C9C0" transform="translate(28.861007, 588.511337) rotate(-270.000000) translate(-28.861007, -588.511337) " points="49.9961703 561.015508 49.9961703 616.007166 7.72584439 613.282931 7.72584439 561.015508"></polygon>
                <polygon id="Path-5" fill="#4D7174" transform="translate(176.594932, 398.114372) rotate(-270.000000) translate(-176.594932, -398.114372) " points="312.328837 371.04393 312.328837 430.257229 42.9998744 430.257229 40.861026 365.971514"></polygon>
                <polygon id="Path-5-Copy" fill="#4D7174" transform="translate(103.975884, 541.959865) rotate(-270.000000) translate(-103.975884, -541.959865) " points="176.980176 514.889423 176.980176 574.102722 32.1219687 574.102722 30.9715921 509.817008"></polygon>
                <polygon id="Path-5-Copy-5" fill="#1C8E7F" transform="translate(103.975884, 686.346131) rotate(-270.000000) translate(-103.975884, -686.346131) " points="33.6754547 659.275689 174.276313 654.203274 173.168543 718.488988 33.6754547 718.488988"></polygon>
                <polygon id="Path-5-Copy-2" fill="#4D7174" transform="translate(91.392075, 163.550314) rotate(-270.000000) translate(-91.392075, -163.550314) " points="121.265785 132.900157 121.265785 199.943646 61.9891045 199.943646 61.5183648 127.156981"></polygon>
                <polygon id="Path-5-Copy-3" fill="#85C9C0" transform="translate(29.855945, 448.406217) rotate(-270.000000) translate(-29.855945, -448.406217) " points="51.4868459 423.095802 51.4868459 473.716633 8.56589565 473.716633 8.2250433 425.199987"></polygon>
                <polygon id="Path-5-Copy-6" fill="#85C9C0" transform="translate(423.903564, 221.281754) rotate(-270.000000) translate(-423.903564, -221.281754) " points="445.534465 195.971338 445.534465 246.592169 402.613515 246.592169 402.272662 198.075523"></polygon>
                <polygon id="Path-5-Copy-4" fill="#85C9C0" transform="translate(29.855945, 637.676603) rotate(-270.000000) translate(-29.855945, -637.676603) " points="51.4868459 612.366188 51.4868459 662.987019 8.56589565 662.987019 8.2250433 614.470373"></polygon>
                <polygon id="Path-4-Copy-2" fill="#85C9C0" transform="translate(190.776296, 717.170166) rotate(-270.000000) translate(-190.776296, -717.170166) " points="163.582882 756.560229 163.196897 677.780102 218.355695 691.969679 218.355695 756.560229"></polygon>
                <polygon id="Path-5-Copy-2" fill="#4D7174" transform="translate(263.771467, 716.219841) rotate(-270.000000) translate(-263.771467, -716.219841) " points="233.897757 745.066616 233.897757 681.967805 293.174438 681.967805 293.645177 750.471877"></polygon>
            </g>
        </g>
    </g>
</svg>