<?xml version="1.0" encoding="UTF-8"?>
<svg width="59px" height="36px" viewBox="0 0 59 36" version="1.1" xmlns="http://www.w3.org/2000/svg" xmlns:xlink="http://www.w3.org/1999/xlink">
    <!-- Generator: Sketch 55.2 (78181) - https://sketchapp.com -->
    <title>Scroll down</title>
    <desc>Created with Sketch.</desc>
    <g id="Pages" stroke="none" stroke-width="1" fill="none" fill-rule="evenodd">
        <g id="Section-08-00" transform="translate(-483.000000, -541.000000)" fill-rule="nonzero">
            <g id="Scroll-down" transform="translate(483.000000, 541.000000)">
                <polyline id="Path-8" stroke="#393A44" transform="translate(29.000000, 28.500000) rotate(-180.000000) translate(-29.000000, -28.500000) " points="14 36 29 21 44 36"></polyline>
                <path d="M3.298,8.132 C2.73333051,8.132 2.24200209,8.02933436 1.824,7.824 C1.40599791,7.61866564 1.08333447,7.3326685 0.856,6.966 C0.62866553,6.5993315 0.515,6.17400242 0.515,5.69 L1.483,5.69 C1.483,5.99066817 1.55266597,6.26749874 1.692,6.5205 C1.83133403,6.77350127 2.03483199,6.97516592 2.3025,7.1255 C2.570168,7.27583409 2.90199802,7.351 3.298,7.351 C3.81866927,7.351 4.22199857,7.22633458 4.508,6.977 C4.79400143,6.72766542 4.937,6.41600187 4.937,6.042 C4.937,5.73399846 4.87100066,5.48650094 4.739,5.2995 C4.60699934,5.11249907 4.42916778,4.96033392 4.2055,4.843 C3.98183221,4.72566608 3.72516811,4.62300044 3.4355,4.535 C3.14583188,4.44699956 2.84333491,4.34800055 2.528,4.238 C1.93399703,4.03266564 1.49400143,3.77783486 1.208,3.4735 C0.92199857,3.16916515 0.779,2.77133579 0.779,2.28 C0.77166663,1.86933128 0.86699901,1.5045016 1.065,1.1855 C1.26300099,0.866498405 1.54349818,0.617167565 1.9065,0.4375 C2.26950181,0.257832435 2.70033084,0.168 3.199,0.168 C3.69033579,0.168 4.11749818,0.25966575 4.4805,0.443 C4.84350181,0.62633425 5.12583232,0.87933172 5.3275,1.202 C5.52916767,1.52466828 5.63366663,1.89133128 5.641,2.302 L4.673,2.302 C4.673,2.08933227 4.61800055,1.87850105 4.508,1.6695 C4.39799945,1.46049896 4.23116778,1.29000066 4.0075,1.158 C3.78383221,1.02599934 3.50333502,0.96 3.166,0.96 C2.74799791,0.95266663 2.405168,1.0589989 2.1375,1.279 C1.86983199,1.4990011 1.736,1.80333139 1.736,2.192 C1.736,2.52200165 1.82949906,2.77499912 2.0165,2.951 C2.20350093,3.12700088 2.46566498,3.27183277 2.803,3.3855 C3.14033502,3.49916724 3.5289978,3.6293326 3.969,3.776 C4.3356685,3.90800066 4.6656652,4.06199912 4.959,4.238 C5.2523348,4.41400088 5.48149917,4.64133194 5.6465,4.92 C5.81150082,5.19866806 5.894,5.55433117 5.894,5.987 C5.894,6.3536685 5.79866762,6.70016504 5.608,7.0265 C5.41733238,7.35283497 5.12950192,7.61866564 4.7445,7.824 C4.35949807,8.02933436 3.87733623,8.132 3.298,8.132 Z M9.656,8.132 C9.13533073,8.132 8.6678354,8.01283453 8.2535,7.7745 C7.83916459,7.53616548 7.51283452,7.20250215 7.2745,6.7735 C7.03616547,6.34449786 6.917,5.84400286 6.917,5.272 C6.917,4.69999714 7.03616547,4.19950215 7.2745,3.7705 C7.51283452,3.34149786 7.83916459,3.00783453 8.2535,2.7695 C8.6678354,2.53116548 9.13533073,2.412 9.656,2.412 C10.3013366,2.412 10.8458311,2.58066498 11.2895,2.918 C11.7331689,3.25533502 12.0136661,3.70633051 12.131,4.271 L11.185,4.271 C11.1116663,3.93366498 10.9320014,3.67150094 10.646,3.4845 C10.3599986,3.29749907 10.0263352,3.204 9.645,3.204 C9.33699846,3.204 9.04733469,3.28099923 8.776,3.435 C8.50466531,3.58900077 8.28466751,3.81999846 8.116,4.128 C7.94733249,4.43600154 7.863,4.81733106 7.863,5.272 C7.863,5.72666894 7.94733249,6.10799846 8.116,6.416 C8.28466751,6.72400154 8.50466531,6.95683255 8.776,7.1145 C9.04733469,7.27216746 9.33699846,7.351 9.645,7.351 C10.0263352,7.351 10.3599986,7.25750094 10.646,7.0705 C10.9320014,6.88349907 11.1116663,6.61766839 11.185,6.273 L12.131,6.273 C12.0209994,6.82300275 11.7423356,7.27033161 11.295,7.615 C10.8476644,7.95966839 10.3013366,8.132 9.656,8.132 Z M13.418,8 L13.418,2.544 L14.254,2.544 L14.331,3.589 C14.4996675,3.22966487 14.7563316,2.94366773 15.101,2.731 C15.4456684,2.51833227 15.8709975,2.412 16.377,2.412 L16.377,3.38 L16.124,3.38 C15.8013317,3.38 15.5043347,3.43683277 15.233,3.5505 C14.9616653,3.66416724 14.7453341,3.85666531 14.584,4.128 C14.4226659,4.39933469 14.342,4.77333095 14.342,5.25 L14.342,8 L13.418,8 Z M19.897,8.132 C19.3836641,8.132 18.9216687,8.01466784 18.511,7.78 C18.1003313,7.54533216 17.7758345,7.21350215 17.5375,6.7845 C17.2991655,6.35549786 17.18,5.85133623 17.18,5.272 C17.18,4.69266377 17.3009988,4.18850215 17.543,3.7595 C17.7850012,3.33049786 18.1131646,2.99866784 18.5275,2.764 C18.9418354,2.52933216 19.4056641,2.412 19.919,2.412 C20.4323359,2.412 20.8943313,2.52933216 21.305,2.764 C21.7156687,2.99866784 22.0401655,3.33049786 22.2785,3.7595 C22.5168345,4.18850215 22.636,4.69266377 22.636,5.272 C22.636,5.85133623 22.5150012,6.35549786 22.273,6.7845 C22.0309988,7.21350215 21.7028354,7.54533216 21.2885,7.78 C20.8741646,8.01466784 20.4103359,8.132 19.897,8.132 Z M19.897,7.34 C20.2123349,7.34 20.5056653,7.26300077 20.777,7.109 C21.0483347,6.95499923 21.2683325,6.72400154 21.437,6.416 C21.6056675,6.10799846 21.69,5.72666894 21.69,5.272 C21.69,4.81733106 21.6075008,4.43600154 21.4425,4.128 C21.2774992,3.81999846 21.0593347,3.58900077 20.788,3.435 C20.5166653,3.28099923 20.2270015,3.204 19.919,3.204 C19.6036651,3.204 19.3103347,3.28099923 19.039,3.435 C18.7676653,3.58900077 18.5476675,3.81999846 18.379,4.128 C18.2103325,4.43600154 18.126,4.81733106 18.126,5.272 C18.126,5.72666894 18.2103325,6.10799846 18.379,6.416 C18.5476675,6.72400154 18.765832,6.95499923 19.0335,7.109 C19.301168,7.26300077 19.5889985,7.34 19.897,7.34 Z M23.923,8 L23.923,0.08 L24.847,0.08 L24.847,8 L23.923,8 Z M26.365,8 L26.365,0.08 L27.289,0.08 L27.289,8 L26.365,8 Z M34.197,8.132 C33.6543306,8.132 33.179502,8.00733458 32.7725,7.758 C32.365498,7.50866542 32.0501678,7.16766883 31.8265,6.735 C31.6028322,6.30233117 31.491,5.81100275 31.491,5.261 C31.491,4.71099725 31.6046655,4.22150215 31.832,3.7925 C32.0593345,3.36349786 32.3746646,3.0261679 32.778,2.7805 C33.1813353,2.53483211 33.6579972,2.412 34.208,2.412 C34.6553356,2.412 35.0513316,2.50366575 35.396,2.687 C35.7406684,2.87033425 36.0083324,3.12699835 36.199,3.457 L36.199,0.08 L37.123,0.08 L37.123,8 L36.287,8 L36.199,7.098 C36.0229991,7.36200132 35.7700016,7.60033227 35.44,7.813 C35.1099983,8.02566773 34.6956692,8.132 34.197,8.132 Z M34.296,7.329 C34.6626685,7.329 34.9871653,7.2428342 35.2695,7.0705 C35.5518347,6.89816581 35.7718325,6.65800154 35.9295,6.35 C36.0871675,6.04199846 36.166,5.68266872 36.166,5.272 C36.166,4.86133128 36.0871675,4.50200154 35.9295,4.194 C35.7718325,3.88599846 35.5518347,3.6458342 35.2695,3.4735 C34.9871653,3.30116581 34.6626685,3.215 34.296,3.215 C33.9366649,3.215 33.6158347,3.30116581 33.3335,3.4735 C33.0511653,3.6458342 32.8311675,3.88599846 32.6735,4.194 C32.5158325,4.50200154 32.437,4.86133128 32.437,5.272 C32.437,5.68266872 32.5158325,6.04199846 32.6735,6.35 C32.8311675,6.65800154 33.0511653,6.89816581 33.3335,7.0705 C33.6158347,7.2428342 33.9366649,7.329 34.296,7.329 Z M41.116,8.132 C40.6026641,8.132 40.1406687,8.01466784 39.73,7.78 C39.3193313,7.54533216 38.9948345,7.21350215 38.7565,6.7845 C38.5181655,6.35549786 38.399,5.85133623 38.399,5.272 C38.399,4.69266377 38.5199988,4.18850215 38.762,3.7595 C39.0040012,3.33049786 39.3321646,2.99866784 39.7465,2.764 C40.1608354,2.52933216 40.6246641,2.412 41.138,2.412 C41.6513359,2.412 42.1133313,2.52933216 42.524,2.764 C42.9346687,2.99866784 43.2591655,3.33049786 43.4975,3.7595 C43.7358345,4.18850215 43.855,4.69266377 43.855,5.272 C43.855,5.85133623 43.7340012,6.35549786 43.492,6.7845 C43.2499988,7.21350215 42.9218354,7.54533216 42.5075,7.78 C42.0931646,8.01466784 41.6293359,8.132 41.116,8.132 Z M41.116,7.34 C41.4313349,7.34 41.7246653,7.26300077 41.996,7.109 C42.2673347,6.95499923 42.4873325,6.72400154 42.656,6.416 C42.8246675,6.10799846 42.909,5.72666894 42.909,5.272 C42.909,4.81733106 42.8265008,4.43600154 42.6615,4.128 C42.4964992,3.81999846 42.2783347,3.58900077 42.007,3.435 C41.7356653,3.28099923 41.4460015,3.204 41.138,3.204 C40.8226651,3.204 40.5293347,3.28099923 40.258,3.435 C39.9866653,3.58900077 39.7666675,3.81999846 39.598,4.128 C39.4293325,4.43600154 39.345,4.81733106 39.345,5.272 C39.345,5.72666894 39.4293325,6.10799846 39.598,6.416 C39.7666675,6.72400154 39.984832,6.95499923 40.2525,7.109 C40.520168,7.26300077 40.8079985,7.34 41.116,7.34 Z M46.242,8 L44.647,2.544 L45.571,2.544 L46.726,6.823 L48.002,2.544 L49.047,2.544 L50.334,6.823 L51.478,2.544 L52.413,2.544 L50.818,8 L49.872,8 L48.53,3.501 L47.188,8 L46.242,8 Z M53.436,8 L53.436,2.544 L54.272,2.544 L54.327,3.523 C54.5030009,3.17833161 54.7559983,2.90700099 55.086,2.709 C55.4160016,2.51099901 55.7899979,2.412 56.208,2.412 C56.8533366,2.412 57.3684981,2.60816471 57.7535,3.0005 C58.1385019,3.3928353 58.331,3.99599593 58.331,4.81 L58.331,8 L57.407,8 L57.407,4.909 C57.407,3.77232765 56.9376714,3.204 55.999,3.204 C55.5296643,3.204 55.1391682,3.3744983 54.8275,3.7155 C54.5158318,4.05650171 54.36,4.54233018 54.36,5.173 L54.36,8 L53.436,8 Z" id="Scrolldown" fill="#393A44"></path>
            </g>
        </g>
    </g>
</svg>