<?xml version="1.0" encoding="UTF-8"?>
<svg width="73px" height="36px" viewBox="0 0 73 36" version="1.1" xmlns="http://www.w3.org/2000/svg" xmlns:xlink="http://www.w3.org/1999/xlink">
    <!-- Generator: Sketch 57.1 (83088) - https://sketch.com -->
    <title>Scroll down</title>
    <desc>Created with Sketch.</desc>
    <g id="Pages" stroke="none" stroke-width="1" fill="none" fill-rule="evenodd">
        <g id="Section-07-00" transform="translate(-476.000000, -541.000000)" fill-rule="nonzero">
            <g id="Scroll-down" transform="translate(476.000000, 535.000000)">
                <polyline id="Path-8" stroke="#393A44" transform="translate(36.000000, 34.500000) rotate(-180.000000) translate(-36.000000, -34.500000) " points="21 42 36 27 51 42"></polyline>
                <path d="M3.5385,14.132 C2.97383051,14.132 2.48250209,14.0293344 2.0645,13.824 C1.64649791,13.6186656 1.32383447,13.3326685 1.0965,12.966 C0.86916553,12.5993315 0.7555,12.1740024 0.7555,11.69 L1.7235,11.69 C1.7235,11.9906682 1.79316597,12.2674987 1.9325,12.5205 C2.07183403,12.7735013 2.275332,12.9751659 2.543,13.1255 C2.81066801,13.2758341 3.14249802,13.351 3.5385,13.351 C4.05916927,13.351 4.46249857,13.2263346 4.7485,12.977 C5.03450143,12.7276654 5.1775,12.4160019 5.1775,12.042 C5.1775,11.7339985 5.11150066,11.4865009 4.9795,11.2995 C4.84749934,11.1124991 4.66966779,10.9603339 4.446,10.843 C4.22233222,10.7256661 3.96566812,10.6230004 3.676,10.535 C3.38633189,10.4469996 3.08383491,10.3480006 2.7685,10.238 C2.17449703,10.0326656 1.73450143,9.77783486 1.4485,9.4735 C1.16249857,9.16916514 1.0195,8.77133579 1.0195,8.28 C1.01216663,7.86933128 1.10749901,7.5045016 1.3055,7.1855 C1.50350099,6.86649841 1.78399819,6.61716756 2.147,6.4375 C2.51000182,6.25783244 2.94083084,6.168 3.4395,6.168 C3.93083579,6.168 4.35799819,6.25966575 4.721,6.443 C5.08400182,6.62633425 5.36633233,6.87933172 5.568,7.202 C5.76966768,7.52466828 5.87416663,7.89133128 5.8815,8.302 L4.9135,8.302 C4.9135,8.08933227 4.85850055,7.87850105 4.7485,7.6695 C4.63849945,7.46049896 4.47166779,7.29000066 4.248,7.158 C4.02433222,7.02599934 3.74383502,6.96 3.4065,6.96 C2.98849791,6.95266663 2.64566801,7.0589989 2.378,7.279 C2.110332,7.4990011 1.9765,7.80333139 1.9765,8.192 C1.9765,8.52200165 2.06999907,8.77499912 2.257,8.951 C2.44400094,9.12700088 2.70616498,9.27183277 3.0435,9.3855 C3.38083502,9.49916724 3.7694978,9.6293326 4.2095,9.776 C4.5761685,9.90800066 4.9061652,10.0619991 5.1995,10.238 C5.4928348,10.4140009 5.72199918,10.6413319 5.887,10.92 C6.05200083,11.1986681 6.1345,11.5543312 6.1345,11.987 C6.1345,12.3536685 6.03916762,12.700165 5.8485,13.0265 C5.65783238,13.352835 5.37000193,13.6186656 4.985,13.824 C4.59999808,14.0293344 4.11783623,14.132 3.5385,14.132 Z M9.8965,14.132 C9.37583073,14.132 8.90833541,14.0128345 8.494,13.7745 C8.0796646,13.5361655 7.75333453,13.2025021 7.515,12.7735 C7.27666548,12.3444979 7.1575,11.8440029 7.1575,11.272 C7.1575,10.6999971 7.27666548,10.1995021 7.515,9.7705 C7.75333453,9.34149786 8.0796646,9.00783452 8.494,8.7695 C8.90833541,8.53116547 9.37583073,8.412 9.8965,8.412 C10.5418366,8.412 11.0863311,8.58066498 11.53,8.918 C11.9736689,9.25533502 12.2541661,9.70633051 12.3715,10.271 L11.4255,10.271 C11.3521663,9.93366498 11.1725014,9.67150094 10.8865,9.4845 C10.6004986,9.29749907 10.2668352,9.204 9.8855,9.204 C9.57749846,9.204 9.28783469,9.28099923 9.0165,9.435 C8.74516531,9.58900077 8.52516751,9.81999846 8.3565,10.128 C8.18783249,10.4360015 8.1035,10.8173311 8.1035,11.272 C8.1035,11.7266689 8.18783249,12.1079985 8.3565,12.416 C8.52516751,12.7240015 8.74516531,12.9568325 9.0165,13.1145 C9.28783469,13.2721675 9.57749846,13.351 9.8855,13.351 C10.2668352,13.351 10.6004986,13.2575009 10.8865,13.0705 C11.1725014,12.8834991 11.3521663,12.6176684 11.4255,12.273 L12.3715,12.273 C12.2614995,12.8230028 11.9828356,13.2703316 11.5355,13.615 C11.0881644,13.9596684 10.5418366,14.132 9.8965,14.132 Z M13.6585,14 L13.6585,8.544 L14.4945,8.544 L14.5715,9.589 C14.7401675,9.22966487 14.9968316,8.94366773 15.3415,8.731 C15.6861684,8.51833227 16.1114975,8.412 16.6175,8.412 L16.6175,9.38 L16.3645,9.38 C16.0418317,9.38 15.7448347,9.43683276 15.4735,9.5505 C15.2021653,9.66416723 14.9858341,9.85666531 14.8245,10.128 C14.6631659,10.3993347 14.5825,10.773331 14.5825,11.25 L14.5825,14 L13.6585,14 Z M20.1375,14.132 C19.6241641,14.132 19.1621687,14.0146678 18.7515,13.78 C18.3408313,13.5453322 18.0163345,13.2135021 17.778,12.7845 C17.5396655,12.3554979 17.4205,11.8513362 17.4205,11.272 C17.4205,10.6926638 17.5414988,10.1885021 17.7835,9.7595 C18.0255012,9.33049785 18.3536646,8.99866784 18.768,8.764 C19.1823354,8.52933216 19.6461641,8.412 20.1595,8.412 C20.6728359,8.412 21.1348313,8.52933216 21.5455,8.764 C21.9561687,8.99866784 22.2806655,9.33049785 22.519,9.7595 C22.7573345,10.1885021 22.8765,10.6926638 22.8765,11.272 C22.8765,11.8513362 22.7555012,12.3554979 22.5135,12.7845 C22.2714988,13.2135021 21.9433354,13.5453322 21.529,13.78 C21.1146646,14.0146678 20.6508359,14.132 20.1375,14.132 Z M20.1375,13.34 C20.4528349,13.34 20.7461653,13.2630008 21.0175,13.109 C21.2888347,12.9549992 21.5088325,12.7240015 21.6775,12.416 C21.8461675,12.1079985 21.9305,11.7266689 21.9305,11.272 C21.9305,10.8173311 21.8480008,10.4360015 21.683,10.128 C21.5179992,9.81999846 21.2998347,9.58900077 21.0285,9.435 C20.7571653,9.28099923 20.4675015,9.204 20.1595,9.204 C19.8441651,9.204 19.5508347,9.28099923 19.2795,9.435 C19.0081653,9.58900077 18.7881675,9.81999846 18.6195,10.128 C18.4508325,10.4360015 18.3665,10.8173311 18.3665,11.272 C18.3665,11.7266689 18.4508325,12.1079985 18.6195,12.416 C18.7881675,12.7240015 19.006332,12.9549992 19.274,13.109 C19.541668,13.2630008 19.8294985,13.34 20.1375,13.34 Z M24.1635,14 L24.1635,6.08 L25.0875,6.08 L25.0875,14 L24.1635,14 Z M26.6055,14 L26.6055,6.08 L27.5295,6.08 L27.5295,14 L26.6055,14 Z M34.1185,14 C33.6198308,14 33.2275014,13.8790012 32.9415,13.637 C32.6554986,13.3949988 32.5125,12.9586698 32.5125,12.328 L32.5125,9.325 L31.5665,9.325 L31.5665,8.544 L32.5125,8.544 L32.6335,7.235 L33.4365,7.235 L33.4365,8.544 L35.0425,8.544 L35.0425,9.325 L33.4365,9.325 L33.4365,12.328 C33.4365,12.6726684 33.506166,12.9054994 33.6455,13.0265 C33.784834,13.1475006 34.0304982,13.208 34.3825,13.208 L34.9545,13.208 L34.9545,14 L34.1185,14 Z M38.7055,14.132 C38.1921641,14.132 37.7301687,14.0146678 37.3195,13.78 C36.9088313,13.5453322 36.5843345,13.2135021 36.346,12.7845 C36.1076655,12.3554979 35.9885,11.8513362 35.9885,11.272 C35.9885,10.6926638 36.1094988,10.1885021 36.3515,9.7595 C36.5935012,9.33049785 36.9216646,8.99866784 37.336,8.764 C37.7503354,8.52933216 38.2141641,8.412 38.7275,8.412 C39.2408359,8.412 39.7028313,8.52933216 40.1135,8.764 C40.5241687,8.99866784 40.8486655,9.33049785 41.087,9.7595 C41.3253345,10.1885021 41.4445,10.6926638 41.4445,11.272 C41.4445,11.8513362 41.3235012,12.3554979 41.0815,12.7845 C40.8394988,13.2135021 40.5113354,13.5453322 40.097,13.78 C39.6826646,14.0146678 39.2188359,14.132 38.7055,14.132 Z M38.7055,13.34 C39.0208349,13.34 39.3141653,13.2630008 39.5855,13.109 C39.8568347,12.9549992 40.0768325,12.7240015 40.2455,12.416 C40.4141675,12.1079985 40.4985,11.7266689 40.4985,11.272 C40.4985,10.8173311 40.4160008,10.4360015 40.251,10.128 C40.0859992,9.81999846 39.8678347,9.58900077 39.5965,9.435 C39.3251653,9.28099923 39.0355015,9.204 38.7275,9.204 C38.4121651,9.204 38.1188347,9.28099923 37.8475,9.435 C37.5761653,9.58900077 37.3561675,9.81999846 37.1875,10.128 C37.0188325,10.4360015 36.9345,10.8173311 36.9345,11.272 C36.9345,11.7266689 37.0188325,12.1079985 37.1875,12.416 C37.3561675,12.7240015 37.574332,12.9549992 37.842,13.109 C38.109668,13.2630008 38.3974985,13.34 38.7055,13.34 Z M45.2725,14 L45.2725,13.241 L48.3085,9.314 L45.3275,9.314 L45.3275,8.544 L49.3425,8.544 L49.3425,9.303 L46.3065,13.23 L49.3975,13.23 L49.3975,14 L45.2725,14 Z M53.1045,14.132 C52.5911641,14.132 52.1291687,14.0146678 51.7185,13.78 C51.3078313,13.5453322 50.9833345,13.2135021 50.745,12.7845 C50.5066655,12.3554979 50.3875,11.8513362 50.3875,11.272 C50.3875,10.6926638 50.5084988,10.1885021 50.7505,9.7595 C50.9925012,9.33049785 51.3206646,8.99866784 51.735,8.764 C52.1493354,8.52933216 52.6131641,8.412 53.1265,8.412 C53.6398359,8.412 54.1018313,8.52933216 54.5125,8.764 C54.9231687,8.99866784 55.2476655,9.33049785 55.486,9.7595 C55.7243345,10.1885021 55.8435,10.6926638 55.8435,11.272 C55.8435,11.8513362 55.7225012,12.3554979 55.4805,12.7845 C55.2384988,13.2135021 54.9103354,13.5453322 54.496,13.78 C54.0816646,14.0146678 53.6178359,14.132 53.1045,14.132 Z M53.1045,13.34 C53.4198349,13.34 53.7131653,13.2630008 53.9845,13.109 C54.2558347,12.9549992 54.4758325,12.7240015 54.6445,12.416 C54.8131675,12.1079985 54.8975,11.7266689 54.8975,11.272 C54.8975,10.8173311 54.8150008,10.4360015 54.65,10.128 C54.4849992,9.81999846 54.2668347,9.58900077 53.9955,9.435 C53.7241653,9.28099923 53.4345015,9.204 53.1265,9.204 C52.8111651,9.204 52.5178347,9.28099923 52.2465,9.435 C51.9751653,9.58900077 51.7551675,9.81999846 51.5865,10.128 C51.4178325,10.4360015 51.3335,10.8173311 51.3335,11.272 C51.3335,11.7266689 51.4178325,12.1079985 51.5865,12.416 C51.7551675,12.7240015 51.973332,12.9549992 52.241,13.109 C52.508668,13.2630008 52.7964985,13.34 53.1045,13.34 Z M59.6165,14.132 C59.1031641,14.132 58.6411687,14.0146678 58.2305,13.78 C57.8198313,13.5453322 57.4953345,13.2135021 57.257,12.7845 C57.0186655,12.3554979 56.8995,11.8513362 56.8995,11.272 C56.8995,10.6926638 57.0204988,10.1885021 57.2625,9.7595 C57.5045012,9.33049785 57.8326646,8.99866784 58.247,8.764 C58.6613354,8.52933216 59.1251641,8.412 59.6385,8.412 C60.1518359,8.412 60.6138313,8.52933216 61.0245,8.764 C61.4351687,8.99866784 61.7596655,9.33049785 61.998,9.7595 C62.2363345,10.1885021 62.3555,10.6926638 62.3555,11.272 C62.3555,11.8513362 62.2345012,12.3554979 61.9925,12.7845 C61.7504988,13.2135021 61.4223354,13.5453322 61.008,13.78 C60.5936646,14.0146678 60.1298359,14.132 59.6165,14.132 Z M59.6165,13.34 C59.9318349,13.34 60.2251653,13.2630008 60.4965,13.109 C60.7678347,12.9549992 60.9878325,12.7240015 61.1565,12.416 C61.3251675,12.1079985 61.4095,11.7266689 61.4095,11.272 C61.4095,10.8173311 61.3270008,10.4360015 61.162,10.128 C60.9969992,9.81999846 60.7788347,9.58900077 60.5075,9.435 C60.2361653,9.28099923 59.9465015,9.204 59.6385,9.204 C59.3231651,9.204 59.0298347,9.28099923 58.7585,9.435 C58.4871653,9.58900077 58.2671675,9.81999846 58.0985,10.128 C57.9298325,10.4360015 57.8455,10.8173311 57.8455,11.272 C57.8455,11.7266689 57.9298325,12.1079985 58.0985,12.416 C58.2671675,12.7240015 58.485332,12.9549992 58.753,13.109 C59.020668,13.2630008 59.3084985,13.34 59.6165,13.34 Z M63.6425,14 L63.6425,8.544 L64.4785,8.544 L64.5445,9.336 C64.7205009,9.0426652 64.9551652,8.81533414 65.2485,8.654 C65.5418348,8.49266586 65.8718315,8.412 66.2385,8.412 C66.6711688,8.412 67.0433318,8.49999912 67.355,8.676 C67.6666682,8.85200088 67.9068325,9.11966487 68.0755,9.479 C68.2661676,9.14899835 68.5283317,8.88866762 68.862,8.698 C69.1956683,8.50733238 69.5568314,8.412 69.9455,8.412 C70.5981699,8.412 71.1188314,8.60816471 71.5075,9.0005 C71.8961686,9.3928353 72.0905,9.99599593 72.0905,10.81 L72.0905,14 L71.1775,14 L71.1775,10.909 C71.1775,10.3443305 71.0638345,9.91900143 70.8365,9.633 C70.6091655,9.34699857 70.2828355,9.204 69.8575,9.204 C69.4174978,9.204 69.0526681,9.3744983 68.763,9.7155 C68.4733319,10.0565017 68.3285,10.5423302 68.3285,11.173 L68.3285,14 L67.4045,14 L67.4045,10.909 C67.4045,10.3443305 67.2908345,9.91900143 67.0635,9.633 C66.8361655,9.34699857 66.5098355,9.204 66.0845,9.204 C65.6518312,9.204 65.2906681,9.3744983 65.001,9.7155 C64.7113319,10.0565017 64.5665,10.5423302 64.5665,11.173 L64.5665,14 L63.6425,14 Z" id="Scrolltozoom" fill="#393A44"></path>
            </g>
        </g>
    </g>
</svg>