<?xml version="1.0" encoding="UTF-8"?>
<svg width="63px" height="36px" viewBox="0 0 63 36" version="1.1" xmlns="http://www.w3.org/2000/svg" xmlns:xlink="http://www.w3.org/1999/xlink">
    <!-- Generator: Sketch 56.3 (81716) - https://sketch.com -->
    <title>Scroll down</title>
    <desc>Created with Sketch.</desc>
    <g id="Pages" stroke="none" stroke-width="1" fill="none" fill-rule="evenodd">
        <g id="Section-08-00" transform="translate(-481.000000, -541.000000)" fill-rule="nonzero">
            <g id="Scroll-down" transform="translate(481.000000, 535.000000)">
                <polyline id="Path-8" stroke="#393A44" transform="translate(31.000000, 34.500000) scale(1, -1) rotate(-180.000000) translate(-31.000000, -34.500000) " points="16 42 31 27 46 42"></polyline>
                <path d="M3.6205,14.132 C3.05583051,14.132 2.56450209,14.0293344 2.1465,13.824 C1.72849791,13.6186656 1.40583447,13.3326685 1.1785,12.966 C0.95116553,12.5993315 0.8375,12.1740024 0.8375,11.69 L1.8055,11.69 C1.8055,11.9906682 1.87516597,12.2674987 2.0145,12.5205 C2.15383403,12.7735013 2.357332,12.9751659 2.625,13.1255 C2.89266801,13.2758341 3.22449802,13.351 3.6205,13.351 C4.14116927,13.351 4.54449857,13.2263346 4.8305,12.977 C5.11650143,12.7276654 5.2595,12.4160019 5.2595,12.042 C5.2595,11.7339985 5.19350066,11.4865009 5.0615,11.2995 C4.92949934,11.1124991 4.75166779,10.9603339 4.528,10.843 C4.30433222,10.7256661 4.04766812,10.6230004 3.758,10.535 C3.46833189,10.4469996 3.16583491,10.3480006 2.8505,10.238 C2.25649703,10.0326656 1.81650143,9.77783486 1.5305,9.4735 C1.24449857,9.16916514 1.1015,8.77133579 1.1015,8.28 C1.09416663,7.86933128 1.18949901,7.5045016 1.3875,7.1855 C1.58550099,6.86649841 1.86599819,6.61716756 2.229,6.4375 C2.59200182,6.25783244 3.02283084,6.168 3.5215,6.168 C4.01283579,6.168 4.43999819,6.25966575 4.803,6.443 C5.16600182,6.62633425 5.44833233,6.87933172 5.65,7.202 C5.85166768,7.52466828 5.95616663,7.89133128 5.9635,8.302 L4.9955,8.302 C4.9955,8.08933227 4.94050055,7.87850105 4.8305,7.6695 C4.72049945,7.46049896 4.55366779,7.29000066 4.33,7.158 C4.10633222,7.02599934 3.82583502,6.96 3.4885,6.96 C3.07049791,6.95266663 2.72766801,7.0589989 2.46,7.279 C2.192332,7.4990011 2.0585,7.80333139 2.0585,8.192 C2.0585,8.52200165 2.15199907,8.77499912 2.339,8.951 C2.52600094,9.12700088 2.78816498,9.27183277 3.1255,9.3855 C3.46283502,9.49916724 3.8514978,9.6293326 4.2915,9.776 C4.6581685,9.90800066 4.9881652,10.0619991 5.2815,10.238 C5.5748348,10.4140009 5.80399918,10.6413319 5.969,10.92 C6.13400083,11.1986681 6.2165,11.5543312 6.2165,11.987 C6.2165,12.3536685 6.12116762,12.700165 5.9305,13.0265 C5.73983238,13.352835 5.45200193,13.6186656 5.067,13.824 C4.68199808,14.0293344 4.19983623,14.132 3.6205,14.132 Z M9.9785,14.132 C9.45783073,14.132 8.99033541,14.0128345 8.576,13.7745 C8.1616646,13.5361655 7.83533453,13.2025021 7.597,12.7735 C7.35866548,12.3444979 7.2395,11.8440029 7.2395,11.272 C7.2395,10.6999971 7.35866548,10.1995021 7.597,9.7705 C7.83533453,9.34149786 8.1616646,9.00783452 8.576,8.7695 C8.99033541,8.53116547 9.45783073,8.412 9.9785,8.412 C10.6238366,8.412 11.1683311,8.58066498 11.612,8.918 C12.0556689,9.25533502 12.3361661,9.70633051 12.4535,10.271 L11.5075,10.271 C11.4341663,9.93366498 11.2545014,9.67150094 10.9685,9.4845 C10.6824986,9.29749907 10.3488352,9.204 9.9675,9.204 C9.65949846,9.204 9.36983469,9.28099923 9.0985,9.435 C8.82716531,9.58900077 8.60716751,9.81999846 8.4385,10.128 C8.26983249,10.4360015 8.1855,10.8173311 8.1855,11.272 C8.1855,11.7266689 8.26983249,12.1079985 8.4385,12.416 C8.60716751,12.7240015 8.82716531,12.9568325 9.0985,13.1145 C9.36983469,13.2721675 9.65949846,13.351 9.9675,13.351 C10.3488352,13.351 10.6824986,13.2575009 10.9685,13.0705 C11.2545014,12.8834991 11.4341663,12.6176684 11.5075,12.273 L12.4535,12.273 C12.3434995,12.8230028 12.0648356,13.2703316 11.6175,13.615 C11.1701644,13.9596684 10.6238366,14.132 9.9785,14.132 Z M13.7405,14 L13.7405,8.544 L14.5765,8.544 L14.6535,9.589 C14.8221675,9.22966487 15.0788316,8.94366773 15.4235,8.731 C15.7681684,8.51833227 16.1934975,8.412 16.6995,8.412 L16.6995,9.38 L16.4465,9.38 C16.1238317,9.38 15.8268347,9.43683276 15.5555,9.5505 C15.2841653,9.66416723 15.0678341,9.85666531 14.9065,10.128 C14.7451659,10.3993347 14.6645,10.773331 14.6645,11.25 L14.6645,14 L13.7405,14 Z M20.2195,14.132 C19.7061641,14.132 19.2441687,14.0146678 18.8335,13.78 C18.4228313,13.5453322 18.0983345,13.2135021 17.86,12.7845 C17.6216655,12.3554979 17.5025,11.8513362 17.5025,11.272 C17.5025,10.6926638 17.6234988,10.1885021 17.8655,9.7595 C18.1075012,9.33049785 18.4356646,8.99866784 18.85,8.764 C19.2643354,8.52933216 19.7281641,8.412 20.2415,8.412 C20.7548359,8.412 21.2168313,8.52933216 21.6275,8.764 C22.0381687,8.99866784 22.3626655,9.33049785 22.601,9.7595 C22.8393345,10.1885021 22.9585,10.6926638 22.9585,11.272 C22.9585,11.8513362 22.8375012,12.3554979 22.5955,12.7845 C22.3534988,13.2135021 22.0253354,13.5453322 21.611,13.78 C21.1966646,14.0146678 20.7328359,14.132 20.2195,14.132 Z M20.2195,13.34 C20.5348349,13.34 20.8281653,13.2630008 21.0995,13.109 C21.3708347,12.9549992 21.5908325,12.7240015 21.7595,12.416 C21.9281675,12.1079985 22.0125,11.7266689 22.0125,11.272 C22.0125,10.8173311 21.9300008,10.4360015 21.765,10.128 C21.5999992,9.81999846 21.3818347,9.58900077 21.1105,9.435 C20.8391653,9.28099923 20.5495015,9.204 20.2415,9.204 C19.9261651,9.204 19.6328347,9.28099923 19.3615,9.435 C19.0901653,9.58900077 18.8701675,9.81999846 18.7015,10.128 C18.5328325,10.4360015 18.4485,10.8173311 18.4485,11.272 C18.4485,11.7266689 18.5328325,12.1079985 18.7015,12.416 C18.8701675,12.7240015 19.088332,12.9549992 19.356,13.109 C19.623668,13.2630008 19.9114985,13.34 20.2195,13.34 Z M24.2455,14 L24.2455,6.08 L25.1695,6.08 L25.1695,14 L24.2455,14 Z M26.6875,14 L26.6875,6.08 L27.6115,6.08 L27.6115,14 L26.6875,14 Z M34.2005,14 C33.7018308,14 33.3095014,13.8790012 33.0235,13.637 C32.7374986,13.3949988 32.5945,12.9586698 32.5945,12.328 L32.5945,9.325 L31.6485,9.325 L31.6485,8.544 L32.5945,8.544 L32.7155,7.235 L33.5185,7.235 L33.5185,8.544 L35.1245,8.544 L35.1245,9.325 L33.5185,9.325 L33.5185,12.328 C33.5185,12.6726684 33.588166,12.9054994 33.7275,13.0265 C33.866834,13.1475006 34.1124982,13.208 34.4645,13.208 L35.0365,13.208 L35.0365,14 L34.2005,14 Z M38.7875,14.132 C38.2741641,14.132 37.8121687,14.0146678 37.4015,13.78 C36.9908313,13.5453322 36.6663345,13.2135021 36.428,12.7845 C36.1896655,12.3554979 36.0705,11.8513362 36.0705,11.272 C36.0705,10.6926638 36.1914988,10.1885021 36.4335,9.7595 C36.6755012,9.33049785 37.0036646,8.99866784 37.418,8.764 C37.8323354,8.52933216 38.2961641,8.412 38.8095,8.412 C39.3228359,8.412 39.7848313,8.52933216 40.1955,8.764 C40.6061687,8.99866784 40.9306655,9.33049785 41.169,9.7595 C41.4073345,10.1885021 41.5265,10.6926638 41.5265,11.272 C41.5265,11.8513362 41.4055012,12.3554979 41.1635,12.7845 C40.9214988,13.2135021 40.5933354,13.5453322 40.179,13.78 C39.7646646,14.0146678 39.3008359,14.132 38.7875,14.132 Z M38.7875,13.34 C39.1028349,13.34 39.3961653,13.2630008 39.6675,13.109 C39.9388347,12.9549992 40.1588325,12.7240015 40.3275,12.416 C40.4961675,12.1079985 40.5805,11.7266689 40.5805,11.272 C40.5805,10.8173311 40.4980008,10.4360015 40.333,10.128 C40.1679992,9.81999846 39.9498347,9.58900077 39.6785,9.435 C39.4071653,9.28099923 39.1175015,9.204 38.8095,9.204 C38.4941651,9.204 38.2008347,9.28099923 37.9295,9.435 C37.6581653,9.58900077 37.4381675,9.81999846 37.2695,10.128 C37.1008325,10.4360015 37.0165,10.8173311 37.0165,11.272 C37.0165,11.7266689 37.1008325,12.1079985 37.2695,12.416 C37.4381675,12.7240015 37.656332,12.9549992 37.924,13.109 C38.191668,13.2630008 38.4794985,13.34 38.7875,13.34 Z M47.8845,14 C47.3858308,14 46.9935014,13.8790012 46.7075,13.637 C46.4214986,13.3949988 46.2785,12.9586698 46.2785,12.328 L46.2785,9.325 L45.3325,9.325 L45.3325,8.544 L46.2785,8.544 L46.3995,7.235 L47.2025,7.235 L47.2025,8.544 L48.8085,8.544 L48.8085,9.325 L47.2025,9.325 L47.2025,12.328 C47.2025,12.6726684 47.272166,12.9054994 47.4115,13.0265 C47.550834,13.1475006 47.7964982,13.208 48.1485,13.208 L48.7205,13.208 L48.7205,14 L47.8845,14 Z M52.4715,14.132 C51.9581641,14.132 51.4961687,14.0146678 51.0855,13.78 C50.6748313,13.5453322 50.3503345,13.2135021 50.112,12.7845 C49.8736655,12.3554979 49.7545,11.8513362 49.7545,11.272 C49.7545,10.6926638 49.8754988,10.1885021 50.1175,9.7595 C50.3595012,9.33049785 50.6876646,8.99866784 51.102,8.764 C51.5163354,8.52933216 51.9801641,8.412 52.4935,8.412 C53.0068359,8.412 53.4688313,8.52933216 53.8795,8.764 C54.2901687,8.99866784 54.6146655,9.33049785 54.853,9.7595 C55.0913345,10.1885021 55.2105,10.6926638 55.2105,11.272 C55.2105,11.8513362 55.0895012,12.3554979 54.8475,12.7845 C54.6054988,13.2135021 54.2773354,13.5453322 53.863,13.78 C53.4486646,14.0146678 52.9848359,14.132 52.4715,14.132 Z M52.4715,13.34 C52.7868349,13.34 53.0801653,13.2630008 53.3515,13.109 C53.6228347,12.9549992 53.8428325,12.7240015 54.0115,12.416 C54.1801675,12.1079985 54.2645,11.7266689 54.2645,11.272 C54.2645,10.8173311 54.1820008,10.4360015 54.017,10.128 C53.8519992,9.81999846 53.6338347,9.58900077 53.3625,9.435 C53.0911653,9.28099923 52.8015015,9.204 52.4935,9.204 C52.1781651,9.204 51.8848347,9.28099923 51.6135,9.435 C51.3421653,9.58900077 51.1221675,9.81999846 50.9535,10.128 C50.7848325,10.4360015 50.7005,10.8173311 50.7005,11.272 C50.7005,11.7266689 50.7848325,12.1079985 50.9535,12.416 C51.1221675,12.7240015 51.340332,12.9549992 51.608,13.109 C51.875668,13.2630008 52.1634985,13.34 52.4715,13.34 Z M56.4975,16.42 L56.4975,8.544 L57.3335,8.544 L57.4215,9.446 C57.5975009,9.18199868 57.848665,8.94366773 58.175,8.731 C58.501335,8.51833227 58.9174975,8.412 59.4235,8.412 C59.9661694,8.412 60.4391647,8.53666542 60.8425,8.786 C61.2458354,9.03533458 61.5593322,9.37633117 61.783,9.809 C62.0066678,10.2416688 62.1185,10.7329973 62.1185,11.283 C62.1185,11.8330028 62.0066678,12.3224979 61.783,12.7515 C61.5593322,13.1805021 61.244002,13.5178321 60.837,13.7635 C60.429998,14.0091679 59.9551694,14.132 59.4125,14.132 C58.9651644,14.132 58.5673351,14.0403343 58.219,13.857 C57.8706649,13.6736657 57.6048343,13.4170016 57.4215,13.087 L57.4215,16.42 L56.4975,16.42 Z M59.3135,13.329 C59.6801685,13.329 60.0028319,13.2428342 60.2815,13.0705 C60.5601681,12.8981658 60.7801659,12.6580015 60.9415,12.35 C61.1028341,12.0419985 61.1835,11.6826687 61.1835,11.272 C61.1835,10.8613313 61.1028341,10.5020015 60.9415,10.194 C60.7801659,9.88599846 60.5601681,9.64583419 60.2815,9.4735 C60.0028319,9.30116581 59.6801685,9.215 59.3135,9.215 C58.9468315,9.215 58.6241681,9.30116581 58.3455,9.4735 C58.0668319,9.64583419 57.8468341,9.88599846 57.6855,10.194 C57.5241659,10.5020015 57.4435,10.8613313 57.4435,11.272 C57.4435,11.6826687 57.5241659,12.0419985 57.6855,12.35 C57.8468341,12.6580015 58.0668319,12.8981658 58.3455,13.0705 C58.6241681,13.2428342 58.9468315,13.329 59.3135,13.329 Z" id="Scrolltotop" fill="#393A44"></path>
            </g>
        </g>
    </g>
</svg>