<?xml version="1.0" encoding="UTF-8"?>
<svg width="80px" height="14px" viewBox="0 0 80 14" version="1.1" xmlns="http://www.w3.org/2000/svg" xmlns:xlink="http://www.w3.org/1999/xlink">
    <!-- Generator: Sketch 57.1 (83088) - https://sketch.com -->
    <title>section2_7_legend</title>
    <desc>Created with Sketch.</desc>
    <defs>
        <path d="M2.079,7.084 C1.75699839,7.084 1.46533464,7.02683391 1.204,6.9125 C0.94266536,6.7981661 0.73266746,6.62200119 0.574,6.384 C0.41533254,6.14599881 0.33133338,5.84733513 0.322,5.488 L1.204,5.488 C1.20866669,5.72600119 1.28683258,5.9254992 1.4385,6.0865 C1.59016742,6.2475008 1.80366529,6.328 2.079,6.328 C2.34033464,6.328 2.5409993,6.25566739 2.681,6.111 C2.8210007,5.96633261 2.891,5.78433443 2.891,5.565 C2.891,5.30833205 2.79883426,5.11350067 2.6145,4.9805 C2.43016575,4.84749934 2.19333478,4.781 1.904,4.781 L1.54,4.781 L1.54,4.046 L1.911,4.046 C2.14900119,4.046 2.34733254,3.99000056 2.506,3.878 C2.66466746,3.76599944 2.744,3.60033443 2.744,3.381 C2.744,3.19899909 2.6845006,3.05316722 2.5655,2.9435 C2.4464994,2.83383279 2.28200105,2.779 2.072,2.779 C1.84333219,2.779 1.66483398,2.84666599 1.5365,2.982 C1.40816602,3.11733401 1.33700007,3.28299902 1.323,3.479 L0.448,3.479 C0.46666676,3.02633107 0.624165185,2.66933464 0.9205,2.408 C1.21683481,2.14666536 1.60066431,2.016 2.072,2.016 C2.40800168,2.016 2.69149884,2.0754994 2.9225,2.1945 C3.15350115,2.31350059 3.32849941,2.47099902 3.4475,2.667 C3.56650059,2.86300098 3.626,3.07999881 3.626,3.318 C3.626,3.59333471 3.55016742,3.82549905 3.3985,4.0145 C3.24683257,4.20350095 3.05900112,4.33066634 2.835,4.396 C3.11033471,4.45200028 3.33433247,4.5861656 3.507,4.7985 C3.67966753,5.01083439 3.766,5.27799839 3.766,5.6 C3.766,5.87066802 3.70066732,6.11799888 3.57,6.342 C3.43933268,6.56600112 3.24916792,6.74566599 2.9995,6.881 C2.74983208,7.01633401 2.44300182,7.084 2.079,7.084 Z M5.593,4.508 C5.36899888,4.508 5.16600091,4.45783383 4.984,4.3575 C4.80199909,4.25716617 4.65733387,4.1136676 4.55,3.927 C4.44266613,3.7403324 4.389,3.51866795 4.389,3.262 C4.389,3.00533205 4.44266613,2.7836676 4.55,2.597 C4.65733387,2.4103324 4.80199909,2.26683383 4.984,2.1665 C5.16600091,2.06616616 5.37133219,2.016 5.6,2.016 C5.82400112,2.016 6.02583243,2.06616616 6.2055,2.1665 C6.38516756,2.26683383 6.52866613,2.4103324 6.636,2.597 C6.74333387,2.7836676 6.797,3.00533205 6.797,3.262 C6.797,3.51866795 6.74333387,3.7403324 6.636,3.927 C6.52866613,4.1136676 6.38400091,4.25716617 6.202,4.3575 C6.01999909,4.45783383 5.81700112,4.508 5.593,4.508 Z M5.327,7 L8.092,2.1 L8.967,2.1 L6.202,7 L5.327,7 Z M5.593,3.885 C5.72833401,3.885 5.84499951,3.83250053 5.943,3.7275 C6.04100049,3.62249947 6.09,3.46733436 6.09,3.262 C6.09,3.05666564 6.04216714,2.90033387 5.9465,2.793 C5.85083286,2.68566613 5.7330007,2.632 5.593,2.632 C5.4529993,2.632 5.33516714,2.68566613 5.2395,2.793 C5.14383286,2.90033387 5.096,3.05666564 5.096,3.262 C5.096,3.46733436 5.14383286,3.62249947 5.2395,3.7275 C5.33516714,3.83250053 5.4529993,3.885 5.593,3.885 Z M8.729,7.084 C8.50499888,7.084 8.30200091,7.03383384 8.12,6.9335 C7.93799909,6.83316616 7.79333387,6.6896676 7.686,6.503 C7.57866613,6.3163324 7.525,6.09466795 7.525,5.838 C7.525,5.58133205 7.57866613,5.36083426 7.686,5.1765 C7.79333387,4.99216575 7.93799909,4.84983384 8.12,4.7495 C8.30200091,4.64916617 8.50733219,4.599 8.736,4.599 C8.96000112,4.599 9.16183243,4.64916617 9.3415,4.7495 C9.52116756,4.84983384 9.66466613,4.99216575 9.772,5.1765 C9.87933387,5.36083426 9.933,5.58133205 9.933,5.838 C9.933,6.09466795 9.87933387,6.3163324 9.772,6.503 C9.66466613,6.6896676 9.52116756,6.83316616 9.3415,6.9335 C9.16183243,7.03383384 8.95766781,7.084 8.729,7.084 Z M8.729,6.461 C8.8690007,6.461 8.98683285,6.40850053 9.0825,6.3035 C9.17816714,6.19849948 9.226,6.04333436 9.226,5.838 C9.226,5.63266564 9.17816714,5.47633387 9.0825,5.369 C8.98683285,5.26166613 8.8690007,5.208 8.729,5.208 C8.5889993,5.208 8.47116714,5.26166613 8.3755,5.369 C8.27983285,5.47633387 8.232,5.63266564 8.232,5.838 C8.232,6.04333436 8.27983285,6.19849948 8.3755,6.3035 C8.47116714,6.40850053 8.5889993,6.461 8.729,6.461 Z" id="path-1"></path>
        <path d="M1.259,7 L1.259,6.349 C1.55766816,6.10166543 1.84816526,5.85666788 2.1305,5.614 C2.41283475,5.37133212 2.66483223,5.13100119 2.8865,4.893 C3.10816778,4.65499881 3.28549934,4.42283447 3.4185,4.1965 C3.55150067,3.97016553 3.618,3.74966774 3.618,3.535 C3.618,3.33433233 3.56316722,3.15700077 3.4535,3.003 C3.34383279,2.84899923 3.16300126,2.772 2.911,2.772 C2.65433205,2.772 2.46066732,2.85599916 2.33,3.024 C2.19933268,3.19200084 2.134,3.39499881 2.134,3.633 L1.266,3.633 C1.27533338,3.27366487 1.35466592,2.97383453 1.504,2.7335 C1.65333408,2.49316547 1.85166543,2.31350059 2.099,2.1945 C2.34633457,2.0754994 2.62399846,2.016 2.932,2.016 C3.43133583,2.016 3.81983195,2.15249863 4.0975,2.4255 C4.37516806,2.69850137 4.514,3.05199783 4.514,3.486 C4.514,3.75666802 4.45216729,4.02033205 4.3285,4.277 C4.20483272,4.53366795 4.04266767,4.78099881 3.842,5.019 C3.64133233,5.25700119 3.4243345,5.47983229 3.191,5.6875 C2.9576655,5.8951677 2.73133443,6.08766578 2.512,6.265 L4.633,6.265 L4.633,7 L1.259,7 Z M5.256,7 L5.256,6.349 C5.55466816,6.10166543 5.84516526,5.85666788 6.1275,5.614 C6.40983475,5.37133212 6.66183223,5.13100119 6.8835,4.893 C7.10516778,4.65499881 7.28249933,4.42283447 7.4155,4.1965 C7.54850066,3.97016553 7.615,3.74966774 7.615,3.535 C7.615,3.33433233 7.56016722,3.15700077 7.4505,3.003 C7.34083279,2.84899923 7.16000126,2.772 6.908,2.772 C6.65133205,2.772 6.45766732,2.85599916 6.327,3.024 C6.19633268,3.19200084 6.131,3.39499881 6.131,3.633 L5.263,3.633 C5.27233338,3.27366487 5.35166592,2.97383453 5.501,2.7335 C5.65033408,2.49316547 5.84866543,2.31350059 6.096,2.1945 C6.34333457,2.0754994 6.62099846,2.016 6.929,2.016 C7.42833583,2.016 7.81683194,2.15249863 8.0945,2.4255 C8.37216805,2.69850137 8.511,3.05199783 8.511,3.486 C8.511,3.75666802 8.44916728,4.02033205 8.3255,4.277 C8.20183271,4.53366795 8.03966767,4.78099881 7.839,5.019 C7.63833233,5.25700119 7.4213345,5.47983229 7.188,5.6875 C6.9546655,5.8951677 6.72833443,6.08766578 6.509,6.265 L8.63,6.265 L8.63,7 L5.256,7 Z M10.38,4.508 C10.1559989,4.508 9.95300091,4.45783383 9.771,4.3575 C9.58899909,4.25716617 9.44433387,4.1136676 9.337,3.927 C9.22966613,3.7403324 9.176,3.51866795 9.176,3.262 C9.176,3.00533205 9.22966613,2.7836676 9.337,2.597 C9.44433387,2.4103324 9.58899909,2.26683383 9.771,2.1665 C9.95300091,2.06616616 10.1583322,2.016 10.387,2.016 C10.6110011,2.016 10.8128324,2.06616616 10.9925,2.1665 C11.1721676,2.26683383 11.3156661,2.4103324 11.423,2.597 C11.5303339,2.7836676 11.584,3.00533205 11.584,3.262 C11.584,3.51866795 11.5303339,3.7403324 11.423,3.927 C11.3156661,4.1136676 11.1710009,4.25716617 10.989,4.3575 C10.8069991,4.45783383 10.6040011,4.508 10.38,4.508 Z M10.114,7 L12.879,2.1 L13.754,2.1 L10.989,7 L10.114,7 Z M10.38,3.885 C10.515334,3.885 10.6319995,3.83250053 10.73,3.7275 C10.8280005,3.62249947 10.877,3.46733436 10.877,3.262 C10.877,3.05666564 10.8291671,2.90033387 10.7335,2.793 C10.6378329,2.68566613 10.5200007,2.632 10.38,2.632 C10.2399993,2.632 10.1221671,2.68566613 10.0265,2.793 C9.93083286,2.90033387 9.883,3.05666564 9.883,3.262 C9.883,3.46733436 9.93083286,3.62249947 10.0265,3.7275 C10.1221671,3.83250053 10.2399993,3.885 10.38,3.885 Z M13.516,7.084 C13.2919989,7.084 13.0890009,7.03383384 12.907,6.9335 C12.7249991,6.83316616 12.5803339,6.6896676 12.473,6.503 C12.3656661,6.3163324 12.312,6.09466795 12.312,5.838 C12.312,5.58133205 12.3656661,5.36083426 12.473,5.1765 C12.5803339,4.99216575 12.7249991,4.84983384 12.907,4.7495 C13.0890009,4.64916617 13.2943322,4.599 13.523,4.599 C13.7470011,4.599 13.9488324,4.64916617 14.1285,4.7495 C14.3081676,4.84983384 14.4516661,4.99216575 14.559,5.1765 C14.6663339,5.36083426 14.72,5.58133205 14.72,5.838 C14.72,6.09466795 14.6663339,6.3163324 14.559,6.503 C14.4516661,6.6896676 14.3081676,6.83316616 14.1285,6.9335 C13.9488324,7.03383384 13.7446678,7.084 13.516,7.084 Z M13.516,6.461 C13.6560007,6.461 13.7738329,6.40850053 13.8695,6.3035 C13.9651671,6.19849948 14.013,6.04333436 14.013,5.838 C14.013,5.63266564 13.9651671,5.47633387 13.8695,5.369 C13.7738329,5.26166613 13.6560007,5.208 13.516,5.208 C13.3759993,5.208 13.2581671,5.26166613 13.1625,5.369 C13.0668329,5.47633387 13.019,5.63266564 13.019,5.838 C13.019,6.04333436 13.0668329,6.19849948 13.1625,6.3035 C13.2581671,6.40850053 13.3759993,6.461 13.516,6.461 Z" id="path-2"></path>
        <linearGradient x1="100%" y1="50%" x2="0%" y2="50%" id="linearGradient-3">
            <stop stop-color="#ED6E4D" offset="0%"></stop>
            <stop stop-color="#ED6E4D" stop-opacity="0.2" offset="100%"></stop>
        </linearGradient>
    </defs>
    <g id="Page-1" stroke="none" stroke-width="1" fill="none" fill-rule="evenodd">
        <g id="section2_7_legend" fill-rule="nonzero">
            <g id="3%" transform="translate(0.000000, 6.000000)">
                <g>
                    <use fill="#000000" xlink:href="#path-1"></use>
                    <use fill="#393A44" xlink:href="#path-1"></use>
                </g>
            </g>
            <g id="22%" transform="translate(65.000000, 6.000000)">
                <g>
                    <use fill="#000000" xlink:href="#path-2"></use>
                    <use fill="#393A44" xlink:href="#path-2"></use>
                </g>
            </g>
            <rect id="Rectangle" fill="url(#linearGradient-3)" x="0" y="0" width="80" height="5"></rect>
        </g>
    </g>
</svg>