<?xml version="1.0" encoding="UTF-8"?>
<svg width="80px" height="14px" viewBox="0 0 80 14" version="1.1" xmlns="http://www.w3.org/2000/svg" xmlns:xlink="http://www.w3.org/1999/xlink">
    <!-- Generator: Sketch 57.1 (83088) - https://sketch.com -->
    <title>section2_5_legend</title>
    <desc>Created with Sketch.</desc>
    <defs>
        <path d="M0.357,7 L0.357,6.349 C0.65566816,6.10166543 0.946165255,5.85666788 1.2285,5.614 C1.51083475,5.37133212 1.76283223,5.13100119 1.9845,4.893 C2.20616777,4.65499881 2.38349934,4.42283447 2.5165,4.1965 C2.64950067,3.97016553 2.716,3.74966774 2.716,3.535 C2.716,3.33433233 2.66116721,3.15700077 2.5515,3.003 C2.44183278,2.84899923 2.26100126,2.772 2.009,2.772 C1.75233205,2.772 1.55866732,2.85599916 1.428,3.024 C1.29733268,3.19200084 1.232,3.39499881 1.232,3.633 L0.364,3.633 C0.37333338,3.27366487 0.45266592,2.97383453 0.602,2.7335 C0.75133408,2.49316547 0.94966543,2.31350059 1.197,2.1945 C1.44433457,2.0754994 1.72199846,2.016 2.03,2.016 C2.52933583,2.016 2.91783195,2.15249863 3.1955,2.4255 C3.47316806,2.69850137 3.612,3.05199783 3.612,3.486 C3.612,3.75666802 3.55016729,4.02033205 3.4265,4.277 C3.30283272,4.53366795 3.14066767,4.78099881 2.94,5.019 C2.73933233,5.25700119 2.5223345,5.47983229 2.289,5.6875 C2.0556655,5.8951677 1.82933443,6.08766578 1.61,6.265 L3.731,6.265 L3.731,7 L0.357,7 Z M5.481,4.508 C5.25699888,4.508 5.05400091,4.45783383 4.872,4.3575 C4.68999909,4.25716617 4.54533387,4.1136676 4.438,3.927 C4.33066613,3.7403324 4.277,3.51866795 4.277,3.262 C4.277,3.00533205 4.33066613,2.7836676 4.438,2.597 C4.54533387,2.4103324 4.68999909,2.26683383 4.872,2.1665 C5.05400091,2.06616616 5.25933219,2.016 5.488,2.016 C5.71200112,2.016 5.91383244,2.06616616 6.0935,2.1665 C6.27316757,2.26683383 6.41666613,2.4103324 6.524,2.597 C6.63133387,2.7836676 6.685,3.00533205 6.685,3.262 C6.685,3.51866795 6.63133387,3.7403324 6.524,3.927 C6.41666613,4.1136676 6.27200091,4.25716617 6.09,4.3575 C5.90799909,4.45783383 5.70500112,4.508 5.481,4.508 Z M5.215,7 L7.98,2.1 L8.855,2.1 L6.09,7 L5.215,7 Z M5.481,3.885 C5.61633401,3.885 5.73299951,3.83250053 5.831,3.7275 C5.92900049,3.62249947 5.978,3.46733436 5.978,3.262 C5.978,3.05666564 5.93016714,2.90033387 5.8345,2.793 C5.73883286,2.68566613 5.6210007,2.632 5.481,2.632 C5.3409993,2.632 5.22316714,2.68566613 5.1275,2.793 C5.03183286,2.90033387 4.984,3.05666564 4.984,3.262 C4.984,3.46733436 5.03183286,3.62249947 5.1275,3.7275 C5.22316714,3.83250053 5.3409993,3.885 5.481,3.885 Z M8.617,7.084 C8.39299888,7.084 8.19000091,7.03383384 8.008,6.9335 C7.82599909,6.83316616 7.68133387,6.6896676 7.574,6.503 C7.46666613,6.3163324 7.413,6.09466795 7.413,5.838 C7.413,5.58133205 7.46666613,5.36083426 7.574,5.1765 C7.68133387,4.99216575 7.82599909,4.84983384 8.008,4.7495 C8.19000091,4.64916617 8.39533219,4.599 8.624,4.599 C8.84800112,4.599 9.04983243,4.64916617 9.2295,4.7495 C9.40916756,4.84983384 9.55266613,4.99216575 9.66,5.1765 C9.76733387,5.36083426 9.821,5.58133205 9.821,5.838 C9.821,6.09466795 9.76733387,6.3163324 9.66,6.503 C9.55266613,6.6896676 9.40916756,6.83316616 9.2295,6.9335 C9.04983243,7.03383384 8.84566781,7.084 8.617,7.084 Z M8.617,6.461 C8.7570007,6.461 8.87483286,6.40850053 8.9705,6.3035 C9.06616715,6.19849948 9.114,6.04333436 9.114,5.838 C9.114,5.63266564 9.06616715,5.47633387 8.9705,5.369 C8.87483286,5.26166613 8.7570007,5.208 8.617,5.208 C8.4769993,5.208 8.35916715,5.26166613 8.2635,5.369 C8.16783286,5.47633387 8.12,5.63266564 8.12,5.838 C8.12,6.04333436 8.16783286,6.19849948 8.2635,6.3035 C8.35916715,6.40850053 8.4769993,6.461 8.617,6.461 Z" id="path-1"></path>
        <path d="M2.372,7.084 C2.00333149,7.084 1.69300126,7.01633401 1.441,6.881 C1.18899874,6.74566599 0.98600077,6.56366781 0.832,6.335 C0.67799923,6.10633219 0.567167005,5.8520014 0.4995,5.572 C0.431832995,5.2919986 0.398,5.00500147 0.398,4.711 C0.398,4.16499727 0.47499923,3.69016868 0.629,3.2865 C0.78300077,2.88283132 1.00466522,2.57016777 1.294,2.3485 C1.58333478,2.12683222 1.93333128,2.016 2.344,2.016 C2.68000168,2.016 2.96583216,2.08249933 3.2015,2.2155 C3.43716785,2.34850067 3.62033268,2.52233226 3.751,2.737 C3.88166732,2.95166774 3.95866655,3.18266543 3.982,3.43 L3.149,3.43 C3.10699979,3.21533226 3.0160007,3.04966725 2.876,2.933 C2.7359993,2.81633275 2.55633443,2.758 2.337,2.758 C2.02433177,2.758 1.77233429,2.90149856 1.581,3.1885 C1.38966571,3.47550143 1.28700007,3.91299706 1.273,4.501 C1.38500056,4.30966571 1.55299888,4.15100063 1.777,4.025 C2.00100112,3.89899937 2.25066529,3.836 2.526,3.836 C2.79666802,3.836 3.05099881,3.90133268 3.289,4.032 C3.52700119,4.16266732 3.71949927,4.34699881 3.8665,4.585 C4.01350074,4.82300119 4.087,5.10299839 4.087,5.425 C4.087,5.71900147 4.01583405,5.99199874 3.8735,6.244 C3.73116596,6.49600126 3.5305013,6.69899923 3.2715,6.853 C3.01249871,7.00700077 2.71266837,7.084 2.372,7.084 Z M2.323,6.314 C2.58433464,6.314 2.80016582,6.23350081 2.9705,6.0725 C3.14083419,5.91149919 3.226,5.70733457 3.226,5.46 C3.226,5.19866536 3.13966753,4.98866746 2.967,4.83 C2.79433247,4.67133254 2.57500133,4.592 2.309,4.592 C2.13633247,4.592 1.98116736,4.63049962 1.8435,4.7075 C1.70583265,4.78450039 1.59733373,4.88716602 1.518,5.0155 C1.43866627,5.14383397 1.399,5.28733254 1.399,5.446 C1.399,5.69800126 1.48649913,5.90566585 1.6615,6.069 C1.83650088,6.23233415 2.05699867,6.314 2.323,6.314 Z M6.698,7.084 C6.36199832,7.084 6.05866802,7.0245006 5.788,6.9055 C5.51733198,6.7864994 5.30150081,6.61733443 5.1405,6.398 C4.9794992,6.17866557 4.899,5.92433478 4.899,5.635 C4.899,5.33633184 4.97716589,5.07500112 5.1335,4.851 C5.28983412,4.62699888 5.49633205,4.46600049 5.753,4.368 C5.52899888,4.26999951 5.35166732,4.12883426 5.221,3.9445 C5.09033268,3.76016575 5.025,3.55366781 5.025,3.325 C5.025,3.0916655 5.08799937,2.87583432 5.214,2.6775 C5.34000063,2.47916567 5.52783209,2.31933394 5.7775,2.198 C6.02716792,2.07666606 6.33399818,2.016 6.698,2.016 C7.06200182,2.016 7.36766543,2.07666606 7.615,2.198 C7.86233457,2.31933394 8.04899937,2.47916567 8.175,2.6775 C8.30100063,2.87583432 8.364,3.0916655 8.364,3.325 C8.364,3.54900112 8.29750067,3.75549905 8.1645,3.9445 C8.03149934,4.13350094 7.85533443,4.2746662 7.636,4.368 C7.89733464,4.46600049 8.10499923,4.62699888 8.259,4.851 C8.41300077,5.07500112 8.49,5.33633184 8.49,5.635 C8.49,5.92433478 8.41066746,6.17866557 8.252,6.398 C8.09333254,6.61733443 7.87750137,6.7864994 7.6045,6.9055 C7.33149864,7.0245006 7.02933499,7.084 6.698,7.084 Z M6.698,4.102 C6.94066788,4.102 7.1319993,4.03900063 7.272,3.913 C7.4120007,3.78699937 7.482,3.62600098 7.482,3.43 C7.482,3.21533226 7.41316736,3.04733394 7.2755,2.926 C7.13783265,2.80466606 6.94533457,2.744 6.698,2.744 C6.44599874,2.744 6.25233401,2.80466606 6.117,2.926 C5.98166599,3.04733394 5.914,3.21533226 5.914,3.43 C5.914,3.63066767 5.98283265,3.79283271 6.1205,3.9165 C6.25816736,4.04016729 6.45066543,4.102 6.698,4.102 Z M6.698,6.335 C6.99666816,6.335 7.22299923,6.26150074 7.377,6.1145 C7.53100077,5.96749927 7.608,5.78200112 7.608,5.558 C7.608,5.31066543 7.52750081,5.1170007 7.3665,4.977 C7.2054992,4.8369993 6.98266809,4.767 6.698,4.767 C6.41333191,4.767 6.1881675,4.8369993 6.0225,4.977 C5.85683251,5.1170007 5.774,5.31066543 5.774,5.558 C5.774,5.78200112 5.85216589,5.96749927 6.0085,6.1145 C6.16483412,6.26150074 6.39466515,6.335 6.698,6.335 Z M10.38,4.508 C10.1559989,4.508 9.95300091,4.45783383 9.771,4.3575 C9.58899909,4.25716617 9.44433387,4.1136676 9.337,3.927 C9.22966613,3.7403324 9.176,3.51866795 9.176,3.262 C9.176,3.00533205 9.22966613,2.7836676 9.337,2.597 C9.44433387,2.4103324 9.58899909,2.26683383 9.771,2.1665 C9.95300091,2.06616616 10.1583322,2.016 10.387,2.016 C10.6110011,2.016 10.8128324,2.06616616 10.9925,2.1665 C11.1721676,2.26683383 11.3156661,2.4103324 11.423,2.597 C11.5303339,2.7836676 11.584,3.00533205 11.584,3.262 C11.584,3.51866795 11.5303339,3.7403324 11.423,3.927 C11.3156661,4.1136676 11.1710009,4.25716617 10.989,4.3575 C10.8069991,4.45783383 10.6040011,4.508 10.38,4.508 Z M10.114,7 L12.879,2.1 L13.754,2.1 L10.989,7 L10.114,7 Z M10.38,3.885 C10.515334,3.885 10.6319995,3.83250053 10.73,3.7275 C10.8280005,3.62249947 10.877,3.46733436 10.877,3.262 C10.877,3.05666564 10.8291671,2.90033387 10.7335,2.793 C10.6378329,2.68566613 10.5200007,2.632 10.38,2.632 C10.2399993,2.632 10.1221671,2.68566613 10.0265,2.793 C9.93083286,2.90033387 9.883,3.05666564 9.883,3.262 C9.883,3.46733436 9.93083286,3.62249947 10.0265,3.7275 C10.1221671,3.83250053 10.2399993,3.885 10.38,3.885 Z M13.516,7.084 C13.2919989,7.084 13.0890009,7.03383384 12.907,6.9335 C12.7249991,6.83316616 12.5803339,6.6896676 12.473,6.503 C12.3656661,6.3163324 12.312,6.09466795 12.312,5.838 C12.312,5.58133205 12.3656661,5.36083426 12.473,5.1765 C12.5803339,4.99216575 12.7249991,4.84983384 12.907,4.7495 C13.0890009,4.64916617 13.2943322,4.599 13.523,4.599 C13.7470011,4.599 13.9488324,4.64916617 14.1285,4.7495 C14.3081676,4.84983384 14.4516661,4.99216575 14.559,5.1765 C14.6663339,5.36083426 14.72,5.58133205 14.72,5.838 C14.72,6.09466795 14.6663339,6.3163324 14.559,6.503 C14.4516661,6.6896676 14.3081676,6.83316616 14.1285,6.9335 C13.9488324,7.03383384 13.7446678,7.084 13.516,7.084 Z M13.516,6.461 C13.6560007,6.461 13.7738329,6.40850053 13.8695,6.3035 C13.9651671,6.19849948 14.013,6.04333436 14.013,5.838 C14.013,5.63266564 13.9651671,5.47633387 13.8695,5.369 C13.7738329,5.26166613 13.6560007,5.208 13.516,5.208 C13.3759993,5.208 13.2581671,5.26166613 13.1625,5.369 C13.0668329,5.47633387 13.019,5.63266564 13.019,5.838 C13.019,6.04333436 13.0668329,6.19849948 13.1625,6.3035 C13.2581671,6.40850053 13.3759993,6.461 13.516,6.461 Z" id="path-2"></path>
        <linearGradient x1="100%" y1="50%" x2="0%" y2="50%" id="linearGradient-3">
            <stop stop-color="#E8B64D" offset="0%"></stop>
            <stop stop-color="#E8B64D" stop-opacity="0.2" offset="100%"></stop>
        </linearGradient>
    </defs>
    <g id="Page-1" stroke="none" stroke-width="1" fill="none" fill-rule="evenodd">
        <g id="section2_5_legend" fill-rule="nonzero">
            <g id="2%" transform="translate(0.000000, 6.000000)">
                <g>
                    <use fill="#000000" xlink:href="#path-1"></use>
                    <use fill="#393A44" xlink:href="#path-1"></use>
                </g>
            </g>
            <g id="68%" transform="translate(65.000000, 6.000000)">
                <g>
                    <use fill="#000000" xlink:href="#path-2"></use>
                    <use fill="#393A44" xlink:href="#path-2"></use>
                </g>
            </g>
            <rect id="Rectangle" fill="url(#linearGradient-3)" x="0" y="0" width="80" height="5"></rect>
        </g>
    </g>
</svg>