<?xml version="1.0" encoding="UTF-8"?>
<svg width="459px" height="394px" viewBox="0 0 459 394" version="1.1" xmlns="http://www.w3.org/2000/svg" xmlns:xlink="http://www.w3.org/1999/xlink">
    <!-- Generator: Sketch 55.2 (78181) - https://sketchapp.com -->
    <title>Group 10</title>
    <desc>Created with Sketch.</desc>
    <g id="Page-1" stroke="none" stroke-width="1" fill="none" fill-rule="evenodd">
        <g id="Section-06:-It-All-Started-with-Feeding-the-Meter-Copy" transform="translate(-444.000000, -103.000000)">
            <g id="Group-10" transform="translate(439.000000, 104.000000)">
                <g id="Group-2" transform="translate(54.000000, 298.442277)" fill-rule="nonzero">
                    <polygon id="Path-2-Copy-14" fill="#1C8E7F" transform="translate(9.500000, 9.500000) rotate(90.000000) translate(-9.500000, -9.500000) " points="4.99570263e-15 0 19 0.160159716 19 19 4.97379915e-15 19"></polygon>
                    <polygon id="Path-2-Copy-57" fill="#1C8E7F" transform="translate(52.500000, 9.500000) rotate(90.000000) translate(-52.500000, -9.500000) " points="43 0 62 0.160159716 62 19 43 19"></polygon>
                    <polygon id="Path-2-Copy-58" fill="#1C8E7F" transform="translate(74.500000, 9.500000) rotate(90.000000) translate(-74.500000, -9.500000) " points="65 4.19775326e-13 84 0.160159716 84 19 65 19"></polygon>
                    <polygon id="Path-2-Copy-59" fill="#85C9C0" transform="translate(31.500000, 9.500000) rotate(90.000000) translate(-31.500000, -9.500000) " points="22 0 41 0.160159716 41 19 22 19"></polygon>
                </g>
                <g id="Group-3" transform="translate(54.000000, 261.442277)" fill-rule="nonzero">
                    <polygon id="Path-2-Copy-18" fill="#1C8E7F" transform="translate(9.500000, 9.500000) rotate(90.000000) translate(-9.500000, -9.500000) " points="3.80437855e-15 0 19 0.160159716 19 19 3.78956126e-15 19"></polygon>
                    <polygon id="Path-2-Copy-50" fill="#1C8E7F" transform="translate(74.500000, 9.500000) rotate(90.000000) translate(-74.500000, -9.500000) " points="65 4.21884749e-13 84 0.160159716 84 19 65 19"></polygon>
                    <polygon id="Path-2-Copy-51" fill="#1C8E7F" transform="translate(117.500000, 9.500000) rotate(90.000000) translate(-117.500000, -9.500000) " points="108 -4.21884749e-15 127 0.160159716 127 19 108 19"></polygon>
                    <polygon id="Path-2-Copy-55" fill="#85C9C0" transform="translate(139.500000, 9.500000) rotate(90.000000) translate(-139.500000, -9.500000) " points="130 0 149 0.160159716 149 19 130 19"></polygon>
                    <polygon id="Path-2-Copy-52" fill="#85C9C0" transform="translate(52.500000, 9.500000) rotate(90.000000) translate(-52.500000, -9.500000) " points="43 0 62 0.160159716 62 19 43 19"></polygon>
                    <polygon id="Path-2-Copy-53" fill="#85C9C0" transform="translate(96.500000, 9.500000) rotate(90.000000) translate(-96.500000, -9.500000) " points="87 0 106 0.160159716 106 19 87 19"></polygon>
                    <polygon id="Path-2-Copy-54" fill="#1C8E7F" transform="translate(31.500000, 9.500000) rotate(90.000000) translate(-31.500000, -9.500000) " points="22 0 41 0.160159716 41 19 22 19"></polygon>
                </g>
                <g id="Path-2-Copy-66" transform="translate(54.000000, 335.442277)" fill="#1C8E7F" fill-rule="nonzero">
                    <polygon id="Path-2-Copy-25" transform="translate(10.000000, 10.500000) rotate(90.000000) translate(-10.000000, -10.500000) " points="1.7151245e-15 1 20 1.16015972 20 20 1.77635684e-15 20"></polygon>
                </g>
                <g id="Group" transform="translate(54.000000, 373.442277)" fill="#1C8E7F" fill-rule="nonzero">
                    <polygon id="Path-2-Copy-26" transform="translate(9.500000, 9.500000) rotate(90.000000) translate(-9.500000, -9.500000) " points="5.15799339e-15 0 19 0.160159716 19 19 5.14156619e-15 19"></polygon>
                    <polygon id="Path-2-Copy-29" transform="translate(31.500000, 9.500000) rotate(90.000000) translate(-31.500000, -9.500000) " points="22 -1.06715747e-11 41 0.160159716 41 19 22 19"></polygon>
                </g>
                <path d="M41.5,0.442276967 L41.5,392.442277" id="Line" stroke="#979797" stroke-linecap="square"></path>
                <text id="2019" font-family="Helvetica" font-size="12" font-weight="normal" fill="#393A44">
                    <tspan x="5.3046875" y="387.442277">2019</tspan>
                </text>
                <text id="2014" font-family="Helvetica" font-size="12" font-weight="normal" fill="#393A44">
                    <tspan x="5.3046875" y="199">2014</tspan>
                </text>
                <text id="2009" font-family="Helvetica" font-size="12" font-weight="normal" fill="#393A44">
                    <tspan x="5.3046875" y="13">2009</tspan>
                </text>
                <g id="Path-2-Copy-6" transform="translate(54.000000, 0.442277)" fill="#85C9C0" fill-rule="nonzero">
                    <polygon id="Path-2-Copy-5" transform="translate(9.500000, 9.500000) rotate(90.000000) translate(-9.500000, -9.500000) " points="4.46875652e-15 -1.2078033e-11 19 0.160159716 19 19 4.46875652e-15 19"></polygon>
                </g>
                <g id="Group-6" transform="translate(54.000000, 149.442277)" fill="#85C9C0" fill-rule="nonzero">
                    <polygon id="Path-2-Copy-10" transform="translate(9.500000, 9.500000) rotate(90.000000) translate(-9.500000, -9.500000) " points="3.80479031e-15 0 19 0.160159716 19 19 3.78956126e-15 19"></polygon>
                    <polygon id="Path-2-Copy-20" transform="translate(31.500000, 9.500000) rotate(90.000000) translate(-31.500000, -9.500000) " points="22 -6.36624087e-12 41 0.160159716 41 19 22 19"></polygon>
                </g>
                <g id="Group-8" transform="translate(54.000000, 75.442277)" fill-rule="nonzero">
                    <polygon id="Path-2-Copy-7" fill="#85C9C0" transform="translate(9.500000, 9.500000) rotate(90.000000) translate(-9.500000, -9.500000) " points="5.67299294e-15 0 19 0.160159716 19 19 5.65473594e-15 19"></polygon>
                    <polygon id="Path-2-Copy-18" fill="#85C9C0" transform="translate(73.500000, 9.500000) rotate(90.000000) translate(-73.500000, -9.500000) " points="64 4.21884749e-13 83 0.160159716 83 19 64 19"></polygon>
                    <polygon id="Path-2-Copy-23" fill="#85C9C0" transform="translate(116.500000, 9.500000) rotate(90.000000) translate(-116.500000, -9.500000) " points="107 0 126 0.160159716 126 19 107 19"></polygon>
                    <polygon id="Path-2-Copy-8" fill="#85C9C0" transform="translate(31.500000, 9.500000) rotate(90.000000) translate(-31.500000, -9.500000) " points="22 -2.10942375e-15 41 0.160159716 41 19 22 19"></polygon>
                    <polygon id="Path-2-Copy-19" fill="#1C8E7F" transform="translate(52.500000, 9.500000) rotate(90.000000) translate(-52.500000, -9.500000) " points="43 -2.10942375e-15 62 0.160159716 62 19 43 19"></polygon>
                    <polygon id="Path-2-Copy-21" fill="#85C9C0" transform="translate(95.500000, 9.500000) rotate(90.000000) translate(-95.500000, -9.500000) " points="86 0 105 0.160159716 105 19 86 19"></polygon>
                </g>
                <g id="Group-9" transform="translate(54.000000, 37.442277)" fill-rule="nonzero">
                    <polygon id="Path-2-Copy-12" fill="#85C9C0" transform="translate(53.000000, 10.500000) rotate(90.000000) translate(-53.000000, -10.500000) " points="43 1 63 1.16015972 63 20 43 20"></polygon>
                    <polygon id="Path-2-Copy-14" fill="#85C9C0" transform="translate(95.000000, 10.500000) rotate(90.000000) translate(-95.000000, -10.500000) " points="85 1 105 1.16015972 105 20 85 20"></polygon>
                    <polygon id="Path-2-Copy-9" fill="#85C9C0" transform="translate(10.000000, 10.500000) rotate(90.000000) translate(-10.000000, -10.500000) " points="8.0494612e-16 1 20 1.16015972 20 20 8.5348395e-16 20"></polygon>
                    <polygon id="Path-2-Copy-11" fill="#1C8E7F" transform="translate(31.000000, 10.500000) rotate(90.000000) translate(-31.000000, -10.500000) " points="21 1 41 1.16015972 41 20 21 20"></polygon>
                    <polygon id="Path-2-Copy-16" fill="#85C9C0" transform="translate(74.000000, 10.500000) rotate(90.000000) translate(-74.000000, -10.500000) " points="64 1 84 1.16015972 84 20 64 20"></polygon>
                </g>
                <g id="Group-5" transform="translate(54.000000, 186.442277)" fill-rule="nonzero">
                    <polygon id="Path-2-Copy-17" fill="#1C8E7F" transform="translate(10.000000, 10.500000) rotate(90.000000) translate(-10.000000, -10.500000) " points="-6.36267656e-16 1 20 1.16015972 20 20 -5.92118946e-16 20"></polygon>
                    <polygon id="Path-2-Copy-30" fill="#1C8E7F" transform="translate(140.000000, 10.500000) rotate(90.000000) translate(-140.000000, -10.500000) " points="130 1 150 1.16015972 150 20 130 20"></polygon>
                    <polygon id="Path-2-Copy-27" fill="#1C8E7F" transform="translate(75.000000, 10.500000) rotate(90.000000) translate(-75.000000, -10.500000) " points="65 1 85 1.16015972 85 20 65 20"></polygon>
                    <polygon id="Path-2-Copy-31" fill="#85C9C0" transform="translate(205.000000, 10.500000) rotate(90.000000) translate(-205.000000, -10.500000) " points="195 1 215 1.16015972 215 20 195 20"></polygon>
                    <polygon id="Path-2-Copy-36" fill="#1C8E7F" transform="translate(313.000000, 10.500000) rotate(90.000000) translate(-313.000000, -10.500000) " points="303 1 323 1.16015972 323 20 303 20"></polygon>
                    <polygon id="Path-2-Copy-28" fill="#1C8E7F" transform="translate(118.000000, 10.500000) rotate(90.000000) translate(-118.000000, -10.500000) " points="108 1 128 1.16015972 128 20 108 20"></polygon>
                    <polygon id="Path-2-Copy-32" fill="#1C8E7F" transform="translate(249.000000, 10.500000) rotate(90.000000) translate(-249.000000, -10.500000) " points="239 1 259 1.16015972 259 20 239 20"></polygon>
                    <polygon id="Path-2-Copy-37" fill="#1C8E7F" transform="translate(357.000000, 10.500000) rotate(90.000000) translate(-357.000000, -10.500000) " points="347 1 367 1.16015972 367 20 347 20"></polygon>
                    <polygon id="Path-2-Copy-62" fill="#1C8E7F" transform="translate(400.000000, 10.500000) rotate(90.000000) translate(-400.000000, -10.500000) " points="390 1 410 1.16015972 410 20 390 20"></polygon>
                    <polygon id="Path-2-Copy-26" fill="#85C9C0" transform="translate(53.000000, 10.500000) rotate(90.000000) translate(-53.000000, -10.500000) " points="43 1 63 1.16015972 63 20 43 20"></polygon>
                    <polygon id="Path-2-Copy-33" fill="#1C8E7F" transform="translate(183.000000, 10.500000) rotate(90.000000) translate(-183.000000, -10.500000) " points="173 1 193 1.16015972 193 20 173 20"></polygon>
                    <polygon id="Path-2-Copy-38" fill="#1C8E7F" transform="translate(291.000000, 10.500000) rotate(90.000000) translate(-291.000000, -10.500000) " points="281 1 301 1.16015972 301 20 281 20"></polygon>
                    <polygon id="Path-2-Copy-29" fill="#85C9C0" transform="translate(96.000000, 10.500000) rotate(90.000000) translate(-96.000000, -10.500000) " points="86 1 106 1.16015972 106 20 86 20"></polygon>
                    <polygon id="Path-2-Copy-34" fill="#85C9C0" transform="translate(227.000000, 10.500000) rotate(90.000000) translate(-227.000000, -10.500000) " points="217 1 237 1.16015972 237 20 217 20"></polygon>
                    <polygon id="Path-2-Copy-39" fill="#85C9C0" transform="translate(335.000000, 10.500000) rotate(90.000000) translate(-335.000000, -10.500000) " points="325 1 345 1.16015972 345 20 325 20"></polygon>
                    <polygon id="Path-2-Copy-65" fill="#85C9C0" transform="translate(379.000000, 10.500000) rotate(90.000000) translate(-379.000000, -10.500000) " points="369 1 389 1.16015972 389 20 369 20"></polygon>
                    <polygon id="Path-2-Copy-22" fill="#1C8E7F" transform="translate(31.000000, 10.500000) rotate(90.000000) translate(-31.000000, -10.500000) " points="21 1 41 1.16015972 41 20 21 20"></polygon>
                    <polygon id="Path-2-Copy-35" fill="#85C9C0" transform="translate(162.000000, 10.500000) rotate(90.000000) translate(-162.000000, -10.500000) " points="152 1 172 1.16015972 172 20 152 20"></polygon>
                    <polygon id="Path-2-Copy-40" fill="#85C9C0" transform="translate(270.000000, 10.500000) rotate(90.000000) translate(-270.000000, -10.500000) " points="260 1 280 1.16015972 280 20 260 20"></polygon>
                </g>
                <g id="Group-4" transform="translate(54.000000, 224.442277)" fill-rule="nonzero">
                    <polygon id="Path-2-Copy-41" fill="#85C9C0" transform="translate(9.500000, 9.500000) rotate(90.000000) translate(-9.500000, -9.500000) " points="4.51825148e-15 0 19 0.160159716 19 19 4.51658387e-15 19"></polygon>
                    <polygon id="Path-2-Copy-42" fill="#85C9C0" transform="translate(140.500000, 9.500000) rotate(90.000000) translate(-140.500000, -9.500000) " points="131 0 150 0.160159716 150 19 131 19"></polygon>
                    <polygon id="Path-2-Copy-43" fill="#1C8E7F" transform="translate(74.500000, 9.500000) rotate(90.000000) translate(-74.500000, -9.500000) " points="65 4.19775326e-13 84 0.160159716 84 19 65 19"></polygon>
                    <polygon id="Path-2-Copy-44" fill="#1C8E7F" transform="translate(118.500000, 9.500000) rotate(90.000000) translate(-118.500000, -9.500000) " points="109 0 128 0.160159716 128 19 109 19"></polygon>
                    <polygon id="Path-2-Copy-45" fill="#1C8E7F" transform="translate(52.500000, 9.500000) rotate(90.000000) translate(-52.500000, -9.500000) " points="43 0 62 0.160159716 62 19 43 19"></polygon>
                    <polygon id="Path-2-Copy-46" fill="#1C8E7F" transform="translate(183.500000, 9.500000) rotate(90.000000) translate(-183.500000, -9.500000) " points="174 0 193 0.160159716 193 19 174 19"></polygon>
                    <polygon id="Path-2-Copy-60" fill="#85C9C0" transform="translate(226.500000, 9.500000) rotate(90.000000) translate(-226.500000, -9.500000) " points="217 0 236 0.160159716 236 19 217 19"></polygon>
                    <polygon id="Path-2-Copy-63" fill="#1C8E7F" transform="translate(269.500000, 9.500000) rotate(90.000000) translate(-269.500000, -9.500000) " points="260 0 279 0.160159716 279 19 260 19"></polygon>
                    <polygon id="Path-2-Copy-56" fill="#85C9C0" transform="translate(204.500000, 9.500000) rotate(90.000000) translate(-204.500000, -9.500000) " points="195 0 214 0.160159716 214 19 195 19"></polygon>
                    <polygon id="Path-2-Copy-61" fill="#1C8E7F" transform="translate(248.500000, 9.500000) rotate(90.000000) translate(-248.500000, -9.500000) " points="239 4.21884749e-13 258 0.160159716 258 19 239 19"></polygon>
                    <polygon id="Path-2-Copy-64" fill="#1C8E7F" transform="translate(291.500000, 9.500000) rotate(90.000000) translate(-291.500000, -9.500000) " points="282 -8.43769499e-15 301 0.160159716 301 19 282 19"></polygon>
                    <polygon id="Path-2-Copy-47" fill="#1C8E7F" transform="translate(96.500000, 9.500000) rotate(90.000000) translate(-96.500000, -9.500000) " points="87 -4.21884749e-15 106 0.160159716 106 19 87 19"></polygon>
                    <polygon id="Path-2-Copy-48" fill="#1C8E7F" transform="translate(31.500000, 9.500000) rotate(90.000000) translate(-31.500000, -9.500000) " points="22 0 41 0.160159716 41 19 22 19"></polygon>
                    <polygon id="Path-2-Copy-49" fill="#1C8E7F" transform="translate(161.500000, 9.500000) rotate(90.000000) translate(-161.500000, -9.500000) " points="152 4.13447054e-13 171 0.160159716 171 19 152 19"></polygon>
                </g>
                <g id="Group-7" transform="translate(54.000000, 112.442277)" fill-rule="nonzero">
                    <polygon id="Path-2-Copy-13" fill="#1C8E7F" transform="translate(9.500000, 9.500000) rotate(90.000000) translate(-9.500000, -9.500000) " points="4.04738303e-15 0 19 0.160159716 19 19 4.02640884e-15 19"></polygon>
                    <polygon id="Path-2-Copy-25" fill="#85C9C0" transform="translate(74.500000, 9.500000) rotate(90.000000) translate(-74.500000, -9.500000) " points="65 4.19775326e-13 84 0.160159716 84 19 65 19"></polygon>
                    <polygon id="Path-2-Copy-24" fill="#1C8E7F" transform="translate(52.500000, 9.500000) rotate(90.000000) translate(-52.500000, -9.500000) " points="43 0 62 0.160159716 62 19 43 19"></polygon>
                    <polygon id="Path-2-Copy-15" fill="#85C9C0" transform="translate(31.500000, 9.500000) rotate(90.000000) translate(-31.500000, -9.500000) " points="22 0 41 0.160159716 41 19 22 19"></polygon>
                </g>
            </g>
        </g>
    </g>
</svg>