<?xml version="1.0" encoding="UTF-8"?>
<svg width="687px" height="566px" viewBox="0 0 687 566" version="1.1" xmlns="http://www.w3.org/2000/svg" xmlns:xlink="http://www.w3.org/1999/xlink">
    <!-- Generator: Sketch 55.2 (78181) - https://sketchapp.com -->
    <title>Group</title>
    <desc>Created with Sketch.</desc>
    <g id="Page-1" stroke="none" stroke-width="1" fill="none" fill-rule="evenodd">
        <g id="Section-02:-Hyper-local-Benefits" fill-rule="nonzero">
            <g id="Group" transform="translate(-167.000000, -44.000000)">
                <polygon id="Path-10-Copy-4" fill="#E8B64D" transform="translate(539.412056, 431.296826) scale(-1, 1) rotate(157.000000) translate(-539.412056, -431.296826) " points="405.147274 299.558016 662.741662 289.751151 673.676837 321.578092 567.021423 572.842502 537.819653 549.733664 461.676025 430.423628"></polygon>
                <polygon id="Path-10" fill-opacity="0.75" fill="#ED6E4D" transform="translate(520.000000, 257.000000) rotate(-29.000000) translate(-520.000000, -257.000000) " points="380 197.061692 660 150 660 162.749386 551.089337 364 520 348.689501 438.934541 269.641985"></polygon>
                <polygon id="Path-10-Copy" fill-opacity="0.75" fill="#ED6E4D" transform="translate(443.644151, 197.100286) scale(-1, 1) rotate(58.000000) translate(-443.644151, -197.100286) " points="312.144151 106.632653 575.144151 35.6002858 575.144151 54.8435182 472.845921 358.600286 443.644151 335.491448 367.500523 216.181412"></polygon>
                <polygon id="Path-10-Copy-2" fill-opacity="0.25" fill="#E8B64D" transform="translate(718.000000, 248.500000) scale(-1, 1) rotate(87.000000) translate(-718.000000, -248.500000) " points="607 171.476474 829 111 829 127.383557 742.649403 386 718 366.325293 653.726672 264.745541"></polygon>
                <polygon id="Path-10-Copy-3" fill-opacity="0.25" fill="#ED6E4D" transform="translate(644.000000, 241.500000) scale(-1, 1) rotate(100.000000) translate(-644.000000, -241.500000) " points="592 214.891873 696 194 696 199.659774 655.547468 289 644 282.203283 613.889972 247.112096"></polygon>
                <polygon id="Path-12" fill-opacity="0.25" fill="#ED6E4D" transform="translate(291.000000, 319.000000) rotate(48.000000) translate(-291.000000, -319.000000) " points="136.209869 422.675572 90.2839444 250.73735 72 170.123485 100.477899 151.582577 272.563748 125 465.781332 141.188966 510 151.582577 510 185.199855 452.434974 299.783085 377.478594 381.502505 300.071132 446.638621 206.391596 513 174.116644 513"></polygon>
                <polygon id="Path-11-Copy" fill="#ED6E4D" transform="translate(591.500000, 336.000000) scale(-1, 1) rotate(8.000000) translate(-591.500000, -336.000000) " points="620.409639 416 624.113835 399.240699 629.375097 377.313068 641.35605 337.856282 648 294.564619 645.051439 260.761662 629.375097 256 603.671182 260.761662 571.994404 275.517343 539.051189 287.508829 535 303.829241 539.051189 337.856282 553.337797 353.862518 568.820385 368.278682 585.588786 384.004317 603.671182 410.340019"></polygon>
                <polygon id="Path-12-Copy" fill-opacity="0.25" fill="#ED6E4D" transform="translate(457.000000, 377.000000) scale(-1, 1) rotate(-33.000000) translate(-457.000000, -377.000000) " points="384.905966 425.631325 363.51581 344.979891 355 307.166171 368.263679 298.469147 448.413253 286 538.405004 293.593793 559 298.469147 559 314.238076 532.188892 367.98588 497.277701 406.318185 461.224911 436.871724 417.593346 468 402.561177 468"></polygon>
            </g>
        </g>
    </g>
</svg>