<?xml version="1.0" encoding="UTF-8"?>
<svg width="450px" height="583px" viewBox="0 0 450 583" version="1.1" xmlns="http://www.w3.org/2000/svg" xmlns:xlink="http://www.w3.org/1999/xlink">
    <!-- Generator: Sketch 55.2 (78181) - https://sketchapp.com -->
    <title>Group</title>
    <desc>Created with Sketch.</desc>
    <g id="Page-1" stroke="none" stroke-width="1" fill="none" fill-rule="evenodd">
        <g id="Section-01:-Intro-Copy-7" transform="translate(-512.000000, -664.000000)" fill-rule="nonzero">
            <g id="Group" transform="translate(512.000000, 664.000000)">
                <polygon id="Path-2-Copy-16" fill="#EE9070" transform="translate(102.000000, 264.000000) rotate(-270.000000) translate(-102.000000, -264.000000) " points="138 190.735924 138 343 66 337.162112 66 185"></polygon>
                <polygon id="Path-2-Copy-17" fill="#ED6E4D" transform="translate(343.000000, 343.000000) rotate(-270.000000) translate(-343.000000, -343.000000) " points="301 330 385 330.219166 385 356 301 356"></polygon>
                <polygon id="Path-2-Copy-18" fill="#ED6E4D" transform="translate(195.000000, 388.500000) rotate(-270.000000) translate(-195.000000, -388.500000) " points="107.5 382.5 282.5 382.601154 282.5 394.5 107.5 394.5"></polygon>
                <polygon id="Path-2-Copy-19" fill="#ED6E4D" transform="translate(387.500000, 579.500000) rotate(-270.000000) translate(-387.500000, -579.500000) " points="384 555 391 555.413043 391 604 384 604"></polygon>
                <polygon id="Path-2-Copy-20" fill="#EE9070" transform="translate(343.000000, 512.000000) rotate(-270.000000) translate(-343.000000, -512.000000) " points="310 500.142749 376 499 376 524.086227 310 525"></polygon>
                <polygon id="Path-4-Copy-16" fill="#F2C6AF" transform="translate(129.000000, 391.500000) rotate(-270.000000) translate(-129.000000, -391.500000) " points="215.275403 339.5 216.5 443.5 41.5 424.767915 41.5 339.5"></polygon>
                <polygon id="Path-4-Copy-17" fill="#F2C6AF" transform="translate(266.000000, 442.000000) rotate(-270.000000) translate(-266.000000, -442.000000) " points="407 388 406.987453 492.252366 129.056961 496 125 388"></polygon>
                <polygon id="Path-4-Copy-8" fill="#F2C6AF" transform="translate(130.500000, 156.500000) rotate(-180.000000) translate(-130.500000, -156.500000) " points="259.173601 100 261 203.626113 0 213 3.64189553e-14 100"></polygon>
                <polygon id="Path-4-Copy-2" fill="#F2C6AF" transform="translate(270.500000, 161.500000) rotate(-450.000000) translate(-270.500000, -161.500000) " points="326.20926 157 327 166 214 164.378954 214 157"></polygon>
                <polygon id="Path-4-Copy-18" fill="#F2C6AF" transform="translate(343.000000, 422.000000) rotate(-270.000000) translate(-343.000000, -422.000000) " points="376 409 376 435 310 433.711985 310 409"></polygon>
                <polygon id="Path-5-Copy-13" fill="#EE9070" transform="translate(388.000000, 425.500000) rotate(-270.000000) translate(-388.000000, -425.500000) " points="513.5 404.445212 513.5 450.5 264.477586 450.5 262.5 400.5"></polygon>
                <polygon id="Path-4-Copy-19" fill="#ED6E4D" transform="translate(235.500000, 46.500000) scale(1, -1) translate(-235.500000, -46.500000) " points="408.543808 0 411 93 60 76.249193 60 0"></polygon>
                <polygon id="Path-5-Copy-14" fill="#EE9070" points="204 487.813159 204 544 78.0006113 544 77 483"></polygon>
                <polygon id="Path-5-Copy-15" fill="#ED6E4D" transform="translate(330.500000, 261.000000) rotate(-360.000000) translate(-330.500000, -261.000000) " points="211 231.523297 450 226 448.11696 296 211 296"></polygon>
                <polygon id="Path-5-Copy-16" fill="#EE9070" transform="translate(199.000000, 261.500000) rotate(-270.000000) translate(-199.000000, -261.500000) " points="234.5 254.762468 234.5 269.5 164.059397 269.5 163.5 253.5"></polygon>
                <polygon id="Path-5-Copy-17" fill="#F2C6AF" transform="translate(342.500000, 468.000000) rotate(-270.000000) translate(-342.500000, -468.000000) " points="350.5 454.5 350.5 481.5 334.626061 481.5 334.5 455.622324"></polygon>
                <polygon id="Path-4-Copy-20" fill="#F2C6AF" transform="translate(387.500000, 564.000000) rotate(-270.000000) translate(-387.500000, -564.000000) " points="379.611963 590.5 379.5 537.5 395.5 537.5 395.5 590.5"></polygon>
                <polygon id="Path-5-Copy-18" fill="#EE9070" transform="translate(426.000000, 46.500000) scale(1, -1) rotate(-270.000000) translate(-426.000000, -46.500000) " points="380.5 51.5531491 380.5 40.5 470.783027 40.5 471.5 52.5"></polygon>
            </g>
        </g>
    </g>
</svg>