<?xml version="1.0" encoding="UTF-8"?>
<svg width="450px" height="600px" viewBox="0 0 450 600" version="1.1" xmlns="http://www.w3.org/2000/svg" xmlns:xlink="http://www.w3.org/1999/xlink">
    <!-- Generator: Sketch 55.2 (78181) - https://sketchapp.com -->
    <title>Group 8</title>
    <desc>Created with Sketch.</desc>
    <g id="Page-1" stroke="none" stroke-width="1" fill="none" fill-rule="evenodd">
        <g id="Section-01:-Intro" transform="translate(-520.000000, -667.000000)" fill-rule="nonzero">
            <g id="Group-8" transform="translate(520.000000, 667.000000)">
                <polygon id="Path-2" fill="#B5E1D6" points="409.627016 338.857985 409.627016 370.162158 288.961694 372.57319 288.961694 337.442219"></polygon>
                <polygon id="Path-2-Copy-12" fill="#B5E1D6" transform="translate(308.467742, 111.402157) rotate(-180.000000) translate(-308.467742, -111.402157) " points="449.546371 35.1309707 449.546371 175.838301 167.389113 187.673344 167.389113 35.1309707"></polygon>
                <polygon id="Path-2-Copy-8" fill="#1C8E7F" transform="translate(88.004032, 15.716487) rotate(-270.000000) translate(-88.004032, -15.716487) " points="74.1365438 -2.88230342 101.871521 -2.56874795 101.871521 34.3152772 74.1365438 34.3152772"></polygon>
                <polygon id="Path-2-Copy-5" fill="#1C8E7F" transform="translate(39.012097, 227.426810) rotate(-270.000000) translate(-39.012097, -227.426810) " points="10.3526207 217.900601 67.6715729 218.061202 67.6715729 236.95302 10.3526207 236.95302"></polygon>
                <polygon id="Path-2-Copy-9" fill="#1C8E7F" transform="translate(151.512097, 225.577812) rotate(-270.000000) translate(-151.512097, -225.577812) " points="122.852621 206.979022 180.171573 207.292577 180.171573 244.176602 122.852621 244.176602"></polygon>
                <polygon id="Path-2-Copy-14" fill="#1C8E7F" transform="translate(282.610887, 380.893683) rotate(-270.000000) translate(-282.610887, -380.893683) " points="239.159423 376.357392 326.062351 376.433869 326.062351 385.429973 239.159423 385.429973"></polygon>
                <polygon id="Path-2-Copy-10" fill="#4D7174" transform="translate(120.211694, 224.653313) rotate(-270.000000) translate(-120.211694, -224.653313) " points="94.3257151 218.03326 146.097672 217.395248 146.097672 231.401206 94.3257151 231.911377"></polygon>
                <polygon id="Path-2-Copy-13" fill="#4D7174" transform="translate(8.618952, 298.151002) rotate(-270.000000) translate(-8.618952, -298.151002) " points="-25.1252703 290.703442 42.3631735 289.985679 42.3631735 305.742382 -25.1252703 306.316324"></polygon>
                <polygon id="Path-2-Copy-6" fill="#4D7174" transform="translate(229.536290, 226.040062) rotate(-270.000000) translate(-229.536290, -226.040062) " points="201.339064 209.076176 257.733517 207.441271 257.733517 243.331539 201.339064 244.638852"></polygon>
                <polygon id="Path-2-Copy-11" fill="#4D7174" transform="translate(430.947581, 14.791988) rotate(-270.000000) translate(-430.947581, -14.791988) " points="418.004591 -2.17189821 443.89057 -3.80680265 443.89057 32.0834651 418.004591 33.390778"></polygon>
                <polygon id="Path-4" fill="#1C8E7F" transform="translate(324.798387, 14.791988) rotate(-360.000000) translate(-324.798387, -14.791988) " points="406.650685 5.68434189e-14 407.8125 29.5839753 241.784274 24.255422 241.784274 5.68434189e-14"></polygon>
                <polygon id="Path-4-Copy-7" fill="#1C8E7F" transform="translate(229.989919, 297.226502) rotate(-180.000000) translate(-229.989919, -297.226502) " points="421.425894 264.40678 424.143145 330.046225 35.8366935 318.223497 35.8366935 264.40678"></polygon>
                <polygon id="Path-4-Copy-14" fill="#1C8E7F" transform="translate(366.028448, 486.809414) rotate(-180.000000) translate(-366.028448, -486.809414) " points="441.330867 410.538227 437.79682 563.0806 290.726028 563.0806 291.841163 410.538227"></polygon>
                <polygon id="Path-4-Copy-10" fill="#85C9C0" transform="translate(152.872984, 15.716487) rotate(-270.000000) translate(-152.872984, -15.716487) " points="166.740472 -26.0173841 166.740472 57.4503579 139.005495 53.3154448 139.005495 -26.0173841"></polygon>
                <polygon id="Path-4-Copy-5" fill="#85C9C0" transform="translate(78.931452, 224.653313) rotate(-270.000000) translate(-78.931452, -224.653313) " points="104.81743 196.074684 104.81743 253.231942 53.0454732 250.400425 53.0454732 196.074684"></polygon>
                <polygon id="Path-4-Copy-11" fill="#85C9C0" transform="translate(259.475806, 224.653313) rotate(-270.000000) translate(-259.475806, -224.653313) " points="288.135283 215.127103 288.135283 234.179522 230.81633 233.235684 230.81633 215.127103"></polygon>
                <polygon id="Path-4-Copy-12" fill="#85C9C0" transform="translate(435.937500, 298.151002) rotate(-270.000000) translate(-435.937500, -298.151002) " points="469.681722 292.707453 469.681722 303.59455 402.193278 303.055213 402.193278 292.707453"></polygon>
                <polygon id="Path-4-Copy-13" fill="#85C9C0" transform="translate(26.764113, 298.151002) rotate(-270.000000) translate(-26.764113, -298.151002) " points="60.5083348 292.707453 60.5083348 303.59455 -6.98010898 303.055213 -6.98010898 292.707453"></polygon>
                <polygon id="Path-5-Copy-7" fill="#4D7174" transform="translate(168.296371, 389.214176) rotate(-180.000000) translate(-168.296371, -389.214176) " points="273.538306 345.612272 273.538306 440.986133 64.7128019 440.986133 63.0544355 337.442219"></polygon>
                <polygon id="Path-5-Copy-9" fill="#85C9C0" transform="translate(215.927419, 15.254237) rotate(-270.000000) translate(-215.927419, -15.254237) " points="230.257157 -1.53003691 230.257157 32.0385115 201.823484 32.0385115 201.597681 -0.134673811"></polygon>
                <polygon id="Path-5-Copy-6" fill="#85C9C0" transform="translate(188.709677, 223.728814) rotate(-270.000000) translate(-188.709677, -223.728814) " points="215.520155 206.944539 215.520155 240.513088 162.32167 240.513088 161.8992 208.339902"></polygon>
                <polygon id="Path-5-Copy-10" fill="#85C9C0" transform="translate(332.510081, 223.728814) rotate(-270.000000) translate(-332.510081, -223.728814) " points="359.320558 164.757039 359.320558 282.700588 306.122073 282.700588 305.699603 169.659666"></polygon>
                <polygon id="Path-5-Copy-12" fill="#85C9C0" transform="translate(143.346774, 523.728814) rotate(-270.000000) translate(-143.346774, -523.728814) " points="219.617961 384.464701 219.617961 662.992926 68.277443 662.992926 67.0755878 396.042443"></polygon>
                <polygon id="Path-5-Copy-11" fill="#85C9C0" transform="translate(356.098790, 387.365177) rotate(-270.000000) translate(-356.098790, -387.365177) " points="369.966279 321.135338 369.966279 453.595016 342.449821 453.595016 342.231302 326.641366"></polygon>
                <polygon id="Path-5-Copy-8" fill="#4D7174" transform="translate(402.822581, 224.191063) rotate(-270.000000) translate(-402.822581, -224.191063) " points="374.625354 232.213956 374.625354 214.664853 430.575485 214.664853 431.019807 233.717273"></polygon>
            </g>
        </g>
    </g>
</svg>