<?xml version="1.0" encoding="UTF-8"?>
<svg width="80px" height="14px" viewBox="0 0 80 14" version="1.1" xmlns="http://www.w3.org/2000/svg" xmlns:xlink="http://www.w3.org/1999/xlink">
    <!-- Generator: Sketch 57.1 (83088) - https://sketch.com -->
    <title>section2_3_legend</title>
    <desc>Created with Sketch.</desc>
    <defs>
        <path d="M1.008,7 L1.008,3.122 L0.203,3.311 L0.203,2.625 L1.386,2.1 L1.939,2.1 L1.939,7 L1.008,7 Z M3.171,7 L5.019,2.863 L2.604,2.863 L2.604,2.1 L5.943,2.1 L5.943,2.737 L4.102,7 L3.171,7 Z M8.589,7.084 C8.13633107,7.084 7.74900161,6.9778344 7.427,6.7655 C7.10499839,6.55316561 6.85650088,6.25683524 6.6815,5.8765 C6.50649913,5.49616477 6.419,5.05400252 6.419,4.55 C6.419,4.05066417 6.50649913,3.60966858 6.6815,3.227 C6.85650088,2.84433142 7.10499839,2.54683439 7.427,2.3345 C7.74900161,2.1221656 8.13633107,2.016 8.589,2.016 C9.04166893,2.016 9.42899839,2.1221656 9.751,2.3345 C10.0730016,2.54683439 10.3214991,2.84433142 10.4965,3.227 C10.6715009,3.60966858 10.759,4.05066417 10.759,4.55 C10.759,5.05400252 10.6715009,5.49616477 10.4965,5.8765 C10.3214991,6.25683524 10.0730016,6.55316561 9.751,6.7655 C9.42899839,6.9778344 9.04166893,7.084 8.589,7.084 Z M8.589,6.279 C8.95766851,6.279 9.2586655,6.12500154 9.492,5.817 C9.7253345,5.50899846 9.842,5.08666935 9.842,4.55 C9.842,4.01333065 9.7253345,3.59100154 9.492,3.283 C9.2586655,2.97499846 8.95766851,2.821 8.589,2.821 C8.2156648,2.821 7.91350116,2.97499846 7.6825,3.283 C7.45149885,3.59100154 7.336,4.01333065 7.336,4.55 C7.336,5.08666935 7.45149885,5.50899846 7.6825,5.817 C7.91350116,6.12500154 8.2156648,6.279 8.589,6.279 Z M13.79,7 L13.79,6.09 L11.375,6.09 L11.375,5.376 L13.671,2.1 L14.686,2.1 L14.686,5.313 L15.33,5.313 L15.33,6.09 L14.686,6.09 L14.686,7 L13.79,7 Z M12.334,5.313 L13.846,5.313 L13.846,3.087 L12.334,5.313 Z" id="path-1"></path>
        <path d="M2.222,7.084 C1.88599832,7.084 1.58266802,7.0245006 1.312,6.9055 C1.04133198,6.7864994 0.825500805,6.61733443 0.6645,6.398 C0.503499195,6.17866557 0.423,5.92433478 0.423,5.635 C0.423,5.33633184 0.501165885,5.07500112 0.6575,4.851 C0.813834115,4.62699888 1.02033205,4.46600049 1.277,4.368 C1.05299888,4.26999951 0.87566732,4.12883426 0.745,3.9445 C0.61433268,3.76016575 0.549,3.55366781 0.549,3.325 C0.549,3.0916655 0.61199937,2.87583432 0.738,2.6775 C0.86400063,2.47916567 1.05183209,2.31933394 1.3015,2.198 C1.55116792,2.07666606 1.85799818,2.016 2.222,2.016 C2.58600182,2.016 2.89166543,2.07666606 3.139,2.198 C3.38633457,2.31933394 3.57299937,2.47916567 3.699,2.6775 C3.82500063,2.87583432 3.888,3.0916655 3.888,3.325 C3.888,3.54900112 3.82150067,3.75549905 3.6885,3.9445 C3.55549934,4.13350094 3.37933443,4.2746662 3.16,4.368 C3.42133464,4.46600049 3.62899923,4.62699888 3.783,4.851 C3.93700077,5.07500112 4.014,5.33633184 4.014,5.635 C4.014,5.92433478 3.93466746,6.17866557 3.776,6.398 C3.61733254,6.61733443 3.40150137,6.7864994 3.1285,6.9055 C2.85549864,7.0245006 2.55333499,7.084 2.222,7.084 Z M2.222,4.102 C2.46466788,4.102 2.6559993,4.03900063 2.796,3.913 C2.9360007,3.78699937 3.006,3.62600098 3.006,3.43 C3.006,3.21533226 2.93716736,3.04733394 2.7995,2.926 C2.66183265,2.80466606 2.46933457,2.744 2.222,2.744 C1.96999874,2.744 1.77633401,2.80466606 1.641,2.926 C1.50566599,3.04733394 1.438,3.21533226 1.438,3.43 C1.438,3.63066767 1.50683265,3.79283271 1.6445,3.9165 C1.78216736,4.04016729 1.97466543,4.102 2.222,4.102 Z M2.222,6.335 C2.52066816,6.335 2.74699923,6.26150074 2.901,6.1145 C3.05500077,5.96749927 3.132,5.78200112 3.132,5.558 C3.132,5.31066543 3.05150081,5.1170007 2.8905,4.977 C2.7294992,4.8369993 2.50666809,4.767 2.222,4.767 C1.93733191,4.767 1.7121675,4.8369993 1.5465,4.977 C1.38083251,5.1170007 1.298,5.31066543 1.298,5.558 C1.298,5.78200112 1.37616589,5.96749927 1.5325,6.1145 C1.68883412,6.26150074 1.91866515,6.335 2.222,6.335 Z M6.499,7.084 C6.17699839,7.084 5.88533464,7.02683391 5.624,6.9125 C5.36266536,6.7981661 5.15266746,6.62200119 4.994,6.384 C4.83533254,6.14599881 4.75133338,5.84733513 4.742,5.488 L5.624,5.488 C5.62866669,5.72600119 5.70683258,5.9254992 5.8585,6.0865 C6.01016743,6.2475008 6.22366529,6.328 6.499,6.328 C6.76033464,6.328 6.9609993,6.25566739 7.101,6.111 C7.2410007,5.96633261 7.311,5.78433443 7.311,5.565 C7.311,5.30833205 7.21883426,5.11350067 7.0345,4.9805 C6.85016575,4.84749934 6.61333478,4.781 6.324,4.781 L5.96,4.781 L5.96,4.046 L6.331,4.046 C6.56900119,4.046 6.76733254,3.99000056 6.926,3.878 C7.08466746,3.76599944 7.164,3.60033443 7.164,3.381 C7.164,3.19899909 7.1045006,3.05316722 6.9855,2.9435 C6.86649941,2.83383279 6.70200105,2.779 6.492,2.779 C6.26333219,2.779 6.08483398,2.84666599 5.9565,2.982 C5.82816603,3.11733401 5.75700007,3.28299902 5.743,3.479 L4.868,3.479 C4.88666676,3.02633107 5.04416519,2.66933464 5.3405,2.408 C5.63683482,2.14666536 6.02066431,2.016 6.492,2.016 C6.82800168,2.016 7.11149885,2.0754994 7.3425,2.1945 C7.57350116,2.31350059 7.74849941,2.47099902 7.8675,2.667 C7.9865006,2.86300098 8.046,3.07999881 8.046,3.318 C8.046,3.59333471 7.97016743,3.82549905 7.8185,4.0145 C7.66683258,4.20350095 7.47900112,4.33066634 7.255,4.396 C7.53033471,4.45200028 7.75433247,4.5861656 7.927,4.7985 C8.09966753,5.01083439 8.186,5.27799839 8.186,5.6 C8.186,5.87066802 8.12066732,6.11799888 7.99,6.342 C7.85933268,6.56600112 7.66916792,6.74566599 7.4195,6.881 C7.16983209,7.01633401 6.86300182,7.084 6.499,7.084 Z M10.545,2.016 C10.9136685,2.016 11.2239987,2.08366599 11.476,2.219 C11.7280013,2.35433401 11.9309992,2.53633219 12.085,2.765 C12.2390008,2.99366781 12.349833,3.2479986 12.4175,3.528 C12.485167,3.8080014 12.519,4.09499853 12.519,4.389 C12.519,4.93500273 12.4420008,5.40983131 12.288,5.8135 C12.1339992,6.21716868 11.9123348,6.52983222 11.623,6.7515 C11.3336652,6.97316778 10.9836687,7.084 10.573,7.084 C10.2369983,7.084 9.95116785,7.01750067 9.7155,6.8845 C9.47983216,6.75149934 9.29666732,6.57766774 9.166,6.363 C9.03533268,6.14833226 8.95833345,5.91733457 8.935,5.67 L9.768,5.67 C9.81000021,5.88466774 9.9009993,6.05033275 10.041,6.167 C10.1810007,6.28366725 10.3606656,6.342 10.58,6.342 C10.8926682,6.342 11.1446657,6.19850143 11.336,5.9115 C11.5273343,5.62449856 11.6299999,5.18700294 11.644,4.599 C11.5319994,4.79033429 11.3640011,4.94899937 11.14,5.075 C10.9159989,5.20100063 10.6663347,5.264 10.391,5.264 C10.120332,5.264 9.86600119,5.19866732 9.628,5.068 C9.38999881,4.93733268 9.19750074,4.75300119 9.0505,4.515 C8.90349927,4.27699881 8.83,3.99700161 8.83,3.675 C8.83,3.38099853 8.90116596,3.10800126 9.0435,2.856 C9.18583405,2.60399874 9.38649871,2.40100077 9.6455,2.247 C9.9045013,2.09299923 10.2043316,2.016 10.545,2.016 Z M10.594,2.786 C10.3326654,2.786 10.1168342,2.86649919 9.9465,3.0275 C9.77616582,3.18850081 9.691,3.39266543 9.691,3.64 C9.691,3.90133464 9.77733247,4.11133254 9.95,4.27 C10.1226675,4.42866746 10.3419987,4.508 10.608,4.508 C10.7806675,4.508 10.9358326,4.46950038 11.0735,4.3925 C11.2111674,4.31549962 11.3196663,4.21283398 11.399,4.0845 C11.4783337,3.95616602 11.518,3.81266746 11.518,3.654 C11.518,3.40199874 11.4305009,3.19433415 11.2555,3.031 C11.0804991,2.86766585 10.8600013,2.786 10.594,2.786 Z M15.347,7.084 C14.8943311,7.084 14.5070016,6.9778344 14.185,6.7655 C13.8629984,6.55316561 13.6145009,6.25683524 13.4395,5.8765 C13.2644991,5.49616477 13.177,5.05400252 13.177,4.55 C13.177,4.05066417 13.2644991,3.60966858 13.4395,3.227 C13.6145009,2.84433142 13.8629984,2.54683439 14.185,2.3345 C14.5070016,2.1221656 14.8943311,2.016 15.347,2.016 C15.7996689,2.016 16.1869984,2.1221656 16.509,2.3345 C16.8310016,2.54683439 17.0794991,2.84433142 17.2545,3.227 C17.4295009,3.60966858 17.517,4.05066417 17.517,4.55 C17.517,5.05400252 17.4295009,5.49616477 17.2545,5.8765 C17.0794991,6.25683524 16.8310016,6.55316561 16.509,6.7655 C16.1869984,6.9778344 15.7996689,7.084 15.347,7.084 Z M15.347,6.279 C15.7156685,6.279 16.0166655,6.12500154 16.25,5.817 C16.4833345,5.50899846 16.6,5.08666935 16.6,4.55 C16.6,4.01333065 16.4833345,3.59100154 16.25,3.283 C16.0166655,2.97499846 15.7156685,2.821 15.347,2.821 C14.9736648,2.821 14.6715012,2.97499846 14.4405,3.283 C14.2094988,3.59100154 14.094,4.01333065 14.094,4.55 C14.094,5.08666935 14.2094988,5.50899846 14.4405,5.817 C14.6715012,6.12500154 14.9736648,6.279 15.347,6.279 Z" id="path-2"></path>
        <linearGradient x1="100%" y1="50%" x2="0%" y2="50%" id="linearGradient-3">
            <stop stop-color="#ED6E4D" offset="0%"></stop>
            <stop stop-color="#ED6E4D" stop-opacity="0.2" offset="100%"></stop>
        </linearGradient>
    </defs>
    <g id="Page-1" stroke="none" stroke-width="1" fill="none" fill-rule="evenodd">
        <g id="section2_3_legend" fill-rule="nonzero">
            <g id="1704" transform="translate(0.000000, 6.000000)">
                <g>
                    <use fill="#000000" xlink:href="#path-1"></use>
                    <use fill="#393A44" xlink:href="#path-1"></use>
                </g>
            </g>
            <g id="8390" transform="translate(62.000000, 6.000000)">
                <g>
                    <use fill="#000000" xlink:href="#path-2"></use>
                    <use fill="#393A44" xlink:href="#path-2"></use>
                </g>
            </g>
            <rect id="Rectangle" fill="url(#linearGradient-3)" x="0" y="0" width="80" height="5"></rect>
        </g>
    </g>
</svg>