<?xml version="1.0" encoding="UTF-8"?>
<svg width="646px" height="600px" viewBox="0 0 646 600" version="1.1" xmlns="http://www.w3.org/2000/svg" xmlns:xlink="http://www.w3.org/1999/xlink">
    <!-- Generator: Sketch 56.2 (81672) - https://sketch.com -->
    <title>Group</title>
    <desc>Created with Sketch.</desc>
    <g id="Pages" stroke="none" stroke-width="1" fill="none" fill-rule="evenodd">
        <g id="Section-04-00" transform="translate(-101.000000, 0.000000)" fill-rule="nonzero">
            <g id="Group" transform="translate(101.000000, -47.000000)">
                <path d="M98.4031675,638.58337 L82.5354943,598.540496 C79.5118314,585.332404 78,578.728359 78,578.728359 C78,578.728359 78,557.730717 78,515.735434 L91.5071929,485.651747 L126.232481,460.161557 L168.224676,450.138947 L242.759652,445 L303.611435,470.921474 L340.262476,485.651747 L349,546.033179 L349,573.38804 L320.029788,603.273527 L290.188446,643.611324 L257.784297,667.917067 L213.5,667.917067 L179.015443,672 L144.029753,665.323016 L118.495351,651.653514 L98.4031675,638.58337 Z" id="Path-14-Copy" fill="#E8B64D"></path>
                <path d="M24.9204739,443.222879 L5.53966279,394.359988 C1.84655426,378.242626 0,370.183944 0,370.183944 C0,370.183944 0,344.561272 0,293.315927 L16.4977153,256.605876 L58.911259,225.501107 L110.200619,213.270873 L201.237804,207 L275.562306,238.63105 L320.327969,256.605876 L331,330.287183 L331,363.667344 L295.615719,400.135538 L259.167437,449.358312 L219.588938,479.017742 L165.5,479.017742 L123.380486,484 L80.6488867,475.852315 L49.4611115,459.171909 L24.9204739,443.222879 Z" id="Path-14" fill-opacity="0.75" fill="#B5E1D6"></path>
                <path d="M366.616503,416.525235 L347.224804,367.686508 C343.530138,351.57691 341.682805,343.522111 341.682805,343.522111 C341.682805,343.522111 341.684754,317.911336 341.688651,266.689785 L358.20159,229.995524 L400.649459,198.901971 L451.978397,186.673512 L543.084656,180.398622 L617.462758,212.009329 L662.260785,229.972402 L672.935254,303.618685 L672.935254,336.983347 L637.518998,373.4373 L601.039509,422.639992 L561.428931,452.288663 L507.299236,452.292779 L465.147605,457.275929 L422.384426,449.13528 L391.174419,432.464992 L366.616503,416.525235 Z" id="Path-14-Copy-2" fill-opacity="0.5" fill="#E8B64D" transform="translate(507.309030, 318.837276) rotate(98.000000) translate(-507.309030, -318.837276) "></path>
                <polygon id="Path-13" fill-opacity="0.25" fill="#E8B64D" points="196.222464 20.9783377 116.522112 77.1984025 100 113.395827 100 171.022803 116.522112 242.183079 138.1408 289.347521 196.222464 338.677166 273.27616 346 345.095936 332.353897 417.030784 308.536668 461.404032 256.562406 506 171.022803 506 113.395827 498.186437 44.3130173 469.58528 20.9783377 407.568896 5.54617739 363.377536 5.54617739 266.468352 0 211.159552 13.984514"></polygon>
                <polygon id="Path-11" fill-opacity="0.75" fill="#E8B64D" points="412.626331 427 369.105386 434.109429 328.740577 449.900488 314.289811 472.382535 303 501.023379 314.289811 579.117415 337.360923 616.005198 412.626331 631 460.387581 616.005198 517.597964 594.169093 551 546.970606 542.712132 481.787295 528.131266 449.900488 480.047175 427 427 427"></polygon>
            </g>
        </g>
    </g>
</svg>