<?xml version="1.0" encoding="UTF-8"?>
<svg width="453px" height="350px" viewBox="0 0 453 350" version="1.1" xmlns="http://www.w3.org/2000/svg" xmlns:xlink="http://www.w3.org/1999/xlink">
    <!-- Generator: Sketch 55.2 (78181) - https://sketchapp.com -->
    <title>Group</title>
    <desc>Created with Sketch.</desc>
    <g id="Page-1" stroke="none" stroke-width="1" fill="none" fill-rule="evenodd">
        <g id="Section-07-00" transform="translate(-33.000000, -159.000000)" fill-rule="nonzero">
            <g id="Group" transform="translate(32.000000, 154.033277)">
                <path d="M93.5514248,302.864038 L71.1844463,246.004329 C66.922309,227.249226 64.7912403,217.871674 64.7912403,217.871674 C64.7912403,217.871674 64.7912403,188.055638 64.7912403,128.423567 L83.8308997,85.7056109 L132.779461,49.5102883 L191.971411,35.2784748 L297.035473,27.9813212 L382.811787,64.7890554 L434.474878,85.7056109 L446.79124,171.445477 L446.79124,210.288578 L405.955,252.725095 L363.890821,310.003585 L318.214123,344.517028 L255.79124,344.517028 L207.182013,350.314674 L157.866391,340.833552 L121.873248,321.423259 L93.5514248,302.864038 Z" id="Path-14-Copy" fill-opacity="0.25" fill="#ED6E4D" transform="translate(255.791240, 189.147997) rotate(172.000000) translate(-255.791240, -189.147997) "></path>
                <path d="M60.7601844,280.291069 L38.393206,223.960561 C34.1310687,205.380015 32,196.089741 32,196.089741 C32,196.089741 32,166.551207 32,107.474139 L51.0396593,65.1537653 L99.9882204,29.2953174 L159.180171,15.1959613 L264.244233,7.9667233 L350.020547,44.4318829 L401.683638,65.1537653 L414,150.095638 L414,188.577222 L373.16376,230.618777 L331.09958,287.364168 L285.422883,321.556389 L223,321.556389 L174.390773,327.300076 L125.07515,317.907197 L89.0820078,298.677557 L60.7601844,280.291069 Z" id="Path-14" fill-opacity="0.25" fill="#724490"></path>
                <polyline id="Path-18" fill="#724490" transform="translate(98.820498, 53.911686) rotate(56.000000) translate(-98.820498, -53.911686) " points="88.8584471 -18.7066123 88.8584471 133.823372 105.380031 133.823372 108.78255 -26 92.9000174 -18.7066123"></polyline>
                <polyline id="Path-18-Copy-2" fill="#724490" transform="translate(74.820498, 290.911686) rotate(119.000000) translate(-74.820498, -290.911686) " points="64.8584471 218.293388 64.8584471 370.823372 81.3800313 370.823372 84.7825499 211 68.9000174 218.293388"></polyline>
                <polyline id="Path-18-Copy" fill="#724490" transform="translate(378.820498, 56.911686) rotate(56.000000) translate(-378.820498, -56.911686) " points="368.858447 -15.7066123 368.858447 136.823372 385.380031 136.823372 388.78255 -23 372.900017 -15.7066123"></polyline>
                <polyline id="Path-18-Copy-3" fill="#ED6E4D" transform="translate(354.820498, 293.911686) rotate(113.000000) translate(-354.820498, -293.911686) " points="344.858447 221.293388 344.858447 373.823372 361.380031 373.823372 364.78255 214 348.900017 221.293388"></polyline>
                <polygon id="Path-19" fill="#724490" transform="translate(235.358447, 54.476607) rotate(-91.000000) translate(-235.358447, -54.476607) " points="250.276998 -21 197.858447 120.786242 210.323221 129.953213 272.858447 -14.2797007 258.737714 -21"></polygon>
                <polygon id="Path-19-Copy" fill="#724490" transform="translate(211.358447, 291.476607) rotate(-146.000000) translate(-211.358447, -291.476607) " points="226.276998 216 173.858447 357.786242 186.323221 366.953213 248.858447 222.720299 234.737714 216"></polygon>
            </g>
        </g>
    </g>
</svg>