<?xml version="1.0" encoding="UTF-8"?>
<svg width="518px" height="464px" viewBox="0 0 518 464" version="1.1" xmlns="http://www.w3.org/2000/svg" xmlns:xlink="http://www.w3.org/1999/xlink">
    <!-- Generator: Sketch 55.2 (78181) - https://sketchapp.com -->
    <title>Group</title>
    <desc>Created with Sketch.</desc>
    <g id="Page-1" stroke="none" stroke-width="1" fill="none" fill-rule="evenodd">
        <g id="Section-03:-The-Ripple-Effect" transform="translate(-25.000000, -52.000000)" fill-rule="nonzero">
            <g id="Group" transform="translate(25.000000, 52.000000)">
                <path d="M38.9973668,369.258146 L8.66886649,292.876805 C2.88962216,267.682516 -5.68434189e-14,255.085371 -5.68434189e-14,255.085371 C-5.68434189e-14,255.085371 -5.68434189e-14,215.032602 -5.68434189e-14,134.927062 L25.8168225,77.542759 L92.1886149,28.9205032 L172.449929,9.80248388 L314.911525,0 L431.219902,49.4449264 L501.27246,77.542759 L517.972829,192.719676 L517.972829,244.898773 L462.600937,301.90501 L405.564021,378.848913 L343.628711,425.211849 L258.986415,425.211849 L193.074742,433 L126.205233,420.263727 L77.4003379,394.189302 L38.9973668,369.258146 Z" id="Path-14" fill-opacity="0.25" fill="#724490"></path>
                <path d="M50.5817984,413.572838 L26.7981392,353.674466 C22.2660464,333.917064 20,324.038363 20,324.038363 C20,324.038363 20,292.628915 20,229.810021 L40.2455942,184.809158 L92.2944616,146.679506 L155.235515,131.687124 L266.954129,124 L358.163347,162.774792 L413.098678,184.809158 L426.195134,275.131083 L426.195134,316.050015 L382.772406,360.7544 L338.043964,421.093933 L289.474194,457.451823 L223.097567,457.451823 L171.409526,463.559303 L118.970348,453.571498 L80.6974707,433.123891 L50.5817984,413.572838 Z" id="Path-14-Copy" fill="#B5E1D6"></path>
                <polygon id="Path-13" fill-opacity="0.25" fill="#724490" points="135.498287 104.52479 61.3675209 156.849479 46 190.538856 46 244.172974 61.3675209 310.402696 81.475461 354.299207 135.498287 400.210899 207.16735 407.026349 273.968247 394.325757 340.876175 372.158777 382.148551 323.785708 423.628083 244.172974 423.628083 190.538856 416.360544 126.242657 389.758081 104.52479 332.075499 90.1618938 290.9723 90.1618938 200.835282 85 149.391548 98.0155548"></polygon>
                <polygon id="Path-11" fill-opacity="0.25" fill="#724490" points="237.365081 189 199.108767 195.261045 163.626797 209.167721 150.924108 228.966934 141 254.190001 150.924108 322.964898 171.20436 355.450778 237.365081 368.656216 279.34876 355.450778 329.638533 336.220425 359 294.654241 351.714697 237.249402 338.897645 209.167721 296.630178 189 250 189"></polygon>
            </g>
        </g>
    </g>
</svg>