<?xml version="1.0" encoding="UTF-8"?>
<svg width="450px" height="603px" viewBox="0 0 450 603" version="1.1" xmlns="http://www.w3.org/2000/svg" xmlns:xlink="http://www.w3.org/1999/xlink">
    <!-- Generator: Sketch 55.2 (78181) - https://sketchapp.com -->
    <title>Group 4</title>
    <desc>Created with Sketch.</desc>
    <g id="Pages" stroke="none" stroke-width="1" fill="none" fill-rule="evenodd">
        <g id="Section-01-05" transform="translate(-512.000000, -664.000000)" fill-rule="nonzero">
            <g id="Group-4" transform="translate(512.000000, 664.000000)">
                <g id="Group" opacity="0.25" transform="translate(0.000000, 1.000000)">
                    <polygon id="Path-2-Copy-16" fill="#EE9070" transform="translate(102.000000, 283.000000) rotate(-270.000000) translate(-102.000000, -283.000000) " points="138 209.735924 138 362 66 356.162112 66 204"></polygon>
                    <polygon id="Path-2-Copy-17" fill="#ED6E4D" transform="translate(343.000000, 362.000000) rotate(-270.000000) translate(-343.000000, -362.000000) " points="301 349 385 349.219166 385 375 301 375"></polygon>
                    <polygon id="Path-2-Copy-18" fill="#ED6E4D" transform="translate(195.000000, 407.500000) rotate(-270.000000) translate(-195.000000, -407.500000) " points="107.5 401.5 282.5 401.601154 282.5 413.5 107.5 413.5"></polygon>
                    <polygon id="Path-2-Copy-19" fill="#ED6E4D" transform="translate(387.500000, 598.500000) rotate(-270.000000) translate(-387.500000, -598.500000) " points="384 574 391 574.413043 391 623 384 623"></polygon>
                    <polygon id="Path-2-Copy-20" fill="#EE9070" transform="translate(343.000000, 531.000000) rotate(-270.000000) translate(-343.000000, -531.000000) " points="310 519.142749 376 518 376 543.086227 310 544"></polygon>
                    <polygon id="Path-4-Copy-16" fill="#F2C6AF" transform="translate(129.000000, 410.500000) rotate(-270.000000) translate(-129.000000, -410.500000) " points="215.275403 358.5 216.5 462.5 41.5 443.767915 41.5 358.5"></polygon>
                    <polygon id="Path-4-Copy-17" fill="#F2C6AF" transform="translate(266.000000, 461.000000) rotate(-270.000000) translate(-266.000000, -461.000000) " points="407 407 406.987453 511.252366 129.056961 515 125 407"></polygon>
                    <polygon id="Path-4-Copy-8" fill="#F2C6AF" transform="translate(115.000000, 169.000000) rotate(-180.000000) translate(-115.000000, -169.000000) " points="228.39053 107 230 220.71361 0 231 3.20933322e-14 107"></polygon>
                    <polygon id="Path-4-Copy-2" fill="#F2C6AF" transform="translate(242.000000, 176.000000) rotate(-450.000000) translate(-242.000000, -176.000000) " points="303.132286 171.5 304 180.5 180 178.878954 180 171.5"></polygon>
                    <polygon id="Path-4-Copy-18" fill="#F2C6AF" transform="translate(343.000000, 441.000000) rotate(-270.000000) translate(-343.000000, -441.000000) " points="376 428 376 454 310 452.711985 310 428"></polygon>
                    <polygon id="Path-5-Copy-13" fill="#EE9070" transform="translate(388.000000, 444.500000) rotate(-270.000000) translate(-388.000000, -444.500000) " points="513.5 423.445212 513.5 469.5 264.477586 469.5 262.5 419.5"></polygon>
                    <polygon id="Path-5-Copy-14" fill="#EE9070" points="204 506.813159 204 563 78.0006113 563 77 502"></polygon>
                    <polygon id="Path-5-Copy-15" fill="#ED6E4D" transform="translate(330.500000, 280.000000) rotate(-360.000000) translate(-330.500000, -280.000000) " points="211 250.523297 450 245 448.11696 315 211 315"></polygon>
                    <polygon id="Path-5-Copy-16" fill="#EE9070" transform="translate(199.000000, 280.500000) rotate(-270.000000) translate(-199.000000, -280.500000) " points="234.5 273.762468 234.5 288.5 164.059397 288.5 163.5 272.5"></polygon>
                    <polygon id="Path-5-Copy-17" fill="#F2C6AF" transform="translate(342.500000, 487.000000) rotate(-270.000000) translate(-342.500000, -487.000000) " points="350.5 473.5 350.5 500.5 334.626061 500.5 334.5 474.622324"></polygon>
                    <polygon id="Path-4-Copy-20" fill="#F2C6AF" transform="translate(387.500000, 583.000000) rotate(-270.000000) translate(-387.500000, -583.000000) " points="379.611963 609.5 379.5 556.5 395.5 556.5 395.5 609.5"></polygon>
                    <polygon id="Path-5-Copy-18" fill="#EE9070" transform="translate(426.000000, 49.000000) scale(1, -1) rotate(-270.000000) translate(-426.000000, -49.000000) " points="377 54.0531491 377 43 474.227875 43 475 55"></polygon>
                </g>
                <polygon id="Path-4-Copy-19" fill="#ED6E4D" transform="translate(235.500000, 50.000000) scale(1, -1) translate(-235.500000, -50.000000) " points="408.543808 0 411 100 60 81.9883796 60 0"></polygon>
            </g>
        </g>
    </g>
</svg>