<?xml version="1.0" encoding="UTF-8"?>
<svg width="80px" height="14px" viewBox="0 0 80 14" version="1.1" xmlns="http://www.w3.org/2000/svg" xmlns:xlink="http://www.w3.org/1999/xlink">
    <!-- Generator: Sketch 57.1 (83088) - https://sketch.com -->
    <title>section2_8_legend</title>
    <desc>Created with Sketch.</desc>
    <defs>
        <polygon id="path-1" points="1.008 7 1.008 3.122 0.203 3.311 0.203 2.625 1.386 2.1 1.939 2.1 1.939 7"></polygon>
        <path d="M0.533,7 L0.533,6.349 C0.83166816,6.10166543 1.12216526,5.85666788 1.4045,5.614 C1.68683475,5.37133212 1.93883223,5.13100119 2.1605,4.893 C2.38216778,4.65499881 2.55949934,4.42283447 2.6925,4.1965 C2.82550067,3.97016553 2.892,3.74966774 2.892,3.535 C2.892,3.33433233 2.83716722,3.15700077 2.7275,3.003 C2.61783279,2.84899923 2.43700126,2.772 2.185,2.772 C1.92833205,2.772 1.73466732,2.85599916 1.604,3.024 C1.47333268,3.19200084 1.408,3.39499881 1.408,3.633 L0.54,3.633 C0.54933338,3.27366487 0.62866592,2.97383453 0.778,2.7335 C0.92733408,2.49316547 1.12566543,2.31350059 1.373,2.1945 C1.62033457,2.0754994 1.89799846,2.016 2.206,2.016 C2.70533583,2.016 3.09383195,2.15249863 3.3715,2.4255 C3.64916806,2.69850137 3.788,3.05199783 3.788,3.486 C3.788,3.75666802 3.72616729,4.02033205 3.6025,4.277 C3.47883272,4.53366795 3.31666767,4.78099881 3.116,5.019 C2.91533233,5.25700119 2.6983345,5.47983229 2.465,5.6875 C2.2316655,5.8951677 2.00533443,6.08766578 1.786,6.265 L3.907,6.265 L3.907,7 L0.533,7 Z M6.406,7.084 C6.04666487,7.084 5.7375013,7.02100063 5.4785,6.895 C5.21949871,6.76899937 5.01650074,6.59516778 4.8695,6.3735 C4.72249927,6.15183222 4.63733345,5.9010014 4.614,5.621 L5.489,5.621 C5.53100021,5.82166767 5.63366585,5.98849934 5.797,6.1215 C5.96033415,6.25450067 6.16333212,6.321 6.406,6.321 C6.66733464,6.321 6.88083251,6.22533429 7.0465,6.034 C7.2121675,5.84266571 7.295,5.60466809 7.295,5.32 C7.295,5.02599853 7.2121675,4.79266753 7.0465,4.62 C6.88083251,4.44733247 6.67200126,4.361 6.42,4.361 C6.20999895,4.361 6.02800077,4.41233282 5.874,4.515 C5.71999923,4.61766718 5.61033366,4.74599923 5.545,4.9 L4.684,4.9 L5.104,2.1 L7.82,2.1 L7.82,2.884 L5.776,2.884 L5.552,4.018 C5.65466718,3.90599944 5.79466578,3.81383369 5.972,3.7415 C6.14933422,3.66916631 6.34766557,3.633 6.567,3.633 C6.91700175,3.633 7.2086655,3.71116588 7.442,3.8675 C7.6753345,4.02383412 7.85266606,4.22916539 7.974,4.4835 C8.09533394,4.7378346 8.156,5.01433184 8.156,5.313 C8.156,5.65366837 8.08250074,5.95699867 7.9355,6.223 C7.78849927,6.48900133 7.58316799,6.69899923 7.3195,6.853 C7.05583202,7.00700077 6.75133506,7.084 6.406,7.084 Z M11.229,7 L11.229,6.09 L8.814,6.09 L8.814,5.376 L11.11,2.1 L12.125,2.1 L12.125,5.313 L12.769,5.313 L12.769,6.09 L12.125,6.09 L12.125,7 L11.229,7 Z M9.773,5.313 L11.285,5.313 L11.285,3.087 L9.773,5.313 Z" id="path-2"></path>
        <linearGradient x1="100%" y1="50%" x2="0%" y2="50%" id="linearGradient-3">
            <stop stop-color="#724490" offset="0%"></stop>
            <stop stop-color="#724490" stop-opacity="0.2" offset="100%"></stop>
        </linearGradient>
    </defs>
    <g id="Page-1" stroke="none" stroke-width="1" fill="none" fill-rule="evenodd">
        <g id="section2_8_legend" fill-rule="nonzero">
            <g id="1" transform="translate(0.000000, 6.000000)">
                <g>
                    <use fill="#000000" xlink:href="#path-1"></use>
                    <use fill="#393A44" xlink:href="#path-1"></use>
                </g>
            </g>
            <g id="254" transform="translate(67.000000, 6.000000)">
                <g>
                    <use fill="#000000" xlink:href="#path-2"></use>
                    <use fill="#393A44" xlink:href="#path-2"></use>
                </g>
            </g>
            <rect id="Rectangle" fill="url(#linearGradient-3)" x="0" y="0" width="80" height="5"></rect>
        </g>
    </g>
</svg>