<?xml version="1.0" encoding="UTF-8"?>
<svg width="441px" height="588px" viewBox="0 0 441 588" version="1.1" xmlns="http://www.w3.org/2000/svg" xmlns:xlink="http://www.w3.org/1999/xlink">
    <!-- Generator: Sketch 55.2 (78181) - https://sketchapp.com -->
    <title>Group 8</title>
    <desc>Created with Sketch.</desc>
    <g id="Pages" stroke="none" stroke-width="1" fill="none" fill-rule="evenodd">
        <g id="Section-01-03" transform="translate(-520.000000, -667.000000)" fill-rule="nonzero">
            <g id="Group-8" transform="translate(520.000000, 667.000000)">
                <polygon id="Path-2" fill="#B5E1D6" points="401 332.370189 401 362.666587 283 365 283 331"></polygon>
                <polygon id="Path-2-Copy-12" fill="#B5E1D6" transform="translate(302.500000, 109.500000) rotate(-180.000000) translate(-302.500000, -109.500000) " points="441 35 441 172.439793 164 184 164 35"></polygon>
                <polygon id="Path-2-Copy-8" fill="#1C8E7F" transform="translate(86.500000, 15.000000) rotate(-270.000000) translate(-86.500000, -15.000000) " points="73 -3 100 -2.69653949 100 33 73 33"></polygon>
                <polygon id="Path-2-Copy-5" fill="#1C8E7F" transform="translate(38.000000, 222.500000) rotate(-270.000000) translate(-38.000000, -222.500000) " points="10 213 66 213.16016 66 232 10 232"></polygon>
                <polygon id="Path-2-Copy-9" fill="#1C8E7F" transform="translate(148.000000, 221.000000) rotate(-270.000000) translate(-148.000000, -221.000000) " points="120 203 176 203.303461 176 239 120 239"></polygon>
                <polygon id="Path-2-Copy-14" fill="#1C8E7F" transform="translate(276.500000, 373.500000) rotate(-270.000000) translate(-276.500000, -373.500000) " points="234 369 319 369.075865 319 378 234 378"></polygon>
                <polygon id="Path-2-Copy-10" fill="#4D7174" transform="translate(117.500000, 220.000000) rotate(-270.000000) translate(-117.500000, -220.000000) " points="92 213.615327 143 213 143 226.507969 92 227"></polygon>
                <polygon id="Path-2-Copy-13" fill="#4D7174" transform="translate(8.000000, 292.000000) rotate(-270.000000) translate(-8.000000, -292.000000) " points="-25 284.70323 41 284 41 299.437678 -25 300"></polygon>
                <polygon id="Path-2-Copy-6" fill="#4D7174" transform="translate(224.500000, 222.000000) rotate(-270.000000) translate(-224.500000, -222.000000) " points="197 205.582268 252 204 252 238.734776 197 240"></polygon>
                <polygon id="Path-2-Copy-11" fill="#4D7174" transform="translate(422.500000, 14.000000) rotate(-270.000000) translate(-422.500000, -14.000000) " points="410 -2.41773151 435 -4 435 30.7347762 410 32"></polygon>
                <polygon id="Path-4" fill="#1C8E7F" transform="translate(318.500000, 14.500000) rotate(-360.000000) translate(-318.500000, -14.500000) " points="398.859375 0 400 29 237 23.7766301 237 0"></polygon>
                <polygon id="Path-4-Copy-7" fill="#1C8E7F" transform="translate(225.500000, 291.000000) rotate(-180.000000) translate(-225.500000, -291.000000) " points="413.333877 259 416 323 35 311.472563 35 259"></polygon>
                <polygon id="Path-4-Copy-14" fill="#1C8E7F" transform="translate(359.000000, 477.500000) rotate(-180.000000) translate(-359.000000, -477.500000) " points="433 403 429.527077 552 285 552 286.095847 403"></polygon>
                <polygon id="Path-4-Copy-10" fill="#85C9C0" transform="translate(149.500000, 15.000000) rotate(-270.000000) translate(-149.500000, -15.000000) " points="163 -26 163 56 136 51.9377975 136 -26"></polygon>
                <polygon id="Path-4-Copy-5" fill="#85C9C0" transform="translate(77.500000, 220.000000) rotate(-270.000000) translate(-77.500000, -220.000000) " points="103 192 103 248 52 245.225813 52 192"></polygon>
                <polygon id="Path-4-Copy-11" fill="#85C9C0" transform="translate(254.000000, 220.500000) rotate(-270.000000) translate(-254.000000, -220.500000) " points="282 211 282 230 226 229.058758 226 211"></polygon>
                <polygon id="Path-4-Copy-12" fill="#85C9C0" transform="translate(427.000000, 292.500000) rotate(-270.000000) translate(-427.000000, -292.500000) " points="460 287 460 298 394 297.45507 394 287"></polygon>
                <polygon id="Path-4-Copy-13" fill="#85C9C0" transform="translate(26.000000, 292.500000) rotate(-270.000000) translate(-26.000000, -292.500000) " points="59 287 59 298 -7 297.45507 -7 287"></polygon>
                <polygon id="Path-5-Copy-7" fill="#4D7174" transform="translate(165.000000, 381.500000) rotate(-180.000000) translate(-165.000000, -381.500000) " points="268 338.969328 268 432 63.6230388 432 62 331"></polygon>
                <polygon id="Path-5-Copy-9" fill="#85C9C0" transform="translate(212.000000, 14.500000) rotate(-270.000000) translate(-212.000000, -14.500000) " points="226 -2 226 31 198.220607 31 198 -0.628270082"></polygon>
                <polygon id="Path-5-Copy-6" fill="#85C9C0" transform="translate(184.500000, 219.500000) rotate(-270.000000) translate(-184.500000, -219.500000) " points="211 203 211 236 158.417578 236 158 204.37173"></polygon>
                <polygon id="Path-5-Copy-10" fill="#85C9C0" transform="translate(325.500000, 219.000000) rotate(-270.000000) translate(-325.500000, -219.000000) " points="352 161 352 277 299.417578 277 299 165.821838"></polygon>
                <polygon id="Path-5-Copy-12" fill="#85C9C0" transform="translate(140.500000, 513.500000) rotate(-270.000000) translate(-140.500000, -513.500000) " points="215 377 215 650 67.1739455 650 66 388.347948"></polygon>
                <polygon id="Path-5-Copy-11" fill="#85C9C0" transform="translate(348.500000, 380.000000) rotate(-270.000000) translate(-348.500000, -380.000000) " points="362 315 362 445 335.212728 445 335 320.403785"></polygon>
                <polygon id="Path-5-Copy-8" fill="#4D7174" transform="translate(394.500000, 219.500000) rotate(-270.000000) translate(-394.500000, -219.500000) " points="367 227.500819 367 210 421.566664 210 422 229"></polygon>
            </g>
        </g>
    </g>
</svg>