<?xml version="1.0" encoding="UTF-8"?>
<svg width="518px" height="442px" viewBox="0 0 518 442" version="1.1" xmlns="http://www.w3.org/2000/svg" xmlns:xlink="http://www.w3.org/1999/xlink">
    <!-- Generator: Sketch 56.2 (81672) - https://sketch.com -->
    <title>Group</title>
    <desc>Created with Sketch.</desc>
    <g id="Pages" stroke="none" stroke-width="1" fill="none" fill-rule="evenodd">
        <g id="Section-03-00" transform="translate(-25.000000, -52.000000)" fill-rule="nonzero">
            <g id="Group" transform="translate(25.000000, 52.000000)">
                <path d="M38.9973668,369.258146 L8.66886649,292.876805 C2.88962216,267.682516 -5.68434189e-14,255.085371 -5.68434189e-14,255.085371 C-5.68434189e-14,255.085371 -5.68434189e-14,215.032602 -5.68434189e-14,134.927062 L25.8168225,77.542759 L92.1886149,28.9205032 L172.449929,9.80248388 L314.911525,0 L431.219902,49.4449264 L501.27246,77.542759 L517.972829,192.719676 L517.972829,244.898773 L462.600937,301.90501 L405.564021,378.848913 L343.628711,425.211849 L258.986415,425.211849 L193.074742,433 L126.205233,420.263727 L77.4003379,394.189302 L38.9973668,369.258146 Z" id="Path-14" fill-opacity="0.25" fill="#724490"></path>
                <path d="M77.6657025,395.187276 L53.1908413,339.091972 C48.5270366,320.589007 46.1951342,311.337524 46.1951342,311.337524 C46.1951342,311.337524 46.1951342,281.922326 46.1951342,223.09193 L67.029107,180.948262 L120.590621,145.239538 L185.360871,131.199053 L300.326258,124 L394.186204,160.312902 L450.718068,180.948262 L464.195134,265.535467 L464.195134,303.856374 L419.510453,345.722386 L373.48211,402.230842 L323.500802,436.280296 L255.195134,436.280296 L202.004933,442 L148.041765,432.64634 L108.656598,413.496993 L77.6657025,395.187276 Z" id="Path-14-Copy" fill="#B5E1D6"></path>
                <polygon id="Path-13" fill-opacity="0.25" fill="#724490" points="170.972423 91.1602308 105.406124 147.867753 91.8140414 184.379028 91.8140414 242.50566 105.406124 314.282933 123.190956 361.856315 170.972423 411.613673 234.361424 419 293.444688 405.235578 352.622617 381.211842 389.126718 328.786936 425.814041 242.50566 425.814041 184.379028 419.386135 114.697234 395.857104 91.1602308 344.8387 75.5942656 308.484231 75.5942656 228.760912 70 183.260569 84.105767"></polygon>
                <polygon id="Path-11" fill-opacity="0.25" fill="#724490" points="237.365081 189 199.108767 195.261045 163.626797 209.167721 150.924108 228.966934 141 254.190001 150.924108 322.964898 171.20436 355.450778 237.365081 368.656216 279.34876 355.450778 329.638533 336.220425 359 294.654241 351.714697 237.249402 338.897645 209.167721 296.630178 189 250 189"></polygon>
            </g>
        </g>
    </g>
</svg>