<?xml version="1.0" encoding="UTF-8"?>
<svg width="1024px" height="550px" viewBox="0 0 1024 550" version="1.1" xmlns="http://www.w3.org/2000/svg" xmlns:xlink="http://www.w3.org/1999/xlink">
    <!-- Generator: Sketch 56.3 (81716) - https://sketch.com -->
    <title>Group 2</title>
    <desc>Created with Sketch.</desc>
    <g id="Pages" stroke="none" stroke-width="1" fill="none" fill-rule="evenodd">
        <g id="Section-09" transform="translate(0.000000, -102.000000)" fill-rule="nonzero">
            <g id="Group" transform="translate(-255.000000, 101.500000)">
                <g id="Group-2">
                    <polygon id="Path-5-Copy-10" fill="#85C9C0" transform="translate(1164.000000, 275.500000) rotate(-270.000000) translate(-1164.000000, -275.500000) " points="1197 111 1197 440 1131.52 440 1131 124.675732"></polygon>
                    <polygon id="Path-5-Copy-13" fill="#85C9C0" transform="translate(1215.000000, 113.500000) rotate(-270.000000) translate(-1215.000000, -113.500000) " points="1248 -51 1248 278 1182.52 278 1182 -37.3242684"></polygon>
                    <polygon id="Path-5-Copy-11" fill="#FCF5E9" transform="translate(1240.000000, 194.500000) rotate(-270.000000) translate(-1240.000000, -194.500000) " points="1273 30 1273 359 1207.52 359 1207 43.6757316"></polygon>
                    <polygon id="Path-5-Copy-12" fill="#FCF5E9" transform="translate(1306.000000, 357.500000) rotate(-270.000000) translate(-1306.000000, -357.500000) " points="1339 193 1339 522 1273.52 522 1273 206.675732"></polygon>
                    <polygon id="Path-5-Copy-14" fill="#85C9C0" transform="translate(1125.000000, 33.500000) rotate(-270.000000) translate(-1125.000000, -33.500000) " points="1158 -131 1158 198 1092.52 198 1092 -117.324268"></polygon>
                    <polygon id="Path-5-Copy-15" fill="#FCF5E9" transform="translate(1225.000000, 437.500000) rotate(-270.000000) translate(-1225.000000, -437.500000) " points="1258 273 1258 602 1192.52 602 1192 286.675732"></polygon>
                    <polygon id="Path-5-Copy-16" fill="#FCF5E9" transform="translate(1385.000000, 517.500000) rotate(-270.000000) translate(-1385.000000, -517.500000) " points="1418 353 1418 682 1352.52 682 1352 366.675732"></polygon>
                    <polygon id="Path-4-Copy-7" fill="#83C9C0" points="552.284893 245.5 555 307.5 167 296.332795 167 245.5"></polygon>
                    <polygon id="Path-4-Copy-8" fill="#83C9C0" points="607.284893 320.5 610 382.5 222 381.383709 222 320.5"></polygon>
                    <polygon id="Path-4-Copy-9" fill="#FCF5E9" points="404.284893 400.5 407 462.5 19 461.383709 19 400.5"></polygon>
                    <polygon id="Path-4-Copy-10" fill="#83C9C0" points="385.284893 163.5 388 225.5 -3.18767235e-12 224.383709 -3.17660895e-12 163.5"></polygon>
                    <polygon id="Path-4-Copy-13" fill="#83C9C0" points="385.284893 479.5 388 541.5 -3.18767235e-12 540.383709 -3.17660895e-12 479.5"></polygon>
                    <polygon id="Path-4-Copy-11" fill="#FCF5E9" points="509.284893 87.5 512 149.5 124 148.383709 124 87.5"></polygon>
                    <polygon id="Path-4-Copy-12" fill="#83C9C0" points="562.284893 6.5 565 68.5 177 67.3837089 177 6.5"></polygon>
                </g>
            </g>
        </g>
    </g>
</svg>