<?xml version="1.0" encoding="UTF-8"?>
<svg width="687px" height="566px" viewBox="0 0 687 566" version="1.1" xmlns="http://www.w3.org/2000/svg" xmlns:xlink="http://www.w3.org/1999/xlink">
    <!-- Generator: Sketch 56.2 (81672) - https://sketch.com -->
    <title>Group</title>
    <desc>Created with Sketch.</desc>
    <g id="Pages" stroke="none" stroke-width="1" fill="none" fill-rule="evenodd">
        <g id="Section-02-00" fill-rule="nonzero">
            <g id="Group" transform="translate(-167.000000, -44.399714)">
                <polygon id="Path-10-Copy-4" fill="#E8B64D" transform="translate(539.412056, 431.696540) scale(-1, 1) rotate(157.000000) translate(-539.412056, -431.696540) " points="405.147274 299.95773 662.741662 290.150865 673.676837 321.977806 567.021423 573.242216 537.819653 550.133378 461.676025 430.823342"></polygon>
                <polygon id="Path-11-Copy" fill="#ED6E4D" transform="translate(591.500000, 336.399714) scale(-1, 1) rotate(8.000000) translate(-591.500000, -336.399714) " points="620.409639 416.399714 624.113835 399.640413 629.375097 377.712782 641.35605 338.255996 648 294.964333 645.051439 261.161377 629.375097 256.399714 603.671182 261.161377 571.994404 275.917057 539.051189 287.908543 535 304.228955 539.051189 338.255996 553.337797 354.262232 568.820385 368.678396 585.588786 384.404031 603.671182 410.739733"></polygon>
                <polygon id="Path-10" fill-opacity="0.75" fill="#ED6E4D" transform="translate(520.000000, 257.399714) rotate(-29.000000) translate(-520.000000, -257.399714) " points="380 197.461406 660 150.399714 660 163.1491 551.089337 364.399714 520 349.089215 438.934541 270.041699"></polygon>
                <polygon id="Path-10-Copy" fill-opacity="0.75" fill="#ED6E4D" transform="translate(443.644151, 197.500000) scale(-1, 1) rotate(58.000000) translate(-443.644151, -197.500000) " points="312.144151 107.032367 575.144151 36 575.144151 55.2432324 472.845921 359 443.644151 335.891162 367.500523 216.581126"></polygon>
                <polygon id="Path-10-Copy-2" fill-opacity="0.25" fill="#E8B64D" transform="translate(718.000000, 248.899714) scale(-1, 1) rotate(87.000000) translate(-718.000000, -248.899714) " points="607 171.876188 829 111.399714 829 127.783271 742.649403 386.399714 718 366.725007 653.726672 265.145255"></polygon>
                <polygon id="Path-10-Copy-3" fill-opacity="0.25" fill="#ED6E4D" transform="translate(644.000000, 241.899714) scale(-1, 1) rotate(100.000000) translate(-644.000000, -241.899714) " points="592 215.291587 696 194.399714 696 200.059488 655.547468 289.399714 644 282.602997 613.889972 247.51181"></polygon>
                <polygon id="Path-12" fill-opacity="0.25" fill="#ED6E4D" transform="translate(291.000000, 319.399714) rotate(48.000000) translate(-291.000000, -319.399714) " points="136.209869 423.075286 90.2839444 251.137064 72 170.523199 100.477899 151.982291 272.563748 125.399714 465.781332 141.58868 510 151.982291 510 185.599569 452.434974 300.182799 377.478594 381.902219 300.071132 447.038335 206.391596 513.399714 174.116644 513.399714"></polygon>
                <polygon id="Path-12-Copy" fill-opacity="0.25" fill="#ED6E4D" transform="translate(457.000000, 377.399714) scale(-1, 1) rotate(-33.000000) translate(-457.000000, -377.399714) " points="384.905966 426.031039 363.51581 345.379605 355 307.565885 368.263679 298.868861 448.413253 286.399714 538.405004 293.993507 559 298.868861 559 314.63779 532.188892 368.385594 497.277701 406.717899 461.224911 437.271438 417.593346 468.399714 402.561177 468.399714"></polygon>
            </g>
        </g>
    </g>
</svg>