<?xml version="1.0" encoding="UTF-8"?>
<svg width="732px" height="426px" viewBox="0 0 732 426" version="1.1" xmlns="http://www.w3.org/2000/svg" xmlns:xlink="http://www.w3.org/1999/xlink">
    <!-- Generator: Sketch 56.2 (81672) - https://sketch.com -->
    <title>Group</title>
    <desc>Created with Sketch.</desc>
    <g id="Pages" stroke="none" stroke-width="1" fill="none" fill-rule="evenodd">
        <g id="Section-07-00" transform="translate(0.000000, -119.000000)" fill-rule="nonzero">
            <g id="Group" transform="translate(-27.000000, 99.000000)">
                <path d="M277.760184,398.324346 L255.393206,341.993838 C251.131069,323.413291 249,314.123018 249,314.123018 C249,314.123018 249,284.584484 249,225.507416 L268.039659,183.187042 L316.98822,147.328594 L376.180171,133.229238 L481.244233,126 L567.020547,162.46516 L618.683638,183.187042 L631,268.128915 L631,306.610499 L590.16376,348.652053 L548.09958,405.397445 L502.422883,439.589666 L440,439.589666 L391.390773,445.333352 L342.07515,435.940473 L306.082008,416.710834 L277.760184,398.324346 Z" id="Path-14" fill-opacity="0.25" fill="#724490"></path>
                <path d="M398.760184,300.882716 L376.393206,244.023008 C372.131069,225.267905 370,215.890353 370,215.890353 C370,215.890353 370,186.074317 370,126.442245 L389.039659,83.7242897 L437.98822,47.5289671 L497.180171,33.2971536 L602.244233,26 L688.020547,62.8077342 L739.683638,83.7242897 L752,169.464155 L752,208.307257 L711.16376,250.743774 L669.09958,308.022264 L623.422883,342.535706 L561,342.535706 L512.390773,348.333352 L463.07515,338.852231 L427.082008,319.441938 L398.760184,300.882716 Z" id="Path-14-Copy" fill-opacity="0.25" fill="#ED6E4D" transform="translate(561.000000, 187.166676) rotate(172.000000) translate(-561.000000, -187.166676) "></path>
                <polyline id="Path-18-Copy-2" fill="#724490" transform="translate(80.962051, 320.392136) rotate(92.000000) translate(-80.962051, -320.392136) " points="71 247.773837 71 400.303821 87.5215842 400.303821 90.9241028 240.48045 75.0415703 247.773837"></polyline>
                <polyline id="Path-18-Copy-4" fill="#ED6E4D" points="430 213.293388 430 365.823372 446.521584 365.823372 449.924103 206 434.04157 213.293388"></polyline>
                <polyline id="Path-18-Copy-3" fill="#724490" transform="translate(400.962051, 318.392136) rotate(90.000000) translate(-400.962051, -318.392136) " points="391 245.773837 391 398.303821 407.521584 398.303821 410.924103 238.48045 395.04157 245.773837"></polyline>
                <polygon id="Path-19-Copy" fill="#724490" transform="translate(236.500000, 316.957056) rotate(-114.000000) translate(-236.500000, -316.957056) " points="251.418551 241.48045 199 383.266692 211.464774 392.433663 274 248.200749 259.879267 241.48045"></polygon>
            </g>
        </g>
    </g>
</svg>