<?xml version="1.0" encoding="UTF-8"?>
<svg width="1024px" height="550px" viewBox="0 0 1024 550" version="1.1" xmlns="http://www.w3.org/2000/svg" xmlns:xlink="http://www.w3.org/1999/xlink">
    <!-- Generator: Sketch 56.2 (81672) - https://sketch.com -->
    <title>Group</title>
    <desc>Created with Sketch.</desc>
    <g id="Pages" stroke="none" stroke-width="1" fill="none" fill-rule="evenodd">
        <g id="Section-09" transform="translate(0.000000, -102.000000)">
            <g id="Group" transform="translate(-255.000000, 101.500000)">
                <text id="Become-a-sponsor" font-family="DMSerifText-Regular, DM Serif Text" font-size="35" font-weight="normal" line-spacing="35" fill="#393A44">
                    <tspan x="620.5775" y="54.3700256">Become a sponsor</tspan>
                </text>
                <text id="The-city-is-actively" font-family="DMSans-Regular, DM Sans" font-size="14" font-weight="normal" line-spacing="26" fill="#091418">
                    <tspan x="546.84" y="114.5">The city is actively working to make sure the Parklet Program serves </tspan>
                    <tspan x="570.374" y="140.5">all neighborhoods and sponsor-types equally—from cafes to </tspan>
                    <tspan x="603.708" y="166.5">community centers, and from Bayview to Sea Cliff.</tspan>
                </text>
                <text id="Submit-a-proposal-to" font-family="DMSans-Regular, DM Sans" font-size="14" font-weight="normal" line-spacing="26" fill="#091418">
                    <tspan x="577.38" y="212.5">Submit a proposal to bring a parklet to your neighborhood!</tspan>
                </text>
                <text id="Who-can-build-or-spo" font-family="DMSans-Regular, DM Sans" font-size="14" font-weight="normal" line-spacing="26" fill="#091418" text-decoration="underline">
                    <tspan x="649.838" y="369.5">Who can build or sponsor a parklet?</tspan>
                    <tspan x="688.282" y="395.5">How much does it cost?</tspan>
                    <tspan x="655.137" y="421.5">How can I apply to build a parklet?</tspan>
                </text>
                <text id="For-more-information" font-family="DMSans-Regular, DM Sans" font-size="14" font-weight="normal" line-spacing="26" fill="#091418">
                    <tspan x="550.767" y="467.5">For more information, visit </tspan>
                    <tspan x="723.765" y="467.5" text-decoration="underline">www.parklets.org</tspan>
                    <tspan x="833.987" y="467.5"> or feel free to email us </tspan>
                    <tspan x="700.994" y="493.5">at info@parklets.org</tspan>
                </text>
                <polygon id="Path-7" fill="#393A44" points="582 244.5 968.848157 244.5 973 310.5 585.083898 306.11574"></polygon>
                <text id="Submit-Parklet-Propo" font-family="DMSans-Bold, DM Sans" font-size="20" font-weight="bold" line-spacing="26" fill="#FCF5E9">
                    <tspan x="661.38" y="282.5">Submit Parklet Proposal</tspan>
                </text>
                <polygon id="Path-5-Copy-10" fill="#85C9C0" fill-rule="nonzero" transform="translate(1164.000000, 275.500000) rotate(-270.000000) translate(-1164.000000, -275.500000) " points="1197 111 1197 440 1131.52 440 1131 124.675732"></polygon>
                <polygon id="Path-5-Copy-13" fill="#85C9C0" fill-rule="nonzero" transform="translate(1215.000000, 113.500000) rotate(-270.000000) translate(-1215.000000, -113.500000) " points="1248 -51 1248 278 1182.52 278 1182 -37.3242684"></polygon>
                <polygon id="Path-5-Copy-11" fill="#FCF5E9" fill-rule="nonzero" transform="translate(1240.000000, 194.500000) rotate(-270.000000) translate(-1240.000000, -194.500000) " points="1273 30 1273 359 1207.52 359 1207 43.6757316"></polygon>
                <polygon id="Path-5-Copy-12" fill="#FCF5E9" fill-rule="nonzero" transform="translate(1306.000000, 357.500000) rotate(-270.000000) translate(-1306.000000, -357.500000) " points="1339 193 1339 522 1273.52 522 1273 206.675732"></polygon>
                <polygon id="Path-5-Copy-14" fill="#85C9C0" fill-rule="nonzero" transform="translate(1125.000000, 33.500000) rotate(-270.000000) translate(-1125.000000, -33.500000) " points="1158 -131 1158 198 1092.52 198 1092 -117.324268"></polygon>
                <polygon id="Path-5-Copy-15" fill="#FCF5E9" fill-rule="nonzero" transform="translate(1225.000000, 437.500000) rotate(-270.000000) translate(-1225.000000, -437.500000) " points="1258 273 1258 602 1192.52 602 1192 286.675732"></polygon>
                <polygon id="Path-5-Copy-16" fill="#FCF5E9" fill-rule="nonzero" transform="translate(1385.000000, 517.500000) rotate(-270.000000) translate(-1385.000000, -517.500000) " points="1418 353 1418 682 1352.52 682 1352 366.675732"></polygon>
                <polygon id="Path-4-Copy-7" fill="#83C9C0" fill-rule="nonzero" points="552.284893 245.5 555 307.5 167 296.332795 167 245.5"></polygon>
                <polygon id="Path-4-Copy-8" fill="#83C9C0" fill-rule="nonzero" points="607.284893 320.5 610 382.5 222 381.383709 222 320.5"></polygon>
                <polygon id="Path-4-Copy-9" fill="#FCF5E9" fill-rule="nonzero" points="404.284893 400.5 407 462.5 19 461.383709 19 400.5"></polygon>
                <polygon id="Path-4-Copy-10" fill="#83C9C0" fill-rule="nonzero" points="385.284893 163.5 388 225.5 -3.18767235e-12 224.383709 -3.17660895e-12 163.5"></polygon>
                <polygon id="Path-4-Copy-13" fill="#83C9C0" fill-rule="nonzero" points="385.284893 479.5 388 541.5 -3.18767235e-12 540.383709 -3.17660895e-12 479.5"></polygon>
                <polygon id="Path-4-Copy-11" fill="#FCF5E9" fill-rule="nonzero" points="509.284893 87.5 512 149.5 124 148.383709 124 87.5"></polygon>
                <polygon id="Path-4-Copy-12" fill="#83C9C0" fill-rule="nonzero" points="562.284893 6.5 565 68.5 177 67.3837089 177 6.5"></polygon>
            </g>
        </g>
    </g>
</svg>