<?xml version="1.0" encoding="UTF-8"?>
<svg width="80px" height="14px" viewBox="0 0 80 14" version="1.1" xmlns="http://www.w3.org/2000/svg" xmlns:xlink="http://www.w3.org/1999/xlink">
    <!-- Generator: Sketch 57.1 (83088) - https://sketch.com -->
    <title>section2_6_legend</title>
    <desc>Created with Sketch.</desc>
    <defs>
        <path d="M2.716,7 L2.716,6.09 L0.301,6.09 L0.301,5.376 L2.597,2.1 L3.612,2.1 L3.612,5.313 L4.256,5.313 L4.256,6.09 L3.612,6.09 L3.612,7 L2.716,7 Z M1.26,5.313 L2.772,5.313 L2.772,3.087 L1.26,5.313 Z M5.852,4.508 C5.62799888,4.508 5.42500091,4.45783383 5.243,4.3575 C5.06099909,4.25716617 4.91633387,4.1136676 4.809,3.927 C4.70166613,3.7403324 4.648,3.51866795 4.648,3.262 C4.648,3.00533205 4.70166613,2.7836676 4.809,2.597 C4.91633387,2.4103324 5.06099909,2.26683383 5.243,2.1665 C5.42500091,2.06616616 5.63033219,2.016 5.859,2.016 C6.08300112,2.016 6.28483244,2.06616616 6.4645,2.1665 C6.64416756,2.26683383 6.78766613,2.4103324 6.895,2.597 C7.00233387,2.7836676 7.056,3.00533205 7.056,3.262 C7.056,3.51866795 7.00233387,3.7403324 6.895,3.927 C6.78766613,4.1136676 6.64300091,4.25716617 6.461,4.3575 C6.27899909,4.45783383 6.07600112,4.508 5.852,4.508 Z M5.586,7 L8.351,2.1 L9.226,2.1 L6.461,7 L5.586,7 Z M5.852,3.885 C5.98733401,3.885 6.10399951,3.83250053 6.202,3.7275 C6.30000049,3.62249947 6.349,3.46733436 6.349,3.262 C6.349,3.05666564 6.30116714,2.90033387 6.2055,2.793 C6.10983286,2.68566613 5.9920007,2.632 5.852,2.632 C5.7119993,2.632 5.59416715,2.68566613 5.4985,2.793 C5.40283285,2.90033387 5.355,3.05666564 5.355,3.262 C5.355,3.46733436 5.40283285,3.62249947 5.4985,3.7275 C5.59416715,3.83250053 5.7119993,3.885 5.852,3.885 Z M8.988,7.084 C8.76399888,7.084 8.56100091,7.03383384 8.379,6.9335 C8.19699909,6.83316616 8.05233387,6.6896676 7.945,6.503 C7.83766613,6.3163324 7.784,6.09466795 7.784,5.838 C7.784,5.58133205 7.83766613,5.36083426 7.945,5.1765 C8.05233387,4.99216575 8.19699909,4.84983384 8.379,4.7495 C8.56100091,4.64916617 8.76633219,4.599 8.995,4.599 C9.21900112,4.599 9.42083243,4.64916617 9.6005,4.7495 C9.78016757,4.84983384 9.92366613,4.99216575 10.031,5.1765 C10.1383339,5.36083426 10.192,5.58133205 10.192,5.838 C10.192,6.09466795 10.1383339,6.3163324 10.031,6.503 C9.92366613,6.6896676 9.78016757,6.83316616 9.6005,6.9335 C9.42083243,7.03383384 9.21666781,7.084 8.988,7.084 Z M8.988,6.461 C9.1280007,6.461 9.24583285,6.40850053 9.3415,6.3035 C9.43716715,6.19849948 9.485,6.04333436 9.485,5.838 C9.485,5.63266564 9.43716715,5.47633387 9.3415,5.369 C9.24583285,5.26166613 9.1280007,5.208 8.988,5.208 C8.8479993,5.208 8.73016714,5.26166613 8.6345,5.369 C8.53883285,5.47633387 8.491,5.63266564 8.491,5.838 C8.491,6.04333436 8.53883285,6.19849948 8.6345,6.3035 C8.73016714,6.40850053 8.8479993,6.461 8.988,6.461 Z" id="path-1"></path>
        <path d="M0.769,7 L0.769,6.349 C1.06766816,6.10166543 1.35816526,5.85666788 1.6405,5.614 C1.92283475,5.37133212 2.17483223,5.13100119 2.3965,4.893 C2.61816778,4.65499881 2.79549934,4.42283447 2.9285,4.1965 C3.06150067,3.97016553 3.128,3.74966774 3.128,3.535 C3.128,3.33433233 3.07316722,3.15700077 2.9635,3.003 C2.85383279,2.84899923 2.67300126,2.772 2.421,2.772 C2.16433205,2.772 1.97066732,2.85599916 1.84,3.024 C1.70933268,3.19200084 1.644,3.39499881 1.644,3.633 L0.776,3.633 C0.78533338,3.27366487 0.86466592,2.97383453 1.014,2.7335 C1.16333408,2.49316547 1.36166543,2.31350059 1.609,2.1945 C1.85633457,2.0754994 2.13399846,2.016 2.442,2.016 C2.94133583,2.016 3.32983195,2.15249863 3.6075,2.4255 C3.88516806,2.69850137 4.024,3.05199783 4.024,3.486 C4.024,3.75666802 3.96216729,4.02033205 3.8385,4.277 C3.71483272,4.53366795 3.55266767,4.78099881 3.352,5.019 C3.15133233,5.25700119 2.9343345,5.47983229 2.701,5.6875 C2.4676655,5.8951677 2.24133443,6.08766578 2.022,6.265 L4.143,6.265 L4.143,7 L0.769,7 Z M7.062,7 L7.062,6.09 L4.647,6.09 L4.647,5.376 L6.943,2.1 L7.958,2.1 L7.958,5.313 L8.602,5.313 L8.602,6.09 L7.958,6.09 L7.958,7 L7.062,7 Z M5.606,5.313 L7.118,5.313 L7.118,3.087 L5.606,5.313 Z M10.198,4.508 C9.97399888,4.508 9.77100091,4.45783383 9.589,4.3575 C9.40699909,4.25716617 9.26233387,4.1136676 9.155,3.927 C9.04766613,3.7403324 8.994,3.51866795 8.994,3.262 C8.994,3.00533205 9.04766613,2.7836676 9.155,2.597 C9.26233387,2.4103324 9.40699909,2.26683383 9.589,2.1665 C9.77100091,2.06616616 9.97633219,2.016 10.205,2.016 C10.4290011,2.016 10.6308324,2.06616616 10.8105,2.1665 C10.9901676,2.26683383 11.1336661,2.4103324 11.241,2.597 C11.3483339,2.7836676 11.402,3.00533205 11.402,3.262 C11.402,3.51866795 11.3483339,3.7403324 11.241,3.927 C11.1336661,4.1136676 10.9890009,4.25716617 10.807,4.3575 C10.6249991,4.45783383 10.4220011,4.508 10.198,4.508 Z M9.932,7 L12.697,2.1 L13.572,2.1 L10.807,7 L9.932,7 Z M10.198,3.885 C10.333334,3.885 10.4499995,3.83250053 10.548,3.7275 C10.6460005,3.62249947 10.695,3.46733436 10.695,3.262 C10.695,3.05666564 10.6471671,2.90033387 10.5515,2.793 C10.4558329,2.68566613 10.3380007,2.632 10.198,2.632 C10.0579993,2.632 9.94016715,2.68566613 9.8445,2.793 C9.74883286,2.90033387 9.701,3.05666564 9.701,3.262 C9.701,3.46733436 9.74883286,3.62249947 9.8445,3.7275 C9.94016715,3.83250053 10.0579993,3.885 10.198,3.885 Z M13.334,7.084 C13.1099989,7.084 12.9070009,7.03383384 12.725,6.9335 C12.5429991,6.83316616 12.3983339,6.6896676 12.291,6.503 C12.1836661,6.3163324 12.13,6.09466795 12.13,5.838 C12.13,5.58133205 12.1836661,5.36083426 12.291,5.1765 C12.3983339,4.99216575 12.5429991,4.84983384 12.725,4.7495 C12.9070009,4.64916617 13.1123322,4.599 13.341,4.599 C13.5650011,4.599 13.7668324,4.64916617 13.9465,4.7495 C14.1261676,4.84983384 14.2696661,4.99216575 14.377,5.1765 C14.4843339,5.36083426 14.538,5.58133205 14.538,5.838 C14.538,6.09466795 14.4843339,6.3163324 14.377,6.503 C14.2696661,6.6896676 14.1261676,6.83316616 13.9465,6.9335 C13.7668324,7.03383384 13.5626678,7.084 13.334,7.084 Z M13.334,6.461 C13.4740007,6.461 13.5918329,6.40850053 13.6875,6.3035 C13.7831671,6.19849948 13.831,6.04333436 13.831,5.838 C13.831,5.63266564 13.7831671,5.47633387 13.6875,5.369 C13.5918329,5.26166613 13.4740007,5.208 13.334,5.208 C13.1939993,5.208 13.0761671,5.26166613 12.9805,5.369 C12.8848329,5.47633387 12.837,5.63266564 12.837,5.838 C12.837,6.04333436 12.8848329,6.19849948 12.9805,6.3035 C13.0761671,6.40850053 13.1939993,6.461 13.334,6.461 Z" id="path-2"></path>
        <linearGradient x1="100%" y1="50%" x2="0%" y2="50%" id="linearGradient-3">
            <stop stop-color="#1C8E7F" offset="0%"></stop>
            <stop stop-color="#1C8E7F" stop-opacity="0.2" offset="100%"></stop>
        </linearGradient>
    </defs>
    <g id="Page-1" stroke="none" stroke-width="1" fill="none" fill-rule="evenodd">
        <g id="section2_6_legend" fill-rule="nonzero">
            <g id="4%" transform="translate(0.000000, 6.000000)">
                <g>
                    <use fill="#000000" xlink:href="#path-1"></use>
                    <use fill="#393A44" xlink:href="#path-1"></use>
                </g>
            </g>
            <g id="24%" transform="translate(65.000000, 6.000000)">
                <g>
                    <use fill="#000000" xlink:href="#path-2"></use>
                    <use fill="#393A44" xlink:href="#path-2"></use>
                </g>
            </g>
            <rect id="Rectangle" fill="url(#linearGradient-3)" x="0" y="0" width="80" height="5"></rect>
        </g>
    </g>
</svg>