<?xml version="1.0" encoding="UTF-8"?>
<svg width="477px" height="373px" viewBox="0 0 477 373" version="1.1" xmlns="http://www.w3.org/2000/svg" xmlns:xlink="http://www.w3.org/1999/xlink">
    <!-- Generator: Sketch 56.3 (81716) - https://sketch.com -->
    <title>Group</title>
    <desc>Created with Sketch.</desc>
    <g id="Pages" stroke="none" stroke-width="1" fill="none" fill-rule="evenodd">
        <g id="Section-06-00" transform="translate(-20.000000, 0.000000)" fill-rule="nonzero">
            <g id="Group" transform="translate(20.000000, 0.000000)">
                <path d="M28.7601844,272.324346 L6.393206,215.993838 C2.13106867,197.413291 0,188.123018 0,188.123018 C0,188.123018 0,158.584484 0,99.5074159 L19.0396593,57.187042 L67.9882204,21.3285941 L127.180171,7.22923797 L232.244233,-6.53699317e-13 L318.020547,36.4651596 L369.683638,57.187042 L382,142.128915 L382,180.610499 L341.16376,222.652053 L299.09958,279.397445 L253.422883,313.589666 L191,313.589666 L142.390773,319.333352 L93.0751502,309.940473 L57.0820078,290.710834 L28.7601844,272.324346 Z" id="Path-14" fill-opacity="0.25" fill="#ED6E4D"></path>
                <path d="M241.338838,350.59695 L230.765664,323.968754 C228.750894,315.185477 227.743509,310.793839 227.743509,310.793839 C227.743509,310.793839 227.743509,296.830573 227.743509,268.90404 L236.743814,248.898625 L259.882464,231.947849 L287.863303,225.282892 L337.528512,221.865533 L378.076141,239.103109 L402.497985,248.898625 L408.320097,289.051802 L408.320097,307.242569 L389.016252,327.116183 L369.131943,353.9405 L347.539948,370.103628 L318.031803,370.103628 L295.053561,372.818746 L271.741396,368.378605 L254.726949,359.288493 L241.338838,350.59695 Z" id="Path-14-Copy" fill="#E8B64D"></path>
                <polygon id="Path-13" fill-opacity="0.25" fill="#ED6E4D" points="331.787024 185.679868 298.831728 208.941135 292 223.917959 292 247.761341 298.831728 277.204179 307.770838 296.718648 331.787024 317.128977 363.647954 320.158828 393.344711 314.512701 423.089049 304.658231 441.436942 283.15368 459.876927 247.761341 459.876927 223.917959 456.646097 195.334681 444.819806 185.679868 419.176653 179.294752 400.903969 179.294752 360.832994 177 337.96336 182.786146"></polygon>
                <polyline id="Path-18" fill="#ED6E4D" points="369 104.293388 369 256.823372 385.521584 256.823372 388.924103 97 373.04157 104.293388"></polyline>
                <polygon id="Path-19" fill="#ED6E4D" points="454.418551 118.722256 402 260.508498 414.464774 269.675469 477 125.442556 462.879267 118.722256"></polygon>
            </g>
        </g>
    </g>
</svg>