<?xml version="1.0" encoding="UTF-8"?>
<svg width="116px" height="7px" viewBox="0 0 116 7" version="1.1" xmlns="http://www.w3.org/2000/svg" xmlns:xlink="http://www.w3.org/1999/xlink">
    <!-- Generator: Sketch 57.1 (83088) - https://sketch.com -->
    <title>Group 3</title>
    <desc>Created with Sketch.</desc>
    <g id="Pages" stroke="none" stroke-width="1" fill="none" fill-rule="evenodd">
        <g id="Section-02-02" transform="translate(-61.000000, -194.000000)">
            <g id="Group-3" transform="translate(62.000000, 193.000000)">
                <g id="Group-2" fill="#393A44">
                    <path d="M12.695,7.084 C12.2003309,7.084 11.7756684,6.9778344 11.421,6.7655 C11.0663316,6.55316561 10.7933343,6.25683524 10.602,5.8765 C10.4106657,5.49616476 10.315,5.05633583 10.315,4.557 C10.315,4.05766417 10.4106657,3.61666858 10.602,3.234 C10.7933343,2.85133142 11.0663316,2.55266774 11.421,2.338 C11.7756684,2.12333226 12.2003309,2.016 12.695,2.016 C13.2830029,2.016 13.7648315,2.16183187 14.1405,2.4535 C14.5161685,2.74516812 14.7506662,3.15466403 14.844,3.682 L13.857,3.682 C13.796333,3.41599867 13.6668343,3.20716742 13.4685,3.0555 C13.2701657,2.90383258 13.0076683,2.828 12.681,2.828 C12.2283311,2.828 11.8736679,2.98199846 11.617,3.29 C11.3603321,3.59800154 11.232,4.02033065 11.232,4.557 C11.232,5.09366935 11.3603321,5.51483181 11.617,5.8205 C11.8736679,6.12616819 12.2283311,6.279 12.681,6.279 C13.0076683,6.279 13.2701657,6.20783405 13.4685,6.0655 C13.6668343,5.92316595 13.796333,5.72600126 13.857,5.474 L14.844,5.474 C14.7506662,5.97800252 14.5161685,6.37233191 14.1405,6.657 C13.7648315,6.94166809 13.2830029,7.084 12.695,7.084 Z M18.96,3.528 L18.96,7 L18.169,7 L18.099,6.412 C17.9916661,6.61733436 17.836501,6.78066606 17.6335,6.902 C17.430499,7.02333394 17.1913347,7.084 16.916,7.084 C16.4866645,7.084 16.1530012,6.94866802 15.915,6.678 C15.6769988,6.40733198 15.558,6.01066928 15.558,5.488 L15.558,3.528 L16.454,3.528 L16.454,5.404 C16.454,5.70266816 16.5146661,5.93133254 16.636,6.09 C16.7573339,6.24866746 16.946332,6.328 17.203,6.328 C17.4550013,6.328 17.6614992,6.23933422 17.8225,6.062 C17.9835008,5.88466578 18.064,5.63733492 18.064,5.32 L18.064,3.528 L18.96,3.528 Z M19.87,7 L19.87,3.528 L20.668,3.528 L20.752,4.179 C20.8780006,3.95499888 21.0494989,3.77650067 21.2665,3.6435 C21.4835011,3.51049933 21.7389985,3.444 22.033,3.444 L22.033,4.389 L21.781,4.389 C21.584999,4.389 21.4100008,4.41933303 21.256,4.48 C21.1019992,4.54066697 20.9818338,4.64566592 20.8955,4.795 C20.8091662,4.94433408 20.766,5.15199867 20.766,5.418 L20.766,7 L19.87,7 Z M22.642,7 L22.642,3.528 L23.44,3.528 L23.524,4.179 C23.6500006,3.95499888 23.8214989,3.77650067 24.0385,3.6435 C24.2555011,3.51049933 24.5109985,3.444 24.805,3.444 L24.805,4.389 L24.553,4.389 C24.356999,4.389 24.1820008,4.41933303 24.028,4.48 C23.8739992,4.54066697 23.7538338,4.64566592 23.6675,4.795 C23.5811662,4.94433408 23.538,5.15199867 23.538,5.418 L23.538,7 L22.642,7 Z M27.101,7.084 C26.7509983,7.084 26.440668,7.00933408 26.17,6.86 C25.899332,6.71066592 25.6870008,6.50066802 25.533,6.23 C25.3789992,5.95933198 25.302,5.64666844 25.302,5.292 C25.302,4.93266487 25.3778326,4.6130014 25.5295,4.333 C25.6811674,4.0529986 25.8911653,3.83483411 26.1595,3.6785 C26.4278347,3.52216588 26.7439982,3.444 27.108,3.444 C27.4486684,3.444 27.7496654,3.51866592 28.011,3.668 C28.2723346,3.81733408 28.4764993,4.0214987 28.6235,4.2805 C28.7705007,4.53950129 28.844,4.82766508 28.844,5.145 C28.844,5.19633359 28.8428333,5.24999972 28.8405,5.306 C28.8381667,5.36200028 28.8346667,5.42033303 28.83,5.481 L26.191,5.481 C26.2096668,5.75166802 26.3041658,5.96399923 26.4745,6.118 C26.6448342,6.27200077 26.8513321,6.349 27.094,6.349 C27.2760009,6.349 27.4288327,6.30816708 27.5525,6.2265 C27.6761673,6.14483293 27.768333,6.03866732 27.829,5.908 L28.739,5.908 C28.6736663,6.12733443 28.5651674,6.32683244 28.4135,6.5065 C28.2618326,6.68616756 28.0751678,6.82733282 27.8535,6.93 C27.6318322,7.03266718 27.3810014,7.084 27.101,7.084 Z M27.108,4.172 C26.8886656,4.172 26.6950008,4.23383272 26.527,4.3575 C26.3589992,4.48116728 26.2516669,4.66899874 26.205,4.921 L27.934,4.921 C27.9199999,4.69233219 27.8360008,4.51033401 27.682,4.375 C27.5279992,4.23966599 27.3366678,4.172 27.108,4.172 Z M29.6,7 L29.6,3.528 L30.391,3.528 L30.461,4.116 C30.5683339,3.91066564 30.723499,3.74733394 30.9265,3.626 C31.129501,3.50466606 31.3686653,3.444 31.644,3.444 C32.0733355,3.444 32.4069988,3.57933198 32.645,3.85 C32.8830012,4.12066802 33.002,4.51733072 33.002,5.04 L33.002,7 L32.106,7 L32.106,5.124 C32.106,4.82533184 32.0453339,4.59666746 31.924,4.438 C31.8026661,4.27933254 31.6136679,4.2 31.357,4.2 C31.1049987,4.2 30.8985008,4.28866578 30.7375,4.466 C30.5764992,4.64333422 30.496,4.89066508 30.496,5.208 L30.496,7 L29.6,7 Z M35.403,7 C35.0389982,7 34.7473344,6.91133422 34.528,6.734 C34.3086656,6.55666578 34.199,6.24166893 34.199,5.789 L34.199,4.277 L33.604,4.277 L33.604,3.528 L34.199,3.528 L34.304,2.597 L35.095,2.597 L35.095,3.528 L36.033,3.528 L36.033,4.277 L35.095,4.277 L35.095,5.796 C35.095,5.96400084 35.1311663,6.07949969 35.2035,6.1425 C35.2758337,6.20550032 35.4006658,6.237 35.578,6.237 L36.012,6.237 L36.012,7 L35.403,7 Z M37.188,7.049 C37.0246658,7.049 36.8905005,6.99766718 36.7855,6.895 C36.6804995,6.79233282 36.628,6.66866739 36.628,6.524 C36.628,6.37466592 36.6804995,6.24866718 36.7855,6.146 C36.8905005,6.04333282 37.0246658,5.992 37.188,5.992 C37.3513341,5.992 37.4854995,6.04333282 37.5905,6.146 C37.6955005,6.24866718 37.748,6.37466592 37.748,6.524 C37.748,6.66866739 37.6955005,6.79233282 37.5905,6.895 C37.4854995,6.99766718 37.3513341,7.049 37.188,7.049 Z M37.188,4.501 C37.0246658,4.501 36.8905005,4.44966718 36.7855,4.347 C36.6804995,4.24433282 36.628,4.12066739 36.628,3.976 C36.628,3.82666592 36.6804995,3.70066718 36.7855,3.598 C36.8905005,3.49533282 37.0246658,3.444 37.188,3.444 C37.3513341,3.444 37.4854995,3.49533282 37.5905,3.598 C37.6955005,3.70066718 37.748,3.82666592 37.748,3.976 C37.748,4.12066739 37.6955005,4.24433282 37.5905,4.347 C37.4854995,4.44966718 37.3513341,4.501 37.188,4.501 Z M41.941,7.084 C41.5816649,7.084 41.2725013,7.02100063 41.0135,6.895 C40.7544987,6.76899937 40.5515007,6.59516778 40.4045,6.3735 C40.2574993,6.15183222 40.1723334,5.9010014 40.149,5.621 L41.024,5.621 C41.0660002,5.82166767 41.1686658,5.98849934 41.332,6.1215 C41.4953341,6.25450067 41.6983321,6.321 41.941,6.321 C42.2023346,6.321 42.4158325,6.22533429 42.5815,6.034 C42.7471675,5.84266571 42.83,5.60466809 42.83,5.32 C42.83,5.02599853 42.7471675,4.79266753 42.5815,4.62 C42.4158325,4.44733247 42.2070013,4.361 41.955,4.361 C41.7449989,4.361 41.5630008,4.41233282 41.409,4.515 C41.2549992,4.61766718 41.1453337,4.74599923 41.08,4.9 L40.219,4.9 L40.639,2.1 L43.355,2.1 L43.355,2.884 L41.311,2.884 L41.087,4.018 C41.1896672,3.90599944 41.3296658,3.81383369 41.507,3.7415 C41.6843342,3.66916631 41.8826656,3.633 42.102,3.633 C42.4520017,3.633 42.7436655,3.71116588 42.977,3.8675 C43.2103345,4.02383411 43.3876661,4.22916539 43.509,4.4835 C43.6303339,4.7378346 43.691,5.01433184 43.691,5.313 C43.691,5.65366837 43.6175007,5.95699867 43.4705,6.223 C43.3234993,6.48900133 43.118168,6.69899923 42.8545,6.853 C42.590832,7.00700077 42.2863351,7.084 41.941,7.084 Z M46.169,2.016 C46.5376685,2.016 46.8479987,2.08366599 47.1,2.219 C47.3520013,2.35433401 47.5549992,2.53633219 47.709,2.765 C47.8630008,2.99366781 47.973833,3.2479986 48.0415,3.528 C48.109167,3.8080014 48.143,4.09499853 48.143,4.389 C48.143,4.93500273 48.0660008,5.40983131 47.912,5.8135 C47.7579992,6.21716868 47.5363348,6.52983222 47.247,6.7515 C46.9576652,6.97316778 46.6076687,7.084 46.197,7.084 C45.8609983,7.084 45.5751678,7.01750067 45.3395,6.8845 C45.1038322,6.75149934 44.9206673,6.57766774 44.79,6.363 C44.6593327,6.14833226 44.5823335,5.91733457 44.559,5.67 L45.392,5.67 C45.4340002,5.88466774 45.5249993,6.05033275 45.665,6.167 C45.8050007,6.28366725 45.9846656,6.342 46.204,6.342 C46.5166682,6.342 46.7686657,6.19850144 46.96,5.9115 C47.1513343,5.62449856 47.2539999,5.18700294 47.268,4.599 C47.1559994,4.79033429 46.9880011,4.94899937 46.764,5.075 C46.5399989,5.20100063 46.2903347,5.264 46.015,5.264 C45.744332,5.264 45.4900012,5.19866732 45.252,5.068 C45.0139988,4.93733268 44.8215007,4.75300119 44.6745,4.515 C44.5274993,4.27699881 44.454,3.99700161 44.454,3.675 C44.454,3.38099853 44.525166,3.10800126 44.6675,2.856 C44.809834,2.60399874 45.0104987,2.40100077 45.2695,2.247 C45.5285013,2.09299923 45.8283316,2.016 46.169,2.016 Z M46.218,2.786 C45.9566654,2.786 45.7408342,2.86649919 45.5705,3.0275 C45.4001658,3.18850081 45.315,3.39266543 45.315,3.64 C45.315,3.90133464 45.4013325,4.11133254 45.574,4.27 C45.7466675,4.42866746 45.9659987,4.508 46.232,4.508 C46.4046675,4.508 46.5598326,4.46950038 46.6975,4.3925 C46.8351674,4.31549962 46.9436663,4.21283398 47.023,4.0845 C47.1023337,3.95616602 47.142,3.81266746 47.142,3.654 C47.142,3.40199874 47.0545009,3.19433415 46.8795,3.031 C46.7044991,2.86766585 46.4840013,2.786 46.218,2.786 Z" id="Current:59" fill-rule="nonzero"></path>
                    <circle id="Oval" stroke="#393A44" cx="2.5" cy="4.5" r="2.5"></circle>
                </g>
                <g id="Group" transform="translate(63.000000, 0.000000)">
                    <path d="M10.476,7 L10.476,2.1 L12.275,2.1 C12.667002,2.1 12.9901654,2.16649933 13.2445,2.2995 C13.4988346,2.43250067 13.6889994,2.61216553 13.815,2.8385 C13.9410006,3.06483447 14.004,3.31566529 14.004,3.591 C14.004,3.88966816 13.9258341,4.16266543 13.7695,4.41 C13.6131659,4.65733457 13.369335,4.83699944 13.038,4.949 L14.053,7 L13.024,7 L12.114,5.068 L11.372,5.068 L11.372,7 L10.476,7 Z M11.372,4.41 L12.219,4.41 C12.5176682,4.41 12.7369993,4.33766739 12.877,4.193 C13.0170007,4.04833261 13.087,3.85700119 13.087,3.619 C13.087,3.3856655 13.0181674,3.1990007 12.8805,3.059 C12.7428326,2.9189993 12.5200015,2.849 12.212,2.849 L11.372,2.849 L11.372,4.41 Z M16.503,7.084 C16.1529982,7.084 15.842668,7.00933408 15.572,6.86 C15.301332,6.71066592 15.0890008,6.50066802 14.935,6.23 C14.7809992,5.95933198 14.704,5.64666844 14.704,5.292 C14.704,4.93266487 14.7798326,4.6130014 14.9315,4.333 C15.0831674,4.0529986 15.2931653,3.83483411 15.5615,3.6785 C15.8298347,3.52216588 16.1459982,3.444 16.51,3.444 C16.8506684,3.444 17.1516654,3.51866592 17.413,3.668 C17.6743346,3.81733408 17.8784993,4.0214987 18.0255,4.2805 C18.1725007,4.53950129 18.246,4.82766508 18.246,5.145 C18.246,5.19633359 18.2448333,5.24999972 18.2425,5.306 C18.2401667,5.36200028 18.2366667,5.42033303 18.232,5.481 L15.593,5.481 C15.6116668,5.75166802 15.7061658,5.96399923 15.8765,6.118 C16.0468342,6.27200077 16.2533321,6.349 16.496,6.349 C16.6780009,6.349 16.8308327,6.30816708 16.9545,6.2265 C17.0781673,6.14483293 17.170333,6.03866732 17.231,5.908 L18.141,5.908 C18.0756663,6.12733443 17.9671674,6.32683244 17.8155,6.5065 C17.6638326,6.68616756 17.4771678,6.82733282 17.2555,6.93 C17.0338322,7.03266718 16.7830014,7.084 16.503,7.084 Z M16.51,4.172 C16.2906656,4.172 16.0970008,4.23383272 15.929,4.3575 C15.7609992,4.48116728 15.6536669,4.66899874 15.607,4.921 L17.336,4.921 C17.3219999,4.69233219 17.2380008,4.51033401 17.084,4.375 C16.9299992,4.23966599 16.7386678,4.172 16.51,4.172 Z M19.002,7 L19.002,3.528 L19.793,3.528 L19.87,3.997 C19.9820006,3.82899916 20.1301657,3.69483383 20.3145,3.5945 C20.4988343,3.49416616 20.7123321,3.444 20.955,3.444 C21.4916694,3.444 21.8719989,3.65166459 22.096,4.067 C22.2220006,3.87566571 22.3911656,3.72400056 22.6035,3.612 C22.8158344,3.49999944 23.0479987,3.444 23.3,3.444 C23.7526689,3.444 24.1003321,3.57933198 24.343,3.85 C24.5856679,4.12066802 24.707,4.51733072 24.707,5.04 L24.707,7 L23.811,7 L23.811,5.124 C23.811,4.82533184 23.7538339,4.59666746 23.6395,4.438 C23.5251661,4.27933254 23.3490012,4.2 23.111,4.2 C22.8683321,4.2 22.6735007,4.28866578 22.5265,4.466 C22.3794993,4.64333422 22.306,4.89066508 22.306,5.208 L22.306,7 L21.41,7 L21.41,5.124 C21.41,4.82533184 21.3516672,4.59666746 21.235,4.438 C21.1183328,4.27933254 20.9386679,4.2 20.696,4.2 C20.4579988,4.2 20.2655007,4.28866578 20.1185,4.466 C19.9714993,4.64333422 19.898,4.89066508 19.898,5.208 L19.898,7 L19.002,7 Z M27.227,7.084 C26.8909983,7.084 26.5888347,7.00700077 26.3205,6.853 C26.0521653,6.69899923 25.8398341,6.48550136 25.6835,6.2125 C25.5271659,5.93949863 25.449,5.62333513 25.449,5.264 C25.449,4.90466487 25.5283325,4.58850136 25.687,4.3155 C25.8456675,4.04249864 26.0591653,3.82900077 26.3275,3.675 C26.5958347,3.52099923 26.8979983,3.444 27.234,3.444 C27.565335,3.444 27.8651653,3.52099923 28.1335,3.675 C28.4018347,3.82900077 28.6141659,4.04249864 28.7705,4.3155 C28.9268341,4.58850136 29.005,4.90466487 29.005,5.264 C29.005,5.62333513 28.9268341,5.93949863 28.7705,6.2125 C28.6141659,6.48550136 28.400668,6.69899923 28.13,6.853 C27.859332,7.00700077 27.558335,7.084 27.227,7.084 Z M27.227,6.307 C27.4603345,6.307 27.6633325,6.21950087 27.836,6.0445 C28.0086675,5.86949912 28.095,5.60933506 28.095,5.264 C28.095,4.91866494 28.0086675,4.65850087 27.836,4.4835 C27.6633325,4.30849912 27.4626678,4.221 27.234,4.221 C26.9959988,4.221 26.7918342,4.30849912 26.6215,4.4835 C26.4511658,4.65850087 26.366,4.91866494 26.366,5.264 C26.366,5.60933506 26.4511658,5.86949912 26.6215,6.0445 C26.7918342,6.21950087 26.9936655,6.307 27.227,6.307 Z M30.741,7 L29.467,3.528 L30.405,3.528 L31.287,6.153 L32.169,3.528 L33.107,3.528 L31.826,7 L30.741,7 Z M35.361,7.084 C35.0109983,7.084 34.700668,7.00933408 34.43,6.86 C34.159332,6.71066592 33.9470008,6.50066802 33.793,6.23 C33.6389992,5.95933198 33.562,5.64666844 33.562,5.292 C33.562,4.93266487 33.6378326,4.6130014 33.7895,4.333 C33.9411674,4.0529986 34.1511653,3.83483411 34.4195,3.6785 C34.6878347,3.52216588 35.0039982,3.444 35.368,3.444 C35.7086684,3.444 36.0096654,3.51866592 36.271,3.668 C36.5323346,3.81733408 36.7364993,4.0214987 36.8835,4.2805 C37.0305007,4.53950129 37.104,4.82766508 37.104,5.145 C37.104,5.19633359 37.1028333,5.24999972 37.1005,5.306 C37.0981667,5.36200028 37.0946667,5.42033303 37.09,5.481 L34.451,5.481 C34.4696668,5.75166802 34.5641658,5.96399923 34.7345,6.118 C34.9048342,6.27200077 35.1113321,6.349 35.354,6.349 C35.5360009,6.349 35.6888327,6.30816708 35.8125,6.2265 C35.9361673,6.14483293 36.028333,6.03866732 36.089,5.908 L36.999,5.908 C36.9336663,6.12733443 36.8251674,6.32683244 36.6735,6.5065 C36.5218326,6.68616756 36.3351678,6.82733282 36.1135,6.93 C35.8918322,7.03266718 35.6410014,7.084 35.361,7.084 Z M35.368,4.172 C35.1486656,4.172 34.9550008,4.23383272 34.787,4.3575 C34.6189992,4.48116728 34.5116669,4.66899874 34.465,4.921 L36.194,4.921 C36.1799999,4.69233219 36.0960008,4.51033401 35.942,4.375 C35.7879992,4.23966599 35.5966678,4.172 35.368,4.172 Z M39.456,7.084 C39.1293317,7.084 38.837668,7.00466746 38.581,6.846 C38.3243321,6.68733254 38.1213341,6.47033471 37.972,6.195 C37.8226659,5.91966529 37.748,5.60700175 37.748,5.257 C37.748,4.90699825 37.8226659,4.59550136 37.972,4.3225 C38.1213341,4.04949863 38.3243321,3.83483411 38.581,3.6785 C38.837668,3.52216588 39.1293317,3.444 39.456,3.444 C39.7173346,3.444 39.945999,3.49299951 40.142,3.591 C40.338001,3.68900049 40.4966661,3.82666578 40.618,4.004 L40.618,1.96 L41.514,1.96 L41.514,7 L40.716,7 L40.618,6.503 C40.5059994,6.65700077 40.3578343,6.79233275 40.1735,6.909 C39.9891657,7.02566725 39.7500015,7.084 39.456,7.084 Z M39.645,6.3 C39.9343348,6.3 40.1711657,6.20316763 40.3555,6.0095 C40.5398343,5.81583237 40.632,5.56733485 40.632,5.264 C40.632,4.96066515 40.5398343,4.71216764 40.3555,4.5185 C40.1711657,4.32483236 39.9343348,4.228 39.645,4.228 C39.3603319,4.228 39.1246676,4.32366571 38.938,4.515 C38.7513324,4.70633429 38.658,4.95366515 38.658,5.257 C38.658,5.56033485 38.7513324,5.80999902 38.938,6.006 C39.1246676,6.20200098 39.3603319,6.3 39.645,6.3 Z M42.809,7.049 C42.6456659,7.049 42.5115005,6.99766718 42.4065,6.895 C42.3014995,6.79233282 42.249,6.66866739 42.249,6.524 C42.249,6.37466592 42.3014995,6.24866718 42.4065,6.146 C42.5115005,6.04333282 42.6456659,5.992 42.809,5.992 C42.9723341,5.992 43.1064995,6.04333282 43.2115,6.146 C43.3165005,6.24866718 43.369,6.37466592 43.369,6.524 C43.369,6.66866739 43.3165005,6.79233282 43.2115,6.895 C43.1064995,6.99766718 42.9723341,7.049 42.809,7.049 Z M42.809,4.501 C42.6456659,4.501 42.5115005,4.44966718 42.4065,4.347 C42.3014995,4.24433282 42.249,4.12066739 42.249,3.976 C42.249,3.82666592 42.3014995,3.70066718 42.4065,3.598 C42.5115005,3.49533282 42.6456659,3.444 42.809,3.444 C42.9723341,3.444 43.1064995,3.49533282 43.2115,3.598 C43.3165005,3.70066718 43.369,3.82666592 43.369,3.976 C43.369,4.12066739 43.3165005,4.24433282 43.2115,4.347 C43.1064995,4.44966718 42.9723341,4.501 42.809,4.501 Z M46.337,7 L46.337,3.122 L45.532,3.311 L45.532,2.625 L46.715,2.1 L47.268,2.1 L47.268,7 L46.337,7 Z M48.5,7 L50.348,2.863 L47.933,2.863 L47.933,2.1 L51.272,2.1 L51.272,2.737 L49.431,7 L48.5,7 Z" id="Removed:17" fill="#393A44" fill-rule="nonzero"></path>
                    <circle id="Oval-Copy" stroke="#393A44" opacity="0.9" cx="2.5" cy="4.5" r="2.5"></circle>
                </g>
            </g>
        </g>
    </g>
</svg>