<?xml version="1.0" encoding="UTF-8"?>
<svg width="646px" height="595px" viewBox="0 0 646 595" version="1.1" xmlns="http://www.w3.org/2000/svg" xmlns:xlink="http://www.w3.org/1999/xlink">
    <!-- Generator: Sketch 55.2 (78181) - https://sketchapp.com -->
    <title>Group</title>
    <desc>Created with Sketch.</desc>
    <g id="Page-1" stroke="none" stroke-width="1" fill="none" fill-rule="evenodd">
        <g id="Section-04:-For-and-From-the-People" transform="translate(-101.000000, -5.000000)" fill-rule="nonzero">
            <g id="Group" transform="translate(101.000000, 5.000000)">
                <g id="Group-2">
                    <path d="M24.9204739,391.222879 L5.53966279,342.359988 C1.84655426,326.242626 0,318.183944 0,318.183944 C0,318.183944 0,292.561272 0,241.315927 L16.4977153,204.605876 L58.911259,173.501107 L110.200619,161.270873 L201.237804,155 L275.562306,186.63105 L320.327969,204.605876 L331,278.287183 L331,311.667344 L295.615719,348.135538 L259.167437,397.358312 L219.588938,427.017742 L165.5,427.017742 L123.380486,432 L80.6488867,423.852315 L49.4611115,407.171909 L24.9204739,391.222879 Z" id="Path-14" fill-opacity="0.5" fill="#E8B64D"></path>
                    <path d="M366.616503,364.525235 L347.224804,315.686508 C343.530138,299.57691 341.682805,291.522111 341.682805,291.522111 C341.682805,291.522111 341.684754,265.911336 341.688651,214.689785 L358.20159,177.995524 L400.649459,146.901971 L451.978397,134.673512 L543.084656,128.398622 L617.462758,160.009329 L662.260785,177.972402 L672.935254,251.618685 L672.935254,284.983347 L637.518998,321.4373 L601.039509,370.639992 L561.428931,400.288663 L507.299236,400.292779 L465.147605,405.275929 L422.384426,397.13528 L391.174419,380.464992 L366.616503,364.525235 Z" id="Path-14-Copy-2" fill-opacity="0.5" fill="#E8B64D" transform="translate(507.309030, 266.837276) rotate(98.000000) translate(-507.309030, -266.837276) "></path>
                    <path d="M98.4031675,586.58337 L82.5354943,546.540496 C79.5118314,533.332404 78,526.728359 78,526.728359 C78,526.728359 78,505.730717 78,463.735434 L91.5071929,433.651747 L126.232481,408.161557 L168.224676,398.138947 L242.759652,393 L303.611435,418.921474 L340.262476,433.651747 L349,494.033179 L349,521.38804 L320.029788,551.273527 L290.188446,591.611324 L257.784297,615.917067 L213.5,615.917067 L179.015443,620 L144.029753,613.323016 L118.495351,599.653514 L98.4031675,586.58337 Z" id="Path-14-Copy" fill-opacity="0.5" fill="#1C8E7F"></path>
                    <polygon id="Path-13" fill-opacity="0.75" fill="#E8B64D" points="228.308325 14.6727101 172.557339 53.9942584 161 79.3115321 161 119.617105 172.557339 169.388165 187.679771 202.376012 228.308325 236.878249 282.207954 242 332.446418 232.455616 382.765376 215.797323 413.804791 179.445382 445 119.617105 445 79.3115321 439.534355 30.9934977 419.527634 14.6727101 376.146715 3.87911829 345.234533 3.87911829 277.445842 0 238.756928 9.78107623"></polygon>
                    <polygon id="Path-11" fill-opacity="0.75" fill="#E8B64D" points="412.626331 375 369.105386 382.109429 328.740577 397.900488 314.289811 420.382535 303 449.023379 314.289811 527.117415 337.360923 564.005198 412.626331 579 460.387581 564.005198 517.597964 542.169093 551 494.970606 542.712132 429.787295 528.131266 397.900488 480.047175 375 427 375"></polygon>
                </g>
            </g>
        </g>
    </g>
</svg>