<?xml version="1.0" encoding="UTF-8"?>
<svg width="80px" height="14px" viewBox="0 0 80 14" version="1.1" xmlns="http://www.w3.org/2000/svg" xmlns:xlink="http://www.w3.org/1999/xlink">
    <!-- Generator: Sketch 57.1 (83088) - https://sketch.com -->
    <title>section2_4_legend</title>
    <desc>Created with Sketch.</desc>
    <defs>
        <path d="M1.008,7 L1.008,3.122 L0.203,3.311 L0.203,2.625 L1.386,2.1 L1.939,2.1 L1.939,7 L1.008,7 Z M3.423,7 L3.423,3.122 L2.618,3.311 L2.618,2.625 L3.801,2.1 L4.354,2.1 L4.354,7 L3.423,7 Z M6.314,4.508 C6.08999888,4.508 5.88700091,4.45783383 5.705,4.3575 C5.52299909,4.25716617 5.37833387,4.1136676 5.271,3.927 C5.16366613,3.7403324 5.11,3.51866795 5.11,3.262 C5.11,3.00533205 5.16366613,2.7836676 5.271,2.597 C5.37833387,2.4103324 5.52299909,2.26683383 5.705,2.1665 C5.88700091,2.06616616 6.09233219,2.016 6.321,2.016 C6.54500112,2.016 6.74683243,2.06616616 6.9265,2.1665 C7.10616756,2.26683383 7.24966613,2.4103324 7.357,2.597 C7.46433387,2.7836676 7.518,3.00533205 7.518,3.262 C7.518,3.51866795 7.46433387,3.7403324 7.357,3.927 C7.24966613,4.1136676 7.10500091,4.25716617 6.923,4.3575 C6.74099909,4.45783383 6.53800112,4.508 6.314,4.508 Z M6.048,7 L8.813,2.1 L9.688,2.1 L6.923,7 L6.048,7 Z M6.314,3.885 C6.44933401,3.885 6.56599951,3.83250053 6.664,3.7275 C6.76200049,3.62249947 6.811,3.46733436 6.811,3.262 C6.811,3.05666564 6.76316715,2.90033387 6.6675,2.793 C6.57183286,2.68566613 6.4540007,2.632 6.314,2.632 C6.1739993,2.632 6.05616714,2.68566613 5.9605,2.793 C5.86483285,2.90033387 5.817,3.05666564 5.817,3.262 C5.817,3.46733436 5.86483285,3.62249947 5.9605,3.7275 C6.05616714,3.83250053 6.1739993,3.885 6.314,3.885 Z M9.45,7.084 C9.22599888,7.084 9.02300091,7.03383384 8.841,6.9335 C8.65899909,6.83316616 8.51433387,6.6896676 8.407,6.503 C8.29966613,6.3163324 8.246,6.09466795 8.246,5.838 C8.246,5.58133205 8.29966613,5.36083426 8.407,5.1765 C8.51433387,4.99216575 8.65899909,4.84983384 8.841,4.7495 C9.02300091,4.64916617 9.22833219,4.599 9.457,4.599 C9.68100112,4.599 9.88283243,4.64916617 10.0625,4.7495 C10.2421676,4.84983384 10.3856661,4.99216575 10.493,5.1765 C10.6003339,5.36083426 10.654,5.58133205 10.654,5.838 C10.654,6.09466795 10.6003339,6.3163324 10.493,6.503 C10.3856661,6.6896676 10.2421676,6.83316616 10.0625,6.9335 C9.88283243,7.03383384 9.67866781,7.084 9.45,7.084 Z M9.45,6.461 C9.5900007,6.461 9.70783285,6.40850053 9.8035,6.3035 C9.89916714,6.19849948 9.947,6.04333436 9.947,5.838 C9.947,5.63266564 9.89916714,5.47633387 9.8035,5.369 C9.70783285,5.26166613 9.5900007,5.208 9.45,5.208 C9.3099993,5.208 9.19216714,5.26166613 9.0965,5.369 C9.00083285,5.47633387 8.953,5.63266564 8.953,5.838 C8.953,6.04333436 9.00083285,6.19849948 9.0965,6.3035 C9.19216714,6.40850053 9.3099993,6.461 9.45,6.461 Z" id="path-1"></path>
        <path d="M1.549,7 L1.549,3.122 L0.744,3.311 L0.744,2.625 L1.927,2.1 L2.48,2.1 L2.48,7 L1.549,7 Z M5.441,7.084 C4.98833107,7.084 4.60100161,6.9778344 4.279,6.7655 C3.95699839,6.55316561 3.70850087,6.25683524 3.5335,5.8765 C3.35849912,5.49616477 3.271,5.05400252 3.271,4.55 C3.271,4.05066417 3.35849912,3.60966858 3.5335,3.227 C3.70850087,2.84433142 3.95699839,2.54683439 4.279,2.3345 C4.60100161,2.1221656 4.98833107,2.016 5.441,2.016 C5.89366893,2.016 6.28099839,2.1221656 6.603,2.3345 C6.92500161,2.54683439 7.17349912,2.84433142 7.3485,3.227 C7.52350087,3.60966858 7.611,4.05066417 7.611,4.55 C7.611,5.05400252 7.52350087,5.49616477 7.3485,5.8765 C7.17349912,6.25683524 6.92500161,6.55316561 6.603,6.7655 C6.28099839,6.9778344 5.89366893,7.084 5.441,7.084 Z M5.441,6.279 C5.80966851,6.279 6.1106655,6.12500154 6.344,5.817 C6.5773345,5.50899846 6.694,5.08666935 6.694,4.55 C6.694,4.01333065 6.5773345,3.59100154 6.344,3.283 C6.1106655,2.97499846 5.80966851,2.821 5.441,2.821 C5.0676648,2.821 4.76550115,2.97499846 4.5345,3.283 C4.30349884,3.59100154 4.188,4.01333065 4.188,4.55 C4.188,5.08666935 4.30349884,5.50899846 4.5345,5.817 C4.76550115,6.12500154 5.0676648,6.279 5.441,6.279 Z M10.411,7.084 C9.95833107,7.084 9.57100161,6.9778344 9.249,6.7655 C8.92699839,6.55316561 8.67850087,6.25683524 8.5035,5.8765 C8.32849912,5.49616477 8.241,5.05400252 8.241,4.55 C8.241,4.05066417 8.32849912,3.60966858 8.5035,3.227 C8.67850087,2.84433142 8.92699839,2.54683439 9.249,2.3345 C9.57100161,2.1221656 9.95833107,2.016 10.411,2.016 C10.8636689,2.016 11.2509984,2.1221656 11.573,2.3345 C11.8950016,2.54683439 12.1434991,2.84433142 12.3185,3.227 C12.4935009,3.60966858 12.581,4.05066417 12.581,4.55 C12.581,5.05400252 12.4935009,5.49616477 12.3185,5.8765 C12.1434991,6.25683524 11.8950016,6.55316561 11.573,6.7655 C11.2509984,6.9778344 10.8636689,7.084 10.411,7.084 Z M10.411,6.279 C10.7796685,6.279 11.0806655,6.12500154 11.314,5.817 C11.5473345,5.50899846 11.664,5.08666935 11.664,4.55 C11.664,4.01333065 11.5473345,3.59100154 11.314,3.283 C11.0806655,2.97499846 10.7796685,2.821 10.411,2.821 C10.0376648,2.821 9.73550115,2.97499846 9.5045,3.283 C9.27349884,3.59100154 9.158,4.01333065 9.158,4.55 C9.158,5.08666935 9.27349884,5.50899846 9.5045,5.817 C9.73550115,6.12500154 10.0376648,6.279 10.411,6.279 Z M14.38,4.508 C14.1559989,4.508 13.9530009,4.45783383 13.771,4.3575 C13.5889991,4.25716617 13.4443339,4.1136676 13.337,3.927 C13.2296661,3.7403324 13.176,3.51866795 13.176,3.262 C13.176,3.00533205 13.2296661,2.7836676 13.337,2.597 C13.4443339,2.4103324 13.5889991,2.26683383 13.771,2.1665 C13.9530009,2.06616616 14.1583322,2.016 14.387,2.016 C14.6110011,2.016 14.8128324,2.06616616 14.9925,2.1665 C15.1721676,2.26683383 15.3156661,2.4103324 15.423,2.597 C15.5303339,2.7836676 15.584,3.00533205 15.584,3.262 C15.584,3.51866795 15.5303339,3.7403324 15.423,3.927 C15.3156661,4.1136676 15.1710009,4.25716617 14.989,4.3575 C14.8069991,4.45783383 14.6040011,4.508 14.38,4.508 Z M14.114,7 L16.879,2.1 L17.754,2.1 L14.989,7 L14.114,7 Z M14.38,3.885 C14.515334,3.885 14.6319995,3.83250053 14.73,3.7275 C14.8280005,3.62249947 14.877,3.46733436 14.877,3.262 C14.877,3.05666564 14.8291671,2.90033387 14.7335,2.793 C14.6378329,2.68566613 14.5200007,2.632 14.38,2.632 C14.2399993,2.632 14.1221671,2.68566613 14.0265,2.793 C13.9308329,2.90033387 13.883,3.05666564 13.883,3.262 C13.883,3.46733436 13.9308329,3.62249947 14.0265,3.7275 C14.1221671,3.83250053 14.2399993,3.885 14.38,3.885 Z M17.516,7.084 C17.2919989,7.084 17.0890009,7.03383384 16.907,6.9335 C16.7249991,6.83316616 16.5803339,6.6896676 16.473,6.503 C16.3656661,6.3163324 16.312,6.09466795 16.312,5.838 C16.312,5.58133205 16.3656661,5.36083426 16.473,5.1765 C16.5803339,4.99216575 16.7249991,4.84983384 16.907,4.7495 C17.0890009,4.64916617 17.2943322,4.599 17.523,4.599 C17.7470011,4.599 17.9488324,4.64916617 18.1285,4.7495 C18.3081676,4.84983384 18.4516661,4.99216575 18.559,5.1765 C18.6663339,5.36083426 18.72,5.58133205 18.72,5.838 C18.72,6.09466795 18.6663339,6.3163324 18.559,6.503 C18.4516661,6.6896676 18.3081676,6.83316616 18.1285,6.9335 C17.9488324,7.03383384 17.7446678,7.084 17.516,7.084 Z M17.516,6.461 C17.6560007,6.461 17.7738329,6.40850053 17.8695,6.3035 C17.9651671,6.19849948 18.013,6.04333436 18.013,5.838 C18.013,5.63266564 17.9651671,5.47633387 17.8695,5.369 C17.7738329,5.26166613 17.6560007,5.208 17.516,5.208 C17.3759993,5.208 17.2581671,5.26166613 17.1625,5.369 C17.0668329,5.47633387 17.019,5.63266564 17.019,5.838 C17.019,6.04333436 17.0668329,6.19849948 17.1625,6.3035 C17.2581671,6.40850053 17.3759993,6.461 17.516,6.461 Z" id="path-2"></path>
        <linearGradient x1="100%" y1="50%" x2="0%" y2="50%" id="linearGradient-3">
            <stop stop-color="#724490" offset="0%"></stop>
            <stop stop-color="#724490" stop-opacity="0.2" offset="100%"></stop>
        </linearGradient>
    </defs>
    <g id="Page-1" stroke="none" stroke-width="1" fill="none" fill-rule="evenodd">
        <g id="section2_4_legend" fill-rule="nonzero">
            <g id="11%" transform="translate(0.000000, 6.000000)">
                <g>
                    <use fill="#000000" xlink:href="#path-1"></use>
                    <use fill="#393A44" xlink:href="#path-1"></use>
                </g>
            </g>
            <g id="100%" transform="translate(61.000000, 6.000000)">
                <g>
                    <use fill="#000000" xlink:href="#path-2"></use>
                    <use fill="#393A44" xlink:href="#path-2"></use>
                </g>
            </g>
            <rect id="Rectangle" fill="url(#linearGradient-3)" x="0" y="0" width="80" height="5"></rect>
        </g>
    </g>
</svg>