<?xml version="1.0" encoding="UTF-8"?>
<svg width="40px" height="12px" viewBox="0 0 40 12" version="1.1" xmlns="http://www.w3.org/2000/svg" xmlns:xlink="http://www.w3.org/1999/xlink">
    <!-- Generator: Sketch 56.3 (81716) - https://sketch.com -->
    <title>stae</title>
    <desc>Created with Sketch.</desc>
    <g id="Page-1" stroke="none" stroke-width="1" fill="none" fill-rule="evenodd">
        <g id="Group-2">
            <g id="stae">
                <path d="M18.8858347,6.12851414 C17.6507724,5.85653576 17.4248961,5.56232838 17.4248961,5.08035131 L17.4248961,5.06413721 C17.4248961,4.55836203 17.8863255,4.20505165 18.5474022,4.20505165 C19.0681655,4.20505165 19.5005646,4.35490128 19.9497708,4.69095149 C20.0144524,4.73854771 20.0819352,4.75973064 20.1680076,4.75973064 C20.3681641,4.75973064 20.5311413,4.59235933 20.5311413,4.38680643 C20.5311413,4.21681995 20.4196038,4.11273591 20.3704559,4.07481585 C19.8321216,3.67730898 19.2746883,3.5 18.5631906,3.5 C17.4689509,3.5 16.6749459,4.18177658 16.6749459,5.12114806 L16.6749459,5.13736216 C16.6749459,5.90700867 17.0003912,6.49202371 18.5904384,6.84716471 C19.7648934,7.10135989 19.9877139,7.40315129 19.9877139,7.87074489 L19.9877139,7.88695899 C19.9877139,8.42150111 19.5031112,8.79494835 18.8094391,8.79494835 C18.1397043,8.79494835 17.6273445,8.59724099 17.0951218,8.13435471 C17.0398623,8.07891296 16.9512434,8.04439263 16.8631338,8.04439263 C16.6594122,8.04439263 16.5,8.21176394 16.5,8.42542388 C16.5,8.54755263 16.5539862,8.65791309 16.644133,8.72093885 C17.2871294,9.24502027 17.987677,9.5 18.7857565,9.5 C19.9393301,9.5 20.7455583,8.80959334 20.7455583,7.82184108 L20.7455583,7.80536547 C20.7455583,6.92143573 20.1893983,6.42036787 18.8858347,6.12851414 L18.8858347,6.12851414 Z M26.7851401,3.581332 L22.946261,3.581332 C22.7820105,3.581332 22.6315111,3.69221549 22.5912761,3.85592555 C22.5334701,4.09129146 22.7104532,4.30285926 22.9355656,4.30285926 L24.3891193,4.30285926 C24.4433602,4.30285926 24.4871603,4.3478403 24.4871603,4.40354356 L24.4871603,9.05594299 C24.4871603,9.2633265 24.6389329,9.44429674 24.840108,9.45815717 C24.9448532,9.46539296 25.0478362,9.42773778 25.1245597,9.35414904 C25.2012831,9.28056029 25.2448891,9.17761561 25.2450047,9.06980343 L25.2450047,4.40354356 C25.2450047,4.3478403 25.2888049,4.30285926 25.3430457,4.30285926 L26.7963448,4.30285926 C27.0217118,4.30285926 27.1984403,4.09155298 27.1406343,3.85618707 C27.1001446,3.69221549 26.9501546,3.58159351 26.7856494,3.58159351 L26.7851401,3.581332 Z M29.821356,7.05062546 L30.8506594,4.70010461 C30.8667686,4.66290793 30.9026932,4.63893888 30.9423342,4.63893888 C30.9819751,4.63893888 31.0178997,4.66290793 31.0340089,4.70010461 L32.062803,7.05062546 C32.0766902,7.08247959 32.0739318,7.11938785 32.0554738,7.14869251 C32.0370159,7.17799716 32.0053676,7.19571429 31.9713829,7.19576777 L29.9127761,7.19576777 C29.8787914,7.19571429 29.8471432,7.17799716 29.8286852,7.14869251 C29.8102272,7.11938785 29.8074688,7.08247959 29.821356,7.05062546 L29.821356,7.05062546 Z M31.4198067,3.84075753 C31.3352622,3.6286667 31.1811978,3.51647561 30.9741657,3.51647561 L30.9420795,3.51647561 C30.7335195,3.51647561 30.5855667,3.62160572 30.4893082,3.83840387 L28.2336007,8.90400122 C28.2048099,8.96244586 28.1892289,9.02680778 28.188018,9.09229395 C28.1839436,9.28764765 28.344629,9.45894173 28.5351087,9.45894173 C28.6993592,9.45894173 28.8266853,9.3668875 28.8928948,9.20134682 L29.4304652,7.9685525 C29.4462699,7.93237349 29.4812362,7.90904795 29.519848,7.90892647 L32.3648203,7.90892647 C32.4032728,7.90892647 32.4381601,7.93194003 32.4542032,7.96802946 L32.9915189,9.18460968 C33.0656226,9.35930349 33.1988056,9.45920324 33.3571992,9.45920324 C33.5573557,9.45920324 33.720333,9.29183193 33.720333,9.08601752 C33.720333,9.0324064 33.7053085,8.96911912 33.6750049,8.89667873 L31.4198067,3.84101905 L31.4198067,3.84075753 Z M39.6412469,8.70498627 L36.6348252,8.70498627 C36.580778,8.70498646 36.5369246,8.66006773 36.5367842,8.60456348 L36.5367842,6.93268099 C36.5367842,6.87697773 36.5805843,6.83199669 36.6348252,6.83199669 L39.2406793,6.83199669 C39.40111,6.83199669 39.5493175,6.72686658 39.5913351,6.56760232 C39.6521969,6.33720525 39.4736858,6.11883799 39.256213,6.11883799 L36.6348252,6.11883799 C36.6088466,6.11890747 36.5839088,6.10835792 36.5655151,6.08951746 C36.5471215,6.070677 36.5367841,6.04509435 36.5367842,6.0184152 L36.5367842,4.39543652 C36.5367842,4.33973325 36.5805843,4.29475221 36.6348252,4.29475221 L39.6015212,4.29475221 C39.777995,4.29475221 39.9351153,4.16503945 39.9577793,3.98511529 C39.9708181,3.88330872 39.9405361,3.78066632 39.8746697,3.70341091 C39.8088032,3.62615549 39.7137319,3.58176985 39.6137445,3.58159351 L36.1576074,3.58159351 C35.9564323,3.58159351 35.7865794,3.75994857 35.7865794,3.97073181 L35.7865794,9.02874515 C35.7865794,9.23978991 35.9564323,9.41814497 36.1576074,9.41814497 L39.6532155,9.41814497 C39.8594836,9.41814497 40.0244981,9.23194438 39.9969957,9.0146232 C39.974841,8.83496055 39.8174661,8.70498627 39.6409922,8.70498627 L39.6412469,8.70498627 Z" id="Shape" fill="#FCF5E9" fill-rule="nonzero"></path>
                <g id="Group">
                    <g id="Clipped">
                        <polygon id="a" points="0.000255319149 0.05 11.9489362 0.05 11.9489362 11.75 0.000255319149 11.75"></polygon>
                        <path d="M10.7157447,4.3765 L10.0582979,4.3765 C9.97008891,4.37656634 9.88546957,4.34230197 9.82307246,4.28125169 C9.76067534,4.22020141 9.725617,4.1373713 9.72561702,4.051 L9.72561702,2.646 C9.72568476,2.53125056 9.67917833,2.42117825 9.59633577,2.34001469 C9.51349321,2.25885113 9.40110583,2.21324998 9.28391489,2.21325 L4.85770213,2.21325 C4.61375678,2.21325 4.416,2.40688685 4.416,2.64575 L4.416,6.2175 C4.416,6.39561183 4.26853974,6.54 4.0866383,6.54 L3.42919149,6.54 C3.24729004,6.54 3.09982979,6.39561183 3.09982979,6.2175 L3.09982979,1.2425 C3.09982979,1.063 3.24893617,0.91725 3.43225532,0.91725 L10.7190638,0.91725 C10.9008511,0.91725 11.0484255,1.0615 11.0484255,1.23975 L11.0484255,4.05125 C11.0484255,4.231 10.8993191,4.37675 10.7157447,4.37675 M8.50519149,4.37675 L7.07591489,4.37675 C6.82595745,4.37675 6.62987234,4.56025 6.62987234,4.82825 L6.62987234,8.38075 C6.62987234,8.55886183 6.48241208,8.70325 6.30051064,8.70325 L3.4212766,8.70325 C3.23937515,8.70325 3.09191489,8.55886183 3.09191489,8.38075 L3.09523404,7.7275 C3.09523404,7.5495 3.24255319,7.405 3.42434043,7.405 L4.85923404,7.405 C5.10331915,7.405 5.30144681,7.2115 5.30144681,6.9725 L5.30144681,3.404 C5.30144681,3.224 5.45004255,3.0785 5.63387234,3.0785 L8.5067234,3.0785 C8.69004255,3.0785 8.83914894,3.22425 8.83914894,3.404 L8.83761702,4.051 C8.83761702,4.23075 8.68876596,4.3765 8.50519149,4.3765 M8.50570213,10.866 L1.21710638,10.866 C1.03375356,10.865862 0.885191489,10.720283 0.885191489,10.54075 L0.885191489,7.7305 C0.885191489,7.5505 1.03378723,7.405 1.21710638,7.405 L1.86714894,7.405 C2.08034043,7.405 2.21438298,7.5645 2.21438298,7.751 L2.21106383,9.1395 C2.21106383,9.35775 2.4012766,9.57025 2.65710638,9.57025 L7.06187234,9.5685 C7.33506383,9.5685 7.51302128,9.351 7.51302128,9.0835 L7.51302128,5.564 C7.51302128,5.38588817 7.66048153,5.2415 7.84238298,5.2415 L8.51055319,5.2395 C8.69387234,5.2395 8.8427234,5.38525 8.8427234,5.565 L8.84068085,10.53325 C8.84068085,10.718 8.68876596,10.86575 8.50519149,10.86575 M11.507234,0.05 L2.65659574,0.05 C2.41276596,0.05 2.21489362,0.24375 2.21489362,0.4825 L2.21489362,6.21425 C2.21489362,6.394 2.06578723,6.53975 1.88221277,6.53975 L0.441957447,6.53975 C0.324766528,6.53968367 0.21235226,6.58522122 0.129461814,6.66633789 C0.0465713673,6.74745457 0,6.85750054 0,6.97225 L0,11.31175 C0,11.55075 0.197617021,11.75 0.441702128,11.75 L9.28034043,11.75 C9.52468085,11.75 9.72255319,11.5505 9.72255319,11.3115 L9.72255319,5.56325 C9.72255319,5.38325 9.87114894,5.23775 10.0547234,5.23775 L11.5069787,5.23775 C11.7510638,5.23775 11.9486811,5.044 11.9486811,4.805 L11.9486811,0.4825 C11.9489362,0.244 11.7513191,0.05 11.507234,0.05" id="Shape" fill="#FCF5E9" fill-rule="nonzero"></path>
                    </g>
                </g>
            </g>
        </g>
    </g>
</svg>